<?xml version="1.0" encoding="UTF-8" standalone="no"?><svg xmlns="http://www.w3.org/2000/svg" xmlns:xlink="http://www.w3.org/1999/xlink" clip-rule="evenodd" stroke-miterlimit="10" viewBox="0 0 1024 768"><desc>SVG generated by Keynote</desc><defs></defs><g transform="matrix(1.00, 0.00, -0.00, -1.00, 0.0, 768.0)"><path d="M 0.0 768.0 L 1024.0 768.0 L 1024.0 0.0 L 0.0 0.0 Z M 0.0 768.0 " fill="#000000"></path><text xml:space="preserve" font-family="Helvetica-Light,Helvetica" font-size="80.0" fill="#FEFFFF" transform="matrix(1.00, 0.00, -0.00, -1.00, 231.8, 633.4)">T</text><text xml:space="preserve" font-family="Helvetica-Light,Helvetica" font-size="80.0" fill="#FEFFFF" transform="matrix(1.00, 0.00, -0.00, -1.00, 276.3, 633.4)">h</text><text xml:space="preserve" font-family="Helvetica-Light,Helvetica" font-size="80.0" fill="#FEFFFF" transform="matrix(1.00, 0.00, -0.00, -1.00, 320.8, 633.4)">e</text><text xml:space="preserve" font-family="Helvetica-Light,Helvetica" font-size="80.0" fill="#FEFFFF" transform="matrix(1.00, 0.00, -0.00, -1.00, 365.3, 633.4)"> </text><text xml:space="preserve" font-family="Helvetica-Light,Helvetica" font-size="80.0" fill="#FEFFFF" transform="matrix(1.00, 0.00, -0.00, -1.00, 387.5, 633.4)">E</text><text xml:space="preserve" font-family="Helvetica-Light,Helvetica" font-size="80.0" fill="#FEFFFF" transform="matrix(1.00, 0.00, -0.00, -1.00, 436.4, 633.4)">v</text><text xml:space="preserve" font-family="Helvetica-Light,Helvetica" font-size="80.0" fill="#FEFFFF" transform="matrix(1.00, 0.00, -0.00, -1.00, 476.4, 633.4)">e</text><text xml:space="preserve" font-family="Helvetica-Light,Helvetica" font-size="80.0" fill="#FEFFFF" transform="matrix(1.00, 0.00, -0.00, -1.00, 520.9, 633.4)">n</text><text xml:space="preserve" font-family="Helvetica-Light,Helvetica" font-size="80.0" fill="#FEFFFF" transform="matrix(1.00, 0.00, -0.00, -1.00, 565.4, 633.4)">t</text><text xml:space="preserve" font-family="Helvetica-Light,Helvetica" font-size="80.0" fill="#FEFFFF" transform="matrix(1.00, 0.00, -0.00, -1.00, 587.6, 633.4)"> </text><text xml:space="preserve" font-family="Helvetica-Light,Helvetica" font-size="80.0" fill="#FEFFFF" transform="matrix(1.00, 0.00, -0.00, -1.00, 609.8, 633.4)">L</text><text xml:space="preserve" font-family="Helvetica-Light,Helvetica" font-size="80.0" fill="#FEFFFF" transform="matrix(1.00, 0.00, -0.00, -1.00, 654.3, 633.4)">o</text><text xml:space="preserve" font-family="Helvetica-Light,Helvetica" font-size="80.0" fill="#FEFFFF" transform="matrix(1.00, 0.00, -0.00, -1.00, 698.8, 633.4)">o</text><text xml:space="preserve" font-family="Helvetica-Light,Helvetica" font-size="80.0" fill="#FEFFFF" transform="matrix(1.00, 0.00, -0.00, -1.00, 743.3, 633.4)">p</text><text xml:space="preserve" font-family="Helvetica-Light,Helvetica" font-size="31.0" fill="#FEFFFF" transform="matrix(1.00, 0.00, -0.00, -1.00, 79.1, 560.1)">A</text><text xml:space="preserve" font-family="Helvetica-Light,Helvetica" font-size="31.0" fill="#FEFFFF" transform="matrix(1.00, 0.00, -0.00, -1.00, 99.8, 560.1)"> </text><text xml:space="preserve" font-family="Helvetica-Light,Helvetica" font-size="31.0" fill="#FEFFFF" transform="matrix(1.00, 0.00, -0.00, -1.00, 108.4, 560.1)">p</text><text xml:space="preserve" font-family="Helvetica-Light,Helvetica" font-size="31.0" fill="#FEFFFF" transform="matrix(1.00, 0.00, -0.00, -1.00, 127.4, 560.1)">h</text><text xml:space="preserve" font-family="Helvetica-Light,Helvetica" font-size="31.0" fill="#FEFFFF" transform="matrix(1.00, 0.00, -0.00, -1.00, 144.6, 560.1)">a</text><text xml:space="preserve" font-family="Helvetica-Light,Helvetica" font-size="31.0" fill="#FEFFFF" transform="matrix(1.00, 0.00, -0.00, -1.00, 161.8, 560.1)">s</text><text xml:space="preserve" font-family="Helvetica-Light,Helvetica" font-size="31.0" fill="#FEFFFF" transform="matrix(1.00, 0.00, -0.00, -1.00, 177.3, 560.1)">e</text><text xml:space="preserve" font-family="Helvetica-Light,Helvetica" font-size="31.0" fill="#FEFFFF" transform="matrix(1.00, 0.00, -0.00, -1.00, 194.6, 560.1)"> </text><text xml:space="preserve" font-family="Helvetica-Light,Helvetica" font-size="31.0" fill="#FEFFFF" transform="matrix(1.00, 0.00, -0.00, -1.00, 203.2, 560.1)">i</text><text xml:space="preserve" font-family="Helvetica-Light,Helvetica" font-size="31.0" fill="#FEFFFF" transform="matrix(1.00, 0.00, -0.00, -1.00, 210.1, 560.1)">n</text><text xml:space="preserve" font-family="Helvetica-Light,Helvetica" font-size="31.0" fill="#FEFFFF" transform="matrix(1.00, 0.00, -0.00, -1.00, 227.3, 560.1)"> </text><text xml:space="preserve" font-family="Helvetica-Light,Helvetica" font-size="31.0" fill="#FEFFFF" transform="matrix(1.00, 0.00, -0.00, -1.00, 235.9, 560.1)">t</text><text xml:space="preserve" font-family="Helvetica-Light,Helvetica" font-size="31.0" fill="#FEFFFF" transform="matrix(1.00, 0.00, -0.00, -1.00, 244.5, 560.1)">h</text><text xml:space="preserve" font-family="Helvetica-Light,Helvetica" font-size="31.0" fill="#FEFFFF" transform="matrix(1.00, 0.00, -0.00, -1.00, 261.8, 560.1)">e</text><text xml:space="preserve" font-family="Helvetica-Light,Helvetica" font-size="31.0" fill="#FEFFFF" transform="matrix(1.00, 0.00, -0.00, -1.00, 279.0, 560.1)"> </text><text xml:space="preserve" font-family="Helvetica-Light,Helvetica" font-size="31.0" fill="#FEFFFF" transform="matrix(1.00, 0.00, -0.00, -1.00, 287.6, 560.1)">e</text><text xml:space="preserve" font-family="Helvetica-Light,Helvetica" font-size="31.0" fill="#FEFFFF" transform="matrix(1.00, 0.00, -0.00, -1.00, 304.9, 560.1)">v</text><text xml:space="preserve" font-family="Helvetica-Light,Helvetica" font-size="31.0" fill="#FEFFFF" transform="matrix(1.00, 0.00, -0.00, -1.00, 320.4, 560.1)">e</text><text xml:space="preserve" font-family="Helvetica-Light,Helvetica" font-size="31.0" fill="#FEFFFF" transform="matrix(1.00, 0.00, -0.00, -1.00, 337.6, 560.1)">n</text><text xml:space="preserve" font-family="Helvetica-Light,Helvetica" font-size="31.0" fill="#FEFFFF" transform="matrix(1.00, 0.00, -0.00, -1.00, 354.8, 560.1)">t</text><text xml:space="preserve" font-family="Helvetica-Light,Helvetica" font-size="31.0" fill="#FEFFFF" transform="matrix(1.00, 0.00, -0.00, -1.00, 363.5, 560.1)"> </text><text xml:space="preserve" font-family="Helvetica-Light,Helvetica" font-size="31.0" fill="#FEFFFF" transform="matrix(1.00, 0.00, -0.00, -1.00, 372.1, 560.1)">l</text><text xml:space="preserve" font-family="Helvetica-Light,Helvetica" font-size="31.0" fill="#FEFFFF" transform="matrix(1.00, 0.00, -0.00, -1.00, 379.0, 560.1)">o</text><text xml:space="preserve" font-family="Helvetica-Light,Helvetica" font-size="31.0" fill="#FEFFFF" transform="matrix(1.00, 0.00, -0.00, -1.00, 396.2, 560.1)">o</text><text xml:space="preserve" font-family="Helvetica-Light,Helvetica" font-size="31.0" fill="#FEFFFF" transform="matrix(1.00, 0.00, -0.00, -1.00, 413.4, 560.1)">p</text><text xml:space="preserve" font-family="Helvetica-Light,Helvetica" font-size="31.0" fill="#FEFFFF" transform="matrix(1.00, 0.00, -0.00, -1.00, 432.4, 560.1)"> </text><text xml:space="preserve" font-family="Helvetica-Light,Helvetica" font-size="31.0" fill="#FEFFFF" transform="matrix(1.00, 0.00, -0.00, -1.00, 441.0, 560.1)">i</text><text xml:space="preserve" font-family="Helvetica-Light,Helvetica" font-size="31.0" fill="#FEFFFF" transform="matrix(1.00, 0.00, -0.00, -1.00, 447.9, 560.1)">s</text><text xml:space="preserve" font-family="Helvetica-Light,Helvetica" font-size="31.0" fill="#FEFFFF" transform="matrix(1.00, 0.00, -0.00, -1.00, 463.4, 560.1)"> </text><text xml:space="preserve" font-family="Helvetica-Light,Helvetica" font-size="31.0" fill="#FEFFFF" transform="matrix(1.00, 0.00, -0.00, -1.00, 472.0, 560.1)">a</text><text xml:space="preserve" font-family="Helvetica-Light,Helvetica" font-size="31.0" fill="#FEFFFF" transform="matrix(1.00, 0.00, -0.00, -1.00, 489.2, 560.1)"> </text><text xml:space="preserve" font-family="Helvetica-Light,Helvetica" font-size="31.0" fill="#FEFFFF" transform="matrix(1.00, 0.00, -0.00, -1.00, 497.8, 560.1)">g</text><text xml:space="preserve" font-family="Helvetica-Light,Helvetica" font-size="31.0" fill="#FEFFFF" transform="matrix(1.00, 0.00, -0.00, -1.00, 516.8, 560.1)">r</text><text xml:space="preserve" font-family="Helvetica-Light,Helvetica" font-size="31.0" fill="#FEFFFF" transform="matrix(1.00, 0.00, -0.00, -1.00, 526.6, 560.1)">o</text><text xml:space="preserve" font-family="Helvetica-Light,Helvetica" font-size="31.0" fill="#FEFFFF" transform="matrix(1.00, 0.00, -0.00, -1.00, 543.8, 560.1)">u</text><text xml:space="preserve" font-family="Helvetica-Light,Helvetica" font-size="31.0" fill="#FEFFFF" transform="matrix(1.00, 0.00, -0.00, -1.00, 561.0, 560.1)">p</text><text xml:space="preserve" font-family="Helvetica-Light,Helvetica" font-size="31.0" fill="#FEFFFF" transform="matrix(1.00, 0.00, -0.00, -1.00, 580.0, 560.1)"> </text><text xml:space="preserve" font-family="Helvetica-Light,Helvetica" font-size="31.0" fill="#FEFFFF" transform="matrix(1.00, 0.00, -0.00, -1.00, 588.6, 560.1)">o</text><text xml:space="preserve" font-family="Helvetica-Light,Helvetica" font-size="31.0" fill="#FEFFFF" transform="matrix(1.00, 0.00, -0.00, -1.00, 605.8, 560.1)">f</text><text xml:space="preserve" font-family="Helvetica-Light,Helvetica" font-size="31.0" fill="#FEFFFF" transform="matrix(1.00, 0.00, -0.00, -1.00, 614.4, 560.1)"> </text><text xml:space="preserve" font-family="Helvetica-Light,Helvetica" font-size="31.0" fill="#FEFFFF" transform="matrix(1.00, 0.00, -0.00, -1.00, 623.1, 560.1)">t</text><text xml:space="preserve" font-family="Helvetica-Light,Helvetica" font-size="31.0" fill="#FEFFFF" transform="matrix(1.00, 0.00, -0.00, -1.00, 631.7, 560.1)">a</text><text xml:space="preserve" font-family="Helvetica-Light,Helvetica" font-size="31.0" fill="#FEFFFF" transform="matrix(1.00, 0.00, -0.00, -1.00, 648.9, 560.1)">s</text><text xml:space="preserve" font-family="Helvetica-Light,Helvetica" font-size="31.0" fill="#FEFFFF" transform="matrix(1.00, 0.00, -0.00, -1.00, 664.4, 560.1)">k</text><text xml:space="preserve" font-family="Helvetica-Light,Helvetica" font-size="31.0" fill="#FEFFFF" transform="matrix(1.00, 0.00, -0.00, -1.00, 679.9, 560.1)">s</text><text xml:space="preserve" font-family="Helvetica-Light,Helvetica" font-size="31.0" fill="#FEFFFF" transform="matrix(1.00, 0.00, -0.00, -1.00, 695.4, 560.1)">/</text><text xml:space="preserve" font-family="Helvetica-Light,Helvetica" font-size="31.0" fill="#FEFFFF" transform="matrix(1.00, 0.00, -0.00, -1.00, 704.0, 560.1)">f</text><text xml:space="preserve" font-family="Helvetica-Light,Helvetica" font-size="31.0" fill="#FEFFFF" transform="matrix(1.00, 0.00, -0.00, -1.00, 712.6, 560.1)">u</text><text xml:space="preserve" font-family="Helvetica-Light,Helvetica" font-size="31.0" fill="#FEFFFF" transform="matrix(1.00, 0.00, -0.00, -1.00, 729.9, 560.1)">n</text><text xml:space="preserve" font-family="Helvetica-Light,Helvetica" font-size="31.0" fill="#FEFFFF" transform="matrix(1.00, 0.00, -0.00, -1.00, 747.1, 560.1)">c</text><text xml:space="preserve" font-family="Helvetica-Light,Helvetica" font-size="31.0" fill="#FEFFFF" transform="matrix(1.00, 0.00, -0.00, -1.00, 764.4, 560.1)">t</text><text xml:space="preserve" font-family="Helvetica-Light,Helvetica" font-size="31.0" fill="#FEFFFF" transform="matrix(1.00, 0.00, -0.00, -1.00, 773.0, 560.1)">i</text><text xml:space="preserve" font-family="Helvetica-Light,Helvetica" font-size="31.0" fill="#FEFFFF" transform="matrix(1.00, 0.00, -0.00, -1.00, 779.9, 560.1)">o</text><text xml:space="preserve" font-family="Helvetica-Light,Helvetica" font-size="31.0" fill="#FEFFFF" transform="matrix(1.00, 0.00, -0.00, -1.00, 797.1, 560.1)">n</text><text xml:space="preserve" font-family="Helvetica-Light,Helvetica" font-size="31.0" fill="#FEFFFF" transform="matrix(1.00, 0.00, -0.00, -1.00, 814.3, 560.1)">s</text><text xml:space="preserve" font-family="Helvetica-Light,Helvetica" font-size="31.0" fill="#FEFFFF" transform="matrix(1.00, 0.00, -0.00, -1.00, 829.8, 560.1)">/</text><text xml:space="preserve" font-family="Helvetica-Light,Helvetica" font-size="31.0" fill="#FEFFFF" transform="matrix(1.00, 0.00, -0.00, -1.00, 838.4, 560.1)">c</text><text xml:space="preserve" font-family="Helvetica-Light,Helvetica" font-size="31.0" fill="#FEFFFF" transform="matrix(1.00, 0.00, -0.00, -1.00, 855.7, 560.1)">o</text><text xml:space="preserve" font-family="Helvetica-Light,Helvetica" font-size="31.0" fill="#FEFFFF" transform="matrix(1.00, 0.00, -0.00, -1.00, 872.9, 560.1)">d</text><text xml:space="preserve" font-family="Helvetica-Light,Helvetica" font-size="31.0" fill="#FEFFFF" transform="matrix(1.00, 0.00, -0.00, -1.00, 891.9, 560.1)">e</text><text xml:space="preserve" font-family="Helvetica-Light,Helvetica" font-size="31.0" fill="#FEFFFF" transform="matrix(1.00, 0.00, -0.00, -1.00, 909.1, 560.1)"> </text><text xml:space="preserve" font-family="Helvetica-Light,Helvetica" font-size="31.0" fill="#FEFFFF" transform="matrix(1.00, 0.00, -0.00, -1.00, 917.7, 560.1)">t</text><text xml:space="preserve" font-family="Helvetica-Light,Helvetica" font-size="31.0" fill="#FEFFFF" transform="matrix(1.00, 0.00, -0.00, -1.00, 926.3, 560.1)">o</text><text xml:space="preserve" font-family="Helvetica-Light,Helvetica" font-size="31.0" fill="#FEFFFF" transform="matrix(1.00, 0.00, -0.00, -1.00, 943.6, 560.1)"> </text><text xml:space="preserve" font-family="Helvetica-Light,Helvetica" font-size="31.0" fill="#FEFFFF" transform="matrix(1.00, 0.00, -0.00, -1.00, 79.1, 523.1)">b</text><text xml:space="preserve" font-family="Helvetica-Light,Helvetica" font-size="31.0" fill="#FEFFFF" transform="matrix(1.00, 0.00, -0.00, -1.00, 98.1, 523.1)">e</text><text xml:space="preserve" font-family="Helvetica-Light,Helvetica" font-size="31.0" fill="#FEFFFF" transform="matrix(1.00, 0.00, -0.00, -1.00, 115.3, 523.1)"> </text><text xml:space="preserve" font-family="Helvetica-Light,Helvetica" font-size="31.0" fill="#FEFFFF" transform="matrix(1.00, 0.00, -0.00, -1.00, 123.9, 523.1)">e</text><text xml:space="preserve" font-family="Helvetica-Light,Helvetica" font-size="31.0" fill="#FEFFFF" transform="matrix(1.00, 0.00, -0.00, -1.00, 141.2, 523.1)">x</text><text xml:space="preserve" font-family="Helvetica-Light,Helvetica" font-size="31.0" fill="#FEFFFF" transform="matrix(1.00, 0.00, -0.00, -1.00, 156.7, 523.1)">e</text><text xml:space="preserve" font-family="Helvetica-Light,Helvetica" font-size="31.0" fill="#FEFFFF" transform="matrix(1.00, 0.00, -0.00, -1.00, 173.9, 523.1)">c</text><text xml:space="preserve" font-family="Helvetica-Light,Helvetica" font-size="31.0" fill="#FEFFFF" transform="matrix(1.00, 0.00, -0.00, -1.00, 191.1, 523.1)">u</text><text xml:space="preserve" font-family="Helvetica-Light,Helvetica" font-size="31.0" fill="#FEFFFF" transform="matrix(1.00, 0.00, -0.00, -1.00, 208.4, 523.1)">t</text><text xml:space="preserve" font-family="Helvetica-Light,Helvetica" font-size="31.0" fill="#FEFFFF" transform="matrix(1.00, 0.00, -0.00, -1.00, 217.0, 523.1)">e</text><text xml:space="preserve" font-family="Helvetica-Light,Helvetica" font-size="31.0" fill="#FEFFFF" transform="matrix(1.00, 0.00, -0.00, -1.00, 234.2, 523.1)">d</text><text xml:space="preserve" font-family="Helvetica-Light,Helvetica" font-size="31.0" fill="#FEFFFF" transform="matrix(1.00, 0.00, -0.00, -1.00, 253.2, 523.1)">.</text><text xml:space="preserve" font-family="Helvetica-Light,Helvetica" font-size="31.0" fill="#FEFFFF" transform="matrix(1.00, 0.00, -0.00, -1.00, 261.8, 523.1)"> </text><text xml:space="preserve" font-family="Helvetica-Light,Helvetica" font-size="31.0" fill="#FEFFFF" transform="matrix(1.00, 0.00, -0.00, -1.00, 79.1, 449.1)">T</text><text xml:space="preserve" font-family="Helvetica-Light,Helvetica" font-size="31.0" fill="#FEFFFF" transform="matrix(1.00, 0.00, -0.00, -1.00, 96.4, 449.1)">h</text><text xml:space="preserve" font-family="Helvetica-Light,Helvetica" font-size="31.0" fill="#FEFFFF" transform="matrix(1.00, 0.00, -0.00, -1.00, 113.6, 449.1)">e</text><text xml:space="preserve" font-family="Helvetica-Light,Helvetica" font-size="31.0" fill="#FEFFFF" transform="matrix(1.00, 0.00, -0.00, -1.00, 130.8, 449.1)"> </text><text xml:space="preserve" font-family="Helvetica-Light,Helvetica" font-size="31.0" fill="#FEFFFF" transform="matrix(1.00, 0.00, -0.00, -1.00, 139.5, 449.1)">e</text><text xml:space="preserve" font-family="Helvetica-Light,Helvetica" font-size="31.0" fill="#FEFFFF" transform="matrix(1.00, 0.00, -0.00, -1.00, 156.7, 449.1)">v</text><text xml:space="preserve" font-family="Helvetica-Light,Helvetica" font-size="31.0" fill="#FEFFFF" transform="matrix(1.00, 0.00, -0.00, -1.00, 172.2, 449.1)">e</text><text xml:space="preserve" font-family="Helvetica-Light,Helvetica" font-size="31.0" fill="#FEFFFF" transform="matrix(1.00, 0.00, -0.00, -1.00, 189.4, 449.1)">n</text><text xml:space="preserve" font-family="Helvetica-Light,Helvetica" font-size="31.0" fill="#FEFFFF" transform="matrix(1.00, 0.00, -0.00, -1.00, 206.7, 449.1)">t</text><text xml:space="preserve" font-family="Helvetica-Light,Helvetica" font-size="31.0" fill="#FEFFFF" transform="matrix(1.00, 0.00, -0.00, -1.00, 215.3, 449.1)"> </text><text xml:space="preserve" font-family="Helvetica-Light,Helvetica" font-size="31.0" fill="#FEFFFF" transform="matrix(1.00, 0.00, -0.00, -1.00, 223.9, 449.1)">l</text><text xml:space="preserve" font-family="Helvetica-Light,Helvetica" font-size="31.0" fill="#FEFFFF" transform="matrix(1.00, 0.00, -0.00, -1.00, 230.8, 449.1)">o</text><text xml:space="preserve" font-family="Helvetica-Light,Helvetica" font-size="31.0" fill="#FEFFFF" transform="matrix(1.00, 0.00, -0.00, -1.00, 248.0, 449.1)">o</text><text xml:space="preserve" font-family="Helvetica-Light,Helvetica" font-size="31.0" fill="#FEFFFF" transform="matrix(1.00, 0.00, -0.00, -1.00, 265.3, 449.1)">p</text><text xml:space="preserve" font-family="Helvetica-Light,Helvetica" font-size="31.0" fill="#FEFFFF" transform="matrix(1.00, 0.00, -0.00, -1.00, 284.2, 449.1)"> </text><text xml:space="preserve" font-family="Helvetica-Light,Helvetica" font-size="31.0" fill="#FEFFFF" transform="matrix(1.00, 0.00, -0.00, -1.00, 292.8, 449.1)">i</text><text xml:space="preserve" font-family="Helvetica-Light,Helvetica" font-size="31.0" fill="#FEFFFF" transform="matrix(1.00, 0.00, -0.00, -1.00, 299.7, 449.1)">n</text><text xml:space="preserve" font-family="Helvetica-Light,Helvetica" font-size="31.0" fill="#FEFFFF" transform="matrix(1.00, 0.00, -0.00, -1.00, 316.9, 449.1)">d</text><text xml:space="preserve" font-family="Helvetica-Light,Helvetica" font-size="31.0" fill="#FEFFFF" transform="matrix(1.00, 0.00, -0.00, -1.00, 335.9, 449.1)">e</text><text xml:space="preserve" font-family="Helvetica-Light,Helvetica" font-size="31.0" fill="#FEFFFF" transform="matrix(1.00, 0.00, -0.00, -1.00, 353.1, 449.1)">ï¬</text><text xml:space="preserve" font-family="Helvetica-Light,Helvetica" font-size="31.0" fill="#FEFFFF" transform="matrix(1.00, 0.00, -0.00, -1.00, 368.6, 449.1)">n</text><text xml:space="preserve" font-family="Helvetica-Light,Helvetica" font-size="31.0" fill="#FEFFFF" transform="matrix(1.00, 0.00, -0.00, -1.00, 385.8, 449.1)">i</text><text xml:space="preserve" font-family="Helvetica-Light,Helvetica" font-size="31.0" fill="#FEFFFF" transform="matrix(1.00, 0.00, -0.00, -1.00, 392.7, 449.1)">t</text><text xml:space="preserve" font-family="Helvetica-Light,Helvetica" font-size="31.0" fill="#FEFFFF" transform="matrix(1.00, 0.00, -0.00, -1.00, 401.3, 449.1)">e</text><text xml:space="preserve" font-family="Helvetica-Light,Helvetica" font-size="31.0" fill="#FEFFFF" transform="matrix(1.00, 0.00, -0.00, -1.00, 418.6, 449.1)">l</text><text xml:space="preserve" font-family="Helvetica-Light,Helvetica" font-size="31.0" fill="#FEFFFF" transform="matrix(1.00, 0.00, -0.00, -1.00, 425.5, 449.1)">y</text><text xml:space="preserve" font-family="Helvetica-Light,Helvetica" font-size="31.0" fill="#FEFFFF" transform="matrix(1.00, 0.00, -0.00, -1.00, 441.0, 449.1)"> </text><text xml:space="preserve" font-family="Helvetica-Light,Helvetica" font-size="31.0" fill="#FEFFFF" transform="matrix(1.00, 0.00, -0.00, -1.00, 449.6, 449.1)">e</text><text xml:space="preserve" font-family="Helvetica-Light,Helvetica" font-size="31.0" fill="#FEFFFF" transform="matrix(1.00, 0.00, -0.00, -1.00, 466.8, 449.1)">x</text><text xml:space="preserve" font-family="Helvetica-Light,Helvetica" font-size="31.0" fill="#FEFFFF" transform="matrix(1.00, 0.00, -0.00, -1.00, 482.3, 449.1)">e</text><text xml:space="preserve" font-family="Helvetica-Light,Helvetica" font-size="31.0" fill="#FEFFFF" transform="matrix(1.00, 0.00, -0.00, -1.00, 499.6, 449.1)">c</text><text xml:space="preserve" font-family="Helvetica-Light,Helvetica" font-size="31.0" fill="#FEFFFF" transform="matrix(1.00, 0.00, -0.00, -1.00, 516.8, 449.1)">u</text><text xml:space="preserve" font-family="Helvetica-Light,Helvetica" font-size="31.0" fill="#FEFFFF" transform="matrix(1.00, 0.00, -0.00, -1.00, 534.0, 449.1)">t</text><text xml:space="preserve" font-family="Helvetica-Light,Helvetica" font-size="31.0" fill="#FEFFFF" transform="matrix(1.00, 0.00, -0.00, -1.00, 542.6, 449.1)">e</text><text xml:space="preserve" font-family="Helvetica-Light,Helvetica" font-size="31.0" fill="#FEFFFF" transform="matrix(1.00, 0.00, -0.00, -1.00, 559.9, 449.1)">s</text><text xml:space="preserve" font-family="Helvetica-Light,Helvetica" font-size="31.0" fill="#FEFFFF" transform="matrix(1.00, 0.00, -0.00, -1.00, 575.4, 449.1)"> </text><text xml:space="preserve" font-family="Helvetica-Light,Helvetica" font-size="31.0" fill="#FEFFFF" transform="matrix(1.00, 0.00, -0.00, -1.00, 584.0, 449.1)">p</text><text xml:space="preserve" font-family="Helvetica-Light,Helvetica" font-size="31.0" fill="#FEFFFF" transform="matrix(1.00, 0.00, -0.00, -1.00, 602.9, 449.1)">h</text><text xml:space="preserve" font-family="Helvetica-Light,Helvetica" font-size="31.0" fill="#FEFFFF" transform="matrix(1.00, 0.00, -0.00, -1.00, 620.2, 449.1)">a</text><text xml:space="preserve" font-family="Helvetica-Light,Helvetica" font-size="31.0" fill="#FEFFFF" transform="matrix(1.00, 0.00, -0.00, -1.00, 637.4, 449.1)">s</text><text xml:space="preserve" font-family="Helvetica-Light,Helvetica" font-size="31.0" fill="#FEFFFF" transform="matrix(1.00, 0.00, -0.00, -1.00, 652.9, 449.1)">e</text><text xml:space="preserve" font-family="Helvetica-Light,Helvetica" font-size="31.0" fill="#FEFFFF" transform="matrix(1.00, 0.00, -0.00, -1.00, 670.1, 449.1)">s</text><text xml:space="preserve" font-family="Helvetica-Light,Helvetica" font-size="31.0" fill="#FEFFFF" transform="matrix(1.00, 0.00, -0.00, -1.00, 685.6, 449.1)">.</text><image xlink:href="../../C8ABB5AB-A75B-4BFA-AFD2-AF40322A7C73/assets/3EEA18EC4B1ADECF8E909843FD922249.png" width="1040.00" height="438.00" transform="matrix(0.60, 0.00, -0.00, -0.60, 200.0, 422.0)"></image><text xml:space="preserve" font-family="Helvetica-Light,Helvetica" font-size="25.0" fill="#FEFFFF" transform="matrix(1.00, 0.00, -0.00, -1.00, 93.6, 71.7)">S</text><text xml:space="preserve" font-family="Helvetica-Light,Helvetica" font-size="25.0" fill="#FEFFFF" transform="matrix(1.00, 0.00, -0.00, -1.00, 108.8, 71.7)">o</text><text xml:space="preserve" font-family="Helvetica-Light,Helvetica" font-size="25.0" fill="#FEFFFF" transform="matrix(1.00, 0.00, -0.00, -1.00, 122.7, 71.7)">u</text><text xml:space="preserve" font-family="Helvetica-Light,Helvetica" font-size="25.0" fill="#FEFFFF" transform="matrix(1.00, 0.00, -0.00, -1.00, 136.6, 71.7)">r</text><text xml:space="preserve" font-family="Helvetica-Light,Helvetica" font-size="25.0" fill="#FEFFFF" transform="matrix(1.00, 0.00, -0.00, -1.00, 144.5, 71.7)">c</text><text xml:space="preserve" font-family="Helvetica-Light,Helvetica" font-size="25.0" fill="#FEFFFF" transform="matrix(1.00, 0.00, -0.00, -1.00, 158.4, 71.7)">e</text><text xml:space="preserve" font-family="Helvetica-Light,Helvetica" font-size="25.0" fill="#FEFFFF" transform="matrix(1.00, 0.00, -0.00, -1.00, 172.3, 71.7)">:</text><text xml:space="preserve" font-family="Helvetica-Light,Helvetica" font-size="25.0" fill="#FEFFFF" transform="matrix(1.00, 0.00, -0.00, -1.00, 179.3, 71.7)"> </text><text xml:space="preserve" font-family="Helvetica-Light,Helvetica" font-size="25.0" fill="#FEFFFF" transform="matrix(1.00, 0.00, -0.00, -1.00, 186.2, 71.7)">h</text><text xml:space="preserve" font-family="Helvetica-Light,Helvetica" font-size="25.0" fill="#FEFFFF" transform="matrix(1.00, 0.00, -0.00, -1.00, 200.1, 71.7)">t</text><text xml:space="preserve" font-family="Helvetica-Light,Helvetica" font-size="25.0" fill="#FEFFFF" transform="matrix(1.00, 0.00, -0.00, -1.00, 207.1, 71.7)">t</text><text xml:space="preserve" font-family="Helvetica-Light,Helvetica" font-size="25.0" fill="#FEFFFF" transform="matrix(1.00, 0.00, -0.00, -1.00, 214.0, 71.7)">p</text><text xml:space="preserve" font-family="Helvetica-Light,Helvetica" font-size="25.0" fill="#FEFFFF" transform="matrix(1.00, 0.00, -0.00, -1.00, 229.3, 71.7)">s</text><text xml:space="preserve" font-family="Helvetica-Light,Helvetica" font-size="25.0" fill="#FEFFFF" transform="matrix(1.00, 0.00, -0.00, -1.00, 241.8, 71.7)">:</text><text xml:space="preserve" font-family="Helvetica-Light,Helvetica" font-size="25.0" fill="#FEFFFF" transform="matrix(1.00, 0.00, -0.00, -1.00, 248.7, 71.7)">/</text><text xml:space="preserve" font-family="Helvetica-Light,Helvetica" font-size="25.0" fill="#FEFFFF" transform="matrix(1.00, 0.00, -0.00, -1.00, 255.7, 71.7)">/</text><text xml:space="preserve" font-family="Helvetica-Light,Helvetica" font-size="25.0" fill="#FEFFFF" transform="matrix(1.00, 0.00, -0.00, -1.00, 262.6, 71.7)">n</text><text xml:space="preserve" font-family="Helvetica-Light,Helvetica" font-size="25.0" fill="#FEFFFF" transform="matrix(1.00, 0.00, -0.00, -1.00, 276.5, 71.7)">o</text><text xml:space="preserve" font-family="Helvetica-Light,Helvetica" font-size="25.0" fill="#FEFFFF" transform="matrix(1.00, 0.00, -0.00, -1.00, 290.4, 71.7)">d</text><text xml:space="preserve" font-family="Helvetica-Light,Helvetica" font-size="25.0" fill="#FEFFFF" transform="matrix(1.00, 0.00, -0.00, -1.00, 305.7, 71.7)">e</text><text xml:space="preserve" font-family="Helvetica-Light,Helvetica" font-size="25.0" fill="#FEFFFF" transform="matrix(1.00, 0.00, -0.00, -1.00, 319.6, 71.7)">s</text><text xml:space="preserve" font-family="Helvetica-Light,Helvetica" font-size="25.0" fill="#FEFFFF" transform="matrix(1.00, 0.00, -0.00, -1.00, 332.1, 71.7)">o</text><text xml:space="preserve" font-family="Helvetica-Light,Helvetica" font-size="25.0" fill="#FEFFFF" transform="matrix(1.00, 0.00, -0.00, -1.00, 346.0, 71.7)">u</text><text xml:space="preserve" font-family="Helvetica-Light,Helvetica" font-size="25.0" fill="#FEFFFF" transform="matrix(1.00, 0.00, -0.00, -1.00, 359.9, 71.7)">r</text><text xml:space="preserve" font-family="Helvetica-Light,Helvetica" font-size="25.0" fill="#FEFFFF" transform="matrix(1.00, 0.00, -0.00, -1.00, 367.8, 71.7)">c</text><text xml:space="preserve" font-family="Helvetica-Light,Helvetica" font-size="25.0" fill="#FEFFFF" transform="matrix(1.00, 0.00, -0.00, -1.00, 381.7, 71.7)">e</text><text xml:space="preserve" font-family="Helvetica-Light,Helvetica" font-size="25.0" fill="#FEFFFF" transform="matrix(1.00, 0.00, -0.00, -1.00, 395.6, 71.7)">.</text><text xml:space="preserve" font-family="Helvetica-Light,Helvetica" font-size="25.0" fill="#FEFFFF" transform="matrix(1.00, 0.00, -0.00, -1.00, 402.5, 71.7)">c</text><text xml:space="preserve" font-family="Helvetica-Light,Helvetica" font-size="25.0" fill="#FEFFFF" transform="matrix(1.00, 0.00, -0.00, -1.00, 416.4, 71.7)">o</text><text xml:space="preserve" font-family="Helvetica-Light,Helvetica" font-size="25.0" fill="#FEFFFF" transform="matrix(1.00, 0.00, -0.00, -1.00, 430.3, 71.7)">m</text><text xml:space="preserve" font-family="Helvetica-Light,Helvetica" font-size="25.0" fill="#FEFFFF" transform="matrix(1.00, 0.00, -0.00, -1.00, 451.2, 71.7)">/</text><text xml:space="preserve" font-family="Helvetica-Light,Helvetica" font-size="25.0" fill="#FEFFFF" transform="matrix(1.00, 0.00, -0.00, -1.00, 458.1, 71.7)">b</text><text xml:space="preserve" font-family="Helvetica-Light,Helvetica" font-size="25.0" fill="#FEFFFF" transform="matrix(1.00, 0.00, -0.00, -1.00, 473.4, 71.7)">l</text><text xml:space="preserve" font-family="Helvetica-Light,Helvetica" font-size="25.0" fill="#FEFFFF" transform="matrix(1.00, 0.00, -0.00, -1.00, 478.9, 71.7)">o</text><text xml:space="preserve" font-family="Helvetica-Light,Helvetica" font-size="25.0" fill="#FEFFFF" transform="matrix(1.00, 0.00, -0.00, -1.00, 492.8, 71.7)">g</text><text xml:space="preserve" font-family="Helvetica-Light,Helvetica" font-size="25.0" fill="#FEFFFF" transform="matrix(1.00, 0.00, -0.00, -1.00, 508.1, 71.7)">/</text><text xml:space="preserve" font-family="Helvetica-Light,Helvetica" font-size="25.0" fill="#FEFFFF" transform="matrix(1.00, 0.00, -0.00, -1.00, 515.1, 71.7)">u</text><text xml:space="preserve" font-family="Helvetica-Light,Helvetica" font-size="25.0" fill="#FEFFFF" transform="matrix(1.00, 0.00, -0.00, -1.00, 529.0, 71.7)">n</text><text xml:space="preserve" font-family="Helvetica-Light,Helvetica" font-size="25.0" fill="#FEFFFF" transform="matrix(1.00, 0.00, -0.00, -1.00, 542.9, 71.7)">d</text><text xml:space="preserve" font-family="Helvetica-Light,Helvetica" font-size="25.0" fill="#FEFFFF" transform="matrix(1.00, 0.00, -0.00, -1.00, 558.1, 71.7)">e</text><text xml:space="preserve" font-family="Helvetica-Light,Helvetica" font-size="25.0" fill="#FEFFFF" transform="matrix(1.00, 0.00, -0.00, -1.00, 572.0, 71.7)">r</text><text xml:space="preserve" font-family="Helvetica-Light,Helvetica" font-size="25.0" fill="#FEFFFF" transform="matrix(1.00, 0.00, -0.00, -1.00, 580.4, 71.7)">s</text><text xml:space="preserve" font-family="Helvetica-Light,Helvetica" font-size="25.0" fill="#FEFFFF" transform="matrix(1.00, 0.00, -0.00, -1.00, 592.9, 71.7)">t</text><text xml:space="preserve" font-family="Helvetica-Light,Helvetica" font-size="25.0" fill="#FEFFFF" transform="matrix(1.00, 0.00, -0.00, -1.00, 599.8, 71.7)">a</text><text xml:space="preserve" font-family="Helvetica-Light,Helvetica" font-size="25.0" fill="#FEFFFF" transform="matrix(1.00, 0.00, -0.00, -1.00, 613.7, 71.7)">n</text><text xml:space="preserve" font-family="Helvetica-Light,Helvetica" font-size="25.0" fill="#FEFFFF" transform="matrix(1.00, 0.00, -0.00, -1.00, 627.6, 71.7)">d</text><text xml:space="preserve" font-family="Helvetica-Light,Helvetica" font-size="25.0" fill="#FEFFFF" transform="matrix(1.00, 0.00, -0.00, -1.00, 642.9, 71.7)">i</text><text xml:space="preserve" font-family="Helvetica-Light,Helvetica" font-size="25.0" fill="#FEFFFF" transform="matrix(1.00, 0.00, -0.00, -1.00, 648.4, 71.7)">n</text><text xml:space="preserve" font-family="Helvetica-Light,Helvetica" font-size="25.0" fill="#FEFFFF" transform="matrix(1.00, 0.00, -0.00, -1.00, 662.3, 71.7)">g</text><text xml:space="preserve" font-family="Helvetica-Light,Helvetica" font-size="25.0" fill="#FEFFFF" transform="matrix(1.00, 0.00, -0.00, -1.00, 677.6, 71.7)">-</text><text xml:space="preserve" font-family="Helvetica-Light,Helvetica" font-size="25.0" fill="#FEFFFF" transform="matrix(1.00, 0.00, -0.00, -1.00, 685.9, 71.7)">t</text><text xml:space="preserve" font-family="Helvetica-Light,Helvetica" font-size="25.0" fill="#FEFFFF" transform="matrix(1.00, 0.00, -0.00, -1.00, 692.9, 71.7)">h</text><text xml:space="preserve" font-family="Helvetica-Light,Helvetica" font-size="25.0" fill="#FEFFFF" transform="matrix(1.00, 0.00, -0.00, -1.00, 706.8, 71.7)">e</text><text xml:space="preserve" font-family="Helvetica-Light,Helvetica" font-size="25.0" fill="#FEFFFF" transform="matrix(1.00, 0.00, -0.00, -1.00, 720.7, 71.7)">-</text><text xml:space="preserve" font-family="Helvetica-Light,Helvetica" font-size="25.0" fill="#FEFFFF" transform="matrix(1.00, 0.00, -0.00, -1.00, 729.0, 71.7)">n</text><text xml:space="preserve" font-family="Helvetica-Light,Helvetica" font-size="25.0" fill="#FEFFFF" transform="matrix(1.00, 0.00, -0.00, -1.00, 742.9, 71.7)">o</text><text xml:space="preserve" font-family="Helvetica-Light,Helvetica" font-size="25.0" fill="#FEFFFF" transform="matrix(1.00, 0.00, -0.00, -1.00, 756.8, 71.7)">d</text><text xml:space="preserve" font-family="Helvetica-Light,Helvetica" font-size="25.0" fill="#FEFFFF" transform="matrix(1.00, 0.00, -0.00, -1.00, 772.1, 71.7)">e</text><text xml:space="preserve" font-family="Helvetica-Light,Helvetica" font-size="25.0" fill="#FEFFFF" transform="matrix(1.00, 0.00, -0.00, -1.00, 786.0, 71.7)">j</text><text xml:space="preserve" font-family="Helvetica-Light,Helvetica" font-size="25.0" fill="#FEFFFF" transform="matrix(1.00, 0.00, -0.00, -1.00, 791.5, 71.7)">s</text><text xml:space="preserve" font-family="Helvetica-Light,Helvetica" font-size="25.0" fill="#FEFFFF" transform="matrix(1.00, 0.00, -0.00, -1.00, 804.0, 71.7)">-</text><text xml:space="preserve" font-family="Helvetica-Light,Helvetica" font-size="25.0" fill="#FEFFFF" transform="matrix(1.00, 0.00, -0.00, -1.00, 812.4, 71.7)">e</text><text xml:space="preserve" font-family="Helvetica-Light,Helvetica" font-size="25.0" fill="#FEFFFF" transform="matrix(1.00, 0.00, -0.00, -1.00, 826.3, 71.7)">v</text><text xml:space="preserve" font-family="Helvetica-Light,Helvetica" font-size="25.0" fill="#FEFFFF" transform="matrix(1.00, 0.00, -0.00, -1.00, 838.8, 71.7)">e</text><text xml:space="preserve" font-family="Helvetica-Light,Helvetica" font-size="25.0" fill="#FEFFFF" transform="matrix(1.00, 0.00, -0.00, -1.00, 852.7, 71.7)">n</text><text xml:space="preserve" font-family="Helvetica-Light,Helvetica" font-size="25.0" fill="#FEFFFF" transform="matrix(1.00, 0.00, -0.00, -1.00, 866.6, 71.7)">t</text><text xml:space="preserve" font-family="Helvetica-Light,Helvetica" font-size="25.0" fill="#FEFFFF" transform="matrix(1.00, 0.00, -0.00, -1.00, 873.5, 71.7)">-</text><text xml:space="preserve" font-family="Helvetica-Light,Helvetica" font-size="25.0" fill="#FEFFFF" transform="matrix(1.00, 0.00, -0.00, -1.00, 881.8, 71.7)">l</text><text xml:space="preserve" font-family="Helvetica-Light,Helvetica" font-size="25.0" fill="#FEFFFF" transform="matrix(1.00, 0.00, -0.00, -1.00, 887.4, 71.7)">o</text><text xml:space="preserve" font-family="Helvetica-Light,Helvetica" font-size="25.0" fill="#FEFFFF" transform="matrix(1.00, 0.00, -0.00, -1.00, 901.3, 71.7)">o</text><text xml:space="preserve" font-family="Helvetica-Light,Helvetica" font-size="25.0" fill="#FEFFFF" transform="matrix(1.00, 0.00, -0.00, -1.00, 915.2, 71.7)">p</text><g><clipPath id="clip0x7ff171b45f30"><path d="M 185.2 68.2 L 930.5 68.2 L 930.5 71.5 L 185.2 71.5 Z M 185.2 68.2 "></path></clipPath><g clip-path="url(#clip0x7ff171b45f30)"><path d="M 97.2 30.1 L 841.4 30.1 " fill="none" stroke="#FEFFFF" stroke-width="1.25" transform="matrix(1.00, 0.00, 0.00, -1.00, 89.1, 100.0)"></path></g></g></g></svg>