<?xml version="1.0" encoding="UTF-8" standalone="no"?><svg xmlns="http://www.w3.org/2000/svg" xmlns:xlink="http://www.w3.org/1999/xlink" clip-rule="evenodd" stroke-miterlimit="10" viewBox="0 0 1024 768"><desc>SVG generated by Keynote</desc><defs></defs><g transform="matrix(1.00, 0.00, -0.00, -1.00, 0.0, 768.0)"><path d="M 0.0 768.0 L 1024.0 768.0 L 1024.0 0.0 L 0.0 0.0 Z M 0.0 768.0 " fill="#000000"></path><text xml:space="preserve" font-family="Helvetica-Light,Helvetica" font-size="80.0" fill="#FEFFFF" transform="matrix(1.00, 0.00, -0.00, -1.00, 194.2, 633.4)">D</text><text xml:space="preserve" font-family="Helvetica-Light,Helvetica" font-size="80.0" fill="#FEFFFF" transform="matrix(1.00, 0.00, -0.00, -1.00, 251.9, 633.4)">o</text><text xml:space="preserve" font-family="Helvetica-Light,Helvetica" font-size="80.0" fill="#FEFFFF" transform="matrix(1.00, 0.00, -0.00, -1.00, 296.4, 633.4)">u</text><text xml:space="preserve" font-family="Helvetica-Light,Helvetica" font-size="80.0" fill="#FEFFFF" transform="matrix(1.00, 0.00, -0.00, -1.00, 340.9, 633.4)">b</text><text xml:space="preserve" font-family="Helvetica-Light,Helvetica" font-size="80.0" fill="#FEFFFF" transform="matrix(1.00, 0.00, -0.00, -1.00, 389.8, 633.4)">l</text><text xml:space="preserve" font-family="Helvetica-Light,Helvetica" font-size="80.0" fill="#FEFFFF" transform="matrix(1.00, 0.00, -0.00, -1.00, 407.5, 633.4)">e</text><text xml:space="preserve" font-family="Helvetica-Light,Helvetica" font-size="80.0" fill="#FEFFFF" transform="matrix(1.00, 0.00, -0.00, -1.00, 452.0, 633.4)"> </text><text xml:space="preserve" font-family="Helvetica-Light,Helvetica" font-size="80.0" fill="#FEFFFF" transform="matrix(1.00, 0.00, -0.00, -1.00, 474.2, 633.4)">C</text><text xml:space="preserve" font-family="Helvetica-Light,Helvetica" font-size="80.0" fill="#FEFFFF" transform="matrix(1.00, 0.00, -0.00, -1.00, 532.0, 633.4)">a</text><text xml:space="preserve" font-family="Helvetica-Light,Helvetica" font-size="80.0" fill="#FEFFFF" transform="matrix(1.00, 0.00, -0.00, -1.00, 576.5, 633.4)">l</text><text xml:space="preserve" font-family="Helvetica-Light,Helvetica" font-size="80.0" fill="#FEFFFF" transform="matrix(1.00, 0.00, -0.00, -1.00, 594.2, 633.4)">l</text><text xml:space="preserve" font-family="Helvetica-Light,Helvetica" font-size="80.0" fill="#FEFFFF" transform="matrix(1.00, 0.00, -0.00, -1.00, 612.0, 633.4)">b</text><text xml:space="preserve" font-family="Helvetica-Light,Helvetica" font-size="80.0" fill="#FEFFFF" transform="matrix(1.00, 0.00, -0.00, -1.00, 660.9, 633.4)">a</text><text xml:space="preserve" font-family="Helvetica-Light,Helvetica" font-size="80.0" fill="#FEFFFF" transform="matrix(1.00, 0.00, -0.00, -1.00, 705.4, 633.4)">c</text><text xml:space="preserve" font-family="Helvetica-Light,Helvetica" font-size="80.0" fill="#FEFFFF" transform="matrix(1.00, 0.00, -0.00, -1.00, 749.8, 633.4)">k</text><text xml:space="preserve" font-family="Helvetica-Light,Helvetica" font-size="80.0" fill="#FEFFFF" transform="matrix(1.00, 0.00, -0.00, -1.00, 789.8, 633.4)">s</text><text xml:space="preserve" font-family="Helvetica-Light,Helvetica" font-size="35.0" fill="#FEFFFF" transform="matrix(1.00, 0.00, -0.00, -1.00, 79.0, 522.0)">P</text><text xml:space="preserve" font-family="Helvetica-Light,Helvetica" font-size="35.0" fill="#FEFFFF" transform="matrix(1.00, 0.00, -0.00, -1.00, 100.4, 522.0)">r</text><text xml:space="preserve" font-family="Helvetica-Light,Helvetica" font-size="35.0" fill="#FEFFFF" transform="matrix(1.00, 0.00, -0.00, -1.00, 111.4, 522.0)">o</text><text xml:space="preserve" font-family="Helvetica-Light,Helvetica" font-size="35.0" fill="#FEFFFF" transform="matrix(1.00, 0.00, -0.00, -1.00, 130.8, 522.0)">m</text><text xml:space="preserve" font-family="Helvetica-Light,Helvetica" font-size="35.0" fill="#FEFFFF" transform="matrix(1.00, 0.00, -0.00, -1.00, 159.9, 522.0)">i</text><text xml:space="preserve" font-family="Helvetica-Light,Helvetica" font-size="35.0" fill="#FEFFFF" transform="matrix(1.00, 0.00, -0.00, -1.00, 167.7, 522.0)">s</text><text xml:space="preserve" font-family="Helvetica-Light,Helvetica" font-size="35.0" fill="#FEFFFF" transform="matrix(1.00, 0.00, -0.00, -1.00, 185.2, 522.0)">e</text><text xml:space="preserve" font-family="Helvetica-Light,Helvetica" font-size="35.0" fill="#FEFFFF" transform="matrix(1.00, 0.00, -0.00, -1.00, 204.6, 522.0)">s</text><text xml:space="preserve" font-family="Helvetica-Light,Helvetica" font-size="35.0" fill="#FEFFFF" transform="matrix(1.00, 0.00, -0.00, -1.00, 222.1, 522.0)"> </text><text xml:space="preserve" font-family="Helvetica-Light,Helvetica" font-size="35.0" fill="#FEFFFF" transform="matrix(1.00, 0.00, -0.00, -1.00, 231.8, 522.0)">n</text><text xml:space="preserve" font-family="Helvetica-Light,Helvetica" font-size="35.0" fill="#FEFFFF" transform="matrix(1.00, 0.00, -0.00, -1.00, 251.2, 522.0)">a</text><text xml:space="preserve" font-family="Helvetica-Light,Helvetica" font-size="35.0" fill="#FEFFFF" transform="matrix(1.00, 0.00, -0.00, -1.00, 270.7, 522.0)">t</text><text xml:space="preserve" font-family="Helvetica-Light,Helvetica" font-size="35.0" fill="#FEFFFF" transform="matrix(1.00, 0.00, -0.00, -1.00, 280.4, 522.0)">i</text><text xml:space="preserve" font-family="Helvetica-Light,Helvetica" font-size="35.0" fill="#FEFFFF" transform="matrix(1.00, 0.00, -0.00, -1.00, 288.2, 522.0)">v</text><text xml:space="preserve" font-family="Helvetica-Light,Helvetica" font-size="35.0" fill="#FEFFFF" transform="matrix(1.00, 0.00, -0.00, -1.00, 305.6, 522.0)">e</text><text xml:space="preserve" font-family="Helvetica-Light,Helvetica" font-size="35.0" fill="#FEFFFF" transform="matrix(1.00, 0.00, -0.00, -1.00, 325.1, 522.0)">l</text><text xml:space="preserve" font-family="Helvetica-Light,Helvetica" font-size="35.0" fill="#FEFFFF" transform="matrix(1.00, 0.00, -0.00, -1.00, 332.8, 522.0)">y</text><text xml:space="preserve" font-family="Helvetica-Light,Helvetica" font-size="35.0" fill="#FEFFFF" transform="matrix(1.00, 0.00, -0.00, -1.00, 350.3, 522.0)"> </text><text xml:space="preserve" font-family="Helvetica-Light,Helvetica" font-size="35.0" fill="#FEFFFF" transform="matrix(1.00, 0.00, -0.00, -1.00, 360.0, 522.0)">p</text><text xml:space="preserve" font-family="Helvetica-Light,Helvetica" font-size="35.0" fill="#FEFFFF" transform="matrix(1.00, 0.00, -0.00, -1.00, 381.4, 522.0)">r</text><text xml:space="preserve" font-family="Helvetica-Light,Helvetica" font-size="35.0" fill="#FEFFFF" transform="matrix(1.00, 0.00, -0.00, -1.00, 392.4, 522.0)">e</text><text xml:space="preserve" font-family="Helvetica-Light,Helvetica" font-size="35.0" fill="#FEFFFF" transform="matrix(1.00, 0.00, -0.00, -1.00, 411.9, 522.0)">v</text><text xml:space="preserve" font-family="Helvetica-Light,Helvetica" font-size="35.0" fill="#FEFFFF" transform="matrix(1.00, 0.00, -0.00, -1.00, 429.3, 522.0)">e</text><text xml:space="preserve" font-family="Helvetica-Light,Helvetica" font-size="35.0" fill="#FEFFFF" transform="matrix(1.00, 0.00, -0.00, -1.00, 448.8, 522.0)">n</text><text xml:space="preserve" font-family="Helvetica-Light,Helvetica" font-size="35.0" fill="#FEFFFF" transform="matrix(1.00, 0.00, -0.00, -1.00, 468.2, 522.0)">t</text><text xml:space="preserve" font-family="Helvetica-Light,Helvetica" font-size="35.0" fill="#FEFFFF" transform="matrix(1.00, 0.00, -0.00, -1.00, 477.9, 522.0)"> </text><text xml:space="preserve" font-family="Helvetica-Light,Helvetica" font-size="35.0" fill="#FEFFFF" transform="matrix(1.00, 0.00, -0.00, -1.00, 487.6, 522.0)">d</text><text xml:space="preserve" font-family="Helvetica-Light,Helvetica" font-size="35.0" fill="#FEFFFF" transform="matrix(1.00, 0.00, -0.00, -1.00, 509.0, 522.0)">o</text><text xml:space="preserve" font-family="Helvetica-Light,Helvetica" font-size="35.0" fill="#FEFFFF" transform="matrix(1.00, 0.00, -0.00, -1.00, 528.4, 522.0)">u</text><text xml:space="preserve" font-family="Helvetica-Light,Helvetica" font-size="35.0" fill="#FEFFFF" transform="matrix(1.00, 0.00, -0.00, -1.00, 547.9, 522.0)">b</text><text xml:space="preserve" font-family="Helvetica-Light,Helvetica" font-size="35.0" fill="#FEFFFF" transform="matrix(1.00, 0.00, -0.00, -1.00, 569.2, 522.0)">l</text><text xml:space="preserve" font-family="Helvetica-Light,Helvetica" font-size="35.0" fill="#FEFFFF" transform="matrix(1.00, 0.00, -0.00, -1.00, 577.0, 522.0)">e</text><text xml:space="preserve" font-family="Helvetica-Light,Helvetica" font-size="35.0" fill="#FEFFFF" transform="matrix(1.00, 0.00, -0.00, -1.00, 596.4, 522.0)"> </text><text xml:space="preserve" font-family="Helvetica-Light,Helvetica" font-size="35.0" fill="#FEFFFF" transform="matrix(1.00, 0.00, -0.00, -1.00, 606.2, 522.0)">c</text><text xml:space="preserve" font-family="Helvetica-Light,Helvetica" font-size="35.0" fill="#FEFFFF" transform="matrix(1.00, 0.00, -0.00, -1.00, 625.6, 522.0)">a</text><text xml:space="preserve" font-family="Helvetica-Light,Helvetica" font-size="35.0" fill="#FEFFFF" transform="matrix(1.00, 0.00, -0.00, -1.00, 645.0, 522.0)">l</text><text xml:space="preserve" font-family="Helvetica-Light,Helvetica" font-size="35.0" fill="#FEFFFF" transform="matrix(1.00, 0.00, -0.00, -1.00, 652.8, 522.0)">l</text><text xml:space="preserve" font-family="Helvetica-Light,Helvetica" font-size="35.0" fill="#FEFFFF" transform="matrix(1.00, 0.00, -0.00, -1.00, 660.6, 522.0)">b</text><text xml:space="preserve" font-family="Helvetica-Light,Helvetica" font-size="35.0" fill="#FEFFFF" transform="matrix(1.00, 0.00, -0.00, -1.00, 681.9, 522.0)">a</text><text xml:space="preserve" font-family="Helvetica-Light,Helvetica" font-size="35.0" fill="#FEFFFF" transform="matrix(1.00, 0.00, -0.00, -1.00, 701.4, 522.0)">c</text><text xml:space="preserve" font-family="Helvetica-Light,Helvetica" font-size="35.0" fill="#FEFFFF" transform="matrix(1.00, 0.00, -0.00, -1.00, 720.8, 522.0)">k</text><text xml:space="preserve" font-family="Helvetica-Light,Helvetica" font-size="35.0" fill="#FEFFFF" transform="matrix(1.00, 0.00, -0.00, -1.00, 738.3, 522.0)">s</text><text xml:space="preserve" font-family="Helvetica-Light,Helvetica" font-size="35.0" fill="#FEFFFF" transform="matrix(1.00, 0.00, -0.00, -1.00, 755.8, 522.0)"> </text><text xml:space="preserve" font-family="Helvetica-Light,Helvetica" font-size="35.0" fill="#FEFFFF" transform="matrix(1.00, 0.00, -0.00, -1.00, 765.5, 522.0)">-</text><text xml:space="preserve" font-family="Helvetica-Light,Helvetica" font-size="35.0" fill="#FEFFFF" transform="matrix(1.00, 0.00, -0.00, -1.00, 777.1, 522.0)"> </text><text xml:space="preserve" font-family="Helvetica-Light,Helvetica" font-size="35.0" fill="#FEFFFF" transform="matrix(1.00, 0.00, -0.00, -1.00, 786.8, 522.0)">c</text><text xml:space="preserve" font-family="Helvetica-Light,Helvetica" font-size="35.0" fill="#FEFFFF" transform="matrix(1.00, 0.00, -0.00, -1.00, 806.3, 522.0)">a</text><text xml:space="preserve" font-family="Helvetica-Light,Helvetica" font-size="35.0" fill="#FEFFFF" transform="matrix(1.00, 0.00, -0.00, -1.00, 825.7, 522.0)">l</text><text xml:space="preserve" font-family="Helvetica-Light,Helvetica" font-size="35.0" fill="#FEFFFF" transform="matrix(1.00, 0.00, -0.00, -1.00, 833.5, 522.0)">l</text><text xml:space="preserve" font-family="Helvetica-Light,Helvetica" font-size="35.0" fill="#FEFFFF" transform="matrix(1.00, 0.00, -0.00, -1.00, 841.2, 522.0)">i</text><text xml:space="preserve" font-family="Helvetica-Light,Helvetica" font-size="35.0" fill="#FEFFFF" transform="matrix(1.00, 0.00, -0.00, -1.00, 849.0, 522.0)">n</text><text xml:space="preserve" font-family="Helvetica-Light,Helvetica" font-size="35.0" fill="#FEFFFF" transform="matrix(1.00, 0.00, -0.00, -1.00, 868.4, 522.0)">g</text><text xml:space="preserve" font-family="Helvetica-Light,Helvetica" font-size="35.0" fill="#FEFFFF" transform="matrix(1.00, 0.00, -0.00, -1.00, 889.8, 522.0)"> </text><text xml:space="preserve" font-family="Courier,Courier" font-size="35.0" fill="#FEFFFF" transform="matrix(1.00, 0.00, -0.00, -1.00, 79.0, 480.0)">r</text><text xml:space="preserve" font-family="Courier,Courier" font-size="35.0" fill="#FEFFFF" transform="matrix(1.00, 0.00, -0.00, -1.00, 100.0, 480.0)">e</text><text xml:space="preserve" font-family="Courier,Courier" font-size="35.0" fill="#FEFFFF" transform="matrix(1.00, 0.00, -0.00, -1.00, 121.0, 480.0)">s</text><text xml:space="preserve" font-family="Courier,Courier" font-size="35.0" fill="#FEFFFF" transform="matrix(1.00, 0.00, -0.00, -1.00, 141.9, 480.0)">o</text><text xml:space="preserve" font-family="Courier,Courier" font-size="35.0" fill="#FEFFFF" transform="matrix(1.00, 0.00, -0.00, -1.00, 162.9, 480.0)">l</text><text xml:space="preserve" font-family="Courier,Courier" font-size="35.0" fill="#FEFFFF" transform="matrix(1.00, 0.00, -0.00, -1.00, 183.9, 480.0)">v</text><text xml:space="preserve" font-family="Courier,Courier" font-size="35.0" fill="#FEFFFF" transform="matrix(1.00, 0.00, -0.00, -1.00, 204.9, 480.0)">e</text><text xml:space="preserve" font-family="Courier,Courier" font-size="35.0" fill="#FEFFFF" transform="matrix(1.00, 0.00, -0.00, -1.00, 225.9, 480.0)">(</text><text xml:space="preserve" font-family="Courier,Courier" font-size="35.0" fill="#FEFFFF" transform="matrix(1.00, 0.00, -0.00, -1.00, 246.9, 480.0)">)</text><text xml:space="preserve" font-family="Helvetica-Light,Helvetica" font-size="35.0" fill="#FEFFFF" transform="matrix(1.00, 0.00, -0.00, -1.00, 267.8, 480.0)"> </text><text xml:space="preserve" font-family="Helvetica-Light,Helvetica" font-size="35.0" fill="#FEFFFF" transform="matrix(1.00, 0.00, -0.00, -1.00, 277.5, 480.0)">o</text><text xml:space="preserve" font-family="Helvetica-Light,Helvetica" font-size="35.0" fill="#FEFFFF" transform="matrix(1.00, 0.00, -0.00, -1.00, 297.0, 480.0)">r</text><text xml:space="preserve" font-family="Helvetica-Light,Helvetica" font-size="35.0" fill="#FEFFFF" transform="matrix(1.00, 0.00, -0.00, -1.00, 308.6, 480.0)"> </text><text xml:space="preserve" font-family="Courier,Courier" font-size="35.0" fill="#FEFFFF" transform="matrix(1.00, 0.00, -0.00, -1.00, 318.3, 480.0)">r</text><text xml:space="preserve" font-family="Courier,Courier" font-size="35.0" fill="#FEFFFF" transform="matrix(1.00, 0.00, -0.00, -1.00, 339.3, 480.0)">e</text><text xml:space="preserve" font-family="Courier,Courier" font-size="35.0" fill="#FEFFFF" transform="matrix(1.00, 0.00, -0.00, -1.00, 360.3, 480.0)">j</text><text xml:space="preserve" font-family="Courier,Courier" font-size="35.0" fill="#FEFFFF" transform="matrix(1.00, 0.00, -0.00, -1.00, 381.3, 480.0)">e</text><text xml:space="preserve" font-family="Courier,Courier" font-size="35.0" fill="#FEFFFF" transform="matrix(1.00, 0.00, -0.00, -1.00, 402.3, 480.0)">c</text><text xml:space="preserve" font-family="Courier,Courier" font-size="35.0" fill="#FEFFFF" transform="matrix(1.00, 0.00, -0.00, -1.00, 423.2, 480.0)">t</text><text xml:space="preserve" font-family="Courier,Courier" font-size="35.0" fill="#FEFFFF" transform="matrix(1.00, 0.00, -0.00, -1.00, 444.2, 480.0)">(</text><text xml:space="preserve" font-family="Courier,Courier" font-size="35.0" fill="#FEFFFF" transform="matrix(1.00, 0.00, -0.00, -1.00, 465.2, 480.0)">)</text><text xml:space="preserve" font-family="Helvetica-Light,Helvetica" font-size="35.0" fill="#FEFFFF" transform="matrix(1.00, 0.00, -0.00, -1.00, 486.2, 480.0)"> </text><text xml:space="preserve" font-family="Helvetica-Light,Helvetica" font-size="35.0" fill="#FEFFFF" transform="matrix(1.00, 0.00, -0.00, -1.00, 495.9, 480.0)">a</text><text xml:space="preserve" font-family="Helvetica-Light,Helvetica" font-size="35.0" fill="#FEFFFF" transform="matrix(1.00, 0.00, -0.00, -1.00, 515.3, 480.0)"> </text><text xml:space="preserve" font-family="Helvetica-Light,Helvetica" font-size="35.0" fill="#FEFFFF" transform="matrix(1.00, 0.00, -0.00, -1.00, 525.0, 480.0)">s</text><text xml:space="preserve" font-family="Helvetica-Light,Helvetica" font-size="35.0" fill="#FEFFFF" transform="matrix(1.00, 0.00, -0.00, -1.00, 542.5, 480.0)">e</text><text xml:space="preserve" font-family="Helvetica-Light,Helvetica" font-size="35.0" fill="#FEFFFF" transform="matrix(1.00, 0.00, -0.00, -1.00, 562.0, 480.0)">c</text><text xml:space="preserve" font-family="Helvetica-Light,Helvetica" font-size="35.0" fill="#FEFFFF" transform="matrix(1.00, 0.00, -0.00, -1.00, 581.4, 480.0)">o</text><text xml:space="preserve" font-family="Helvetica-Light,Helvetica" font-size="35.0" fill="#FEFFFF" transform="matrix(1.00, 0.00, -0.00, -1.00, 600.8, 480.0)">n</text><text xml:space="preserve" font-family="Helvetica-Light,Helvetica" font-size="35.0" fill="#FEFFFF" transform="matrix(1.00, 0.00, -0.00, -1.00, 620.3, 480.0)">d</text><text xml:space="preserve" font-family="Helvetica-Light,Helvetica" font-size="35.0" fill="#FEFFFF" transform="matrix(1.00, 0.00, -0.00, -1.00, 641.6, 480.0)"> </text><text xml:space="preserve" font-family="Helvetica-Light,Helvetica" font-size="35.0" fill="#FEFFFF" transform="matrix(1.00, 0.00, -0.00, -1.00, 651.4, 480.0)">t</text><text xml:space="preserve" font-family="Helvetica-Light,Helvetica" font-size="35.0" fill="#FEFFFF" transform="matrix(1.00, 0.00, -0.00, -1.00, 661.1, 480.0)">i</text><text xml:space="preserve" font-family="Helvetica-Light,Helvetica" font-size="35.0" fill="#FEFFFF" transform="matrix(1.00, 0.00, -0.00, -1.00, 668.8, 480.0)">m</text><text xml:space="preserve" font-family="Helvetica-Light,Helvetica" font-size="35.0" fill="#FEFFFF" transform="matrix(1.00, 0.00, -0.00, -1.00, 698.0, 480.0)">e</text><text xml:space="preserve" font-family="Helvetica-Light,Helvetica" font-size="35.0" fill="#FEFFFF" transform="matrix(1.00, 0.00, -0.00, -1.00, 717.4, 480.0)"> </text><text xml:space="preserve" font-family="Helvetica-Light,Helvetica" font-size="35.0" fill="#FEFFFF" transform="matrix(1.00, 0.00, -0.00, -1.00, 727.1, 480.0)">d</text><text xml:space="preserve" font-family="Helvetica-Light,Helvetica" font-size="35.0" fill="#FEFFFF" transform="matrix(1.00, 0.00, -0.00, -1.00, 748.5, 480.0)">o</text><text xml:space="preserve" font-family="Helvetica-Light,Helvetica" font-size="35.0" fill="#FEFFFF" transform="matrix(1.00, 0.00, -0.00, -1.00, 767.9, 480.0)">e</text><text xml:space="preserve" font-family="Helvetica-Light,Helvetica" font-size="35.0" fill="#FEFFFF" transform="matrix(1.00, 0.00, -0.00, -1.00, 787.3, 480.0)">s</text><text xml:space="preserve" font-family="Helvetica-Light,Helvetica" font-size="35.0" fill="#FEFFFF" transform="matrix(1.00, 0.00, -0.00, -1.00, 804.8, 480.0)"> </text><text xml:space="preserve" font-family="Helvetica-Light,Helvetica" font-size="35.0" fill="#FEFFFF" transform="matrix(1.00, 0.00, -0.00, -1.00, 814.5, 480.0)">n</text><text xml:space="preserve" font-family="Helvetica-Light,Helvetica" font-size="35.0" fill="#FEFFFF" transform="matrix(1.00, 0.00, -0.00, -1.00, 834.0, 480.0)">o</text><text xml:space="preserve" font-family="Helvetica-Light,Helvetica" font-size="35.0" fill="#FEFFFF" transform="matrix(1.00, 0.00, -0.00, -1.00, 853.4, 480.0)">t</text><text xml:space="preserve" font-family="Helvetica-Light,Helvetica" font-size="35.0" fill="#FEFFFF" transform="matrix(1.00, 0.00, -0.00, -1.00, 863.1, 480.0)">h</text><text xml:space="preserve" font-family="Helvetica-Light,Helvetica" font-size="35.0" fill="#FEFFFF" transform="matrix(1.00, 0.00, -0.00, -1.00, 882.6, 480.0)">i</text><text xml:space="preserve" font-family="Helvetica-Light,Helvetica" font-size="35.0" fill="#FEFFFF" transform="matrix(1.00, 0.00, -0.00, -1.00, 890.3, 480.0)">n</text><text xml:space="preserve" font-family="Helvetica-Light,Helvetica" font-size="35.0" fill="#FEFFFF" transform="matrix(1.00, 0.00, -0.00, -1.00, 909.8, 480.0)">g</text><text xml:space="preserve" font-family="Helvetica-Light,Helvetica" font-size="35.0" fill="#FEFFFF" transform="matrix(1.00, 0.00, -0.00, -1.00, 931.1, 480.0)">!</text><text xml:space="preserve" font-family="Courier,Courier" font-size="27.9" fill="#FEFFFF" transform="matrix(1.00, 0.00, -0.00, -1.00, 85.0, 350.1)">n</text><text xml:space="preserve" font-family="Courier,Courier" font-size="27.9" fill="#FEFFFF" transform="matrix(1.00, 0.00, -0.00, -1.00, 101.8, 350.1)">e</text><text xml:space="preserve" font-family="Courier,Courier" font-size="27.9" fill="#FEFFFF" transform="matrix(1.00, 0.00, -0.00, -1.00, 118.5, 350.1)">w</text><text xml:space="preserve" font-family="Courier,Courier" font-size="27.9" fill="#FEFFFF" transform="matrix(1.00, 0.00, -0.00, -1.00, 135.3, 350.1)"> </text><text xml:space="preserve" font-family="Courier,Courier" font-size="27.9" fill="#FEFFFF" transform="matrix(1.00, 0.00, -0.00, -1.00, 152.0, 350.1)">P</text><text xml:space="preserve" font-family="Courier,Courier" font-size="27.9" fill="#FEFFFF" transform="matrix(1.00, 0.00, -0.00, -1.00, 168.8, 350.1)">r</text><text xml:space="preserve" font-family="Courier,Courier" font-size="27.9" fill="#FEFFFF" transform="matrix(1.00, 0.00, -0.00, -1.00, 185.5, 350.1)">o</text><text xml:space="preserve" font-family="Courier,Courier" font-size="27.9" fill="#FEFFFF" transform="matrix(1.00, 0.00, -0.00, -1.00, 202.3, 350.1)">m</text><text xml:space="preserve" font-family="Courier,Courier" font-size="27.9" fill="#FEFFFF" transform="matrix(1.00, 0.00, -0.00, -1.00, 219.0, 350.1)">i</text><text xml:space="preserve" font-family="Courier,Courier" font-size="27.9" fill="#FEFFFF" transform="matrix(1.00, 0.00, -0.00, -1.00, 235.8, 350.1)">s</text><text xml:space="preserve" font-family="Courier,Courier" font-size="27.9" fill="#FEFFFF" transform="matrix(1.00, 0.00, -0.00, -1.00, 252.5, 350.1)">e</text><text xml:space="preserve" font-family="Courier,Courier" font-size="27.9" fill="#FEFFFF" transform="matrix(1.00, 0.00, -0.00, -1.00, 269.2, 350.1)">(</text><text xml:space="preserve" font-family="Courier,Courier" font-size="27.9" fill="#FEFFFF" transform="matrix(1.00, 0.00, -0.00, -1.00, 286.0, 350.1)">f</text><text xml:space="preserve" font-family="Courier,Courier" font-size="27.9" fill="#FEFFFF" transform="matrix(1.00, 0.00, -0.00, -1.00, 302.7, 350.1)">u</text><text xml:space="preserve" font-family="Courier,Courier" font-size="27.9" fill="#FEFFFF" transform="matrix(1.00, 0.00, -0.00, -1.00, 319.5, 350.1)">n</text><text xml:space="preserve" font-family="Courier,Courier" font-size="27.9" fill="#FEFFFF" transform="matrix(1.00, 0.00, -0.00, -1.00, 336.2, 350.1)">c</text><text xml:space="preserve" font-family="Courier,Courier" font-size="27.9" fill="#FEFFFF" transform="matrix(1.00, 0.00, -0.00, -1.00, 353.0, 350.1)">t</text><text xml:space="preserve" font-family="Courier,Courier" font-size="27.9" fill="#FEFFFF" transform="matrix(1.00, 0.00, -0.00, -1.00, 369.7, 350.1)">i</text><text xml:space="preserve" font-family="Courier,Courier" font-size="27.9" fill="#FEFFFF" transform="matrix(1.00, 0.00, -0.00, -1.00, 386.5, 350.1)">o</text><text xml:space="preserve" font-family="Courier,Courier" font-size="27.9" fill="#FEFFFF" transform="matrix(1.00, 0.00, -0.00, -1.00, 403.2, 350.1)">n</text><text xml:space="preserve" font-family="Courier,Courier" font-size="27.9" fill="#FEFFFF" transform="matrix(1.00, 0.00, -0.00, -1.00, 420.0, 350.1)"> </text><text xml:space="preserve" font-family="Courier,Courier" font-size="27.9" fill="#FEFFFF" transform="matrix(1.00, 0.00, -0.00, -1.00, 436.7, 350.1)">(</text><text xml:space="preserve" font-family="Courier,Courier" font-size="27.9" fill="#00F900" transform="matrix(1.00, 0.00, -0.00, -1.00, 453.4, 350.1)">r</text><text xml:space="preserve" font-family="Courier,Courier" font-size="27.9" fill="#00F900" transform="matrix(1.00, 0.00, -0.00, -1.00, 470.1, 350.1)">e</text><text xml:space="preserve" font-family="Courier,Courier" font-size="27.9" fill="#00F900" transform="matrix(1.00, 0.00, -0.00, -1.00, 486.9, 350.1)">s</text><text xml:space="preserve" font-family="Courier,Courier" font-size="27.9" fill="#00F900" transform="matrix(1.00, 0.00, -0.00, -1.00, 503.6, 350.1)">o</text><text xml:space="preserve" font-family="Courier,Courier" font-size="27.9" fill="#00F900" transform="matrix(1.00, 0.00, -0.00, -1.00, 520.4, 350.1)">l</text><text xml:space="preserve" font-family="Courier,Courier" font-size="27.9" fill="#00F900" transform="matrix(1.00, 0.00, -0.00, -1.00, 537.1, 350.1)">v</text><text xml:space="preserve" font-family="Courier,Courier" font-size="27.9" fill="#00F900" transform="matrix(1.00, 0.00, -0.00, -1.00, 553.9, 350.1)">e</text><text xml:space="preserve" font-family="Courier,Courier" font-size="27.9" fill="#FEFFFF" transform="matrix(1.00, 0.00, -0.00, -1.00, 570.6, 350.1)">,</text><text xml:space="preserve" font-family="Courier,Courier" font-size="27.9" fill="#FEFFFF" transform="matrix(1.00, 0.00, -0.00, -1.00, 587.3, 350.1)"> </text><text xml:space="preserve" font-family="Courier,Courier" font-size="27.9" fill="#932092" transform="matrix(1.00, 0.00, -0.00, -1.00, 604.1, 350.1)">r</text><text xml:space="preserve" font-family="Courier,Courier" font-size="27.9" fill="#932092" transform="matrix(1.00, 0.00, -0.00, -1.00, 620.8, 350.1)">e</text><text xml:space="preserve" font-family="Courier,Courier" font-size="27.9" fill="#932092" transform="matrix(1.00, 0.00, -0.00, -1.00, 637.6, 350.1)">j</text><text xml:space="preserve" font-family="Courier,Courier" font-size="27.9" fill="#932092" transform="matrix(1.00, 0.00, -0.00, -1.00, 654.3, 350.1)">e</text><text xml:space="preserve" font-family="Courier,Courier" font-size="27.9" fill="#932092" transform="matrix(1.00, 0.00, -0.00, -1.00, 671.0, 350.1)">c</text><text xml:space="preserve" font-family="Courier,Courier" font-size="27.9" fill="#932092" transform="matrix(1.00, 0.00, -0.00, -1.00, 687.8, 350.1)">t</text><text xml:space="preserve" font-family="Courier,Courier" font-size="27.9" fill="#FEFFFF" transform="matrix(1.00, 0.00, -0.00, -1.00, 704.5, 350.1)">)</text><text xml:space="preserve" font-family="Courier,Courier" font-size="27.9" fill="#FEFFFF" transform="matrix(1.00, 0.00, -0.00, -1.00, 721.3, 350.1)"> </text><text xml:space="preserve" font-family="Courier,Courier" font-size="27.9" fill="#FEFFFF" transform="matrix(1.00, 0.00, -0.00, -1.00, 738.0, 350.1)">{</text><text xml:space="preserve" font-family="Courier,Courier" font-size="27.9" fill="#FEFFFF" transform="matrix(1.00, 0.00, -0.00, -1.00, 85.0, 307.6)"> </text><text xml:space="preserve" font-family="Courier,Courier" font-size="27.9" fill="#FEFFFF" transform="matrix(1.00, 0.00, -0.00, -1.00, 101.8, 307.6)"> </text><text xml:space="preserve" font-family="Courier,Courier" font-size="27.9" fill="#FEFFFF" transform="matrix(1.00, 0.00, -0.00, -1.00, 118.5, 307.6)">f</text><text xml:space="preserve" font-family="Courier,Courier" font-size="27.9" fill="#FEFFFF" transform="matrix(1.00, 0.00, -0.00, -1.00, 135.3, 307.6)">s</text><text xml:space="preserve" font-family="Courier,Courier" font-size="27.9" fill="#FEFFFF" transform="matrix(1.00, 0.00, -0.00, -1.00, 152.0, 307.6)">.</text><text xml:space="preserve" font-family="Courier,Courier" font-size="27.9" fill="#FEFFFF" transform="matrix(1.00, 0.00, -0.00, -1.00, 168.8, 307.6)">r</text><text xml:space="preserve" font-family="Courier,Courier" font-size="27.9" fill="#FEFFFF" transform="matrix(1.00, 0.00, -0.00, -1.00, 185.5, 307.6)">e</text><text xml:space="preserve" font-family="Courier,Courier" font-size="27.9" fill="#FEFFFF" transform="matrix(1.00, 0.00, -0.00, -1.00, 202.3, 307.6)">a</text><text xml:space="preserve" font-family="Courier,Courier" font-size="27.9" fill="#FEFFFF" transform="matrix(1.00, 0.00, -0.00, -1.00, 219.0, 307.6)">d</text><text xml:space="preserve" font-family="Courier,Courier" font-size="27.9" fill="#FEFFFF" transform="matrix(1.00, 0.00, -0.00, -1.00, 235.8, 307.6)">F</text><text xml:space="preserve" font-family="Courier,Courier" font-size="27.9" fill="#FEFFFF" transform="matrix(1.00, 0.00, -0.00, -1.00, 252.5, 307.6)">i</text><text xml:space="preserve" font-family="Courier,Courier" font-size="27.9" fill="#FEFFFF" transform="matrix(1.00, 0.00, -0.00, -1.00, 269.2, 307.6)">l</text><text xml:space="preserve" font-family="Courier,Courier" font-size="27.9" fill="#FEFFFF" transform="matrix(1.00, 0.00, -0.00, -1.00, 286.0, 307.6)">e</text><text xml:space="preserve" font-family="Courier,Courier" font-size="27.9" fill="#FEFFFF" transform="matrix(1.00, 0.00, -0.00, -1.00, 302.7, 307.6)">(</text><text xml:space="preserve" font-family="Courier,Courier" font-size="27.9" fill="#FEFFFF" transform="matrix(1.00, 0.00, -0.00, -1.00, 319.5, 307.6)">'</text><text xml:space="preserve" font-family="Courier,Courier" font-size="27.9" fill="#FEFFFF" transform="matrix(1.00, 0.00, -0.00, -1.00, 336.2, 307.6)">p</text><text xml:space="preserve" font-family="Courier,Courier" font-size="27.9" fill="#FEFFFF" transform="matrix(1.00, 0.00, -0.00, -1.00, 353.0, 307.6)">a</text><text xml:space="preserve" font-family="Courier,Courier" font-size="27.9" fill="#FEFFFF" transform="matrix(1.00, 0.00, -0.00, -1.00, 369.7, 307.6)">c</text><text xml:space="preserve" font-family="Courier,Courier" font-size="27.9" fill="#FEFFFF" transform="matrix(1.00, 0.00, -0.00, -1.00, 386.5, 307.6)">k</text><text xml:space="preserve" font-family="Courier,Courier" font-size="27.9" fill="#FEFFFF" transform="matrix(1.00, 0.00, -0.00, -1.00, 403.2, 307.6)">a</text><text xml:space="preserve" font-family="Courier,Courier" font-size="27.9" fill="#FEFFFF" transform="matrix(1.00, 0.00, -0.00, -1.00, 420.0, 307.6)">g</text><text xml:space="preserve" font-family="Courier,Courier" font-size="27.9" fill="#FEFFFF" transform="matrix(1.00, 0.00, -0.00, -1.00, 436.7, 307.6)">e</text><text xml:space="preserve" font-family="Courier,Courier" font-size="27.9" fill="#FEFFFF" transform="matrix(1.00, 0.00, -0.00, -1.00, 453.4, 307.6)">.</text><text xml:space="preserve" font-family="Courier,Courier" font-size="27.9" fill="#FEFFFF" transform="matrix(1.00, 0.00, -0.00, -1.00, 470.2, 307.6)">j</text><text xml:space="preserve" font-family="Courier,Courier" font-size="27.9" fill="#FEFFFF" transform="matrix(1.00, 0.00, -0.00, -1.00, 486.9, 307.6)">s</text><text xml:space="preserve" font-family="Courier,Courier" font-size="27.9" fill="#FEFFFF" transform="matrix(1.00, 0.00, -0.00, -1.00, 503.7, 307.6)">o</text><text xml:space="preserve" font-family="Courier,Courier" font-size="27.9" fill="#FEFFFF" transform="matrix(1.00, 0.00, -0.00, -1.00, 520.4, 307.6)">n</text><text xml:space="preserve" font-family="Courier,Courier" font-size="27.9" fill="#FEFFFF" transform="matrix(1.00, 0.00, -0.00, -1.00, 537.2, 307.6)">'</text><text xml:space="preserve" font-family="Courier,Courier" font-size="27.9" fill="#FEFFFF" transform="matrix(1.00, 0.00, -0.00, -1.00, 553.9, 307.6)">,</text><text xml:space="preserve" font-family="Courier,Courier" font-size="27.9" fill="#FEFFFF" transform="matrix(1.00, 0.00, -0.00, -1.00, 570.7, 307.6)"> </text><text xml:space="preserve" font-family="Courier,Courier" font-size="27.9" fill="#FEFFFF" transform="matrix(1.00, 0.00, -0.00, -1.00, 587.4, 307.6)">f</text><text xml:space="preserve" font-family="Courier,Courier" font-size="27.9" fill="#FEFFFF" transform="matrix(1.00, 0.00, -0.00, -1.00, 604.2, 307.6)">u</text><text xml:space="preserve" font-family="Courier,Courier" font-size="27.9" fill="#FEFFFF" transform="matrix(1.00, 0.00, -0.00, -1.00, 620.9, 307.6)">n</text><text xml:space="preserve" font-family="Courier,Courier" font-size="27.9" fill="#FEFFFF" transform="matrix(1.00, 0.00, -0.00, -1.00, 637.6, 307.6)">c</text><text xml:space="preserve" font-family="Courier,Courier" font-size="27.9" fill="#FEFFFF" transform="matrix(1.00, 0.00, -0.00, -1.00, 654.4, 307.6)">t</text><text xml:space="preserve" font-family="Courier,Courier" font-size="27.9" fill="#FEFFFF" transform="matrix(1.00, 0.00, -0.00, -1.00, 671.1, 307.6)">i</text><text xml:space="preserve" font-family="Courier,Courier" font-size="27.9" fill="#FEFFFF" transform="matrix(1.00, 0.00, -0.00, -1.00, 687.9, 307.6)">o</text><text xml:space="preserve" font-family="Courier,Courier" font-size="27.9" fill="#FEFFFF" transform="matrix(1.00, 0.00, -0.00, -1.00, 704.6, 307.6)">n</text><text xml:space="preserve" font-family="Courier,Courier" font-size="27.9" fill="#FEFFFF" transform="matrix(1.00, 0.00, -0.00, -1.00, 721.4, 307.6)"> </text><text xml:space="preserve" font-family="Courier,Courier" font-size="27.9" fill="#FEFFFF" transform="matrix(1.00, 0.00, -0.00, -1.00, 738.1, 307.6)">(</text><text xml:space="preserve" font-family="Courier,Courier" font-size="27.9" fill="#FF2600" transform="matrix(1.00, 0.00, -0.00, -1.00, 754.8, 307.6)">e</text><text xml:space="preserve" font-family="Courier,Courier" font-size="27.9" fill="#FF2600" transform="matrix(1.00, 0.00, -0.00, -1.00, 771.5, 307.6)">r</text><text xml:space="preserve" font-family="Courier,Courier" font-size="27.9" fill="#FF2600" transform="matrix(1.00, 0.00, -0.00, -1.00, 788.2, 307.6)">r</text><text xml:space="preserve" font-family="Courier,Courier" font-size="27.9" fill="#FEFFFF" transform="matrix(1.00, 0.00, -0.00, -1.00, 805.0, 307.6)">,</text><text xml:space="preserve" font-family="Courier,Courier" font-size="27.9" fill="#FEFFFF" transform="matrix(1.00, 0.00, -0.00, -1.00, 821.7, 307.6)"> </text><text xml:space="preserve" font-family="Courier,Courier" font-size="27.9" fill="#FF40FF" transform="matrix(1.00, 0.00, -0.00, -1.00, 838.5, 307.6)">b</text><text xml:space="preserve" font-family="Courier,Courier" font-size="27.9" fill="#FF40FF" transform="matrix(1.00, 0.00, -0.00, -1.00, 855.2, 307.6)">u</text><text xml:space="preserve" font-family="Courier,Courier" font-size="27.9" fill="#FF40FF" transform="matrix(1.00, 0.00, -0.00, -1.00, 872.0, 307.6)">f</text><text xml:space="preserve" font-family="Courier,Courier" font-size="27.9" fill="#FEFFFF" transform="matrix(1.00, 0.00, -0.00, -1.00, 888.7, 307.6)">)</text><text xml:space="preserve" font-family="Courier,Courier" font-size="27.9" fill="#FEFFFF" transform="matrix(1.00, 0.00, -0.00, -1.00, 905.4, 307.6)"> </text><text xml:space="preserve" font-family="Courier,Courier" font-size="27.9" fill="#FEFFFF" transform="matrix(1.00, 0.00, -0.00, -1.00, 922.2, 307.6)">{</text><text xml:space="preserve" font-family="Courier,Courier" font-size="27.9" fill="#FEFFFF" transform="matrix(1.00, 0.00, -0.00, -1.00, 85.0, 265.2)"> </text><text xml:space="preserve" font-family="Courier,Courier" font-size="27.9" fill="#FEFFFF" transform="matrix(1.00, 0.00, -0.00, -1.00, 101.8, 265.2)"> </text><text xml:space="preserve" font-family="Courier,Courier" font-size="27.9" fill="#FEFFFF" transform="matrix(1.00, 0.00, -0.00, -1.00, 118.5, 265.2)"> </text><text xml:space="preserve" font-family="Courier,Courier" font-size="27.9" fill="#FEFFFF" transform="matrix(1.00, 0.00, -0.00, -1.00, 135.3, 265.2)"> </text><text xml:space="preserve" font-family="Courier,Courier" font-size="27.9" fill="#FF2600" transform="matrix(1.00, 0.00, -0.00, -1.00, 152.0, 265.2)">i</text><text xml:space="preserve" font-family="Courier,Courier" font-size="27.9" fill="#FF2600" transform="matrix(1.00, 0.00, -0.00, -1.00, 168.8, 265.2)">f</text><text xml:space="preserve" font-family="Courier,Courier" font-size="27.9" fill="#FF2600" transform="matrix(1.00, 0.00, -0.00, -1.00, 185.5, 265.2)"> </text><text xml:space="preserve" font-family="Courier,Courier" font-size="27.9" fill="#FF2600" transform="matrix(1.00, 0.00, -0.00, -1.00, 202.3, 265.2)">(</text><text xml:space="preserve" font-family="Courier,Courier" font-size="27.9" fill="#FF2600" transform="matrix(1.00, 0.00, -0.00, -1.00, 219.0, 265.2)">e</text><text xml:space="preserve" font-family="Courier,Courier" font-size="27.9" fill="#FF2600" transform="matrix(1.00, 0.00, -0.00, -1.00, 235.7, 265.2)">r</text><text xml:space="preserve" font-family="Courier,Courier" font-size="27.9" fill="#FF2600" transform="matrix(1.00, 0.00, -0.00, -1.00, 252.5, 265.2)">r</text><text xml:space="preserve" font-family="Courier,Courier" font-size="27.9" fill="#FF2600" transform="matrix(1.00, 0.00, -0.00, -1.00, 269.2, 265.2)">)</text><text xml:space="preserve" font-family="Courier,Courier" font-size="27.9" fill="#FF2600" transform="matrix(1.00, 0.00, -0.00, -1.00, 286.0, 265.2)"> </text><text xml:space="preserve" font-family="Courier,Courier" font-size="27.9" fill="#932092" transform="matrix(1.00, 0.00, -0.00, -1.00, 302.7, 265.2)">r</text><text xml:space="preserve" font-family="Courier,Courier" font-size="27.9" fill="#932092" transform="matrix(1.00, 0.00, -0.00, -1.00, 319.4, 265.2)">e</text><text xml:space="preserve" font-family="Courier,Courier" font-size="27.9" fill="#932092" transform="matrix(1.00, 0.00, -0.00, -1.00, 336.2, 265.2)">j</text><text xml:space="preserve" font-family="Courier,Courier" font-size="27.9" fill="#932092" transform="matrix(1.00, 0.00, -0.00, -1.00, 352.9, 265.2)">e</text><text xml:space="preserve" font-family="Courier,Courier" font-size="27.9" fill="#932092" transform="matrix(1.00, 0.00, -0.00, -1.00, 369.7, 265.2)">c</text><text xml:space="preserve" font-family="Courier,Courier" font-size="27.9" fill="#932092" transform="matrix(1.00, 0.00, -0.00, -1.00, 386.4, 265.2)">t</text><text xml:space="preserve" font-family="Courier,Courier" font-size="27.9" fill="#FF2600" transform="matrix(1.00, 0.00, -0.00, -1.00, 403.2, 265.2)">(</text><text xml:space="preserve" font-family="Courier,Courier" font-size="27.9" fill="#FF2600" transform="matrix(1.00, 0.00, -0.00, -1.00, 419.9, 265.2)">e</text><text xml:space="preserve" font-family="Courier,Courier" font-size="27.9" fill="#FF2600" transform="matrix(1.00, 0.00, -0.00, -1.00, 436.6, 265.2)">r</text><text xml:space="preserve" font-family="Courier,Courier" font-size="27.9" fill="#FF2600" transform="matrix(1.00, 0.00, -0.00, -1.00, 453.4, 265.2)">r</text><text xml:space="preserve" font-family="Courier,Courier" font-size="27.9" fill="#FF2600" transform="matrix(1.00, 0.00, -0.00, -1.00, 470.1, 265.2)">)</text><text xml:space="preserve" font-family="Courier,Courier" font-size="27.9" fill="#FF2600" transform="matrix(1.00, 0.00, -0.00, -1.00, 486.9, 265.2)"> </text><text xml:space="preserve" font-family="Courier,Courier" font-size="27.9" fill="#FF2600" transform="matrix(1.00, 0.00, -0.00, -1.00, 503.6, 265.2)">/</text><text xml:space="preserve" font-family="Courier,Courier" font-size="27.9" fill="#FF2600" transform="matrix(1.00, 0.00, -0.00, -1.00, 520.4, 265.2)">/</text><text xml:space="preserve" font-family="Courier,Courier" font-size="27.9" fill="#FF2600" transform="matrix(1.00, 0.00, -0.00, -1.00, 537.1, 265.2)"> </text><text xml:space="preserve" font-family="Courier,Courier" font-size="27.9" fill="#FF2600" transform="matrix(1.00, 0.00, -0.00, -1.00, 553.9, 265.2)">n</text><text xml:space="preserve" font-family="Courier,Courier" font-size="27.9" fill="#FF2600" transform="matrix(1.00, 0.00, -0.00, -1.00, 570.6, 265.2)">o</text><text xml:space="preserve" font-family="Courier,Courier" font-size="27.9" fill="#FF2600" transform="matrix(1.00, 0.00, -0.00, -1.00, 587.4, 265.2)"> </text><text xml:space="preserve" font-family="Courier,Courier" font-size="27.9" fill="#FF2600" transform="matrix(1.00, 0.00, -0.00, -1.00, 604.1, 265.2)">`</text><text xml:space="preserve" font-family="Courier,Courier" font-size="27.9" fill="#FF2600" transform="matrix(1.00, 0.00, -0.00, -1.00, 620.8, 265.2)">r</text><text xml:space="preserve" font-family="Courier,Courier" font-size="27.9" fill="#FF2600" transform="matrix(1.00, 0.00, -0.00, -1.00, 637.6, 265.2)">e</text><text xml:space="preserve" font-family="Courier,Courier" font-size="27.9" fill="#FF2600" transform="matrix(1.00, 0.00, -0.00, -1.00, 654.3, 265.2)">t</text><text xml:space="preserve" font-family="Courier,Courier" font-size="27.9" fill="#FF2600" transform="matrix(1.00, 0.00, -0.00, -1.00, 671.1, 265.2)">u</text><text xml:space="preserve" font-family="Courier,Courier" font-size="27.9" fill="#FF2600" transform="matrix(1.00, 0.00, -0.00, -1.00, 687.8, 265.2)">r</text><text xml:space="preserve" font-family="Courier,Courier" font-size="27.9" fill="#FF2600" transform="matrix(1.00, 0.00, -0.00, -1.00, 704.6, 265.2)">n</text><text xml:space="preserve" font-family="Courier,Courier" font-size="27.9" fill="#FF2600" transform="matrix(1.00, 0.00, -0.00, -1.00, 721.3, 265.2)">`</text><text xml:space="preserve" font-family="Courier,Courier" font-size="27.9" fill="#FF2600" transform="matrix(1.00, 0.00, -0.00, -1.00, 738.1, 265.2)">!</text><text xml:space="preserve" font-family="Courier,Courier" font-size="27.9" fill="#FEFFFF" transform="matrix(1.00, 0.00, -0.00, -1.00, 85.0, 222.7)"> </text><text xml:space="preserve" font-family="Courier,Courier" font-size="27.9" fill="#FEFFFF" transform="matrix(1.00, 0.00, -0.00, -1.00, 101.8, 222.7)"> </text><text xml:space="preserve" font-family="Courier,Courier" font-size="27.9" fill="#FEFFFF" transform="matrix(1.00, 0.00, -0.00, -1.00, 118.5, 222.7)"> </text><text xml:space="preserve" font-family="Courier,Courier" font-size="27.9" fill="#FEFFFF" transform="matrix(1.00, 0.00, -0.00, -1.00, 135.3, 222.7)"> </text><text xml:space="preserve" font-family="Courier,Courier" font-size="27.9" fill="#00F900" transform="matrix(1.00, 0.00, -0.00, -1.00, 152.0, 222.7)">r</text><text xml:space="preserve" font-family="Courier,Courier" font-size="27.9" fill="#00F900" transform="matrix(1.00, 0.00, -0.00, -1.00, 168.8, 222.7)">e</text><text xml:space="preserve" font-family="Courier,Courier" font-size="27.9" fill="#00F900" transform="matrix(1.00, 0.00, -0.00, -1.00, 185.5, 222.7)">s</text><text xml:space="preserve" font-family="Courier,Courier" font-size="27.9" fill="#00F900" transform="matrix(1.00, 0.00, -0.00, -1.00, 202.3, 222.7)">o</text><text xml:space="preserve" font-family="Courier,Courier" font-size="27.9" fill="#00F900" transform="matrix(1.00, 0.00, -0.00, -1.00, 219.0, 222.7)">l</text><text xml:space="preserve" font-family="Courier,Courier" font-size="27.9" fill="#00F900" transform="matrix(1.00, 0.00, -0.00, -1.00, 235.7, 222.7)">v</text><text xml:space="preserve" font-family="Courier,Courier" font-size="27.9" fill="#00F900" transform="matrix(1.00, 0.00, -0.00, -1.00, 252.5, 222.7)">e</text><text xml:space="preserve" font-family="Courier,Courier" font-size="27.9" fill="#FEFFFF" transform="matrix(1.00, 0.00, -0.00, -1.00, 269.2, 222.7)">(</text><text xml:space="preserve" font-family="Courier,Courier" font-size="27.9" fill="#FF40FF" transform="matrix(1.00, 0.00, -0.00, -1.00, 286.0, 222.7)">b</text><text xml:space="preserve" font-family="Courier,Courier" font-size="27.9" fill="#FF40FF" transform="matrix(1.00, 0.00, -0.00, -1.00, 302.7, 222.7)">u</text><text xml:space="preserve" font-family="Courier,Courier" font-size="27.9" fill="#FF40FF" transform="matrix(1.00, 0.00, -0.00, -1.00, 319.4, 222.7)">f</text><text xml:space="preserve" font-family="Courier,Courier" font-size="27.9" fill="#FEFFFF" transform="matrix(1.00, 0.00, -0.00, -1.00, 336.2, 222.7)">)</text><text xml:space="preserve" font-family="Courier,Courier" font-size="27.9" fill="#FEFFFF" transform="matrix(1.00, 0.00, -0.00, -1.00, 85.0, 180.2)"> </text><text xml:space="preserve" font-family="Courier,Courier" font-size="27.9" fill="#FEFFFF" transform="matrix(1.00, 0.00, -0.00, -1.00, 101.8, 180.2)"> </text><text xml:space="preserve" font-family="Courier,Courier" font-size="27.9" fill="#FEFFFF" transform="matrix(1.00, 0.00, -0.00, -1.00, 118.5, 180.2)">}</text><text xml:space="preserve" font-family="Courier,Courier" font-size="27.9" fill="#FEFFFF" transform="matrix(1.00, 0.00, -0.00, -1.00, 135.3, 180.2)">)</text><text xml:space="preserve" font-family="Courier,Courier" font-size="27.9" fill="#FEFFFF" transform="matrix(1.00, 0.00, -0.00, -1.00, 85.0, 137.8)">}</text><text xml:space="preserve" font-family="Courier,Courier" font-size="27.9" fill="#FEFFFF" transform="matrix(1.00, 0.00, -0.00, -1.00, 101.8, 137.8)">)</text></g></svg>