<?xml version="1.0" encoding="UTF-8" standalone="no"?><svg xmlns="http://www.w3.org/2000/svg" xmlns:xlink="http://www.w3.org/1999/xlink" clip-rule="evenodd" stroke-miterlimit="10" viewBox="0 0 1024 768"><desc>SVG generated by Keynote</desc><defs></defs><g transform="matrix(1.00, 0.00, -0.00, -1.00, 0.0, 768.0)"><path d="M 0.0 768.0 L 1024.0 768.0 L 1024.0 0.0 L 0.0 0.0 Z M 0.0 768.0 " fill="#000000"></path><text xml:space="preserve" font-family="Helvetica-Light,Helvetica" font-size="80.0" fill="#FEFFFF" transform="matrix(1.00, 0.00, -0.00, -1.00, 199.3, 633.4)">E</text><text xml:space="preserve" font-family="Helvetica-Light,Helvetica" font-size="80.0" fill="#FEFFFF" transform="matrix(1.00, 0.00, -0.00, -1.00, 248.2, 633.4)">S</text><text xml:space="preserve" font-family="Helvetica-Light,Helvetica" font-size="80.0" fill="#FEFFFF" transform="matrix(1.00, 0.00, -0.00, -1.00, 297.1, 633.4)">2</text><text xml:space="preserve" font-family="Helvetica-Light,Helvetica" font-size="80.0" fill="#FEFFFF" transform="matrix(1.00, 0.00, -0.00, -1.00, 341.6, 633.4)">0</text><text xml:space="preserve" font-family="Helvetica-Light,Helvetica" font-size="80.0" fill="#FEFFFF" transform="matrix(1.00, 0.00, -0.00, -1.00, 386.0, 633.4)">1</text><text xml:space="preserve" font-family="Helvetica-Light,Helvetica" font-size="80.0" fill="#FEFFFF" transform="matrix(1.00, 0.00, -0.00, -1.00, 430.5, 633.4)">5</text><text xml:space="preserve" font-family="Helvetica-Light,Helvetica" font-size="80.0" fill="#FEFFFF" transform="matrix(1.00, 0.00, -0.00, -1.00, 475.0, 633.4)"> </text><text xml:space="preserve" font-family="Helvetica-Light,Helvetica" font-size="80.0" fill="#FEFFFF" transform="matrix(1.00, 0.00, -0.00, -1.00, 497.2, 633.4)">P</text><text xml:space="preserve" font-family="Helvetica-Light,Helvetica" font-size="80.0" fill="#FEFFFF" transform="matrix(1.00, 0.00, -0.00, -1.00, 546.1, 633.4)">r</text><text xml:space="preserve" font-family="Helvetica-Light,Helvetica" font-size="80.0" fill="#FEFFFF" transform="matrix(1.00, 0.00, -0.00, -1.00, 571.3, 633.4)">o</text><text xml:space="preserve" font-family="Helvetica-Light,Helvetica" font-size="80.0" fill="#FEFFFF" transform="matrix(1.00, 0.00, -0.00, -1.00, 615.8, 633.4)">m</text><text xml:space="preserve" font-family="Helvetica-Light,Helvetica" font-size="80.0" fill="#FEFFFF" transform="matrix(1.00, 0.00, -0.00, -1.00, 682.4, 633.4)">i</text><text xml:space="preserve" font-family="Helvetica-Light,Helvetica" font-size="80.0" fill="#FEFFFF" transform="matrix(1.00, 0.00, -0.00, -1.00, 700.2, 633.4)">s</text><text xml:space="preserve" font-family="Helvetica-Light,Helvetica" font-size="80.0" fill="#FEFFFF" transform="matrix(1.00, 0.00, -0.00, -1.00, 740.2, 633.4)">e</text><text xml:space="preserve" font-family="Helvetica-Light,Helvetica" font-size="80.0" fill="#FEFFFF" transform="matrix(1.00, 0.00, -0.00, -1.00, 784.7, 633.4)">s</text><text xml:space="preserve" font-family="Helvetica-Light,Helvetica" font-size="36.9" fill="#FEFFFF" transform="matrix(1.00, 0.00, -0.00, -1.00, 79.0, 515.5)">A</text><text xml:space="preserve" font-family="Helvetica-Light,Helvetica" font-size="36.9" fill="#FEFFFF" transform="matrix(1.00, 0.00, -0.00, -1.00, 103.6, 515.5)"> </text><text xml:space="preserve" font-family="Helvetica-Light,Helvetica" font-size="36.9" fill="#FEFFFF" transform="matrix(1.00, 0.00, -0.00, -1.00, 113.8, 515.5)">P</text><text xml:space="preserve" font-family="Helvetica-Light,Helvetica" font-size="36.9" fill="#FEFFFF" transform="matrix(1.00, 0.00, -0.00, -1.00, 136.4, 515.5)">r</text><text xml:space="preserve" font-family="Helvetica-Light,Helvetica" font-size="36.9" fill="#FEFFFF" transform="matrix(1.00, 0.00, -0.00, -1.00, 148.0, 515.5)">o</text><text xml:space="preserve" font-family="Helvetica-Light,Helvetica" font-size="36.9" fill="#FEFFFF" transform="matrix(1.00, 0.00, -0.00, -1.00, 168.5, 515.5)">m</text><text xml:space="preserve" font-family="Helvetica-Light,Helvetica" font-size="36.9" fill="#FEFFFF" transform="matrix(1.00, 0.00, -0.00, -1.00, 199.2, 515.5)">i</text><text xml:space="preserve" font-family="Helvetica-Light,Helvetica" font-size="36.9" fill="#FEFFFF" transform="matrix(1.00, 0.00, -0.00, -1.00, 207.3, 515.5)">s</text><text xml:space="preserve" font-family="Helvetica-Light,Helvetica" font-size="36.9" fill="#FEFFFF" transform="matrix(1.00, 0.00, -0.00, -1.00, 225.8, 515.5)">e</text><text xml:space="preserve" font-family="Helvetica-Light,Helvetica" font-size="36.9" fill="#FEFFFF" transform="matrix(1.00, 0.00, -0.00, -1.00, 246.3, 515.5)"> </text><text xml:space="preserve" font-family="Helvetica-Light,Helvetica" font-size="36.9" fill="#FEFFFF" transform="matrix(1.00, 0.00, -0.00, -1.00, 256.5, 515.5)">i</text><text xml:space="preserve" font-family="Helvetica-Light,Helvetica" font-size="36.9" fill="#FEFFFF" transform="matrix(1.00, 0.00, -0.00, -1.00, 264.7, 515.5)">s</text><text xml:space="preserve" font-family="Helvetica-Light,Helvetica" font-size="36.9" fill="#FEFFFF" transform="matrix(1.00, 0.00, -0.00, -1.00, 283.1, 515.5)"> </text><text xml:space="preserve" font-family="Helvetica-Light,Helvetica" font-size="36.9" fill="#FEFFFF" transform="matrix(1.00, 0.00, -0.00, -1.00, 293.4, 515.5)">a</text><text xml:space="preserve" font-family="Helvetica-Light,Helvetica" font-size="36.9" fill="#FEFFFF" transform="matrix(1.00, 0.00, -0.00, -1.00, 313.9, 515.5)">n</text><text xml:space="preserve" font-family="Helvetica-Light,Helvetica" font-size="36.9" fill="#FEFFFF" transform="matrix(1.00, 0.00, -0.00, -1.00, 334.4, 515.5)"> </text><text xml:space="preserve" font-family="Helvetica-Light,Helvetica" font-size="36.9" fill="#FEFFFF" transform="matrix(1.00, 0.00, -0.00, -1.00, 344.6, 515.5)">o</text><text xml:space="preserve" font-family="Helvetica-Light,Helvetica" font-size="36.9" fill="#FEFFFF" transform="matrix(1.00, 0.00, -0.00, -1.00, 365.1, 515.5)">b</text><text xml:space="preserve" font-family="Helvetica-Light,Helvetica" font-size="36.9" fill="#FEFFFF" transform="matrix(1.00, 0.00, -0.00, -1.00, 387.6, 515.5)">j</text><text xml:space="preserve" font-family="Helvetica-Light,Helvetica" font-size="36.9" fill="#FEFFFF" transform="matrix(1.00, 0.00, -0.00, -1.00, 395.8, 515.5)">e</text><text xml:space="preserve" font-family="Helvetica-Light,Helvetica" font-size="36.9" fill="#FEFFFF" transform="matrix(1.00, 0.00, -0.00, -1.00, 416.3, 515.5)">c</text><text xml:space="preserve" font-family="Helvetica-Light,Helvetica" font-size="36.9" fill="#FEFFFF" transform="matrix(1.00, 0.00, -0.00, -1.00, 436.8, 515.5)">t</text><text xml:space="preserve" font-family="Helvetica-Light,Helvetica" font-size="36.9" fill="#FEFFFF" transform="matrix(1.00, 0.00, -0.00, -1.00, 447.0, 515.5)"> </text><text xml:space="preserve" font-family="Helvetica-Light,Helvetica" font-size="36.9" fill="#FEFFFF" transform="matrix(1.00, 0.00, -0.00, -1.00, 457.3, 515.5)">t</text><text xml:space="preserve" font-family="Helvetica-Light,Helvetica" font-size="36.9" fill="#FEFFFF" transform="matrix(1.00, 0.00, -0.00, -1.00, 467.5, 515.5)">h</text><text xml:space="preserve" font-family="Helvetica-Light,Helvetica" font-size="36.9" fill="#FEFFFF" transform="matrix(1.00, 0.00, -0.00, -1.00, 488.0, 515.5)">a</text><text xml:space="preserve" font-family="Helvetica-Light,Helvetica" font-size="36.9" fill="#FEFFFF" transform="matrix(1.00, 0.00, -0.00, -1.00, 508.5, 515.5)">t</text><text xml:space="preserve" font-family="Helvetica-Light,Helvetica" font-size="36.9" fill="#FEFFFF" transform="matrix(1.00, 0.00, -0.00, -1.00, 518.8, 515.5)"> </text><text xml:space="preserve" font-family="Helvetica-Light,Helvetica" font-size="36.9" fill="#FEFFFF" transform="matrix(1.00, 0.00, -0.00, -1.00, 529.0, 515.5)">r</text><text xml:space="preserve" font-family="Helvetica-Light,Helvetica" font-size="36.9" fill="#FEFFFF" transform="matrix(1.00, 0.00, -0.00, -1.00, 540.6, 515.5)">e</text><text xml:space="preserve" font-family="Helvetica-Light,Helvetica" font-size="36.9" fill="#FEFFFF" transform="matrix(1.00, 0.00, -0.00, -1.00, 561.1, 515.5)">p</text><text xml:space="preserve" font-family="Helvetica-Light,Helvetica" font-size="36.9" fill="#FEFFFF" transform="matrix(1.00, 0.00, -0.00, -1.00, 583.7, 515.5)">r</text><text xml:space="preserve" font-family="Helvetica-Light,Helvetica" font-size="36.9" fill="#FEFFFF" transform="matrix(1.00, 0.00, -0.00, -1.00, 595.3, 515.5)">e</text><text xml:space="preserve" font-family="Helvetica-Light,Helvetica" font-size="36.9" fill="#FEFFFF" transform="matrix(1.00, 0.00, -0.00, -1.00, 615.8, 515.5)">s</text><text xml:space="preserve" font-family="Helvetica-Light,Helvetica" font-size="36.9" fill="#FEFFFF" transform="matrix(1.00, 0.00, -0.00, -1.00, 634.2, 515.5)">e</text><text xml:space="preserve" font-family="Helvetica-Light,Helvetica" font-size="36.9" fill="#FEFFFF" transform="matrix(1.00, 0.00, -0.00, -1.00, 654.7, 515.5)">n</text><text xml:space="preserve" font-family="Helvetica-Light,Helvetica" font-size="36.9" fill="#FEFFFF" transform="matrix(1.00, 0.00, -0.00, -1.00, 675.2, 515.5)">t</text><text xml:space="preserve" font-family="Helvetica-Light,Helvetica" font-size="36.9" fill="#FEFFFF" transform="matrix(1.00, 0.00, -0.00, -1.00, 685.4, 515.5)">s</text><text xml:space="preserve" font-family="Helvetica-Light,Helvetica" font-size="36.9" fill="#FEFFFF" transform="matrix(1.00, 0.00, -0.00, -1.00, 703.9, 515.5)"> </text><text xml:space="preserve" font-family="Helvetica-Light,Helvetica" font-size="36.9" fill="#FEFFFF" transform="matrix(1.00, 0.00, -0.00, -1.00, 714.1, 515.5)">a</text><text xml:space="preserve" font-family="Helvetica-Light,Helvetica" font-size="36.9" fill="#FEFFFF" transform="matrix(1.00, 0.00, -0.00, -1.00, 734.6, 515.5)">n</text><text xml:space="preserve" font-family="Helvetica-Light,Helvetica" font-size="36.9" fill="#FEFFFF" transform="matrix(1.00, 0.00, -0.00, -1.00, 755.1, 515.5)"> </text><text xml:space="preserve" font-family="Helvetica-Light,Helvetica" font-size="36.9" fill="#FEFFFF" transform="matrix(1.00, 0.00, -0.00, -1.00, 765.3, 515.5)">o</text><text xml:space="preserve" font-family="Helvetica-Light,Helvetica" font-size="36.9" fill="#FEFFFF" transform="matrix(1.00, 0.00, -0.00, -1.00, 785.8, 515.5)">p</text><text xml:space="preserve" font-family="Helvetica-Light,Helvetica" font-size="36.9" fill="#FEFFFF" transform="matrix(1.00, 0.00, -0.00, -1.00, 808.3, 515.5)">e</text><text xml:space="preserve" font-family="Helvetica-Light,Helvetica" font-size="36.9" fill="#FEFFFF" transform="matrix(1.00, 0.00, -0.00, -1.00, 828.8, 515.5)">r</text><text xml:space="preserve" font-family="Helvetica-Light,Helvetica" font-size="36.9" fill="#FEFFFF" transform="matrix(1.00, 0.00, -0.00, -1.00, 841.1, 515.5)">a</text><text xml:space="preserve" font-family="Helvetica-Light,Helvetica" font-size="36.9" fill="#FEFFFF" transform="matrix(1.00, 0.00, -0.00, -1.00, 861.6, 515.5)">t</text><text xml:space="preserve" font-family="Helvetica-Light,Helvetica" font-size="36.9" fill="#FEFFFF" transform="matrix(1.00, 0.00, -0.00, -1.00, 871.9, 515.5)">i</text><text xml:space="preserve" font-family="Helvetica-Light,Helvetica" font-size="36.9" fill="#FEFFFF" transform="matrix(1.00, 0.00, -0.00, -1.00, 880.0, 515.5)">o</text><text xml:space="preserve" font-family="Helvetica-Light,Helvetica" font-size="36.9" fill="#FEFFFF" transform="matrix(1.00, 0.00, -0.00, -1.00, 900.5, 515.5)">n</text><text xml:space="preserve" font-family="Helvetica-Light,Helvetica" font-size="36.9" fill="#FEFFFF" transform="matrix(1.00, 0.00, -0.00, -1.00, 921.0, 515.5)"> </text><text xml:space="preserve" font-family="Helvetica-Light,Helvetica" font-size="36.9" fill="#FEFFFF" transform="matrix(1.00, 0.00, -0.00, -1.00, 79.0, 472.5)">t</text><text xml:space="preserve" font-family="Helvetica-Light,Helvetica" font-size="36.9" fill="#FEFFFF" transform="matrix(1.00, 0.00, -0.00, -1.00, 89.2, 472.5)">h</text><text xml:space="preserve" font-family="Helvetica-Light,Helvetica" font-size="36.9" fill="#FEFFFF" transform="matrix(1.00, 0.00, -0.00, -1.00, 109.7, 472.5)">a</text><text xml:space="preserve" font-family="Helvetica-Light,Helvetica" font-size="36.9" fill="#FEFFFF" transform="matrix(1.00, 0.00, -0.00, -1.00, 130.2, 472.5)">t</text><text xml:space="preserve" font-family="Helvetica-Light,Helvetica" font-size="36.9" fill="#FEFFFF" transform="matrix(1.00, 0.00, -0.00, -1.00, 140.5, 472.5)"> </text><text xml:space="preserve" font-family="Helvetica-Light,Helvetica" font-size="36.9" fill="#FEFFFF" transform="matrix(1.00, 0.00, -0.00, -1.00, 150.7, 472.5)">m</text><text xml:space="preserve" font-family="Helvetica-Light,Helvetica" font-size="36.9" fill="#FEFFFF" transform="matrix(1.00, 0.00, -0.00, -1.00, 181.4, 472.5)">a</text><text xml:space="preserve" font-family="Helvetica-Light,Helvetica" font-size="36.9" fill="#FEFFFF" transform="matrix(1.00, 0.00, -0.00, -1.00, 201.9, 472.5)">y</text><text xml:space="preserve" font-family="Helvetica-Light,Helvetica" font-size="36.9" fill="#FEFFFF" transform="matrix(1.00, 0.00, -0.00, -1.00, 220.4, 472.5)"> </text><text xml:space="preserve" font-family="Helvetica-Light,Helvetica" font-size="36.9" fill="#FEFFFF" transform="matrix(1.00, 0.00, -0.00, -1.00, 230.6, 472.5)">o</text><text xml:space="preserve" font-family="Helvetica-Light,Helvetica" font-size="36.9" fill="#FEFFFF" transform="matrix(1.00, 0.00, -0.00, -1.00, 251.1, 472.5)">r</text><text xml:space="preserve" font-family="Helvetica-Light,Helvetica" font-size="36.9" fill="#FEFFFF" transform="matrix(1.00, 0.00, -0.00, -1.00, 263.4, 472.5)"> </text><text xml:space="preserve" font-family="Helvetica-Light,Helvetica" font-size="36.9" fill="#FEFFFF" transform="matrix(1.00, 0.00, -0.00, -1.00, 273.6, 472.5)">m</text><text xml:space="preserve" font-family="Helvetica-Light,Helvetica" font-size="36.9" fill="#FEFFFF" transform="matrix(1.00, 0.00, -0.00, -1.00, 304.3, 472.5)">a</text><text xml:space="preserve" font-family="Helvetica-Light,Helvetica" font-size="36.9" fill="#FEFFFF" transform="matrix(1.00, 0.00, -0.00, -1.00, 324.8, 472.5)">y</text><text xml:space="preserve" font-family="Helvetica-Light,Helvetica" font-size="36.9" fill="#FEFFFF" transform="matrix(1.00, 0.00, -0.00, -1.00, 343.2, 472.5)"> </text><text xml:space="preserve" font-family="Helvetica-Light,Helvetica" font-size="36.9" fill="#FEFFFF" transform="matrix(1.00, 0.00, -0.00, -1.00, 353.5, 472.5)">n</text><text xml:space="preserve" font-family="Helvetica-Light,Helvetica" font-size="36.9" fill="#FEFFFF" transform="matrix(1.00, 0.00, -0.00, -1.00, 374.0, 472.5)">o</text><text xml:space="preserve" font-family="Helvetica-Light,Helvetica" font-size="36.9" fill="#FEFFFF" transform="matrix(1.00, 0.00, -0.00, -1.00, 394.5, 472.5)">t</text><text xml:space="preserve" font-family="Helvetica-Light,Helvetica" font-size="36.9" fill="#FEFFFF" transform="matrix(1.00, 0.00, -0.00, -1.00, 404.7, 472.5)"> </text><text xml:space="preserve" font-family="Helvetica-Light,Helvetica" font-size="36.9" fill="#FEFFFF" transform="matrix(1.00, 0.00, -0.00, -1.00, 415.0, 472.5)">h</text><text xml:space="preserve" font-family="Helvetica-Light,Helvetica" font-size="36.9" fill="#FEFFFF" transform="matrix(1.00, 0.00, -0.00, -1.00, 435.5, 472.5)">a</text><text xml:space="preserve" font-family="Helvetica-Light,Helvetica" font-size="36.9" fill="#FEFFFF" transform="matrix(1.00, 0.00, -0.00, -1.00, 456.0, 472.5)">v</text><text xml:space="preserve" font-family="Helvetica-Light,Helvetica" font-size="36.9" fill="#FEFFFF" transform="matrix(1.00, 0.00, -0.00, -1.00, 474.4, 472.5)">e</text><text xml:space="preserve" font-family="Helvetica-Light,Helvetica" font-size="36.9" fill="#FEFFFF" transform="matrix(1.00, 0.00, -0.00, -1.00, 494.9, 472.5)"> </text><text xml:space="preserve" font-family="Helvetica-Light,Helvetica" font-size="36.9" fill="#FEFFFF" transform="matrix(1.00, 0.00, -0.00, -1.00, 505.1, 472.5)">b</text><text xml:space="preserve" font-family="Helvetica-Light,Helvetica" font-size="36.9" fill="#FEFFFF" transform="matrix(1.00, 0.00, -0.00, -1.00, 527.7, 472.5)">e</text><text xml:space="preserve" font-family="Helvetica-Light,Helvetica" font-size="36.9" fill="#FEFFFF" transform="matrix(1.00, 0.00, -0.00, -1.00, 548.2, 472.5)">e</text><text xml:space="preserve" font-family="Helvetica-Light,Helvetica" font-size="36.9" fill="#FEFFFF" transform="matrix(1.00, 0.00, -0.00, -1.00, 568.6, 472.5)">n</text><text xml:space="preserve" font-family="Helvetica-Light,Helvetica" font-size="36.9" fill="#FEFFFF" transform="matrix(1.00, 0.00, -0.00, -1.00, 589.1, 472.5)"> </text><text xml:space="preserve" font-family="Helvetica-Light,Helvetica" font-size="36.9" fill="#FEFFFF" transform="matrix(1.00, 0.00, -0.00, -1.00, 599.4, 472.5)">c</text><text xml:space="preserve" font-family="Helvetica-Light,Helvetica" font-size="36.9" fill="#FEFFFF" transform="matrix(1.00, 0.00, -0.00, -1.00, 619.9, 472.5)">o</text><text xml:space="preserve" font-family="Helvetica-Light,Helvetica" font-size="36.9" fill="#FEFFFF" transform="matrix(1.00, 0.00, -0.00, -1.00, 640.4, 472.5)">m</text><text xml:space="preserve" font-family="Helvetica-Light,Helvetica" font-size="36.9" fill="#FEFFFF" transform="matrix(1.00, 0.00, -0.00, -1.00, 671.1, 472.5)">p</text><text xml:space="preserve" font-family="Helvetica-Light,Helvetica" font-size="36.9" fill="#FEFFFF" transform="matrix(1.00, 0.00, -0.00, -1.00, 693.6, 472.5)">l</text><text xml:space="preserve" font-family="Helvetica-Light,Helvetica" font-size="36.9" fill="#FEFFFF" transform="matrix(1.00, 0.00, -0.00, -1.00, 701.8, 472.5)">e</text><text xml:space="preserve" font-family="Helvetica-Light,Helvetica" font-size="36.9" fill="#FEFFFF" transform="matrix(1.00, 0.00, -0.00, -1.00, 722.3, 472.5)">t</text><text xml:space="preserve" font-family="Helvetica-Light,Helvetica" font-size="36.9" fill="#FEFFFF" transform="matrix(1.00, 0.00, -0.00, -1.00, 732.5, 472.5)">e</text><text xml:space="preserve" font-family="Helvetica-Light,Helvetica" font-size="36.9" fill="#FEFFFF" transform="matrix(1.00, 0.00, -0.00, -1.00, 753.0, 472.5)">d</text><text xml:space="preserve" font-family="Helvetica-Light,Helvetica" font-size="36.9" fill="#FEFFFF" transform="matrix(1.00, 0.00, -0.00, -1.00, 775.5, 472.5)"> </text><text xml:space="preserve" font-family="Helvetica-Light,Helvetica" font-size="36.9" fill="#FEFFFF" transform="matrix(1.00, 0.00, -0.00, -1.00, 785.8, 472.5)">y</text><text xml:space="preserve" font-family="Helvetica-Light,Helvetica" font-size="36.9" fill="#FEFFFF" transform="matrix(1.00, 0.00, -0.00, -1.00, 804.2, 472.5)">e</text><text xml:space="preserve" font-family="Helvetica-Light,Helvetica" font-size="36.9" fill="#FEFFFF" transform="matrix(1.00, 0.00, -0.00, -1.00, 824.7, 472.5)">t</text><text xml:space="preserve" font-family="Helvetica-Light,Helvetica" font-size="36.9" fill="#FEFFFF" transform="matrix(1.00, 0.00, -0.00, -1.00, 835.0, 472.5)">.</text><text xml:space="preserve" font-family="Helvetica-Light,Helvetica" font-size="36.9" fill="#FEFFFF" transform="matrix(1.00, 0.00, -0.00, -1.00, 845.2, 472.5)"> </text><text xml:space="preserve" font-family="Helvetica-Light,Helvetica" font-size="36.9" fill="#FEFFFF" transform="matrix(1.00, 0.00, -0.00, -1.00, 79.0, 388.7)">S</text><text xml:space="preserve" font-family="Helvetica-Light,Helvetica" font-size="36.9" fill="#FEFFFF" transform="matrix(1.00, 0.00, -0.00, -1.00, 101.5, 388.7)">t</text><text xml:space="preserve" font-family="Helvetica-Light,Helvetica" font-size="36.9" fill="#FEFFFF" transform="matrix(1.00, 0.00, -0.00, -1.00, 111.8, 388.7)">a</text><text xml:space="preserve" font-family="Helvetica-Light,Helvetica" font-size="36.9" fill="#FEFFFF" transform="matrix(1.00, 0.00, -0.00, -1.00, 132.3, 388.7)">t</text><text xml:space="preserve" font-family="Helvetica-Light,Helvetica" font-size="36.9" fill="#FEFFFF" transform="matrix(1.00, 0.00, -0.00, -1.00, 142.5, 388.7)">e</text><text xml:space="preserve" font-family="Helvetica-Light,Helvetica" font-size="36.9" fill="#FEFFFF" transform="matrix(1.00, 0.00, -0.00, -1.00, 163.0, 388.7)">s</text><text xml:space="preserve" font-family="Helvetica-Light,Helvetica" font-size="36.9" fill="#FEFFFF" transform="matrix(1.00, 0.00, -0.00, -1.00, 181.4, 388.7)">:</text><text xml:space="preserve" font-family="Helvetica-Light,Helvetica" font-size="36.9" fill="#FEFFFF" transform="matrix(1.00, 0.00, -0.00, -1.00, 191.7, 388.7)"> </text><text xml:space="preserve" font-family="Helvetica-Light,Helvetica" font-size="27.6" fill="#FEFFFF" transform="matrix(1.00, 0.00, -0.00, -1.00, 79.0, 307.9)">•</text><text xml:space="preserve" font-family="Courier,Courier" font-size="36.9" fill="#FEFB00" transform="matrix(1.00, 0.00, -0.00, -1.00, 113.0, 304.6)">p</text><text xml:space="preserve" font-family="Courier,Courier" font-size="36.9" fill="#FEFB00" transform="matrix(1.00, 0.00, -0.00, -1.00, 135.1, 304.6)">e</text><text xml:space="preserve" font-family="Courier,Courier" font-size="36.9" fill="#FEFB00" transform="matrix(1.00, 0.00, -0.00, -1.00, 157.2, 304.6)">n</text><text xml:space="preserve" font-family="Courier,Courier" font-size="36.9" fill="#FEFB00" transform="matrix(1.00, 0.00, -0.00, -1.00, 179.3, 304.6)">d</text><text xml:space="preserve" font-family="Courier,Courier" font-size="36.9" fill="#FEFB00" transform="matrix(1.00, 0.00, -0.00, -1.00, 201.4, 304.6)">i</text><text xml:space="preserve" font-family="Courier,Courier" font-size="36.9" fill="#FEFB00" transform="matrix(1.00, 0.00, -0.00, -1.00, 223.6, 304.6)">n</text><text xml:space="preserve" font-family="Courier,Courier" font-size="36.9" fill="#FEFB00" transform="matrix(1.00, 0.00, -0.00, -1.00, 245.7, 304.6)">g</text><text xml:space="preserve" font-family="Helvetica-Light,Helvetica" font-size="36.9" fill="#FEFFFF" transform="matrix(1.00, 0.00, -0.00, -1.00, 267.8, 304.6)">:</text><text xml:space="preserve" font-family="Helvetica-Light,Helvetica" font-size="36.9" fill="#FEFFFF" transform="matrix(1.00, 0.00, -0.00, -1.00, 278.0, 304.6)"> </text><text xml:space="preserve" font-family="Helvetica-Light,Helvetica" font-size="36.9" fill="#FEFFFF" transform="matrix(1.00, 0.00, -0.00, -1.00, 288.3, 304.6)">i</text><text xml:space="preserve" font-family="Helvetica-Light,Helvetica" font-size="36.9" fill="#FEFFFF" transform="matrix(1.00, 0.00, -0.00, -1.00, 296.5, 304.6)">n</text><text xml:space="preserve" font-family="Helvetica-Light,Helvetica" font-size="36.9" fill="#FEFFFF" transform="matrix(1.00, 0.00, -0.00, -1.00, 317.0, 304.6)">i</text><text xml:space="preserve" font-family="Helvetica-Light,Helvetica" font-size="36.9" fill="#FEFFFF" transform="matrix(1.00, 0.00, -0.00, -1.00, 325.1, 304.6)">t</text><text xml:space="preserve" font-family="Helvetica-Light,Helvetica" font-size="36.9" fill="#FEFFFF" transform="matrix(1.00, 0.00, -0.00, -1.00, 335.4, 304.6)">i</text><text xml:space="preserve" font-family="Helvetica-Light,Helvetica" font-size="36.9" fill="#FEFFFF" transform="matrix(1.00, 0.00, -0.00, -1.00, 343.6, 304.6)">a</text><text xml:space="preserve" font-family="Helvetica-Light,Helvetica" font-size="36.9" fill="#FEFFFF" transform="matrix(1.00, 0.00, -0.00, -1.00, 364.1, 304.6)">l</text><text xml:space="preserve" font-family="Helvetica-Light,Helvetica" font-size="36.9" fill="#FEFFFF" transform="matrix(1.00, 0.00, -0.00, -1.00, 372.2, 304.6)"> </text><text xml:space="preserve" font-family="Helvetica-Light,Helvetica" font-size="36.9" fill="#FEFFFF" transform="matrix(1.00, 0.00, -0.00, -1.00, 382.5, 304.6)">s</text><text xml:space="preserve" font-family="Helvetica-Light,Helvetica" font-size="36.9" fill="#FEFFFF" transform="matrix(1.00, 0.00, -0.00, -1.00, 400.9, 304.6)">t</text><text xml:space="preserve" font-family="Helvetica-Light,Helvetica" font-size="36.9" fill="#FEFFFF" transform="matrix(1.00, 0.00, -0.00, -1.00, 411.2, 304.6)">a</text><text xml:space="preserve" font-family="Helvetica-Light,Helvetica" font-size="36.9" fill="#FEFFFF" transform="matrix(1.00, 0.00, -0.00, -1.00, 431.7, 304.6)">t</text><text xml:space="preserve" font-family="Helvetica-Light,Helvetica" font-size="36.9" fill="#FEFFFF" transform="matrix(1.00, 0.00, -0.00, -1.00, 441.9, 304.6)">e</text><text xml:space="preserve" font-family="Helvetica-Light,Helvetica" font-size="36.9" fill="#FEFFFF" transform="matrix(1.00, 0.00, -0.00, -1.00, 462.4, 304.6)">,</text><text xml:space="preserve" font-family="Helvetica-Light,Helvetica" font-size="36.9" fill="#FEFFFF" transform="matrix(1.00, 0.00, -0.00, -1.00, 472.7, 304.6)"> </text><text xml:space="preserve" font-family="Helvetica-Light,Helvetica" font-size="36.9" fill="#FEFFFF" transform="matrix(1.00, 0.00, -0.00, -1.00, 482.9, 304.6)">n</text><text xml:space="preserve" font-family="Helvetica-Light,Helvetica" font-size="36.9" fill="#FEFFFF" transform="matrix(1.00, 0.00, -0.00, -1.00, 503.4, 304.6)">o</text><text xml:space="preserve" font-family="Helvetica-Light,Helvetica" font-size="36.9" fill="#FEFFFF" transform="matrix(1.00, 0.00, -0.00, -1.00, 523.9, 304.6)">t</text><text xml:space="preserve" font-family="Helvetica-Light,Helvetica" font-size="36.9" fill="#FEFFFF" transform="matrix(1.00, 0.00, -0.00, -1.00, 534.1, 304.6)"> </text><text xml:space="preserve" font-family="Helvetica-Light,Helvetica" font-size="36.9" fill="#FEFFFF" transform="matrix(1.00, 0.00, -0.00, -1.00, 544.4, 304.6)">f</text><text xml:space="preserve" font-family="Helvetica-Light,Helvetica" font-size="36.9" fill="#FEFFFF" transform="matrix(1.00, 0.00, -0.00, -1.00, 554.6, 304.6)">u</text><text xml:space="preserve" font-family="Helvetica-Light,Helvetica" font-size="36.9" fill="#FEFFFF" transform="matrix(1.00, 0.00, -0.00, -1.00, 575.1, 304.6)">l</text><text xml:space="preserve" font-family="Helvetica-Light,Helvetica" font-size="36.9" fill="#FEFFFF" transform="matrix(1.00, 0.00, -0.00, -1.00, 583.3, 304.6)">ﬁ</text><text xml:space="preserve" font-family="Helvetica-Light,Helvetica" font-size="36.9" fill="#FEFFFF" transform="matrix(1.00, 0.00, -0.00, -1.00, 601.7, 304.6)">l</text><text xml:space="preserve" font-family="Helvetica-Light,Helvetica" font-size="36.9" fill="#FEFFFF" transform="matrix(1.00, 0.00, -0.00, -1.00, 609.9, 304.6)">l</text><text xml:space="preserve" font-family="Helvetica-Light,Helvetica" font-size="36.9" fill="#FEFFFF" transform="matrix(1.00, 0.00, -0.00, -1.00, 618.1, 304.6)">e</text><text xml:space="preserve" font-family="Helvetica-Light,Helvetica" font-size="36.9" fill="#FEFFFF" transform="matrix(1.00, 0.00, -0.00, -1.00, 638.6, 304.6)">d</text><text xml:space="preserve" font-family="Helvetica-Light,Helvetica" font-size="36.9" fill="#FEFFFF" transform="matrix(1.00, 0.00, -0.00, -1.00, 661.1, 304.6)"> </text><text xml:space="preserve" font-family="Helvetica-Light,Helvetica" font-size="36.9" fill="#FEFFFF" transform="matrix(1.00, 0.00, -0.00, -1.00, 671.4, 304.6)">o</text><text xml:space="preserve" font-family="Helvetica-Light,Helvetica" font-size="36.9" fill="#FEFFFF" transform="matrix(1.00, 0.00, -0.00, -1.00, 691.9, 304.6)">r</text><text xml:space="preserve" font-family="Helvetica-Light,Helvetica" font-size="36.9" fill="#FEFFFF" transform="matrix(1.00, 0.00, -0.00, -1.00, 704.1, 304.6)"> </text><text xml:space="preserve" font-family="Helvetica-Light,Helvetica" font-size="36.9" fill="#FEFFFF" transform="matrix(1.00, 0.00, -0.00, -1.00, 714.4, 304.6)">r</text><text xml:space="preserve" font-family="Helvetica-Light,Helvetica" font-size="36.9" fill="#FEFFFF" transform="matrix(1.00, 0.00, -0.00, -1.00, 726.0, 304.6)">e</text><text xml:space="preserve" font-family="Helvetica-Light,Helvetica" font-size="36.9" fill="#FEFFFF" transform="matrix(1.00, 0.00, -0.00, -1.00, 746.5, 304.6)">j</text><text xml:space="preserve" font-family="Helvetica-Light,Helvetica" font-size="36.9" fill="#FEFFFF" transform="matrix(1.00, 0.00, -0.00, -1.00, 754.7, 304.6)">e</text><text xml:space="preserve" font-family="Helvetica-Light,Helvetica" font-size="36.9" fill="#FEFFFF" transform="matrix(1.00, 0.00, -0.00, -1.00, 775.2, 304.6)">c</text><text xml:space="preserve" font-family="Helvetica-Light,Helvetica" font-size="36.9" fill="#FEFFFF" transform="matrix(1.00, 0.00, -0.00, -1.00, 795.7, 304.6)">t</text><text xml:space="preserve" font-family="Helvetica-Light,Helvetica" font-size="36.9" fill="#FEFFFF" transform="matrix(1.00, 0.00, -0.00, -1.00, 805.9, 304.6)">e</text><text xml:space="preserve" font-family="Helvetica-Light,Helvetica" font-size="36.9" fill="#FEFFFF" transform="matrix(1.00, 0.00, -0.00, -1.00, 826.4, 304.6)">d</text><text xml:space="preserve" font-family="Helvetica-Light,Helvetica" font-size="36.9" fill="#FEFFFF" transform="matrix(1.00, 0.00, -0.00, -1.00, 848.9, 304.6)">.</text><text xml:space="preserve" font-family="Helvetica-Light,Helvetica" font-size="36.9" fill="#FEFFFF" transform="matrix(1.00, 0.00, -0.00, -1.00, 859.2, 304.6)"> </text><text xml:space="preserve" font-family="Helvetica-Light,Helvetica" font-size="27.6" fill="#FEFFFF" transform="matrix(1.00, 0.00, -0.00, -1.00, 79.0, 223.1)">•</text><text xml:space="preserve" font-family="Courier,Courier" font-size="36.9" fill="#00F900" transform="matrix(1.00, 0.00, -0.00, -1.00, 113.0, 219.9)">f</text><text xml:space="preserve" font-family="Courier,Courier" font-size="36.9" fill="#00F900" transform="matrix(1.00, 0.00, -0.00, -1.00, 135.1, 219.9)">u</text><text xml:space="preserve" font-family="Courier,Courier" font-size="36.9" fill="#00F900" transform="matrix(1.00, 0.00, -0.00, -1.00, 157.2, 219.9)">l</text><text xml:space="preserve" font-family="Courier,Courier" font-size="36.9" fill="#00F900" transform="matrix(1.00, 0.00, -0.00, -1.00, 179.3, 219.9)">f</text><text xml:space="preserve" font-family="Courier,Courier" font-size="36.9" fill="#00F900" transform="matrix(1.00, 0.00, -0.00, -1.00, 201.4, 219.9)">i</text><text xml:space="preserve" font-family="Courier,Courier" font-size="36.9" fill="#00F900" transform="matrix(1.00, 0.00, -0.00, -1.00, 223.6, 219.9)">l</text><text xml:space="preserve" font-family="Courier,Courier" font-size="36.9" fill="#00F900" transform="matrix(1.00, 0.00, -0.00, -1.00, 245.7, 219.9)">l</text><text xml:space="preserve" font-family="Courier,Courier" font-size="36.9" fill="#00F900" transform="matrix(1.00, 0.00, -0.00, -1.00, 267.8, 219.9)">e</text><text xml:space="preserve" font-family="Courier,Courier" font-size="36.9" fill="#00F900" transform="matrix(1.00, 0.00, -0.00, -1.00, 289.9, 219.9)">d</text><text xml:space="preserve" font-family="Helvetica-Light,Helvetica" font-size="36.9" fill="#FEFFFF" transform="matrix(1.00, 0.00, -0.00, -1.00, 312.0, 219.9)">:</text><text xml:space="preserve" font-family="Helvetica-Light,Helvetica" font-size="36.9" fill="#FEFFFF" transform="matrix(1.00, 0.00, -0.00, -1.00, 322.3, 219.9)"> </text><text xml:space="preserve" font-family="Helvetica-Light,Helvetica" font-size="36.9" fill="#FEFFFF" transform="matrix(1.00, 0.00, -0.00, -1.00, 332.5, 219.9)">t</text><text xml:space="preserve" font-family="Helvetica-Light,Helvetica" font-size="36.9" fill="#FEFFFF" transform="matrix(1.00, 0.00, -0.00, -1.00, 342.8, 219.9)">h</text><text xml:space="preserve" font-family="Helvetica-Light,Helvetica" font-size="36.9" fill="#FEFFFF" transform="matrix(1.00, 0.00, -0.00, -1.00, 363.3, 219.9)">e</text><text xml:space="preserve" font-family="Helvetica-Light,Helvetica" font-size="36.9" fill="#FEFFFF" transform="matrix(1.00, 0.00, -0.00, -1.00, 383.8, 219.9)"> </text><text xml:space="preserve" font-family="Helvetica-Light,Helvetica" font-size="36.9" fill="#FEFFFF" transform="matrix(1.00, 0.00, -0.00, -1.00, 394.0, 219.9)">o</text><text xml:space="preserve" font-family="Helvetica-Light,Helvetica" font-size="36.9" fill="#FEFFFF" transform="matrix(1.00, 0.00, -0.00, -1.00, 414.5, 219.9)">p</text><text xml:space="preserve" font-family="Helvetica-Light,Helvetica" font-size="36.9" fill="#FEFFFF" transform="matrix(1.00, 0.00, -0.00, -1.00, 437.0, 219.9)">e</text><text xml:space="preserve" font-family="Helvetica-Light,Helvetica" font-size="36.9" fill="#FEFFFF" transform="matrix(1.00, 0.00, -0.00, -1.00, 457.5, 219.9)">r</text><text xml:space="preserve" font-family="Helvetica-Light,Helvetica" font-size="36.9" fill="#FEFFFF" transform="matrix(1.00, 0.00, -0.00, -1.00, 469.8, 219.9)">a</text><text xml:space="preserve" font-family="Helvetica-Light,Helvetica" font-size="36.9" fill="#FEFFFF" transform="matrix(1.00, 0.00, -0.00, -1.00, 490.3, 219.9)">t</text><text xml:space="preserve" font-family="Helvetica-Light,Helvetica" font-size="36.9" fill="#FEFFFF" transform="matrix(1.00, 0.00, -0.00, -1.00, 500.5, 219.9)">i</text><text xml:space="preserve" font-family="Helvetica-Light,Helvetica" font-size="36.9" fill="#FEFFFF" transform="matrix(1.00, 0.00, -0.00, -1.00, 508.7, 219.9)">o</text><text xml:space="preserve" font-family="Helvetica-Light,Helvetica" font-size="36.9" fill="#FEFFFF" transform="matrix(1.00, 0.00, -0.00, -1.00, 529.2, 219.9)">n</text><text xml:space="preserve" font-family="Helvetica-Light,Helvetica" font-size="36.9" fill="#FEFFFF" transform="matrix(1.00, 0.00, -0.00, -1.00, 549.7, 219.9)"> </text><text xml:space="preserve" font-family="Helvetica-Light,Helvetica" font-size="36.9" fill="#FEFFFF" transform="matrix(1.00, 0.00, -0.00, -1.00, 559.9, 219.9)">c</text><text xml:space="preserve" font-family="Helvetica-Light,Helvetica" font-size="36.9" fill="#FEFFFF" transform="matrix(1.00, 0.00, -0.00, -1.00, 580.4, 219.9)">o</text><text xml:space="preserve" font-family="Helvetica-Light,Helvetica" font-size="36.9" fill="#FEFFFF" transform="matrix(1.00, 0.00, -0.00, -1.00, 600.9, 219.9)">m</text><text xml:space="preserve" font-family="Helvetica-Light,Helvetica" font-size="36.9" fill="#FEFFFF" transform="matrix(1.00, 0.00, -0.00, -1.00, 631.6, 219.9)">p</text><text xml:space="preserve" font-family="Helvetica-Light,Helvetica" font-size="36.9" fill="#FEFFFF" transform="matrix(1.00, 0.00, -0.00, -1.00, 654.2, 219.9)">l</text><text xml:space="preserve" font-family="Helvetica-Light,Helvetica" font-size="36.9" fill="#FEFFFF" transform="matrix(1.00, 0.00, -0.00, -1.00, 662.3, 219.9)">e</text><text xml:space="preserve" font-family="Helvetica-Light,Helvetica" font-size="36.9" fill="#FEFFFF" transform="matrix(1.00, 0.00, -0.00, -1.00, 682.8, 219.9)">t</text><text xml:space="preserve" font-family="Helvetica-Light,Helvetica" font-size="36.9" fill="#FEFFFF" transform="matrix(1.00, 0.00, -0.00, -1.00, 693.1, 219.9)">e</text><text xml:space="preserve" font-family="Helvetica-Light,Helvetica" font-size="36.9" fill="#FEFFFF" transform="matrix(1.00, 0.00, -0.00, -1.00, 713.6, 219.9)">d</text><text xml:space="preserve" font-family="Helvetica-Light,Helvetica" font-size="36.9" fill="#FEFFFF" transform="matrix(1.00, 0.00, -0.00, -1.00, 736.1, 219.9)"> </text><text xml:space="preserve" font-family="Helvetica-Light,Helvetica" font-size="36.9" fill="#FEFFFF" transform="matrix(1.00, 0.00, -0.00, -1.00, 113.0, 176.3)">s</text><text xml:space="preserve" font-family="Helvetica-Light,Helvetica" font-size="36.9" fill="#FEFFFF" transform="matrix(1.00, 0.00, -0.00, -1.00, 131.4, 176.3)">u</text><text xml:space="preserve" font-family="Helvetica-Light,Helvetica" font-size="36.9" fill="#FEFFFF" transform="matrix(1.00, 0.00, -0.00, -1.00, 151.9, 176.3)">c</text><text xml:space="preserve" font-family="Helvetica-Light,Helvetica" font-size="36.9" fill="#FEFFFF" transform="matrix(1.00, 0.00, -0.00, -1.00, 172.4, 176.3)">c</text><text xml:space="preserve" font-family="Helvetica-Light,Helvetica" font-size="36.9" fill="#FEFFFF" transform="matrix(1.00, 0.00, -0.00, -1.00, 192.9, 176.3)">e</text><text xml:space="preserve" font-family="Helvetica-Light,Helvetica" font-size="36.9" fill="#FEFFFF" transform="matrix(1.00, 0.00, -0.00, -1.00, 213.4, 176.3)">s</text><text xml:space="preserve" font-family="Helvetica-Light,Helvetica" font-size="36.9" fill="#FEFFFF" transform="matrix(1.00, 0.00, -0.00, -1.00, 231.8, 176.3)">s</text><text xml:space="preserve" font-family="Helvetica-Light,Helvetica" font-size="36.9" fill="#FEFFFF" transform="matrix(1.00, 0.00, -0.00, -1.00, 250.2, 176.3)">f</text><text xml:space="preserve" font-family="Helvetica-Light,Helvetica" font-size="36.9" fill="#FEFFFF" transform="matrix(1.00, 0.00, -0.00, -1.00, 260.5, 176.3)">u</text><text xml:space="preserve" font-family="Helvetica-Light,Helvetica" font-size="36.9" fill="#FEFFFF" transform="matrix(1.00, 0.00, -0.00, -1.00, 281.0, 176.3)">l</text><text xml:space="preserve" font-family="Helvetica-Light,Helvetica" font-size="36.9" fill="#FEFFFF" transform="matrix(1.00, 0.00, -0.00, -1.00, 289.1, 176.3)">l</text><text xml:space="preserve" font-family="Helvetica-Light,Helvetica" font-size="36.9" fill="#FEFFFF" transform="matrix(1.00, 0.00, -0.00, -1.00, 297.3, 176.3)">y</text><text xml:space="preserve" font-family="Helvetica-Light,Helvetica" font-size="36.9" fill="#FEFFFF" transform="matrix(1.00, 0.00, -0.00, -1.00, 312.4, 176.3)">.</text><text xml:space="preserve" font-family="Helvetica-Light,Helvetica" font-size="36.9" fill="#FEFFFF" transform="matrix(1.00, 0.00, -0.00, -1.00, 322.6, 176.3)"> </text><text xml:space="preserve" font-family="Helvetica-Light,Helvetica" font-size="27.6" fill="#FEFFFF" transform="matrix(1.00, 0.00, -0.00, -1.00, 79.0, 95.4)">•</text><text xml:space="preserve" font-family="Courier,Courier" font-size="36.9" fill="#FF2600" transform="matrix(1.00, 0.00, -0.00, -1.00, 113.0, 92.1)">r</text><text xml:space="preserve" font-family="Courier,Courier" font-size="36.9" fill="#FF2600" transform="matrix(1.00, 0.00, -0.00, -1.00, 135.1, 92.1)">e</text><text xml:space="preserve" font-family="Courier,Courier" font-size="36.9" fill="#FF2600" transform="matrix(1.00, 0.00, -0.00, -1.00, 157.2, 92.1)">j</text><text xml:space="preserve" font-family="Courier,Courier" font-size="36.9" fill="#FF2600" transform="matrix(1.00, 0.00, -0.00, -1.00, 179.3, 92.1)">e</text><text xml:space="preserve" font-family="Courier,Courier" font-size="36.9" fill="#FF2600" transform="matrix(1.00, 0.00, -0.00, -1.00, 201.4, 92.1)">c</text><text xml:space="preserve" font-family="Courier,Courier" font-size="36.9" fill="#FF2600" transform="matrix(1.00, 0.00, -0.00, -1.00, 223.6, 92.1)">t</text><text xml:space="preserve" font-family="Courier,Courier" font-size="36.9" fill="#FF2600" transform="matrix(1.00, 0.00, -0.00, -1.00, 245.7, 92.1)">e</text><text xml:space="preserve" font-family="Courier,Courier" font-size="36.9" fill="#FF2600" transform="matrix(1.00, 0.00, -0.00, -1.00, 267.8, 92.1)">d</text><text xml:space="preserve" font-family="Helvetica-Light,Helvetica" font-size="36.9" fill="#FEFFFF" transform="matrix(1.00, 0.00, -0.00, -1.00, 289.9, 92.1)">:</text><text xml:space="preserve" font-family="Helvetica-Light,Helvetica" font-size="36.9" fill="#FEFFFF" transform="matrix(1.00, 0.00, -0.00, -1.00, 300.2, 92.1)"> </text><text xml:space="preserve" font-family="Helvetica-Light,Helvetica" font-size="36.9" fill="#FEFFFF" transform="matrix(1.00, 0.00, -0.00, -1.00, 310.4, 92.1)">t</text><text xml:space="preserve" font-family="Helvetica-Light,Helvetica" font-size="36.9" fill="#FEFFFF" transform="matrix(1.00, 0.00, -0.00, -1.00, 320.6, 92.1)">h</text><text xml:space="preserve" font-family="Helvetica-Light,Helvetica" font-size="36.9" fill="#FEFFFF" transform="matrix(1.00, 0.00, -0.00, -1.00, 341.1, 92.1)">e</text><text xml:space="preserve" font-family="Helvetica-Light,Helvetica" font-size="36.9" fill="#FEFFFF" transform="matrix(1.00, 0.00, -0.00, -1.00, 361.6, 92.1)"> </text><text xml:space="preserve" font-family="Helvetica-Light,Helvetica" font-size="36.9" fill="#FEFFFF" transform="matrix(1.00, 0.00, -0.00, -1.00, 371.9, 92.1)">o</text><text xml:space="preserve" font-family="Helvetica-Light,Helvetica" font-size="36.9" fill="#FEFFFF" transform="matrix(1.00, 0.00, -0.00, -1.00, 392.4, 92.1)">p</text><text xml:space="preserve" font-family="Helvetica-Light,Helvetica" font-size="36.9" fill="#FEFFFF" transform="matrix(1.00, 0.00, -0.00, -1.00, 414.9, 92.1)">e</text><text xml:space="preserve" font-family="Helvetica-Light,Helvetica" font-size="36.9" fill="#FEFFFF" transform="matrix(1.00, 0.00, -0.00, -1.00, 435.4, 92.1)">r</text><text xml:space="preserve" font-family="Helvetica-Light,Helvetica" font-size="36.9" fill="#FEFFFF" transform="matrix(1.00, 0.00, -0.00, -1.00, 447.7, 92.1)">a</text><text xml:space="preserve" font-family="Helvetica-Light,Helvetica" font-size="36.9" fill="#FEFFFF" transform="matrix(1.00, 0.00, -0.00, -1.00, 468.2, 92.1)">t</text><text xml:space="preserve" font-family="Helvetica-Light,Helvetica" font-size="36.9" fill="#FEFFFF" transform="matrix(1.00, 0.00, -0.00, -1.00, 478.4, 92.1)">i</text><text xml:space="preserve" font-family="Helvetica-Light,Helvetica" font-size="36.9" fill="#FEFFFF" transform="matrix(1.00, 0.00, -0.00, -1.00, 486.6, 92.1)">o</text><text xml:space="preserve" font-family="Helvetica-Light,Helvetica" font-size="36.9" fill="#FEFFFF" transform="matrix(1.00, 0.00, -0.00, -1.00, 507.1, 92.1)">n</text><text xml:space="preserve" font-family="Helvetica-Light,Helvetica" font-size="36.9" fill="#FEFFFF" transform="matrix(1.00, 0.00, -0.00, -1.00, 527.6, 92.1)"> </text><text xml:space="preserve" font-family="Helvetica-Light,Helvetica" font-size="36.9" fill="#FEFFFF" transform="matrix(1.00, 0.00, -0.00, -1.00, 537.8, 92.1)">f</text><text xml:space="preserve" font-family="Helvetica-Light,Helvetica" font-size="36.9" fill="#FEFFFF" transform="matrix(1.00, 0.00, -0.00, -1.00, 548.1, 92.1)">a</text><text xml:space="preserve" font-family="Helvetica-Light,Helvetica" font-size="36.9" fill="#FEFFFF" transform="matrix(1.00, 0.00, -0.00, -1.00, 568.6, 92.1)">i</text><text xml:space="preserve" font-family="Helvetica-Light,Helvetica" font-size="36.9" fill="#FEFFFF" transform="matrix(1.00, 0.00, -0.00, -1.00, 576.8, 92.1)">l</text><text xml:space="preserve" font-family="Helvetica-Light,Helvetica" font-size="36.9" fill="#FEFFFF" transform="matrix(1.00, 0.00, -0.00, -1.00, 584.9, 92.1)">e</text><text xml:space="preserve" font-family="Helvetica-Light,Helvetica" font-size="36.9" fill="#FEFFFF" transform="matrix(1.00, 0.00, -0.00, -1.00, 605.4, 92.1)">d</text><text xml:space="preserve" font-family="Helvetica-Light,Helvetica" font-size="36.9" fill="#FEFFFF" transform="matrix(1.00, 0.00, -0.00, -1.00, 627.9, 92.1)">.</text></g></svg>