<?xml version="1.0" encoding="UTF-8" standalone="no"?><svg xmlns="http://www.w3.org/2000/svg" xmlns:xlink="http://www.w3.org/1999/xlink" clip-rule="evenodd" stroke-miterlimit="10" viewBox="0 0 1024 768"><desc>SVG generated by Keynote</desc><defs></defs><g transform="matrix(1.00, 0.00, -0.00, -1.00, 0.0, 768.0)"><path d="M 0.0 768.0 L 1024.0 768.0 L 1024.0 0.0 L 0.0 0.0 Z M 0.0 768.0 " fill="#000000"></path><text xml:space="preserve" font-family="Helvetica-Light,Helvetica" font-size="67.2" fill="#FEFFFF" transform="matrix(1.00, 0.00, -0.00, -1.00, 188.9, 678.5)">U</text><text xml:space="preserve" font-family="Helvetica-Light,Helvetica" font-size="67.2" fill="#FEFFFF" transform="matrix(1.00, 0.00, -0.00, -1.00, 237.5, 678.5)">n</text><text xml:space="preserve" font-family="Helvetica-Light,Helvetica" font-size="67.2" fill="#FEFFFF" transform="matrix(1.00, 0.00, -0.00, -1.00, 274.8, 678.5)">c</text><text xml:space="preserve" font-family="Helvetica-Light,Helvetica" font-size="67.2" fill="#FEFFFF" transform="matrix(1.00, 0.00, -0.00, -1.00, 312.2, 678.5)">a</text><text xml:space="preserve" font-family="Helvetica-Light,Helvetica" font-size="67.2" fill="#FEFFFF" transform="matrix(1.00, 0.00, -0.00, -1.00, 349.5, 678.5)">u</text><text xml:space="preserve" font-family="Helvetica-Light,Helvetica" font-size="67.2" fill="#FEFFFF" transform="matrix(1.00, 0.00, -0.00, -1.00, 386.9, 678.5)">g</text><text xml:space="preserve" font-family="Helvetica-Light,Helvetica" font-size="67.2" fill="#FEFFFF" transform="matrix(1.00, 0.00, -0.00, -1.00, 428.0, 678.5)">h</text><text xml:space="preserve" font-family="Helvetica-Light,Helvetica" font-size="67.2" fill="#FEFFFF" transform="matrix(1.00, 0.00, -0.00, -1.00, 465.3, 678.5)">t</text><text xml:space="preserve" font-family="Helvetica-Light,Helvetica" font-size="67.2" fill="#FEFFFF" transform="matrix(1.00, 0.00, -0.00, -1.00, 484.0, 678.5)"> </text><text xml:space="preserve" font-family="Helvetica-Light,Helvetica" font-size="67.2" fill="#FEFFFF" transform="matrix(1.00, 0.00, -0.00, -1.00, 502.7, 678.5)">E</text><text xml:space="preserve" font-family="Helvetica-Light,Helvetica" font-size="67.2" fill="#FEFFFF" transform="matrix(1.00, 0.00, -0.00, -1.00, 543.8, 678.5)">x</text><text xml:space="preserve" font-family="Helvetica-Light,Helvetica" font-size="67.2" fill="#FEFFFF" transform="matrix(1.00, 0.00, -0.00, -1.00, 577.4, 678.5)">c</text><text xml:space="preserve" font-family="Helvetica-Light,Helvetica" font-size="67.2" fill="#FEFFFF" transform="matrix(1.00, 0.00, -0.00, -1.00, 614.7, 678.5)">e</text><text xml:space="preserve" font-family="Helvetica-Light,Helvetica" font-size="67.2" fill="#FEFFFF" transform="matrix(1.00, 0.00, -0.00, -1.00, 652.1, 678.5)">p</text><text xml:space="preserve" font-family="Helvetica-Light,Helvetica" font-size="67.2" fill="#FEFFFF" transform="matrix(1.00, 0.00, -0.00, -1.00, 693.1, 678.5)">t</text><text xml:space="preserve" font-family="Helvetica-Light,Helvetica" font-size="67.2" fill="#FEFFFF" transform="matrix(1.00, 0.00, -0.00, -1.00, 711.8, 678.5)">i</text><text xml:space="preserve" font-family="Helvetica-Light,Helvetica" font-size="67.2" fill="#FEFFFF" transform="matrix(1.00, 0.00, -0.00, -1.00, 726.7, 678.5)">o</text><text xml:space="preserve" font-family="Helvetica-Light,Helvetica" font-size="67.2" fill="#FEFFFF" transform="matrix(1.00, 0.00, -0.00, -1.00, 764.1, 678.5)">n</text><text xml:space="preserve" font-family="Helvetica-Light,Helvetica" font-size="67.2" fill="#FEFFFF" transform="matrix(1.00, 0.00, -0.00, -1.00, 801.5, 678.5)">s</text><text xml:space="preserve" font-family="Helvetica-Light,Helvetica" font-size="67.2" fill="#FEFFFF" transform="matrix(1.00, 0.00, -0.00, -1.00, 835.1, 678.5)"> </text><text xml:space="preserve" font-family="Helvetica-Light,Helvetica" font-size="38.0" fill="#FEFFFF" transform="matrix(1.00, 0.00, -0.00, -1.00, 79.0, 510.7)">Y</text><text xml:space="preserve" font-family="Helvetica-Light,Helvetica" font-size="38.0" fill="#FEFFFF" transform="matrix(1.00, 0.00, -0.00, -1.00, 98.7, 510.7)">o</text><text xml:space="preserve" font-family="Helvetica-Light,Helvetica" font-size="38.0" fill="#FEFFFF" transform="matrix(1.00, 0.00, -0.00, -1.00, 119.8, 510.7)">u</text><text xml:space="preserve" font-family="Helvetica-Light,Helvetica" font-size="38.0" fill="#FEFFFF" transform="matrix(1.00, 0.00, -0.00, -1.00, 141.0, 510.7)"> </text><text xml:space="preserve" font-family="Helvetica-Light,Helvetica" font-size="38.0" fill="#FEFFFF" transform="matrix(1.00, 0.00, -0.00, -1.00, 151.5, 510.7)">s</text><text xml:space="preserve" font-family="Helvetica-Light,Helvetica" font-size="38.0" fill="#FEFFFF" transform="matrix(1.00, 0.00, -0.00, -1.00, 170.5, 510.7)">h</text><text xml:space="preserve" font-family="Helvetica-Light,Helvetica" font-size="38.0" fill="#FEFFFF" transform="matrix(1.00, 0.00, -0.00, -1.00, 191.7, 510.7)">o</text><text xml:space="preserve" font-family="Helvetica-Light,Helvetica" font-size="38.0" fill="#FEFFFF" transform="matrix(1.00, 0.00, -0.00, -1.00, 212.8, 510.7)">u</text><text xml:space="preserve" font-family="Helvetica-Light,Helvetica" font-size="38.0" fill="#FEFFFF" transform="matrix(1.00, 0.00, -0.00, -1.00, 233.9, 510.7)">l</text><text xml:space="preserve" font-family="Helvetica-Light,Helvetica" font-size="38.0" fill="#FEFFFF" transform="matrix(1.00, 0.00, -0.00, -1.00, 242.4, 510.7)">d</text><text xml:space="preserve" font-family="Helvetica-Light,Helvetica" font-size="38.0" fill="#FEFFFF" transform="matrix(1.00, 0.00, -0.00, -1.00, 265.6, 510.7)"> </text><text xml:space="preserve" font-family="Helvetica-Light,Helvetica" font-size="38.0" fill="#FEFFFF" transform="matrix(1.00, 0.00, -0.00, -1.00, 276.1, 510.7)">t</text><text xml:space="preserve" font-family="Helvetica-Light,Helvetica" font-size="38.0" fill="#FEFFFF" transform="matrix(1.00, 0.00, -0.00, -1.00, 286.7, 510.7)">r</text><text xml:space="preserve" font-family="Helvetica-Light,Helvetica" font-size="38.0" fill="#FEFFFF" transform="matrix(1.00, 0.00, -0.00, -1.00, 300.0, 510.7)">y</text><text xml:space="preserve" font-family="Helvetica-Light,Helvetica" font-size="38.0" fill="#FEFFFF" transform="matrix(1.00, 0.00, -0.00, -1.00, 319.0, 510.7)">/</text><text xml:space="preserve" font-family="Helvetica-Light,Helvetica" font-size="38.0" fill="#FEFFFF" transform="matrix(1.00, 0.00, -0.00, -1.00, 329.6, 510.7)">c</text><text xml:space="preserve" font-family="Helvetica-Light,Helvetica" font-size="38.0" fill="#FEFFFF" transform="matrix(1.00, 0.00, -0.00, -1.00, 350.7, 510.7)">a</text><text xml:space="preserve" font-family="Helvetica-Light,Helvetica" font-size="38.0" fill="#FEFFFF" transform="matrix(1.00, 0.00, -0.00, -1.00, 371.9, 510.7)">t</text><text xml:space="preserve" font-family="Helvetica-Light,Helvetica" font-size="38.0" fill="#FEFFFF" transform="matrix(1.00, 0.00, -0.00, -1.00, 382.4, 510.7)">c</text><text xml:space="preserve" font-family="Helvetica-Light,Helvetica" font-size="38.0" fill="#FEFFFF" transform="matrix(1.00, 0.00, -0.00, -1.00, 403.6, 510.7)">h</text><text xml:space="preserve" font-family="Helvetica-Light,Helvetica" font-size="38.0" fill="#FEFFFF" transform="matrix(1.00, 0.00, -0.00, -1.00, 424.7, 510.7)"> </text><text xml:space="preserve" font-family="Helvetica-Light,Helvetica" font-size="38.0" fill="#FEFFFF" transform="matrix(1.00, 0.00, -0.00, -1.00, 435.2, 510.7)">i</text><text xml:space="preserve" font-family="Helvetica-Light,Helvetica" font-size="38.0" fill="#FEFFFF" transform="matrix(1.00, 0.00, -0.00, -1.00, 443.7, 510.7)">n</text><text xml:space="preserve" font-family="Helvetica-Light,Helvetica" font-size="38.0" fill="#FEFFFF" transform="matrix(1.00, 0.00, -0.00, -1.00, 464.8, 510.7)"> </text><text xml:space="preserve" font-family="Helvetica-Light,Helvetica" font-size="38.0" fill="#FEFFFF" transform="matrix(1.00, 0.00, -0.00, -1.00, 475.4, 510.7)">e</text><text xml:space="preserve" font-family="Helvetica-Light,Helvetica" font-size="38.0" fill="#FEFFFF" transform="matrix(1.00, 0.00, -0.00, -1.00, 496.5, 510.7)">v</text><text xml:space="preserve" font-family="Helvetica-Light,Helvetica" font-size="38.0" fill="#FEFFFF" transform="matrix(1.00, 0.00, -0.00, -1.00, 515.5, 510.7)">e</text><text xml:space="preserve" font-family="Helvetica-Light,Helvetica" font-size="38.0" fill="#FEFFFF" transform="matrix(1.00, 0.00, -0.00, -1.00, 536.6, 510.7)">r</text><text xml:space="preserve" font-family="Helvetica-Light,Helvetica" font-size="38.0" fill="#FEFFFF" transform="matrix(1.00, 0.00, -0.00, -1.00, 550.0, 510.7)">y</text><text xml:space="preserve" font-family="Helvetica-Light,Helvetica" font-size="38.0" fill="#FEFFFF" transform="matrix(1.00, 0.00, -0.00, -1.00, 569.0, 510.7)"> </text><text xml:space="preserve" font-family="Helvetica-Light,Helvetica" font-size="38.0" fill="#FEFFFF" transform="matrix(1.00, 0.00, -0.00, -1.00, 579.5, 510.7)">p</text><text xml:space="preserve" font-family="Helvetica-Light,Helvetica" font-size="38.0" fill="#FEFFFF" transform="matrix(1.00, 0.00, -0.00, -1.00, 602.8, 510.7)">h</text><text xml:space="preserve" font-family="Helvetica-Light,Helvetica" font-size="38.0" fill="#FEFFFF" transform="matrix(1.00, 0.00, -0.00, -1.00, 623.9, 510.7)">a</text><text xml:space="preserve" font-family="Helvetica-Light,Helvetica" font-size="38.0" fill="#FEFFFF" transform="matrix(1.00, 0.00, -0.00, -1.00, 645.0, 510.7)">s</text><text xml:space="preserve" font-family="Helvetica-Light,Helvetica" font-size="38.0" fill="#FEFFFF" transform="matrix(1.00, 0.00, -0.00, -1.00, 664.0, 510.7)">e</text><text xml:space="preserve" font-family="Helvetica-Light,Helvetica" font-size="38.0" fill="#FEFFFF" transform="matrix(1.00, 0.00, -0.00, -1.00, 685.1, 510.7)"> </text><text xml:space="preserve" font-family="Helvetica-Light,Helvetica" font-size="38.0" fill="#FEFFFF" transform="matrix(1.00, 0.00, -0.00, -1.00, 695.7, 510.7)">o</text><text xml:space="preserve" font-family="Helvetica-Light,Helvetica" font-size="38.0" fill="#FEFFFF" transform="matrix(1.00, 0.00, -0.00, -1.00, 716.8, 510.7)">f</text><text xml:space="preserve" font-family="Helvetica-Light,Helvetica" font-size="38.0" fill="#FEFFFF" transform="matrix(1.00, 0.00, -0.00, -1.00, 727.4, 510.7)"> </text><text xml:space="preserve" font-family="Helvetica-Light,Helvetica" font-size="38.0" fill="#FEFFFF" transform="matrix(1.00, 0.00, -0.00, -1.00, 738.0, 510.7)">t</text><text xml:space="preserve" font-family="Helvetica-Light,Helvetica" font-size="38.0" fill="#FEFFFF" transform="matrix(1.00, 0.00, -0.00, -1.00, 748.5, 510.7)">h</text><text xml:space="preserve" font-family="Helvetica-Light,Helvetica" font-size="38.0" fill="#FEFFFF" transform="matrix(1.00, 0.00, -0.00, -1.00, 769.6, 510.7)">e</text><text xml:space="preserve" font-family="Helvetica-Light,Helvetica" font-size="38.0" fill="#FEFFFF" transform="matrix(1.00, 0.00, -0.00, -1.00, 790.8, 510.7)"> </text><text xml:space="preserve" font-family="Helvetica-Light,Helvetica" font-size="38.0" fill="#FEFFFF" transform="matrix(1.00, 0.00, -0.00, -1.00, 801.3, 510.7)">e</text><text xml:space="preserve" font-family="Helvetica-Light,Helvetica" font-size="38.0" fill="#FEFFFF" transform="matrix(1.00, 0.00, -0.00, -1.00, 822.5, 510.7)">v</text><text xml:space="preserve" font-family="Helvetica-Light,Helvetica" font-size="38.0" fill="#FEFFFF" transform="matrix(1.00, 0.00, -0.00, -1.00, 841.5, 510.7)">e</text><text xml:space="preserve" font-family="Helvetica-Light,Helvetica" font-size="38.0" fill="#FEFFFF" transform="matrix(1.00, 0.00, -0.00, -1.00, 862.6, 510.7)">n</text><text xml:space="preserve" font-family="Helvetica-Light,Helvetica" font-size="38.0" fill="#FEFFFF" transform="matrix(1.00, 0.00, -0.00, -1.00, 883.7, 510.7)">t</text><text xml:space="preserve" font-family="Helvetica-Light,Helvetica" font-size="38.0" fill="#FEFFFF" transform="matrix(1.00, 0.00, -0.00, -1.00, 894.3, 510.7)"> </text><text xml:space="preserve" font-family="Helvetica-Light,Helvetica" font-size="38.0" fill="#FEFFFF" transform="matrix(1.00, 0.00, -0.00, -1.00, 79.0, 464.7)">l</text><text xml:space="preserve" font-family="Helvetica-Light,Helvetica" font-size="38.0" fill="#FEFFFF" transform="matrix(1.00, 0.00, -0.00, -1.00, 87.4, 464.7)">o</text><text xml:space="preserve" font-family="Helvetica-Light,Helvetica" font-size="38.0" fill="#FEFFFF" transform="matrix(1.00, 0.00, -0.00, -1.00, 108.6, 464.7)">o</text><text xml:space="preserve" font-family="Helvetica-Light,Helvetica" font-size="38.0" fill="#FEFFFF" transform="matrix(1.00, 0.00, -0.00, -1.00, 129.7, 464.7)">p</text><text xml:space="preserve" font-family="Helvetica-Light,Helvetica" font-size="38.0" fill="#FEFFFF" transform="matrix(1.00, 0.00, -0.00, -1.00, 152.9, 464.7)"> </text><text xml:space="preserve" font-family="Helvetica-Light,Helvetica" font-size="38.0" fill="#FEFFFF" transform="matrix(1.00, 0.00, -0.00, -1.00, 163.5, 464.7)">(</text><text xml:space="preserve" font-family="Helvetica-Light,Helvetica" font-size="38.0" fill="#FEFFFF" transform="matrix(1.00, 0.00, -0.00, -1.00, 176.1, 464.7)">w</text><text xml:space="preserve" font-family="Helvetica-Light,Helvetica" font-size="38.0" fill="#FEFFFF" transform="matrix(1.00, 0.00, -0.00, -1.00, 203.6, 464.7)">h</text><text xml:space="preserve" font-family="Helvetica-Light,Helvetica" font-size="38.0" fill="#FEFFFF" transform="matrix(1.00, 0.00, -0.00, -1.00, 224.7, 464.7)">e</text><text xml:space="preserve" font-family="Helvetica-Light,Helvetica" font-size="38.0" fill="#FEFFFF" transform="matrix(1.00, 0.00, -0.00, -1.00, 245.8, 464.7)">n</text><text xml:space="preserve" font-family="Helvetica-Light,Helvetica" font-size="38.0" fill="#FEFFFF" transform="matrix(1.00, 0.00, -0.00, -1.00, 266.9, 464.7)"> </text><text xml:space="preserve" font-family="Helvetica-Light,Helvetica" font-size="38.0" fill="#FEFFFF" transform="matrix(1.00, 0.00, -0.00, -1.00, 277.5, 464.7)">n</text><text xml:space="preserve" font-family="Helvetica-Light,Helvetica" font-size="38.0" fill="#FEFFFF" transform="matrix(1.00, 0.00, -0.00, -1.00, 298.6, 464.7)">e</text><text xml:space="preserve" font-family="Helvetica-Light,Helvetica" font-size="38.0" fill="#FEFFFF" transform="matrix(1.00, 0.00, -0.00, -1.00, 319.8, 464.7)">c</text><text xml:space="preserve" font-family="Helvetica-Light,Helvetica" font-size="38.0" fill="#FEFFFF" transform="matrix(1.00, 0.00, -0.00, -1.00, 340.9, 464.7)">e</text><text xml:space="preserve" font-family="Helvetica-Light,Helvetica" font-size="38.0" fill="#FEFFFF" transform="matrix(1.00, 0.00, -0.00, -1.00, 362.0, 464.7)">s</text><text xml:space="preserve" font-family="Helvetica-Light,Helvetica" font-size="38.0" fill="#FEFFFF" transform="matrix(1.00, 0.00, -0.00, -1.00, 381.0, 464.7)">s</text><text xml:space="preserve" font-family="Helvetica-Light,Helvetica" font-size="38.0" fill="#FEFFFF" transform="matrix(1.00, 0.00, -0.00, -1.00, 400.0, 464.7)">a</text><text xml:space="preserve" font-family="Helvetica-Light,Helvetica" font-size="38.0" fill="#FEFFFF" transform="matrix(1.00, 0.00, -0.00, -1.00, 421.2, 464.7)">r</text><text xml:space="preserve" font-family="Helvetica-Light,Helvetica" font-size="38.0" fill="#FEFFFF" transform="matrix(1.00, 0.00, -0.00, -1.00, 434.5, 464.7)">y</text><text xml:space="preserve" font-family="Helvetica-Light,Helvetica" font-size="38.0" fill="#FEFFFF" transform="matrix(1.00, 0.00, -0.00, -1.00, 453.5, 464.7)">)</text><text xml:space="preserve" font-family="Helvetica-Light,Helvetica" font-size="38.0" fill="#FEFFFF" transform="matrix(1.00, 0.00, -0.00, -1.00, 466.1, 464.7)">!</text><text xml:space="preserve" font-family="Courier,Courier" font-size="30.0" fill="#0433FF" transform="matrix(1.00, 0.00, -0.00, -1.00, 89.8, 342.6)">s</text><text xml:space="preserve" font-family="Courier,Courier" font-size="30.0" fill="#0433FF" transform="matrix(1.00, 0.00, -0.00, -1.00, 107.8, 342.6)">e</text><text xml:space="preserve" font-family="Courier,Courier" font-size="30.0" fill="#0433FF" transform="matrix(1.00, 0.00, -0.00, -1.00, 125.8, 342.6)">t</text><text xml:space="preserve" font-family="Courier,Courier" font-size="30.0" fill="#0433FF" transform="matrix(1.00, 0.00, -0.00, -1.00, 143.8, 342.6)">T</text><text xml:space="preserve" font-family="Courier,Courier" font-size="30.0" fill="#0433FF" transform="matrix(1.00, 0.00, -0.00, -1.00, 161.8, 342.6)">i</text><text xml:space="preserve" font-family="Courier,Courier" font-size="30.0" fill="#0433FF" transform="matrix(1.00, 0.00, -0.00, -1.00, 179.8, 342.6)">m</text><text xml:space="preserve" font-family="Courier,Courier" font-size="30.0" fill="#0433FF" transform="matrix(1.00, 0.00, -0.00, -1.00, 197.8, 342.6)">e</text><text xml:space="preserve" font-family="Courier,Courier" font-size="30.0" fill="#0433FF" transform="matrix(1.00, 0.00, -0.00, -1.00, 215.8, 342.6)">o</text><text xml:space="preserve" font-family="Courier,Courier" font-size="30.0" fill="#0433FF" transform="matrix(1.00, 0.00, -0.00, -1.00, 233.8, 342.6)">u</text><text xml:space="preserve" font-family="Courier,Courier" font-size="30.0" fill="#0433FF" transform="matrix(1.00, 0.00, -0.00, -1.00, 251.8, 342.6)">t</text><text xml:space="preserve" font-family="Courier,Courier" font-size="30.0" fill="#FEFFFF" transform="matrix(1.00, 0.00, -0.00, -1.00, 269.8, 342.6)">(</text><text xml:space="preserve" font-family="Courier,Courier" font-size="30.0" fill="#FEFFFF" transform="matrix(1.00, 0.00, -0.00, -1.00, 287.8, 342.6)">f</text><text xml:space="preserve" font-family="Courier,Courier" font-size="30.0" fill="#FEFFFF" transform="matrix(1.00, 0.00, -0.00, -1.00, 305.8, 342.6)">u</text><text xml:space="preserve" font-family="Courier,Courier" font-size="30.0" fill="#FEFFFF" transform="matrix(1.00, 0.00, -0.00, -1.00, 323.8, 342.6)">n</text><text xml:space="preserve" font-family="Courier,Courier" font-size="30.0" fill="#FEFFFF" transform="matrix(1.00, 0.00, -0.00, -1.00, 341.8, 342.6)">c</text><text xml:space="preserve" font-family="Courier,Courier" font-size="30.0" fill="#FEFFFF" transform="matrix(1.00, 0.00, -0.00, -1.00, 359.8, 342.6)">t</text><text xml:space="preserve" font-family="Courier,Courier" font-size="30.0" fill="#FEFFFF" transform="matrix(1.00, 0.00, -0.00, -1.00, 377.9, 342.6)">i</text><text xml:space="preserve" font-family="Courier,Courier" font-size="30.0" fill="#FEFFFF" transform="matrix(1.00, 0.00, -0.00, -1.00, 395.9, 342.6)">o</text><text xml:space="preserve" font-family="Courier,Courier" font-size="30.0" fill="#FEFFFF" transform="matrix(1.00, 0.00, -0.00, -1.00, 413.9, 342.6)">n</text><text xml:space="preserve" font-family="Courier,Courier" font-size="30.0" fill="#FEFFFF" transform="matrix(1.00, 0.00, -0.00, -1.00, 431.9, 342.6)"> </text><text xml:space="preserve" font-family="Courier,Courier" font-size="30.0" fill="#FEFFFF" transform="matrix(1.00, 0.00, -0.00, -1.00, 449.9, 342.6)">(</text><text xml:space="preserve" font-family="Courier,Courier" font-size="30.0" fill="#FEFFFF" transform="matrix(1.00, 0.00, -0.00, -1.00, 467.9, 342.6)">)</text><text xml:space="preserve" font-family="Courier,Courier" font-size="30.0" fill="#FEFFFF" transform="matrix(1.00, 0.00, -0.00, -1.00, 485.9, 342.6)"> </text><text xml:space="preserve" font-family="Courier,Courier" font-size="30.0" fill="#FEFFFF" transform="matrix(1.00, 0.00, -0.00, -1.00, 503.9, 342.6)">{</text><text xml:space="preserve" font-family="Courier,Courier" font-size="30.0" fill="#FEFFFF" transform="matrix(1.00, 0.00, -0.00, -1.00, 89.8, 297.0)"> </text><text xml:space="preserve" font-family="Courier,Courier" font-size="30.0" fill="#FEFFFF" transform="matrix(1.00, 0.00, -0.00, -1.00, 107.8, 297.0)"> </text><text xml:space="preserve" font-family="Courier,Courier" font-size="30.0" fill="#FF9200" transform="matrix(1.00, 0.00, -0.00, -1.00, 125.8, 297.0)">t</text><text xml:space="preserve" font-family="Courier,Courier" font-size="30.0" fill="#FF9200" transform="matrix(1.00, 0.00, -0.00, -1.00, 143.8, 297.0)">r</text><text xml:space="preserve" font-family="Courier,Courier" font-size="30.0" fill="#FF9200" transform="matrix(1.00, 0.00, -0.00, -1.00, 161.8, 297.0)">y</text><text xml:space="preserve" font-family="Courier,Courier" font-size="30.0" fill="#FEFFFF" transform="matrix(1.00, 0.00, -0.00, -1.00, 179.8, 297.0)"> </text><text xml:space="preserve" font-family="Courier,Courier" font-size="30.0" fill="#FEFFFF" transform="matrix(1.00, 0.00, -0.00, -1.00, 197.8, 297.0)">{</text><text xml:space="preserve" font-family="Courier,Courier" font-size="30.0" fill="#FF2600" transform="matrix(1.00, 0.00, -0.00, -1.00, 89.8, 251.4)"> </text><text xml:space="preserve" font-family="Courier,Courier" font-size="30.0" fill="#FF2600" transform="matrix(1.00, 0.00, -0.00, -1.00, 107.8, 251.4)"> </text><text xml:space="preserve" font-family="Courier,Courier" font-size="30.0" fill="#FF2600" transform="matrix(1.00, 0.00, -0.00, -1.00, 125.8, 251.4)"> </text><text xml:space="preserve" font-family="Courier,Courier" font-size="30.0" fill="#FF2600" transform="matrix(1.00, 0.00, -0.00, -1.00, 143.8, 251.4)"> </text><text xml:space="preserve" font-family="Courier,Courier" font-size="30.0" fill="#FF2600" transform="matrix(1.00, 0.00, -0.00, -1.00, 161.8, 251.4)">t</text><text xml:space="preserve" font-family="Courier,Courier" font-size="30.0" fill="#FF2600" transform="matrix(1.00, 0.00, -0.00, -1.00, 179.8, 251.4)">h</text><text xml:space="preserve" font-family="Courier,Courier" font-size="30.0" fill="#FF2600" transform="matrix(1.00, 0.00, -0.00, -1.00, 197.8, 251.4)">r</text><text xml:space="preserve" font-family="Courier,Courier" font-size="30.0" fill="#FF2600" transform="matrix(1.00, 0.00, -0.00, -1.00, 215.8, 251.4)">o</text><text xml:space="preserve" font-family="Courier,Courier" font-size="30.0" fill="#FF2600" transform="matrix(1.00, 0.00, -0.00, -1.00, 233.8, 251.4)">w</text><text xml:space="preserve" font-family="Courier,Courier" font-size="30.0" fill="#FF2600" transform="matrix(1.00, 0.00, -0.00, -1.00, 251.8, 251.4)"> </text><text xml:space="preserve" font-family="Courier,Courier" font-size="30.0" fill="#FF2600" transform="matrix(1.00, 0.00, -0.00, -1.00, 269.8, 251.4)">n</text><text xml:space="preserve" font-family="Courier,Courier" font-size="30.0" fill="#FF2600" transform="matrix(1.00, 0.00, -0.00, -1.00, 287.9, 251.4)">e</text><text xml:space="preserve" font-family="Courier,Courier" font-size="30.0" fill="#FF2600" transform="matrix(1.00, 0.00, -0.00, -1.00, 305.9, 251.4)">w</text><text xml:space="preserve" font-family="Courier,Courier" font-size="30.0" fill="#FF2600" transform="matrix(1.00, 0.00, -0.00, -1.00, 323.9, 251.4)"> </text><text xml:space="preserve" font-family="Courier,Courier" font-size="30.0" fill="#FF2600" transform="matrix(1.00, 0.00, -0.00, -1.00, 341.9, 251.4)">E</text><text xml:space="preserve" font-family="Courier,Courier" font-size="30.0" fill="#FF2600" transform="matrix(1.00, 0.00, -0.00, -1.00, 359.9, 251.4)">r</text><text xml:space="preserve" font-family="Courier,Courier" font-size="30.0" fill="#FF2600" transform="matrix(1.00, 0.00, -0.00, -1.00, 377.9, 251.4)">r</text><text xml:space="preserve" font-family="Courier,Courier" font-size="30.0" fill="#FF2600" transform="matrix(1.00, 0.00, -0.00, -1.00, 395.9, 251.4)">o</text><text xml:space="preserve" font-family="Courier,Courier" font-size="30.0" fill="#FF2600" transform="matrix(1.00, 0.00, -0.00, -1.00, 413.9, 251.4)">r</text><text xml:space="preserve" font-family="Courier,Courier" font-size="30.0" fill="#FF2600" transform="matrix(1.00, 0.00, -0.00, -1.00, 431.9, 251.4)">(</text><text xml:space="preserve" font-family="Courier,Courier" font-size="30.0" fill="#FF2600" transform="matrix(1.00, 0.00, -0.00, -1.00, 449.9, 251.4)">‘</text><text xml:space="preserve" font-family="Courier,Courier" font-size="30.0" fill="#FF2600" transform="matrix(1.00, 0.00, -0.00, -1.00, 467.9, 251.4)">b</text><text xml:space="preserve" font-family="Courier,Courier" font-size="30.0" fill="#FF2600" transform="matrix(1.00, 0.00, -0.00, -1.00, 485.9, 251.4)">o</text><text xml:space="preserve" font-family="Courier,Courier" font-size="30.0" fill="#FF2600" transform="matrix(1.00, 0.00, -0.00, -1.00, 503.9, 251.4)">o</text><text xml:space="preserve" font-family="Courier,Courier" font-size="30.0" fill="#FF2600" transform="matrix(1.00, 0.00, -0.00, -1.00, 521.9, 251.4)">m</text><text xml:space="preserve" font-family="Courier,Courier" font-size="30.0" fill="#FF2600" transform="matrix(1.00, 0.00, -0.00, -1.00, 539.9, 251.4)">!</text><text xml:space="preserve" font-family="Courier,Courier" font-size="30.0" fill="#FF2600" transform="matrix(1.00, 0.00, -0.00, -1.00, 557.9, 251.4)">)</text><text xml:space="preserve" font-family="Courier,Courier" font-size="30.0" fill="#FEFFFF" transform="matrix(1.00, 0.00, -0.00, -1.00, 89.8, 205.8)"> </text><text xml:space="preserve" font-family="Courier,Courier" font-size="30.0" fill="#FEFFFF" transform="matrix(1.00, 0.00, -0.00, -1.00, 107.8, 205.8)"> </text><text xml:space="preserve" font-family="Courier,Courier" font-size="30.0" fill="#FEFFFF" transform="matrix(1.00, 0.00, -0.00, -1.00, 125.8, 205.8)">}</text><text xml:space="preserve" font-family="Courier,Courier" font-size="30.0" fill="#FEFFFF" transform="matrix(1.00, 0.00, -0.00, -1.00, 143.8, 205.8)"> </text><text xml:space="preserve" font-family="Courier,Courier" font-size="30.0" fill="#FF9200" transform="matrix(1.00, 0.00, -0.00, -1.00, 161.8, 205.8)">c</text><text xml:space="preserve" font-family="Courier,Courier" font-size="30.0" fill="#FF9200" transform="matrix(1.00, 0.00, -0.00, -1.00, 179.8, 205.8)">a</text><text xml:space="preserve" font-family="Courier,Courier" font-size="30.0" fill="#FF9200" transform="matrix(1.00, 0.00, -0.00, -1.00, 197.8, 205.8)">t</text><text xml:space="preserve" font-family="Courier,Courier" font-size="30.0" fill="#FF9200" transform="matrix(1.00, 0.00, -0.00, -1.00, 215.8, 205.8)">c</text><text xml:space="preserve" font-family="Courier,Courier" font-size="30.0" fill="#FF9200" transform="matrix(1.00, 0.00, -0.00, -1.00, 233.8, 205.8)">h</text><text xml:space="preserve" font-family="Courier,Courier" font-size="30.0" fill="#FEFFFF" transform="matrix(1.00, 0.00, -0.00, -1.00, 251.8, 205.8)"> </text><text xml:space="preserve" font-family="Courier,Courier" font-size="30.0" fill="#FEFFFF" transform="matrix(1.00, 0.00, -0.00, -1.00, 269.8, 205.8)">(</text><text xml:space="preserve" font-family="Courier,Courier" font-size="30.0" fill="#FEFFFF" transform="matrix(1.00, 0.00, -0.00, -1.00, 287.8, 205.8)">e</text><text xml:space="preserve" font-family="Courier,Courier" font-size="30.0" fill="#FEFFFF" transform="matrix(1.00, 0.00, -0.00, -1.00, 305.8, 205.8)">r</text><text xml:space="preserve" font-family="Courier,Courier" font-size="30.0" fill="#FEFFFF" transform="matrix(1.00, 0.00, -0.00, -1.00, 323.8, 205.8)">r</text><text xml:space="preserve" font-family="Courier,Courier" font-size="30.0" fill="#FEFFFF" transform="matrix(1.00, 0.00, -0.00, -1.00, 341.8, 205.8)">)</text><text xml:space="preserve" font-family="Courier,Courier" font-size="30.0" fill="#FEFFFF" transform="matrix(1.00, 0.00, -0.00, -1.00, 359.8, 205.8)"> </text><text xml:space="preserve" font-family="Courier,Courier" font-size="30.0" fill="#FEFFFF" transform="matrix(1.00, 0.00, -0.00, -1.00, 377.9, 205.8)">{</text><text xml:space="preserve" font-family="Courier,Courier" font-size="30.0" fill="#00F900" transform="matrix(1.00, 0.00, -0.00, -1.00, 89.8, 160.2)"> </text><text xml:space="preserve" font-family="Courier,Courier" font-size="30.0" fill="#00F900" transform="matrix(1.00, 0.00, -0.00, -1.00, 107.8, 160.2)"> </text><text xml:space="preserve" font-family="Courier,Courier" font-size="30.0" fill="#00F900" transform="matrix(1.00, 0.00, -0.00, -1.00, 125.8, 160.2)"> </text><text xml:space="preserve" font-family="Courier,Courier" font-size="30.0" fill="#00F900" transform="matrix(1.00, 0.00, -0.00, -1.00, 143.8, 160.2)"> </text><text xml:space="preserve" font-family="Courier,Courier" font-size="30.0" fill="#00F900" transform="matrix(1.00, 0.00, -0.00, -1.00, 161.8, 160.2)">c</text><text xml:space="preserve" font-family="Courier,Courier" font-size="30.0" fill="#00F900" transform="matrix(1.00, 0.00, -0.00, -1.00, 179.8, 160.2)">o</text><text xml:space="preserve" font-family="Courier,Courier" font-size="30.0" fill="#00F900" transform="matrix(1.00, 0.00, -0.00, -1.00, 197.8, 160.2)">n</text><text xml:space="preserve" font-family="Courier,Courier" font-size="30.0" fill="#00F900" transform="matrix(1.00, 0.00, -0.00, -1.00, 215.8, 160.2)">s</text><text xml:space="preserve" font-family="Courier,Courier" font-size="30.0" fill="#00F900" transform="matrix(1.00, 0.00, -0.00, -1.00, 233.8, 160.2)">o</text><text xml:space="preserve" font-family="Courier,Courier" font-size="30.0" fill="#00F900" transform="matrix(1.00, 0.00, -0.00, -1.00, 251.8, 160.2)">l</text><text xml:space="preserve" font-family="Courier,Courier" font-size="30.0" fill="#00F900" transform="matrix(1.00, 0.00, -0.00, -1.00, 269.8, 160.2)">e</text><text xml:space="preserve" font-family="Courier,Courier" font-size="30.0" fill="#00F900" transform="matrix(1.00, 0.00, -0.00, -1.00, 287.9, 160.2)">.</text><text xml:space="preserve" font-family="Courier,Courier" font-size="30.0" fill="#00F900" transform="matrix(1.00, 0.00, -0.00, -1.00, 305.9, 160.2)">l</text><text xml:space="preserve" font-family="Courier,Courier" font-size="30.0" fill="#00F900" transform="matrix(1.00, 0.00, -0.00, -1.00, 323.9, 160.2)">o</text><text xml:space="preserve" font-family="Courier,Courier" font-size="30.0" fill="#00F900" transform="matrix(1.00, 0.00, -0.00, -1.00, 341.9, 160.2)">g</text><text xml:space="preserve" font-family="Courier,Courier" font-size="30.0" fill="#00F900" transform="matrix(1.00, 0.00, -0.00, -1.00, 359.9, 160.2)">(</text><text xml:space="preserve" font-family="Courier,Courier" font-size="30.0" fill="#00F900" transform="matrix(1.00, 0.00, -0.00, -1.00, 377.9, 160.2)">'</text><text xml:space="preserve" font-family="Courier,Courier" font-size="30.0" fill="#00F900" transform="matrix(1.00, 0.00, -0.00, -1.00, 395.9, 160.2)">t</text><text xml:space="preserve" font-family="Courier,Courier" font-size="30.0" fill="#00F900" transform="matrix(1.00, 0.00, -0.00, -1.00, 413.9, 160.2)">h</text><text xml:space="preserve" font-family="Courier,Courier" font-size="30.0" fill="#00F900" transform="matrix(1.00, 0.00, -0.00, -1.00, 431.9, 160.2)">i</text><text xml:space="preserve" font-family="Courier,Courier" font-size="30.0" fill="#00F900" transform="matrix(1.00, 0.00, -0.00, -1.00, 449.9, 160.2)">s</text><text xml:space="preserve" font-family="Courier,Courier" font-size="30.0" fill="#00F900" transform="matrix(1.00, 0.00, -0.00, -1.00, 467.9, 160.2)"> </text><text xml:space="preserve" font-family="Courier,Courier" font-size="30.0" fill="#00F900" transform="matrix(1.00, 0.00, -0.00, -1.00, 485.9, 160.2)">e</text><text xml:space="preserve" font-family="Courier,Courier" font-size="30.0" fill="#00F900" transform="matrix(1.00, 0.00, -0.00, -1.00, 503.9, 160.2)">r</text><text xml:space="preserve" font-family="Courier,Courier" font-size="30.0" fill="#00F900" transform="matrix(1.00, 0.00, -0.00, -1.00, 521.9, 160.2)">r</text><text xml:space="preserve" font-family="Courier,Courier" font-size="30.0" fill="#00F900" transform="matrix(1.00, 0.00, -0.00, -1.00, 539.9, 160.2)">o</text><text xml:space="preserve" font-family="Courier,Courier" font-size="30.0" fill="#00F900" transform="matrix(1.00, 0.00, -0.00, -1.00, 557.9, 160.2)">r</text><text xml:space="preserve" font-family="Courier,Courier" font-size="30.0" fill="#00F900" transform="matrix(1.00, 0.00, -0.00, -1.00, 575.9, 160.2)"> </text><text xml:space="preserve" font-family="Courier,Courier" font-size="30.0" fill="#00F900" transform="matrix(1.00, 0.00, -0.00, -1.00, 594.0, 160.2)">w</text><text xml:space="preserve" font-family="Courier,Courier" font-size="30.0" fill="#00F900" transform="matrix(1.00, 0.00, -0.00, -1.00, 612.0, 160.2)">i</text><text xml:space="preserve" font-family="Courier,Courier" font-size="30.0" fill="#00F900" transform="matrix(1.00, 0.00, -0.00, -1.00, 630.0, 160.2)">l</text><text xml:space="preserve" font-family="Courier,Courier" font-size="30.0" fill="#00F900" transform="matrix(1.00, 0.00, -0.00, -1.00, 648.0, 160.2)">l</text><text xml:space="preserve" font-family="Courier,Courier" font-size="30.0" fill="#00F900" transform="matrix(1.00, 0.00, -0.00, -1.00, 666.0, 160.2)"> </text><text xml:space="preserve" font-family="Courier,Courier" font-size="30.0" fill="#00F900" transform="matrix(1.00, 0.00, -0.00, -1.00, 684.0, 160.2)">b</text><text xml:space="preserve" font-family="Courier,Courier" font-size="30.0" fill="#00F900" transform="matrix(1.00, 0.00, -0.00, -1.00, 702.0, 160.2)">e</text><text xml:space="preserve" font-family="Courier,Courier" font-size="30.0" fill="#00F900" transform="matrix(1.00, 0.00, -0.00, -1.00, 720.0, 160.2)"> </text><text xml:space="preserve" font-family="Courier,Courier" font-size="30.0" fill="#00F900" transform="matrix(1.00, 0.00, -0.00, -1.00, 738.0, 160.2)">c</text><text xml:space="preserve" font-family="Courier,Courier" font-size="30.0" fill="#00F900" transform="matrix(1.00, 0.00, -0.00, -1.00, 756.0, 160.2)">a</text><text xml:space="preserve" font-family="Courier,Courier" font-size="30.0" fill="#00F900" transform="matrix(1.00, 0.00, -0.00, -1.00, 774.0, 160.2)">u</text><text xml:space="preserve" font-family="Courier,Courier" font-size="30.0" fill="#00F900" transform="matrix(1.00, 0.00, -0.00, -1.00, 792.0, 160.2)">g</text><text xml:space="preserve" font-family="Courier,Courier" font-size="30.0" fill="#00F900" transform="matrix(1.00, 0.00, -0.00, -1.00, 810.0, 160.2)">h</text><text xml:space="preserve" font-family="Courier,Courier" font-size="30.0" fill="#00F900" transform="matrix(1.00, 0.00, -0.00, -1.00, 828.0, 160.2)">t</text><text xml:space="preserve" font-family="Courier,Courier" font-size="30.0" fill="#00F900" transform="matrix(1.00, 0.00, -0.00, -1.00, 846.0, 160.2)">!</text><text xml:space="preserve" font-family="Courier,Courier" font-size="30.0" fill="#00F900" transform="matrix(1.00, 0.00, -0.00, -1.00, 864.0, 160.2)">'</text><text xml:space="preserve" font-family="Courier,Courier" font-size="30.0" fill="#00F900" transform="matrix(1.00, 0.00, -0.00, -1.00, 882.0, 160.2)">)</text><text xml:space="preserve" font-family="Courier,Courier" font-size="30.0" fill="#FEFFFF" transform="matrix(1.00, 0.00, -0.00, -1.00, 89.8, 114.6)"> </text><text xml:space="preserve" font-family="Courier,Courier" font-size="30.0" fill="#FEFFFF" transform="matrix(1.00, 0.00, -0.00, -1.00, 107.8, 114.6)"> </text><text xml:space="preserve" font-family="Courier,Courier" font-size="30.0" fill="#FEFFFF" transform="matrix(1.00, 0.00, -0.00, -1.00, 125.8, 114.6)">}</text><text xml:space="preserve" font-family="Courier,Courier" font-size="30.0" fill="#FEFFFF" transform="matrix(1.00, 0.00, -0.00, -1.00, 89.8, 69.0)">}</text><text xml:space="preserve" font-family="Courier,Courier" font-size="30.0" fill="#FEFFFF" transform="matrix(1.00, 0.00, -0.00, -1.00, 107.8, 69.0)">,</text><text xml:space="preserve" font-family="Courier,Courier" font-size="30.0" fill="#FEFFFF" transform="matrix(1.00, 0.00, -0.00, -1.00, 125.8, 69.0)"> </text><text xml:space="preserve" font-family="Courier,Courier" font-size="30.0" fill="#FEFFFF" transform="matrix(1.00, 0.00, -0.00, -1.00, 143.8, 69.0)">1</text><text xml:space="preserve" font-family="Courier,Courier" font-size="30.0" fill="#FEFFFF" transform="matrix(1.00, 0.00, -0.00, -1.00, 161.8, 69.0)">0</text><text xml:space="preserve" font-family="Courier,Courier" font-size="30.0" fill="#FEFFFF" transform="matrix(1.00, 0.00, -0.00, -1.00, 179.8, 69.0)">0</text><text xml:space="preserve" font-family="Courier,Courier" font-size="30.0" fill="#FEFFFF" transform="matrix(1.00, 0.00, -0.00, -1.00, 197.8, 69.0)">)</text></g></svg>