<?xml version="1.0" encoding="UTF-8" standalone="no"?><svg xmlns="http://www.w3.org/2000/svg" xmlns:xlink="http://www.w3.org/1999/xlink" clip-rule="evenodd" stroke-miterlimit="10" viewBox="0 0 1024 768"><desc>SVG generated by Keynote</desc><defs></defs><g transform="matrix(1.00, 0.00, -0.00, -1.00, 0.0, 768.0)"><path d="M 0.0 768.0 L 1024.0 768.0 L 1024.0 0.0 L 0.0 0.0 Z M 0.0 768.0 " fill="#000000"></path><text xml:space="preserve" font-family="Helvetica-Light,Helvetica" font-size="74.4" fill="#FEFFFF" transform="matrix(1.00, 0.00, -0.00, -1.00, 80.7, 635.1)">E</text><text xml:space="preserve" font-family="Helvetica-Light,Helvetica" font-size="74.4" fill="#FEFFFF" transform="matrix(1.00, 0.00, -0.00, -1.00, 126.1, 635.1)">r</text><text xml:space="preserve" font-family="Helvetica-Light,Helvetica" font-size="74.4" fill="#FEFFFF" transform="matrix(1.00, 0.00, -0.00, -1.00, 150.9, 635.1)">r</text><text xml:space="preserve" font-family="Helvetica-Light,Helvetica" font-size="74.4" fill="#FEFFFF" transform="matrix(1.00, 0.00, -0.00, -1.00, 174.3, 635.1)">o</text><text xml:space="preserve" font-family="Helvetica-Light,Helvetica" font-size="74.4" fill="#FEFFFF" transform="matrix(1.00, 0.00, -0.00, -1.00, 215.7, 635.1)">r</text><text xml:space="preserve" font-family="Helvetica-Light,Helvetica" font-size="74.4" fill="#FEFFFF" transform="matrix(1.00, 0.00, -0.00, -1.00, 240.5, 635.1)"> </text><text xml:space="preserve" font-family="Helvetica-Light,Helvetica" font-size="74.4" fill="#FEFFFF" transform="matrix(1.00, 0.00, -0.00, -1.00, 261.2, 635.1)">H</text><text xml:space="preserve" font-family="Helvetica-Light,Helvetica" font-size="74.4" fill="#FEFFFF" transform="matrix(1.00, 0.00, -0.00, -1.00, 314.9, 635.1)">a</text><text xml:space="preserve" font-family="Helvetica-Light,Helvetica" font-size="74.4" fill="#FEFFFF" transform="matrix(1.00, 0.00, -0.00, -1.00, 356.2, 635.1)">n</text><text xml:space="preserve" font-family="Helvetica-Light,Helvetica" font-size="74.4" fill="#FEFFFF" transform="matrix(1.00, 0.00, -0.00, -1.00, 397.6, 635.1)">d</text><text xml:space="preserve" font-family="Helvetica-Light,Helvetica" font-size="74.4" fill="#FEFFFF" transform="matrix(1.00, 0.00, -0.00, -1.00, 443.1, 635.1)">l</text><text xml:space="preserve" font-family="Helvetica-Light,Helvetica" font-size="74.4" fill="#FEFFFF" transform="matrix(1.00, 0.00, -0.00, -1.00, 459.6, 635.1)">i</text><text xml:space="preserve" font-family="Helvetica-Light,Helvetica" font-size="74.4" fill="#FEFFFF" transform="matrix(1.00, 0.00, -0.00, -1.00, 476.1, 635.1)">n</text><text xml:space="preserve" font-family="Helvetica-Light,Helvetica" font-size="74.4" fill="#FEFFFF" transform="matrix(1.00, 0.00, -0.00, -1.00, 517.5, 635.1)">g</text><text xml:space="preserve" font-family="Helvetica-Light,Helvetica" font-size="74.4" fill="#FEFFFF" transform="matrix(1.00, 0.00, -0.00, -1.00, 562.9, 635.1)"> </text><text xml:space="preserve" font-family="Helvetica-Light,Helvetica" font-size="74.4" fill="#FEFFFF" transform="matrix(1.00, 0.00, -0.00, -1.00, 583.6, 635.1)">-</text><text xml:space="preserve" font-family="Helvetica-Light,Helvetica" font-size="74.4" fill="#FEFFFF" transform="matrix(1.00, 0.00, -0.00, -1.00, 608.4, 635.1)"> </text><text xml:space="preserve" font-family="Helvetica-Light,Helvetica" font-size="74.4" fill="#FEFFFF" transform="matrix(1.00, 0.00, -0.00, -1.00, 629.1, 635.1)">R</text><text xml:space="preserve" font-family="Helvetica-Light,Helvetica" font-size="74.4" fill="#FEFFFF" transform="matrix(1.00, 0.00, -0.00, -1.00, 678.7, 635.1)">e</text><text xml:space="preserve" font-family="Helvetica-Light,Helvetica" font-size="74.4" fill="#FEFFFF" transform="matrix(1.00, 0.00, -0.00, -1.00, 720.1, 635.1)">j</text><text xml:space="preserve" font-family="Helvetica-Light,Helvetica" font-size="74.4" fill="#FEFFFF" transform="matrix(1.00, 0.00, -0.00, -1.00, 736.6, 635.1)">e</text><text xml:space="preserve" font-family="Helvetica-Light,Helvetica" font-size="74.4" fill="#FEFFFF" transform="matrix(1.00, 0.00, -0.00, -1.00, 777.9, 635.1)">c</text><text xml:space="preserve" font-family="Helvetica-Light,Helvetica" font-size="74.4" fill="#FEFFFF" transform="matrix(1.00, 0.00, -0.00, -1.00, 819.3, 635.1)">t</text><text xml:space="preserve" font-family="Helvetica-Light,Helvetica" font-size="74.4" fill="#FEFFFF" transform="matrix(1.00, 0.00, -0.00, -1.00, 840.0, 635.1)">i</text><text xml:space="preserve" font-family="Helvetica-Light,Helvetica" font-size="74.4" fill="#FEFFFF" transform="matrix(1.00, 0.00, -0.00, -1.00, 856.5, 635.1)">n</text><text xml:space="preserve" font-family="Helvetica-Light,Helvetica" font-size="74.4" fill="#FEFFFF" transform="matrix(1.00, 0.00, -0.00, -1.00, 897.9, 635.1)">g</text><text xml:space="preserve" font-family="Helvetica-Light,Helvetica" font-size="38.0" fill="#FEFFFF" transform="matrix(1.00, 0.00, -0.00, -1.00, 79.0, 520.7)">A</text><text xml:space="preserve" font-family="Helvetica-Light,Helvetica" font-size="38.0" fill="#FEFFFF" transform="matrix(1.00, 0.00, -0.00, -1.00, 104.3, 520.7)">l</text><text xml:space="preserve" font-family="Helvetica-Light,Helvetica" font-size="38.0" fill="#FEFFFF" transform="matrix(1.00, 0.00, -0.00, -1.00, 112.8, 520.7)">w</text><text xml:space="preserve" font-family="Helvetica-Light,Helvetica" font-size="38.0" fill="#FEFFFF" transform="matrix(1.00, 0.00, -0.00, -1.00, 140.2, 520.7)">a</text><text xml:space="preserve" font-family="Helvetica-Light,Helvetica" font-size="38.0" fill="#FEFFFF" transform="matrix(1.00, 0.00, -0.00, -1.00, 161.3, 520.7)">y</text><text xml:space="preserve" font-family="Helvetica-Light,Helvetica" font-size="38.0" fill="#FEFFFF" transform="matrix(1.00, 0.00, -0.00, -1.00, 180.3, 520.7)">s</text><text xml:space="preserve" font-family="Helvetica-Light,Helvetica" font-size="38.0" fill="#FEFFFF" transform="matrix(1.00, 0.00, -0.00, -1.00, 199.3, 520.7)"> </text><text xml:space="preserve" font-family="Helvetica-Light,Helvetica" font-size="38.0" fill="#FEFFFF" transform="matrix(1.00, 0.00, -0.00, -1.00, 209.9, 520.7)">t</text><text xml:space="preserve" font-family="Helvetica-Light,Helvetica" font-size="38.0" fill="#FEFFFF" transform="matrix(1.00, 0.00, -0.00, -1.00, 220.5, 520.7)">h</text><text xml:space="preserve" font-family="Helvetica-Light,Helvetica" font-size="38.0" fill="#FEFFFF" transform="matrix(1.00, 0.00, -0.00, -1.00, 241.6, 520.7)">r</text><text xml:space="preserve" font-family="Helvetica-Light,Helvetica" font-size="38.0" fill="#FEFFFF" transform="matrix(1.00, 0.00, -0.00, -1.00, 253.6, 520.7)">o</text><text xml:space="preserve" font-family="Helvetica-Light,Helvetica" font-size="38.0" fill="#FEFFFF" transform="matrix(1.00, 0.00, -0.00, -1.00, 274.7, 520.7)">w</text><text xml:space="preserve" font-family="Helvetica-Light,Helvetica" font-size="38.0" fill="#FEFFFF" transform="matrix(1.00, 0.00, -0.00, -1.00, 302.1, 520.7)"> </text><text xml:space="preserve" font-family="Helvetica-Light,Helvetica" font-size="38.0" fill="#FEFFFF" transform="matrix(1.00, 0.00, -0.00, -1.00, 312.7, 520.7)">/</text><text xml:space="preserve" font-family="Helvetica-Light,Helvetica" font-size="38.0" fill="#FEFFFF" transform="matrix(1.00, 0.00, -0.00, -1.00, 323.3, 520.7)"> </text><text xml:space="preserve" font-family="Helvetica-Light,Helvetica" font-size="38.0" fill="#FEFFFF" transform="matrix(1.00, 0.00, -0.00, -1.00, 333.8, 520.7)">r</text><text xml:space="preserve" font-family="Helvetica-Light,Helvetica" font-size="38.0" fill="#FEFFFF" transform="matrix(1.00, 0.00, -0.00, -1.00, 345.8, 520.7)">e</text><text xml:space="preserve" font-family="Helvetica-Light,Helvetica" font-size="38.0" fill="#FEFFFF" transform="matrix(1.00, 0.00, -0.00, -1.00, 366.9, 520.7)">j</text><text xml:space="preserve" font-family="Helvetica-Light,Helvetica" font-size="38.0" fill="#FEFFFF" transform="matrix(1.00, 0.00, -0.00, -1.00, 375.4, 520.7)">e</text><text xml:space="preserve" font-family="Helvetica-Light,Helvetica" font-size="38.0" fill="#FEFFFF" transform="matrix(1.00, 0.00, -0.00, -1.00, 396.5, 520.7)">c</text><text xml:space="preserve" font-family="Helvetica-Light,Helvetica" font-size="38.0" fill="#FEFFFF" transform="matrix(1.00, 0.00, -0.00, -1.00, 417.6, 520.7)">t</text><text xml:space="preserve" font-family="Helvetica-Light,Helvetica" font-size="38.0" fill="#FEFFFF" transform="matrix(1.00, 0.00, -0.00, -1.00, 428.2, 520.7)"> </text><text xml:space="preserve" font-family="Helvetica-Light,Helvetica" font-size="38.0" fill="#FEFFFF" transform="matrix(1.00, 0.00, -0.00, -1.00, 438.7, 520.7)">a</text><text xml:space="preserve" font-family="Helvetica-Light,Helvetica" font-size="38.0" fill="#FEFFFF" transform="matrix(1.00, 0.00, -0.00, -1.00, 459.9, 520.7)">n</text><text xml:space="preserve" font-family="Helvetica-Light,Helvetica" font-size="38.0" fill="#FEFFFF" transform="matrix(1.00, 0.00, -0.00, -1.00, 481.0, 520.7)"> </text><text xml:space="preserve" font-family="Courier,Courier" font-size="38.0" fill="#FEFFFF" transform="matrix(1.00, 0.00, -0.00, -1.00, 491.6, 520.7)">E</text><text xml:space="preserve" font-family="Courier,Courier" font-size="38.0" fill="#FEFFFF" transform="matrix(1.00, 0.00, -0.00, -1.00, 514.4, 520.7)">r</text><text xml:space="preserve" font-family="Courier,Courier" font-size="38.0" fill="#FEFFFF" transform="matrix(1.00, 0.00, -0.00, -1.00, 537.2, 520.7)">r</text><text xml:space="preserve" font-family="Courier,Courier" font-size="38.0" fill="#FEFFFF" transform="matrix(1.00, 0.00, -0.00, -1.00, 560.0, 520.7)">o</text><text xml:space="preserve" font-family="Courier,Courier" font-size="38.0" fill="#FEFFFF" transform="matrix(1.00, 0.00, -0.00, -1.00, 582.8, 520.7)">r</text><text xml:space="preserve" font-family="Courier,Courier" font-size="38.0" fill="#FEFFFF" transform="matrix(1.00, 0.00, -0.00, -1.00, 605.6, 520.7)">(</text><text xml:space="preserve" font-family="Courier,Courier" font-size="38.0" fill="#FEFFFF" transform="matrix(1.00, 0.00, -0.00, -1.00, 628.4, 520.7)">)</text><text xml:space="preserve" font-family="Helvetica-Light,Helvetica" font-size="38.0" fill="#FEFFFF" transform="matrix(1.00, 0.00, -0.00, -1.00, 651.2, 520.7)">!</text><text xml:space="preserve" font-family="Helvetica-Light,Helvetica" font-size="38.0" fill="#FEFFFF" transform="matrix(1.00, 0.00, -0.00, -1.00, 663.8, 520.7)"> </text><text xml:space="preserve" font-family="Helvetica-Light,Helvetica" font-size="38.0" fill="#FF2600" transform="matrix(1.00, 0.00, -0.00, -1.00, 674.4, 520.7)">D</text><text xml:space="preserve" font-family="Helvetica-Light,Helvetica" font-size="38.0" fill="#FF2600" transform="matrix(1.00, 0.00, -0.00, -1.00, 701.8, 520.7)">o</text><text xml:space="preserve" font-family="Helvetica-Light,Helvetica" font-size="38.0" fill="#FF2600" transform="matrix(1.00, 0.00, -0.00, -1.00, 723.0, 520.7)">n</text><text xml:space="preserve" font-family="Helvetica-Light,Helvetica" font-size="38.0" fill="#FF2600" transform="matrix(1.00, 0.00, -0.00, -1.00, 744.1, 520.7)">’</text><text xml:space="preserve" font-family="Helvetica-Light,Helvetica" font-size="38.0" fill="#FF2600" transform="matrix(1.00, 0.00, -0.00, -1.00, 751.9, 520.7)">t</text><text xml:space="preserve" font-family="Helvetica-Light,Helvetica" font-size="38.0" fill="#FF2600" transform="matrix(1.00, 0.00, -0.00, -1.00, 762.4, 520.7)"> </text><text xml:space="preserve" font-family="Helvetica-Light,Helvetica" font-size="38.0" fill="#FF2600" transform="matrix(1.00, 0.00, -0.00, -1.00, 773.0, 520.7)">d</text><text xml:space="preserve" font-family="Helvetica-Light,Helvetica" font-size="38.0" fill="#FF2600" transform="matrix(1.00, 0.00, -0.00, -1.00, 796.2, 520.7)">o</text><text xml:space="preserve" font-family="Helvetica-Light,Helvetica" font-size="38.0" fill="#FF2600" transform="matrix(1.00, 0.00, -0.00, -1.00, 817.3, 520.7)"> </text><text xml:space="preserve" font-family="Helvetica-Light,Helvetica" font-size="38.0" fill="#FF2600" transform="matrix(1.00, 0.00, -0.00, -1.00, 827.9, 520.7)">t</text><text xml:space="preserve" font-family="Helvetica-Light,Helvetica" font-size="38.0" fill="#FF2600" transform="matrix(1.00, 0.00, -0.00, -1.00, 838.5, 520.7)">h</text><text xml:space="preserve" font-family="Helvetica-Light,Helvetica" font-size="38.0" fill="#FF2600" transform="matrix(1.00, 0.00, -0.00, -1.00, 859.6, 520.7)">i</text><text xml:space="preserve" font-family="Helvetica-Light,Helvetica" font-size="38.0" fill="#FF2600" transform="matrix(1.00, 0.00, -0.00, -1.00, 868.0, 520.7)">s</text><text xml:space="preserve" font-family="Helvetica-Light,Helvetica" font-size="38.0" fill="#FF2600" transform="matrix(1.00, 0.00, -0.00, -1.00, 887.0, 520.7)">:</text><text xml:space="preserve" font-family="Courier,Courier" font-size="30.0" fill="#FEFFFF" transform="matrix(1.00, 0.00, -0.00, -1.00, 85.0, 436.1)">n</text><text xml:space="preserve" font-family="Courier,Courier" font-size="30.0" fill="#FEFFFF" transform="matrix(1.00, 0.00, -0.00, -1.00, 103.0, 436.1)">e</text><text xml:space="preserve" font-family="Courier,Courier" font-size="30.0" fill="#FEFFFF" transform="matrix(1.00, 0.00, -0.00, -1.00, 121.1, 436.1)">w</text><text xml:space="preserve" font-family="Courier,Courier" font-size="30.0" fill="#FEFFFF" transform="matrix(1.00, 0.00, -0.00, -1.00, 139.1, 436.1)"> </text><text xml:space="preserve" font-family="Courier,Courier" font-size="30.0" fill="#FEFFFF" transform="matrix(1.00, 0.00, -0.00, -1.00, 157.1, 436.1)">P</text><text xml:space="preserve" font-family="Courier,Courier" font-size="30.0" fill="#FEFFFF" transform="matrix(1.00, 0.00, -0.00, -1.00, 175.1, 436.1)">r</text><text xml:space="preserve" font-family="Courier,Courier" font-size="30.0" fill="#FEFFFF" transform="matrix(1.00, 0.00, -0.00, -1.00, 193.1, 436.1)">o</text><text xml:space="preserve" font-family="Courier,Courier" font-size="30.0" fill="#FEFFFF" transform="matrix(1.00, 0.00, -0.00, -1.00, 211.1, 436.1)">m</text><text xml:space="preserve" font-family="Courier,Courier" font-size="30.0" fill="#FEFFFF" transform="matrix(1.00, 0.00, -0.00, -1.00, 229.1, 436.1)">i</text><text xml:space="preserve" font-family="Courier,Courier" font-size="30.0" fill="#FEFFFF" transform="matrix(1.00, 0.00, -0.00, -1.00, 247.1, 436.1)">s</text><text xml:space="preserve" font-family="Courier,Courier" font-size="30.0" fill="#FEFFFF" transform="matrix(1.00, 0.00, -0.00, -1.00, 265.1, 436.1)">e</text><text xml:space="preserve" font-family="Courier,Courier" font-size="30.0" fill="#FEFFFF" transform="matrix(1.00, 0.00, -0.00, -1.00, 283.1, 436.1)">(</text><text xml:space="preserve" font-family="Courier,Courier" font-size="30.0" fill="#FEFFFF" transform="matrix(1.00, 0.00, -0.00, -1.00, 301.1, 436.1)">f</text><text xml:space="preserve" font-family="Courier,Courier" font-size="30.0" fill="#FEFFFF" transform="matrix(1.00, 0.00, -0.00, -1.00, 319.1, 436.1)">u</text><text xml:space="preserve" font-family="Courier,Courier" font-size="30.0" fill="#FEFFFF" transform="matrix(1.00, 0.00, -0.00, -1.00, 337.1, 436.1)">n</text><text xml:space="preserve" font-family="Courier,Courier" font-size="30.0" fill="#FEFFFF" transform="matrix(1.00, 0.00, -0.00, -1.00, 355.1, 436.1)">c</text><text xml:space="preserve" font-family="Courier,Courier" font-size="30.0" fill="#FEFFFF" transform="matrix(1.00, 0.00, -0.00, -1.00, 373.1, 436.1)">t</text><text xml:space="preserve" font-family="Courier,Courier" font-size="30.0" fill="#FEFFFF" transform="matrix(1.00, 0.00, -0.00, -1.00, 391.1, 436.1)">i</text><text xml:space="preserve" font-family="Courier,Courier" font-size="30.0" fill="#FEFFFF" transform="matrix(1.00, 0.00, -0.00, -1.00, 409.1, 436.1)">o</text><text xml:space="preserve" font-family="Courier,Courier" font-size="30.0" fill="#FEFFFF" transform="matrix(1.00, 0.00, -0.00, -1.00, 427.2, 436.1)">n</text><text xml:space="preserve" font-family="Courier,Courier" font-size="30.0" fill="#FEFFFF" transform="matrix(1.00, 0.00, -0.00, -1.00, 445.2, 436.1)"> </text><text xml:space="preserve" font-family="Courier,Courier" font-size="30.0" fill="#FEFFFF" transform="matrix(1.00, 0.00, -0.00, -1.00, 463.2, 436.1)">(</text><text xml:space="preserve" font-family="Courier,Courier" font-size="30.0" fill="#FEFFFF" transform="matrix(1.00, 0.00, -0.00, -1.00, 481.2, 436.1)">r</text><text xml:space="preserve" font-family="Courier,Courier" font-size="30.0" fill="#FEFFFF" transform="matrix(1.00, 0.00, -0.00, -1.00, 499.2, 436.1)">e</text><text xml:space="preserve" font-family="Courier,Courier" font-size="30.0" fill="#FEFFFF" transform="matrix(1.00, 0.00, -0.00, -1.00, 517.2, 436.1)">s</text><text xml:space="preserve" font-family="Courier,Courier" font-size="30.0" fill="#FEFFFF" transform="matrix(1.00, 0.00, -0.00, -1.00, 535.2, 436.1)">o</text><text xml:space="preserve" font-family="Courier,Courier" font-size="30.0" fill="#FEFFFF" transform="matrix(1.00, 0.00, -0.00, -1.00, 553.2, 436.1)">l</text><text xml:space="preserve" font-family="Courier,Courier" font-size="30.0" fill="#FEFFFF" transform="matrix(1.00, 0.00, -0.00, -1.00, 571.2, 436.1)">v</text><text xml:space="preserve" font-family="Courier,Courier" font-size="30.0" fill="#FEFFFF" transform="matrix(1.00, 0.00, -0.00, -1.00, 589.2, 436.1)">e</text><text xml:space="preserve" font-family="Courier,Courier" font-size="30.0" fill="#FEFFFF" transform="matrix(1.00, 0.00, -0.00, -1.00, 607.2, 436.1)">,</text><text xml:space="preserve" font-family="Courier,Courier" font-size="30.0" fill="#FEFFFF" transform="matrix(1.00, 0.00, -0.00, -1.00, 625.2, 436.1)"> </text><text xml:space="preserve" font-family="Courier,Courier" font-size="30.0" fill="#FEFFFF" transform="matrix(1.00, 0.00, -0.00, -1.00, 643.2, 436.1)">r</text><text xml:space="preserve" font-family="Courier,Courier" font-size="30.0" fill="#FEFFFF" transform="matrix(1.00, 0.00, -0.00, -1.00, 661.2, 436.1)">e</text><text xml:space="preserve" font-family="Courier,Courier" font-size="30.0" fill="#FEFFFF" transform="matrix(1.00, 0.00, -0.00, -1.00, 679.2, 436.1)">j</text><text xml:space="preserve" font-family="Courier,Courier" font-size="30.0" fill="#FEFFFF" transform="matrix(1.00, 0.00, -0.00, -1.00, 697.2, 436.1)">e</text><text xml:space="preserve" font-family="Courier,Courier" font-size="30.0" fill="#FEFFFF" transform="matrix(1.00, 0.00, -0.00, -1.00, 715.3, 436.1)">c</text><text xml:space="preserve" font-family="Courier,Courier" font-size="30.0" fill="#FEFFFF" transform="matrix(1.00, 0.00, -0.00, -1.00, 733.3, 436.1)">t</text><text xml:space="preserve" font-family="Courier,Courier" font-size="30.0" fill="#FEFFFF" transform="matrix(1.00, 0.00, -0.00, -1.00, 751.3, 436.1)">)</text><text xml:space="preserve" font-family="Courier,Courier" font-size="30.0" fill="#FEFFFF" transform="matrix(1.00, 0.00, -0.00, -1.00, 769.3, 436.1)"> </text><text xml:space="preserve" font-family="Courier,Courier" font-size="30.0" fill="#FEFFFF" transform="matrix(1.00, 0.00, -0.00, -1.00, 787.3, 436.1)">{</text><text xml:space="preserve" font-family="Courier,Courier" font-size="30.0" fill="#FEFFFF" transform="matrix(1.00, 0.00, -0.00, -1.00, 85.0, 390.5)"> </text><text xml:space="preserve" font-family="Courier,Courier" font-size="30.0" fill="#FEFFFF" transform="matrix(1.00, 0.00, -0.00, -1.00, 103.0, 390.5)"> </text><text xml:space="preserve" font-family="Courier,Courier" font-size="30.0" fill="#FEFFFF" transform="matrix(1.00, 0.00, -0.00, -1.00, 121.1, 390.5)">t</text><text xml:space="preserve" font-family="Courier,Courier" font-size="30.0" fill="#FEFFFF" transform="matrix(1.00, 0.00, -0.00, -1.00, 139.1, 390.5)">h</text><text xml:space="preserve" font-family="Courier,Courier" font-size="30.0" fill="#FEFFFF" transform="matrix(1.00, 0.00, -0.00, -1.00, 157.1, 390.5)">r</text><text xml:space="preserve" font-family="Courier,Courier" font-size="30.0" fill="#FEFFFF" transform="matrix(1.00, 0.00, -0.00, -1.00, 175.1, 390.5)">o</text><text xml:space="preserve" font-family="Courier,Courier" font-size="30.0" fill="#FEFFFF" transform="matrix(1.00, 0.00, -0.00, -1.00, 193.1, 390.5)">w</text><text xml:space="preserve" font-family="Courier,Courier" font-size="30.0" fill="#FEFFFF" transform="matrix(1.00, 0.00, -0.00, -1.00, 211.1, 390.5)"> </text><text xml:space="preserve" font-family="Courier,Courier" font-size="30.0" fill="#FF9200" transform="matrix(1.00, 0.00, -0.00, -1.00, 229.1, 390.5)">‘</text><text xml:space="preserve" font-family="Courier,Courier" font-size="30.0" fill="#FF9200" transform="matrix(1.00, 0.00, -0.00, -1.00, 247.1, 390.5)">T</text><text xml:space="preserve" font-family="Courier,Courier" font-size="30.0" fill="#FF9200" transform="matrix(1.00, 0.00, -0.00, -1.00, 265.1, 390.5)">H</text><text xml:space="preserve" font-family="Courier,Courier" font-size="30.0" fill="#FF9200" transform="matrix(1.00, 0.00, -0.00, -1.00, 283.1, 390.5)">I</text><text xml:space="preserve" font-family="Courier,Courier" font-size="30.0" fill="#FF9200" transform="matrix(1.00, 0.00, -0.00, -1.00, 301.1, 390.5)">S</text><text xml:space="preserve" font-family="Courier,Courier" font-size="30.0" fill="#FF9200" transform="matrix(1.00, 0.00, -0.00, -1.00, 319.1, 390.5)"> </text><text xml:space="preserve" font-family="Courier,Courier" font-size="30.0" fill="#FF9200" transform="matrix(1.00, 0.00, -0.00, -1.00, 337.1, 390.5)">F</text><text xml:space="preserve" font-family="Courier,Courier" font-size="30.0" fill="#FF9200" transform="matrix(1.00, 0.00, -0.00, -1.00, 355.1, 390.5)">A</text><text xml:space="preserve" font-family="Courier,Courier" font-size="30.0" fill="#FF9200" transform="matrix(1.00, 0.00, -0.00, -1.00, 373.1, 390.5)">I</text><text xml:space="preserve" font-family="Courier,Courier" font-size="30.0" fill="#FF9200" transform="matrix(1.00, 0.00, -0.00, -1.00, 391.1, 390.5)">L</text><text xml:space="preserve" font-family="Courier,Courier" font-size="30.0" fill="#FF9200" transform="matrix(1.00, 0.00, -0.00, -1.00, 409.1, 390.5)">E</text><text xml:space="preserve" font-family="Courier,Courier" font-size="30.0" fill="#FF9200" transform="matrix(1.00, 0.00, -0.00, -1.00, 427.1, 390.5)">D</text><text xml:space="preserve" font-family="Courier,Courier" font-size="30.0" fill="#FF9200" transform="matrix(1.00, 0.00, -0.00, -1.00, 445.1, 390.5)">!</text><text xml:space="preserve" font-family="Courier,Courier" font-size="30.0" fill="#FF9200" transform="matrix(1.00, 0.00, -0.00, -1.00, 463.1, 390.5)">’</text><text xml:space="preserve" font-family="Courier,Courier" font-size="30.0" fill="#FEFFFF" transform="matrix(1.00, 0.00, -0.00, -1.00, 85.0, 344.9)">}</text><text xml:space="preserve" font-family="Courier,Courier" font-size="30.0" fill="#FEFFFF" transform="matrix(1.00, 0.00, -0.00, -1.00, 103.0, 344.9)">)</text><text xml:space="preserve" font-family="Courier,Courier" font-size="30.0" fill="#FEFFFF" transform="matrix(1.00, 0.00, -0.00, -1.00, 85.0, 253.7)">n</text><text xml:space="preserve" font-family="Courier,Courier" font-size="30.0" fill="#FEFFFF" transform="matrix(1.00, 0.00, -0.00, -1.00, 103.0, 253.7)">e</text><text xml:space="preserve" font-family="Courier,Courier" font-size="30.0" fill="#FEFFFF" transform="matrix(1.00, 0.00, -0.00, -1.00, 121.1, 253.7)">w</text><text xml:space="preserve" font-family="Courier,Courier" font-size="30.0" fill="#FEFFFF" transform="matrix(1.00, 0.00, -0.00, -1.00, 139.1, 253.7)"> </text><text xml:space="preserve" font-family="Courier,Courier" font-size="30.0" fill="#FEFFFF" transform="matrix(1.00, 0.00, -0.00, -1.00, 157.1, 253.7)">P</text><text xml:space="preserve" font-family="Courier,Courier" font-size="30.0" fill="#FEFFFF" transform="matrix(1.00, 0.00, -0.00, -1.00, 175.1, 253.7)">r</text><text xml:space="preserve" font-family="Courier,Courier" font-size="30.0" fill="#FEFFFF" transform="matrix(1.00, 0.00, -0.00, -1.00, 193.1, 253.7)">o</text><text xml:space="preserve" font-family="Courier,Courier" font-size="30.0" fill="#FEFFFF" transform="matrix(1.00, 0.00, -0.00, -1.00, 211.1, 253.7)">m</text><text xml:space="preserve" font-family="Courier,Courier" font-size="30.0" fill="#FEFFFF" transform="matrix(1.00, 0.00, -0.00, -1.00, 229.1, 253.7)">i</text><text xml:space="preserve" font-family="Courier,Courier" font-size="30.0" fill="#FEFFFF" transform="matrix(1.00, 0.00, -0.00, -1.00, 247.1, 253.7)">s</text><text xml:space="preserve" font-family="Courier,Courier" font-size="30.0" fill="#FEFFFF" transform="matrix(1.00, 0.00, -0.00, -1.00, 265.1, 253.7)">e</text><text xml:space="preserve" font-family="Courier,Courier" font-size="30.0" fill="#FEFFFF" transform="matrix(1.00, 0.00, -0.00, -1.00, 283.1, 253.7)">(</text><text xml:space="preserve" font-family="Courier,Courier" font-size="30.0" fill="#FEFFFF" transform="matrix(1.00, 0.00, -0.00, -1.00, 301.1, 253.7)">f</text><text xml:space="preserve" font-family="Courier,Courier" font-size="30.0" fill="#FEFFFF" transform="matrix(1.00, 0.00, -0.00, -1.00, 319.1, 253.7)">u</text><text xml:space="preserve" font-family="Courier,Courier" font-size="30.0" fill="#FEFFFF" transform="matrix(1.00, 0.00, -0.00, -1.00, 337.1, 253.7)">n</text><text xml:space="preserve" font-family="Courier,Courier" font-size="30.0" fill="#FEFFFF" transform="matrix(1.00, 0.00, -0.00, -1.00, 355.1, 253.7)">c</text><text xml:space="preserve" font-family="Courier,Courier" font-size="30.0" fill="#FEFFFF" transform="matrix(1.00, 0.00, -0.00, -1.00, 373.1, 253.7)">t</text><text xml:space="preserve" font-family="Courier,Courier" font-size="30.0" fill="#FEFFFF" transform="matrix(1.00, 0.00, -0.00, -1.00, 391.1, 253.7)">i</text><text xml:space="preserve" font-family="Courier,Courier" font-size="30.0" fill="#FEFFFF" transform="matrix(1.00, 0.00, -0.00, -1.00, 409.1, 253.7)">o</text><text xml:space="preserve" font-family="Courier,Courier" font-size="30.0" fill="#FEFFFF" transform="matrix(1.00, 0.00, -0.00, -1.00, 427.2, 253.7)">n</text><text xml:space="preserve" font-family="Courier,Courier" font-size="30.0" fill="#FEFFFF" transform="matrix(1.00, 0.00, -0.00, -1.00, 445.2, 253.7)"> </text><text xml:space="preserve" font-family="Courier,Courier" font-size="30.0" fill="#FEFFFF" transform="matrix(1.00, 0.00, -0.00, -1.00, 463.2, 253.7)">(</text><text xml:space="preserve" font-family="Courier,Courier" font-size="30.0" fill="#FEFFFF" transform="matrix(1.00, 0.00, -0.00, -1.00, 481.2, 253.7)">r</text><text xml:space="preserve" font-family="Courier,Courier" font-size="30.0" fill="#FEFFFF" transform="matrix(1.00, 0.00, -0.00, -1.00, 499.2, 253.7)">e</text><text xml:space="preserve" font-family="Courier,Courier" font-size="30.0" fill="#FEFFFF" transform="matrix(1.00, 0.00, -0.00, -1.00, 517.2, 253.7)">s</text><text xml:space="preserve" font-family="Courier,Courier" font-size="30.0" fill="#FEFFFF" transform="matrix(1.00, 0.00, -0.00, -1.00, 535.2, 253.7)">o</text><text xml:space="preserve" font-family="Courier,Courier" font-size="30.0" fill="#FEFFFF" transform="matrix(1.00, 0.00, -0.00, -1.00, 553.2, 253.7)">l</text><text xml:space="preserve" font-family="Courier,Courier" font-size="30.0" fill="#FEFFFF" transform="matrix(1.00, 0.00, -0.00, -1.00, 571.2, 253.7)">v</text><text xml:space="preserve" font-family="Courier,Courier" font-size="30.0" fill="#FEFFFF" transform="matrix(1.00, 0.00, -0.00, -1.00, 589.2, 253.7)">e</text><text xml:space="preserve" font-family="Courier,Courier" font-size="30.0" fill="#FEFFFF" transform="matrix(1.00, 0.00, -0.00, -1.00, 607.2, 253.7)">,</text><text xml:space="preserve" font-family="Courier,Courier" font-size="30.0" fill="#FEFFFF" transform="matrix(1.00, 0.00, -0.00, -1.00, 625.2, 253.7)"> </text><text xml:space="preserve" font-family="Courier,Courier" font-size="30.0" fill="#FEFFFF" transform="matrix(1.00, 0.00, -0.00, -1.00, 643.2, 253.7)">r</text><text xml:space="preserve" font-family="Courier,Courier" font-size="30.0" fill="#FEFFFF" transform="matrix(1.00, 0.00, -0.00, -1.00, 661.2, 253.7)">e</text><text xml:space="preserve" font-family="Courier,Courier" font-size="30.0" fill="#FEFFFF" transform="matrix(1.00, 0.00, -0.00, -1.00, 679.2, 253.7)">j</text><text xml:space="preserve" font-family="Courier,Courier" font-size="30.0" fill="#FEFFFF" transform="matrix(1.00, 0.00, -0.00, -1.00, 697.2, 253.7)">e</text><text xml:space="preserve" font-family="Courier,Courier" font-size="30.0" fill="#FEFFFF" transform="matrix(1.00, 0.00, -0.00, -1.00, 715.3, 253.7)">c</text><text xml:space="preserve" font-family="Courier,Courier" font-size="30.0" fill="#FEFFFF" transform="matrix(1.00, 0.00, -0.00, -1.00, 733.3, 253.7)">t</text><text xml:space="preserve" font-family="Courier,Courier" font-size="30.0" fill="#FEFFFF" transform="matrix(1.00, 0.00, -0.00, -1.00, 751.3, 253.7)">)</text><text xml:space="preserve" font-family="Courier,Courier" font-size="30.0" fill="#FEFFFF" transform="matrix(1.00, 0.00, -0.00, -1.00, 769.3, 253.7)"> </text><text xml:space="preserve" font-family="Courier,Courier" font-size="30.0" fill="#FEFFFF" transform="matrix(1.00, 0.00, -0.00, -1.00, 787.3, 253.7)">{</text><text xml:space="preserve" font-family="Courier,Courier" font-size="30.0" fill="#FEFFFF" transform="matrix(1.00, 0.00, -0.00, -1.00, 85.0, 208.1)"> </text><text xml:space="preserve" font-family="Courier,Courier" font-size="30.0" fill="#FEFFFF" transform="matrix(1.00, 0.00, -0.00, -1.00, 103.0, 208.1)"> </text><text xml:space="preserve" font-family="Courier,Courier" font-size="30.0" fill="#FEFFFF" transform="matrix(1.00, 0.00, -0.00, -1.00, 121.1, 208.1)">r</text><text xml:space="preserve" font-family="Courier,Courier" font-size="30.0" fill="#FEFFFF" transform="matrix(1.00, 0.00, -0.00, -1.00, 139.1, 208.1)">e</text><text xml:space="preserve" font-family="Courier,Courier" font-size="30.0" fill="#FEFFFF" transform="matrix(1.00, 0.00, -0.00, -1.00, 157.1, 208.1)">j</text><text xml:space="preserve" font-family="Courier,Courier" font-size="30.0" fill="#FEFFFF" transform="matrix(1.00, 0.00, -0.00, -1.00, 175.1, 208.1)">e</text><text xml:space="preserve" font-family="Courier,Courier" font-size="30.0" fill="#FEFFFF" transform="matrix(1.00, 0.00, -0.00, -1.00, 193.1, 208.1)">c</text><text xml:space="preserve" font-family="Courier,Courier" font-size="30.0" fill="#FEFFFF" transform="matrix(1.00, 0.00, -0.00, -1.00, 211.1, 208.1)">t</text><text xml:space="preserve" font-family="Courier,Courier" font-size="30.0" fill="#FEFFFF" transform="matrix(1.00, 0.00, -0.00, -1.00, 229.1, 208.1)">(</text><text xml:space="preserve" font-family="Courier,Courier" font-size="30.0" fill="#FF9200" transform="matrix(1.00, 0.00, -0.00, -1.00, 247.1, 208.1)">‘</text><text xml:space="preserve" font-family="Courier,Courier" font-size="30.0" fill="#FF9200" transform="matrix(1.00, 0.00, -0.00, -1.00, 265.1, 208.1)">T</text><text xml:space="preserve" font-family="Courier,Courier" font-size="30.0" fill="#FF9200" transform="matrix(1.00, 0.00, -0.00, -1.00, 283.1, 208.1)">H</text><text xml:space="preserve" font-family="Courier,Courier" font-size="30.0" fill="#FF9200" transform="matrix(1.00, 0.00, -0.00, -1.00, 301.1, 208.1)">I</text><text xml:space="preserve" font-family="Courier,Courier" font-size="30.0" fill="#FF9200" transform="matrix(1.00, 0.00, -0.00, -1.00, 319.1, 208.1)">S</text><text xml:space="preserve" font-family="Courier,Courier" font-size="30.0" fill="#FF9200" transform="matrix(1.00, 0.00, -0.00, -1.00, 337.1, 208.1)"> </text><text xml:space="preserve" font-family="Courier,Courier" font-size="30.0" fill="#FF9200" transform="matrix(1.00, 0.00, -0.00, -1.00, 355.1, 208.1)">F</text><text xml:space="preserve" font-family="Courier,Courier" font-size="30.0" fill="#FF9200" transform="matrix(1.00, 0.00, -0.00, -1.00, 373.1, 208.1)">A</text><text xml:space="preserve" font-family="Courier,Courier" font-size="30.0" fill="#FF9200" transform="matrix(1.00, 0.00, -0.00, -1.00, 391.1, 208.1)">I</text><text xml:space="preserve" font-family="Courier,Courier" font-size="30.0" fill="#FF9200" transform="matrix(1.00, 0.00, -0.00, -1.00, 409.1, 208.1)">L</text><text xml:space="preserve" font-family="Courier,Courier" font-size="30.0" fill="#FF9200" transform="matrix(1.00, 0.00, -0.00, -1.00, 427.1, 208.1)">E</text><text xml:space="preserve" font-family="Courier,Courier" font-size="30.0" fill="#FF9200" transform="matrix(1.00, 0.00, -0.00, -1.00, 445.1, 208.1)">D</text><text xml:space="preserve" font-family="Courier,Courier" font-size="30.0" fill="#FF9200" transform="matrix(1.00, 0.00, -0.00, -1.00, 463.1, 208.1)">!</text><text xml:space="preserve" font-family="Courier,Courier" font-size="30.0" fill="#FF9200" transform="matrix(1.00, 0.00, -0.00, -1.00, 481.1, 208.1)">’</text><text xml:space="preserve" font-family="Courier,Courier" font-size="30.0" fill="#FEFFFF" transform="matrix(1.00, 0.00, -0.00, -1.00, 499.1, 208.1)">)</text><text xml:space="preserve" font-family="Courier,Courier" font-size="30.0" fill="#FEFFFF" transform="matrix(1.00, 0.00, -0.00, -1.00, 85.0, 162.5)">}</text><text xml:space="preserve" font-family="Courier,Courier" font-size="30.0" fill="#FEFFFF" transform="matrix(1.00, 0.00, -0.00, -1.00, 103.0, 162.5)">)</text><text xml:space="preserve" font-family="Courier,Courier" font-size="30.0" fill="#FEFFFF" transform="matrix(1.00, 0.00, -0.00, -1.00, 85.0, 71.3)">P</text><text xml:space="preserve" font-family="Courier,Courier" font-size="30.0" fill="#FEFFFF" transform="matrix(1.00, 0.00, -0.00, -1.00, 103.0, 71.3)">r</text><text xml:space="preserve" font-family="Courier,Courier" font-size="30.0" fill="#FEFFFF" transform="matrix(1.00, 0.00, -0.00, -1.00, 121.1, 71.3)">o</text><text xml:space="preserve" font-family="Courier,Courier" font-size="30.0" fill="#FEFFFF" transform="matrix(1.00, 0.00, -0.00, -1.00, 139.1, 71.3)">m</text><text xml:space="preserve" font-family="Courier,Courier" font-size="30.0" fill="#FEFFFF" transform="matrix(1.00, 0.00, -0.00, -1.00, 157.1, 71.3)">i</text><text xml:space="preserve" font-family="Courier,Courier" font-size="30.0" fill="#FEFFFF" transform="matrix(1.00, 0.00, -0.00, -1.00, 175.1, 71.3)">s</text><text xml:space="preserve" font-family="Courier,Courier" font-size="30.0" fill="#FEFFFF" transform="matrix(1.00, 0.00, -0.00, -1.00, 193.1, 71.3)">e</text><text xml:space="preserve" font-family="Courier,Courier" font-size="30.0" fill="#FEFFFF" transform="matrix(1.00, 0.00, -0.00, -1.00, 211.1, 71.3)">.</text><text xml:space="preserve" font-family="Courier,Courier" font-size="30.0" fill="#FEFFFF" transform="matrix(1.00, 0.00, -0.00, -1.00, 229.1, 71.3)">r</text><text xml:space="preserve" font-family="Courier,Courier" font-size="30.0" fill="#FEFFFF" transform="matrix(1.00, 0.00, -0.00, -1.00, 247.1, 71.3)">e</text><text xml:space="preserve" font-family="Courier,Courier" font-size="30.0" fill="#FEFFFF" transform="matrix(1.00, 0.00, -0.00, -1.00, 265.1, 71.3)">j</text><text xml:space="preserve" font-family="Courier,Courier" font-size="30.0" fill="#FEFFFF" transform="matrix(1.00, 0.00, -0.00, -1.00, 283.1, 71.3)">e</text><text xml:space="preserve" font-family="Courier,Courier" font-size="30.0" fill="#FEFFFF" transform="matrix(1.00, 0.00, -0.00, -1.00, 301.1, 71.3)">c</text><text xml:space="preserve" font-family="Courier,Courier" font-size="30.0" fill="#FEFFFF" transform="matrix(1.00, 0.00, -0.00, -1.00, 319.1, 71.3)">t</text><text xml:space="preserve" font-family="Courier,Courier" font-size="30.0" fill="#FEFFFF" transform="matrix(1.00, 0.00, -0.00, -1.00, 337.1, 71.3)">(</text><text xml:space="preserve" font-family="Courier,Courier" font-size="30.0" fill="#FF9200" transform="matrix(1.00, 0.00, -0.00, -1.00, 355.1, 71.3)">‘</text><text xml:space="preserve" font-family="Courier,Courier" font-size="30.0" fill="#FF9200" transform="matrix(1.00, 0.00, -0.00, -1.00, 373.1, 71.3)">T</text><text xml:space="preserve" font-family="Courier,Courier" font-size="30.0" fill="#FF9200" transform="matrix(1.00, 0.00, -0.00, -1.00, 391.1, 71.3)">H</text><text xml:space="preserve" font-family="Courier,Courier" font-size="30.0" fill="#FF9200" transform="matrix(1.00, 0.00, -0.00, -1.00, 409.1, 71.3)">I</text><text xml:space="preserve" font-family="Courier,Courier" font-size="30.0" fill="#FF9200" transform="matrix(1.00, 0.00, -0.00, -1.00, 427.1, 71.3)">S</text><text xml:space="preserve" font-family="Courier,Courier" font-size="30.0" fill="#FF9200" transform="matrix(1.00, 0.00, -0.00, -1.00, 445.1, 71.3)"> </text><text xml:space="preserve" font-family="Courier,Courier" font-size="30.0" fill="#FF9200" transform="matrix(1.00, 0.00, -0.00, -1.00, 463.1, 71.3)">F</text><text xml:space="preserve" font-family="Courier,Courier" font-size="30.0" fill="#FF9200" transform="matrix(1.00, 0.00, -0.00, -1.00, 481.1, 71.3)">A</text><text xml:space="preserve" font-family="Courier,Courier" font-size="30.0" fill="#FF9200" transform="matrix(1.00, 0.00, -0.00, -1.00, 499.1, 71.3)">I</text><text xml:space="preserve" font-family="Courier,Courier" font-size="30.0" fill="#FF9200" transform="matrix(1.00, 0.00, -0.00, -1.00, 517.1, 71.3)">L</text><text xml:space="preserve" font-family="Courier,Courier" font-size="30.0" fill="#FF9200" transform="matrix(1.00, 0.00, -0.00, -1.00, 535.1, 71.3)">E</text><text xml:space="preserve" font-family="Courier,Courier" font-size="30.0" fill="#FF9200" transform="matrix(1.00, 0.00, -0.00, -1.00, 553.2, 71.3)">D</text><text xml:space="preserve" font-family="Courier,Courier" font-size="30.0" fill="#FF9200" transform="matrix(1.00, 0.00, -0.00, -1.00, 571.2, 71.3)">!</text><text xml:space="preserve" font-family="Courier,Courier" font-size="30.0" fill="#FF9200" transform="matrix(1.00, 0.00, -0.00, -1.00, 589.2, 71.3)">’</text><text xml:space="preserve" font-family="Courier,Courier" font-size="30.0" fill="#FEFFFF" transform="matrix(1.00, 0.00, -0.00, -1.00, 607.1, 71.3)">)</text></g></svg>