<?xml version="1.0" encoding="UTF-8" standalone="no"?><svg xmlns="http://www.w3.org/2000/svg" xmlns:xlink="http://www.w3.org/1999/xlink" clip-rule="evenodd" stroke-miterlimit="10" viewBox="0 0 1024 768"><desc>SVG generated by Keynote</desc><defs></defs><g transform="matrix(1.00, 0.00, -0.00, -1.00, 0.0, 768.0)"><path d="M 0.0 768.0 L 1024.0 768.0 L 1024.0 0.0 L 0.0 0.0 Z M 0.0 768.0 " fill="#000000"></path><text xml:space="preserve" font-family="Helvetica-Light,Helvetica" font-size="80.0" fill="#FEFFFF" transform="matrix(1.00, 0.00, -0.00, -1.00, 88.2, 633.4)">Y</text><text xml:space="preserve" font-family="Helvetica-Light,Helvetica" font-size="80.0" fill="#FEFFFF" transform="matrix(1.00, 0.00, -0.00, -1.00, 135.5, 633.4)">i</text><text xml:space="preserve" font-family="Helvetica-Light,Helvetica" font-size="80.0" fill="#FEFFFF" transform="matrix(1.00, 0.00, -0.00, -1.00, 153.2, 633.4)">e</text><text xml:space="preserve" font-family="Helvetica-Light,Helvetica" font-size="80.0" fill="#FEFFFF" transform="matrix(1.00, 0.00, -0.00, -1.00, 197.7, 633.4)">l</text><text xml:space="preserve" font-family="Helvetica-Light,Helvetica" font-size="80.0" fill="#FEFFFF" transform="matrix(1.00, 0.00, -0.00, -1.00, 215.5, 633.4)">d</text><text xml:space="preserve" font-family="Helvetica-Light,Helvetica" font-size="80.0" fill="#FEFFFF" transform="matrix(1.00, 0.00, -0.00, -1.00, 264.4, 633.4)">i</text><text xml:space="preserve" font-family="Helvetica-Light,Helvetica" font-size="80.0" fill="#FEFFFF" transform="matrix(1.00, 0.00, -0.00, -1.00, 282.1, 633.4)">n</text><text xml:space="preserve" font-family="Helvetica-Light,Helvetica" font-size="80.0" fill="#FEFFFF" transform="matrix(1.00, 0.00, -0.00, -1.00, 326.6, 633.4)">g</text><text xml:space="preserve" font-family="Helvetica-Light,Helvetica" font-size="80.0" fill="#FEFFFF" transform="matrix(1.00, 0.00, -0.00, -1.00, 375.5, 633.4)"> </text><text xml:space="preserve" font-family="Helvetica-Light,Helvetica" font-size="80.0" fill="#FEFFFF" transform="matrix(1.00, 0.00, -0.00, -1.00, 397.7, 633.4)">t</text><text xml:space="preserve" font-family="Helvetica-Light,Helvetica" font-size="80.0" fill="#FEFFFF" transform="matrix(1.00, 0.00, -0.00, -1.00, 420.0, 633.4)">h</text><text xml:space="preserve" font-family="Helvetica-Light,Helvetica" font-size="80.0" fill="#FEFFFF" transform="matrix(1.00, 0.00, -0.00, -1.00, 464.4, 633.4)">e</text><text xml:space="preserve" font-family="Helvetica-Light,Helvetica" font-size="80.0" fill="#FEFFFF" transform="matrix(1.00, 0.00, -0.00, -1.00, 508.9, 633.4)"> </text><text xml:space="preserve" font-family="Helvetica-Light,Helvetica" font-size="80.0" fill="#FEFFFF" transform="matrix(1.00, 0.00, -0.00, -1.00, 531.2, 633.4)">E</text><text xml:space="preserve" font-family="Helvetica-Light,Helvetica" font-size="80.0" fill="#FEFFFF" transform="matrix(1.00, 0.00, -0.00, -1.00, 580.0, 633.4)">v</text><text xml:space="preserve" font-family="Helvetica-Light,Helvetica" font-size="80.0" fill="#FEFFFF" transform="matrix(1.00, 0.00, -0.00, -1.00, 620.0, 633.4)">e</text><text xml:space="preserve" font-family="Helvetica-Light,Helvetica" font-size="80.0" fill="#FEFFFF" transform="matrix(1.00, 0.00, -0.00, -1.00, 664.5, 633.4)">n</text><text xml:space="preserve" font-family="Helvetica-Light,Helvetica" font-size="80.0" fill="#FEFFFF" transform="matrix(1.00, 0.00, -0.00, -1.00, 709.0, 633.4)">t</text><text xml:space="preserve" font-family="Helvetica-Light,Helvetica" font-size="80.0" fill="#FEFFFF" transform="matrix(1.00, 0.00, -0.00, -1.00, 731.2, 633.4)"> </text><text xml:space="preserve" font-family="Helvetica-Light,Helvetica" font-size="80.0" fill="#FEFFFF" transform="matrix(1.00, 0.00, -0.00, -1.00, 753.5, 633.4)">L</text><text xml:space="preserve" font-family="Helvetica-Light,Helvetica" font-size="80.0" fill="#FEFFFF" transform="matrix(1.00, 0.00, -0.00, -1.00, 798.0, 633.4)">o</text><text xml:space="preserve" font-family="Helvetica-Light,Helvetica" font-size="80.0" fill="#FEFFFF" transform="matrix(1.00, 0.00, -0.00, -1.00, 842.4, 633.4)">o</text><text xml:space="preserve" font-family="Helvetica-Light,Helvetica" font-size="80.0" fill="#FEFFFF" transform="matrix(1.00, 0.00, -0.00, -1.00, 886.9, 633.4)">p</text><text xml:space="preserve" font-family="Helvetica-Light,Helvetica" font-size="28.5" fill="#FEFFFF" transform="matrix(1.00, 0.00, -0.00, -1.00, 79.0, 349.1)">•</text><text xml:space="preserve" font-family="Helvetica-Light,Helvetica" font-size="38.0" fill="#FEFFFF" transform="matrix(1.00, 0.00, -0.00, -1.00, 114.0, 345.7)">J</text><text xml:space="preserve" font-family="Helvetica-Light,Helvetica" font-size="38.0" fill="#FEFFFF" transform="matrix(1.00, 0.00, -0.00, -1.00, 133.0, 345.7)">a</text><text xml:space="preserve" font-family="Helvetica-Light,Helvetica" font-size="38.0" fill="#FEFFFF" transform="matrix(1.00, 0.00, -0.00, -1.00, 154.1, 345.7)">v</text><text xml:space="preserve" font-family="Helvetica-Light,Helvetica" font-size="38.0" fill="#FEFFFF" transform="matrix(1.00, 0.00, -0.00, -1.00, 173.1, 345.7)">a</text><text xml:space="preserve" font-family="Helvetica-Light,Helvetica" font-size="38.0" fill="#FEFFFF" transform="matrix(1.00, 0.00, -0.00, -1.00, 194.3, 345.7)">S</text><text xml:space="preserve" font-family="Helvetica-Light,Helvetica" font-size="38.0" fill="#FEFFFF" transform="matrix(1.00, 0.00, -0.00, -1.00, 217.5, 345.7)">c</text><text xml:space="preserve" font-family="Helvetica-Light,Helvetica" font-size="38.0" fill="#FEFFFF" transform="matrix(1.00, 0.00, -0.00, -1.00, 238.6, 345.7)">r</text><text xml:space="preserve" font-family="Helvetica-Light,Helvetica" font-size="38.0" fill="#FEFFFF" transform="matrix(1.00, 0.00, -0.00, -1.00, 251.3, 345.7)">i</text><text xml:space="preserve" font-family="Helvetica-Light,Helvetica" font-size="38.0" fill="#FEFFFF" transform="matrix(1.00, 0.00, -0.00, -1.00, 259.7, 345.7)">p</text><text xml:space="preserve" font-family="Helvetica-Light,Helvetica" font-size="38.0" fill="#FEFFFF" transform="matrix(1.00, 0.00, -0.00, -1.00, 282.9, 345.7)">t</text><text xml:space="preserve" font-family="Helvetica-Light,Helvetica" font-size="38.0" fill="#FEFFFF" transform="matrix(1.00, 0.00, -0.00, -1.00, 293.5, 345.7)"> </text><text xml:space="preserve" font-family="Helvetica-Light,Helvetica" font-size="38.0" fill="#FEFFFF" transform="matrix(1.00, 0.00, -0.00, -1.00, 304.0, 345.7)">i</text><text xml:space="preserve" font-family="Helvetica-Light,Helvetica" font-size="38.0" fill="#FEFFFF" transform="matrix(1.00, 0.00, -0.00, -1.00, 312.5, 345.7)">s</text><text xml:space="preserve" font-family="Helvetica-Light,Helvetica" font-size="38.0" fill="#FEFFFF" transform="matrix(1.00, 0.00, -0.00, -1.00, 331.5, 345.7)"> </text><text xml:space="preserve" font-family="Helvetica-Light,Helvetica" font-size="38.0" fill="#FEFFFF" transform="matrix(1.00, 0.00, -0.00, -1.00, 342.0, 345.7)">b</text><text xml:space="preserve" font-family="Helvetica-Light,Helvetica" font-size="38.0" fill="#FEFFFF" transform="matrix(1.00, 0.00, -0.00, -1.00, 365.3, 345.7)">a</text><text xml:space="preserve" font-family="Helvetica-Light,Helvetica" font-size="38.0" fill="#FEFFFF" transform="matrix(1.00, 0.00, -0.00, -1.00, 386.4, 345.7)">d</text><text xml:space="preserve" font-family="Helvetica-Light,Helvetica" font-size="38.0" fill="#FEFFFF" transform="matrix(1.00, 0.00, -0.00, -1.00, 409.6, 345.7)"> </text><text xml:space="preserve" font-family="Helvetica-Light,Helvetica" font-size="38.0" fill="#FEFFFF" transform="matrix(1.00, 0.00, -0.00, -1.00, 420.2, 345.7)">a</text><text xml:space="preserve" font-family="Helvetica-Light,Helvetica" font-size="38.0" fill="#FEFFFF" transform="matrix(1.00, 0.00, -0.00, -1.00, 441.3, 345.7)">t</text><text xml:space="preserve" font-family="Helvetica-Light,Helvetica" font-size="38.0" fill="#FEFFFF" transform="matrix(1.00, 0.00, -0.00, -1.00, 451.9, 345.7)"> </text><text xml:space="preserve" font-family="Helvetica-Light,Helvetica" font-size="38.0" fill="#FEFFFF" transform="matrix(1.00, 0.00, -0.00, -1.00, 462.4, 345.7)">h</text><text xml:space="preserve" font-family="Helvetica-Light,Helvetica" font-size="38.0" fill="#FEFFFF" transform="matrix(1.00, 0.00, -0.00, -1.00, 483.6, 345.7)">i</text><text xml:space="preserve" font-family="Helvetica-Light,Helvetica" font-size="38.0" fill="#FEFFFF" transform="matrix(1.00, 0.00, -0.00, -1.00, 492.0, 345.7)">g</text><text xml:space="preserve" font-family="Helvetica-Light,Helvetica" font-size="38.0" fill="#FEFFFF" transform="matrix(1.00, 0.00, -0.00, -1.00, 515.2, 345.7)">h</text><text xml:space="preserve" font-family="Helvetica-Light,Helvetica" font-size="38.0" fill="#FEFFFF" transform="matrix(1.00, 0.00, -0.00, -1.00, 536.3, 345.7)">l</text><text xml:space="preserve" font-family="Helvetica-Light,Helvetica" font-size="38.0" fill="#FEFFFF" transform="matrix(1.00, 0.00, -0.00, -1.00, 544.8, 345.7)">y</text><text xml:space="preserve" font-family="Helvetica-Light,Helvetica" font-size="38.0" fill="#FEFFFF" transform="matrix(1.00, 0.00, -0.00, -1.00, 563.8, 345.7)"> </text><text xml:space="preserve" font-family="Helvetica-Light,Helvetica" font-size="38.0" fill="#FEFFFF" transform="matrix(1.00, 0.00, -0.00, -1.00, 574.3, 345.7)">c</text><text xml:space="preserve" font-family="Helvetica-Light,Helvetica" font-size="38.0" fill="#FEFFFF" transform="matrix(1.00, 0.00, -0.00, -1.00, 595.5, 345.7)">o</text><text xml:space="preserve" font-family="Helvetica-Light,Helvetica" font-size="38.0" fill="#FEFFFF" transform="matrix(1.00, 0.00, -0.00, -1.00, 616.6, 345.7)">m</text><text xml:space="preserve" font-family="Helvetica-Light,Helvetica" font-size="38.0" fill="#FEFFFF" transform="matrix(1.00, 0.00, -0.00, -1.00, 648.2, 345.7)">p</text><text xml:space="preserve" font-family="Helvetica-Light,Helvetica" font-size="38.0" fill="#FEFFFF" transform="matrix(1.00, 0.00, -0.00, -1.00, 671.5, 345.7)">u</text><text xml:space="preserve" font-family="Helvetica-Light,Helvetica" font-size="38.0" fill="#FEFFFF" transform="matrix(1.00, 0.00, -0.00, -1.00, 692.6, 345.7)">t</text><text xml:space="preserve" font-family="Helvetica-Light,Helvetica" font-size="38.0" fill="#FEFFFF" transform="matrix(1.00, 0.00, -0.00, -1.00, 703.2, 345.7)">a</text><text xml:space="preserve" font-family="Helvetica-Light,Helvetica" font-size="38.0" fill="#FEFFFF" transform="matrix(1.00, 0.00, -0.00, -1.00, 724.3, 345.7)">t</text><text xml:space="preserve" font-family="Helvetica-Light,Helvetica" font-size="38.0" fill="#FEFFFF" transform="matrix(1.00, 0.00, -0.00, -1.00, 734.8, 345.7)">i</text><text xml:space="preserve" font-family="Helvetica-Light,Helvetica" font-size="38.0" fill="#FEFFFF" transform="matrix(1.00, 0.00, -0.00, -1.00, 743.3, 345.7)">o</text><text xml:space="preserve" font-family="Helvetica-Light,Helvetica" font-size="38.0" fill="#FEFFFF" transform="matrix(1.00, 0.00, -0.00, -1.00, 764.4, 345.7)">n</text><text xml:space="preserve" font-family="Helvetica-Light,Helvetica" font-size="38.0" fill="#FEFFFF" transform="matrix(1.00, 0.00, -0.00, -1.00, 785.5, 345.7)">a</text><text xml:space="preserve" font-family="Helvetica-Light,Helvetica" font-size="38.0" fill="#FEFFFF" transform="matrix(1.00, 0.00, -0.00, -1.00, 806.7, 345.7)">l</text><text xml:space="preserve" font-family="Helvetica-Light,Helvetica" font-size="38.0" fill="#FEFFFF" transform="matrix(1.00, 0.00, -0.00, -1.00, 815.1, 345.7)"> </text><text xml:space="preserve" font-family="Helvetica-Light,Helvetica" font-size="38.0" fill="#FEFFFF" transform="matrix(1.00, 0.00, -0.00, -1.00, 825.7, 345.7)">c</text><text xml:space="preserve" font-family="Helvetica-Light,Helvetica" font-size="38.0" fill="#FEFFFF" transform="matrix(1.00, 0.00, -0.00, -1.00, 846.8, 345.7)">o</text><text xml:space="preserve" font-family="Helvetica-Light,Helvetica" font-size="38.0" fill="#FEFFFF" transform="matrix(1.00, 0.00, -0.00, -1.00, 867.9, 345.7)">d</text><text xml:space="preserve" font-family="Helvetica-Light,Helvetica" font-size="38.0" fill="#FEFFFF" transform="matrix(1.00, 0.00, -0.00, -1.00, 891.1, 345.7)">e</text><text xml:space="preserve" font-family="Helvetica-Light,Helvetica" font-size="38.0" fill="#FEFFFF" transform="matrix(1.00, 0.00, -0.00, -1.00, 912.3, 345.7)">!</text><text xml:space="preserve" font-family="Helvetica-Light,Helvetica" font-size="38.0" fill="#FEFFFF" transform="matrix(1.00, 0.00, -0.00, -1.00, 924.9, 345.7)"> </text><text xml:space="preserve" font-family="Helvetica-Light,Helvetica" font-size="28.5" fill="#FEFFFF" transform="matrix(1.00, 0.00, -0.00, -1.00, 79.0, 261.1)">•</text><text xml:space="preserve" font-family="Helvetica-Light,Helvetica" font-size="38.0" fill="#FEFFFF" transform="matrix(1.00, 0.00, -0.00, -1.00, 114.0, 257.7)">D</text><text xml:space="preserve" font-family="Helvetica-Light,Helvetica" font-size="38.0" fill="#FEFFFF" transform="matrix(1.00, 0.00, -0.00, -1.00, 141.4, 257.7)">o</text><text xml:space="preserve" font-family="Helvetica-Light,Helvetica" font-size="38.0" fill="#FEFFFF" transform="matrix(1.00, 0.00, -0.00, -1.00, 162.6, 257.7)">n</text><text xml:space="preserve" font-family="Helvetica-Light,Helvetica" font-size="38.0" fill="#FEFFFF" transform="matrix(1.00, 0.00, -0.00, -1.00, 183.7, 257.7)">’</text><text xml:space="preserve" font-family="Helvetica-Light,Helvetica" font-size="38.0" fill="#FEFFFF" transform="matrix(1.00, 0.00, -0.00, -1.00, 191.4, 257.7)">t</text><text xml:space="preserve" font-family="Helvetica-Light,Helvetica" font-size="38.0" fill="#FEFFFF" transform="matrix(1.00, 0.00, -0.00, -1.00, 202.0, 257.7)"> </text><text xml:space="preserve" font-family="Helvetica-Light,Helvetica" font-size="38.0" fill="#FEFFFF" transform="matrix(1.00, 0.00, -0.00, -1.00, 212.6, 257.7)">b</text><text xml:space="preserve" font-family="Helvetica-Light,Helvetica" font-size="38.0" fill="#FEFFFF" transform="matrix(1.00, 0.00, -0.00, -1.00, 235.8, 257.7)">l</text><text xml:space="preserve" font-family="Helvetica-Light,Helvetica" font-size="38.0" fill="#FEFFFF" transform="matrix(1.00, 0.00, -0.00, -1.00, 244.2, 257.7)">o</text><text xml:space="preserve" font-family="Helvetica-Light,Helvetica" font-size="38.0" fill="#FEFFFF" transform="matrix(1.00, 0.00, -0.00, -1.00, 265.4, 257.7)">c</text><text xml:space="preserve" font-family="Helvetica-Light,Helvetica" font-size="38.0" fill="#FEFFFF" transform="matrix(1.00, 0.00, -0.00, -1.00, 286.5, 257.7)">k</text><text xml:space="preserve" font-family="Helvetica-Light,Helvetica" font-size="38.0" fill="#FEFFFF" transform="matrix(1.00, 0.00, -0.00, -1.00, 305.5, 257.7)"> </text><text xml:space="preserve" font-family="Helvetica-Light,Helvetica" font-size="38.0" fill="#FEFFFF" transform="matrix(1.00, 0.00, -0.00, -1.00, 316.0, 257.7)">t</text><text xml:space="preserve" font-family="Helvetica-Light,Helvetica" font-size="38.0" fill="#FEFFFF" transform="matrix(1.00, 0.00, -0.00, -1.00, 326.6, 257.7)">h</text><text xml:space="preserve" font-family="Helvetica-Light,Helvetica" font-size="38.0" fill="#FEFFFF" transform="matrix(1.00, 0.00, -0.00, -1.00, 347.7, 257.7)">e</text><text xml:space="preserve" font-family="Helvetica-Light,Helvetica" font-size="38.0" fill="#FEFFFF" transform="matrix(1.00, 0.00, -0.00, -1.00, 368.9, 257.7)"> </text><text xml:space="preserve" font-family="Helvetica-Light,Helvetica" font-size="38.0" fill="#FEFFFF" transform="matrix(1.00, 0.00, -0.00, -1.00, 379.4, 257.7)">e</text><text xml:space="preserve" font-family="Helvetica-Light,Helvetica" font-size="38.0" fill="#FEFFFF" transform="matrix(1.00, 0.00, -0.00, -1.00, 400.6, 257.7)">v</text><text xml:space="preserve" font-family="Helvetica-Light,Helvetica" font-size="38.0" fill="#FEFFFF" transform="matrix(1.00, 0.00, -0.00, -1.00, 419.6, 257.7)">e</text><text xml:space="preserve" font-family="Helvetica-Light,Helvetica" font-size="38.0" fill="#FEFFFF" transform="matrix(1.00, 0.00, -0.00, -1.00, 440.7, 257.7)">n</text><text xml:space="preserve" font-family="Helvetica-Light,Helvetica" font-size="38.0" fill="#FEFFFF" transform="matrix(1.00, 0.00, -0.00, -1.00, 461.8, 257.7)">t</text><text xml:space="preserve" font-family="Helvetica-Light,Helvetica" font-size="38.0" fill="#FEFFFF" transform="matrix(1.00, 0.00, -0.00, -1.00, 472.4, 257.7)"> </text><text xml:space="preserve" font-family="Helvetica-Light,Helvetica" font-size="38.0" fill="#FEFFFF" transform="matrix(1.00, 0.00, -0.00, -1.00, 482.9, 257.7)">l</text><text xml:space="preserve" font-family="Helvetica-Light,Helvetica" font-size="38.0" fill="#FEFFFF" transform="matrix(1.00, 0.00, -0.00, -1.00, 491.4, 257.7)">o</text><text xml:space="preserve" font-family="Helvetica-Light,Helvetica" font-size="38.0" fill="#FEFFFF" transform="matrix(1.00, 0.00, -0.00, -1.00, 512.5, 257.7)">o</text><text xml:space="preserve" font-family="Helvetica-Light,Helvetica" font-size="38.0" fill="#FEFFFF" transform="matrix(1.00, 0.00, -0.00, -1.00, 533.6, 257.7)">p</text><text xml:space="preserve" font-family="Helvetica-Light,Helvetica" font-size="38.0" fill="#FEFFFF" transform="matrix(1.00, 0.00, -0.00, -1.00, 556.9, 257.7)">!</text></g></svg>