<?xml version="1.0" encoding="UTF-8" standalone="no"?><svg xmlns="http://www.w3.org/2000/svg" xmlns:xlink="http://www.w3.org/1999/xlink" clip-rule="evenodd" stroke-miterlimit="10" viewBox="0 0 1024 768"><desc>SVG generated by Keynote</desc><defs></defs><g transform="matrix(1.00, 0.00, -0.00, -1.00, 0.0, 768.0)"><path d="M 0.0 768.0 L 1024.0 768.0 L 1024.0 0.0 L 0.0 0.0 Z M 0.0 768.0 " fill="#000000"></path><text xml:space="preserve" font-family="Helvetica-Light,Helvetica" font-size="80.0" fill="#FEFFFF" transform="matrix(1.00, 0.00, -0.00, -1.00, 88.2, 633.4)">Y</text><text xml:space="preserve" font-family="Helvetica-Light,Helvetica" font-size="80.0" fill="#FEFFFF" transform="matrix(1.00, 0.00, -0.00, -1.00, 135.5, 633.4)">i</text><text xml:space="preserve" font-family="Helvetica-Light,Helvetica" font-size="80.0" fill="#FEFFFF" transform="matrix(1.00, 0.00, -0.00, -1.00, 153.2, 633.4)">e</text><text xml:space="preserve" font-family="Helvetica-Light,Helvetica" font-size="80.0" fill="#FEFFFF" transform="matrix(1.00, 0.00, -0.00, -1.00, 197.7, 633.4)">l</text><text xml:space="preserve" font-family="Helvetica-Light,Helvetica" font-size="80.0" fill="#FEFFFF" transform="matrix(1.00, 0.00, -0.00, -1.00, 215.5, 633.4)">d</text><text xml:space="preserve" font-family="Helvetica-Light,Helvetica" font-size="80.0" fill="#FEFFFF" transform="matrix(1.00, 0.00, -0.00, -1.00, 264.4, 633.4)">i</text><text xml:space="preserve" font-family="Helvetica-Light,Helvetica" font-size="80.0" fill="#FEFFFF" transform="matrix(1.00, 0.00, -0.00, -1.00, 282.1, 633.4)">n</text><text xml:space="preserve" font-family="Helvetica-Light,Helvetica" font-size="80.0" fill="#FEFFFF" transform="matrix(1.00, 0.00, -0.00, -1.00, 326.6, 633.4)">g</text><text xml:space="preserve" font-family="Helvetica-Light,Helvetica" font-size="80.0" fill="#FEFFFF" transform="matrix(1.00, 0.00, -0.00, -1.00, 375.5, 633.4)"> </text><text xml:space="preserve" font-family="Helvetica-Light,Helvetica" font-size="80.0" fill="#FEFFFF" transform="matrix(1.00, 0.00, -0.00, -1.00, 397.7, 633.4)">t</text><text xml:space="preserve" font-family="Helvetica-Light,Helvetica" font-size="80.0" fill="#FEFFFF" transform="matrix(1.00, 0.00, -0.00, -1.00, 420.0, 633.4)">h</text><text xml:space="preserve" font-family="Helvetica-Light,Helvetica" font-size="80.0" fill="#FEFFFF" transform="matrix(1.00, 0.00, -0.00, -1.00, 464.4, 633.4)">e</text><text xml:space="preserve" font-family="Helvetica-Light,Helvetica" font-size="80.0" fill="#FEFFFF" transform="matrix(1.00, 0.00, -0.00, -1.00, 508.9, 633.4)"> </text><text xml:space="preserve" font-family="Helvetica-Light,Helvetica" font-size="80.0" fill="#FEFFFF" transform="matrix(1.00, 0.00, -0.00, -1.00, 531.2, 633.4)">E</text><text xml:space="preserve" font-family="Helvetica-Light,Helvetica" font-size="80.0" fill="#FEFFFF" transform="matrix(1.00, 0.00, -0.00, -1.00, 580.0, 633.4)">v</text><text xml:space="preserve" font-family="Helvetica-Light,Helvetica" font-size="80.0" fill="#FEFFFF" transform="matrix(1.00, 0.00, -0.00, -1.00, 620.0, 633.4)">e</text><text xml:space="preserve" font-family="Helvetica-Light,Helvetica" font-size="80.0" fill="#FEFFFF" transform="matrix(1.00, 0.00, -0.00, -1.00, 664.5, 633.4)">n</text><text xml:space="preserve" font-family="Helvetica-Light,Helvetica" font-size="80.0" fill="#FEFFFF" transform="matrix(1.00, 0.00, -0.00, -1.00, 709.0, 633.4)">t</text><text xml:space="preserve" font-family="Helvetica-Light,Helvetica" font-size="80.0" fill="#FEFFFF" transform="matrix(1.00, 0.00, -0.00, -1.00, 731.2, 633.4)"> </text><text xml:space="preserve" font-family="Helvetica-Light,Helvetica" font-size="80.0" fill="#FEFFFF" transform="matrix(1.00, 0.00, -0.00, -1.00, 753.5, 633.4)">L</text><text xml:space="preserve" font-family="Helvetica-Light,Helvetica" font-size="80.0" fill="#FEFFFF" transform="matrix(1.00, 0.00, -0.00, -1.00, 798.0, 633.4)">o</text><text xml:space="preserve" font-family="Helvetica-Light,Helvetica" font-size="80.0" fill="#FEFFFF" transform="matrix(1.00, 0.00, -0.00, -1.00, 842.4, 633.4)">o</text><text xml:space="preserve" font-family="Helvetica-Light,Helvetica" font-size="80.0" fill="#FEFFFF" transform="matrix(1.00, 0.00, -0.00, -1.00, 886.9, 633.4)">p</text><text xml:space="preserve" font-family="Helvetica-Light,Helvetica" font-size="36.9" fill="#FEFFFF" transform="matrix(1.00, 0.00, -0.00, -1.00, 79.0, 511.5)">I</text><text xml:space="preserve" font-family="Helvetica-Light,Helvetica" font-size="36.9" fill="#FEFFFF" transform="matrix(1.00, 0.00, -0.00, -1.00, 89.2, 511.5)">f</text><text xml:space="preserve" font-family="Helvetica-Light,Helvetica" font-size="36.9" fill="#FEFFFF" transform="matrix(1.00, 0.00, -0.00, -1.00, 99.5, 511.5)"> </text><text xml:space="preserve" font-family="Helvetica-Light,Helvetica" font-size="36.9" fill="#FEFFFF" transform="matrix(1.00, 0.00, -0.00, -1.00, 109.7, 511.5)">y</text><text xml:space="preserve" font-family="Helvetica-Light,Helvetica" font-size="36.9" fill="#FEFFFF" transform="matrix(1.00, 0.00, -0.00, -1.00, 128.2, 511.5)">o</text><text xml:space="preserve" font-family="Helvetica-Light,Helvetica" font-size="36.9" fill="#FEFFFF" transform="matrix(1.00, 0.00, -0.00, -1.00, 148.7, 511.5)">u</text><text xml:space="preserve" font-family="Helvetica-Light,Helvetica" font-size="36.9" fill="#FEFFFF" transform="matrix(1.00, 0.00, -0.00, -1.00, 169.2, 511.5)"> </text><text xml:space="preserve" font-family="Helvetica-Light,Helvetica" font-size="36.9" fill="#FEFFFF" transform="matrix(1.00, 0.00, -0.00, -1.00, 179.4, 511.5)">h</text><text xml:space="preserve" font-family="Helvetica-Light,Helvetica" font-size="36.9" fill="#FEFFFF" transform="matrix(1.00, 0.00, -0.00, -1.00, 199.9, 511.5)">a</text><text xml:space="preserve" font-family="Helvetica-Light,Helvetica" font-size="36.9" fill="#FEFFFF" transform="matrix(1.00, 0.00, -0.00, -1.00, 220.4, 511.5)">v</text><text xml:space="preserve" font-family="Helvetica-Light,Helvetica" font-size="36.9" fill="#FEFFFF" transform="matrix(1.00, 0.00, -0.00, -1.00, 238.8, 511.5)">e</text><text xml:space="preserve" font-family="Helvetica-Light,Helvetica" font-size="36.9" fill="#FEFFFF" transform="matrix(1.00, 0.00, -0.00, -1.00, 259.3, 511.5)"> </text><text xml:space="preserve" font-family="Helvetica-Light,Helvetica" font-size="36.9" fill="#FEFFFF" transform="matrix(1.00, 0.00, -0.00, -1.00, 269.6, 511.5)">h</text><text xml:space="preserve" font-family="Helvetica-Light,Helvetica" font-size="36.9" fill="#FEFFFF" transform="matrix(1.00, 0.00, -0.00, -1.00, 290.1, 511.5)">i</text><text xml:space="preserve" font-family="Helvetica-Light,Helvetica" font-size="36.9" fill="#FEFFFF" transform="matrix(1.00, 0.00, -0.00, -1.00, 298.2, 511.5)">g</text><text xml:space="preserve" font-family="Helvetica-Light,Helvetica" font-size="36.9" fill="#FEFFFF" transform="matrix(1.00, 0.00, -0.00, -1.00, 320.8, 511.5)">h</text><text xml:space="preserve" font-family="Helvetica-Light,Helvetica" font-size="36.9" fill="#FEFFFF" transform="matrix(1.00, 0.00, -0.00, -1.00, 341.3, 511.5)">l</text><text xml:space="preserve" font-family="Helvetica-Light,Helvetica" font-size="36.9" fill="#FEFFFF" transform="matrix(1.00, 0.00, -0.00, -1.00, 349.4, 511.5)">y</text><text xml:space="preserve" font-family="Helvetica-Light,Helvetica" font-size="36.9" fill="#FEFFFF" transform="matrix(1.00, 0.00, -0.00, -1.00, 367.9, 511.5)"> </text><text xml:space="preserve" font-family="Helvetica-Light,Helvetica" font-size="36.9" fill="#FEFFFF" transform="matrix(1.00, 0.00, -0.00, -1.00, 378.1, 511.5)">c</text><text xml:space="preserve" font-family="Helvetica-Light,Helvetica" font-size="36.9" fill="#FEFFFF" transform="matrix(1.00, 0.00, -0.00, -1.00, 398.6, 511.5)">o</text><text xml:space="preserve" font-family="Helvetica-Light,Helvetica" font-size="36.9" fill="#FEFFFF" transform="matrix(1.00, 0.00, -0.00, -1.00, 419.1, 511.5)">m</text><text xml:space="preserve" font-family="Helvetica-Light,Helvetica" font-size="36.9" fill="#FEFFFF" transform="matrix(1.00, 0.00, -0.00, -1.00, 449.8, 511.5)">p</text><text xml:space="preserve" font-family="Helvetica-Light,Helvetica" font-size="36.9" fill="#FEFFFF" transform="matrix(1.00, 0.00, -0.00, -1.00, 472.3, 511.5)">u</text><text xml:space="preserve" font-family="Helvetica-Light,Helvetica" font-size="36.9" fill="#FEFFFF" transform="matrix(1.00, 0.00, -0.00, -1.00, 492.8, 511.5)">t</text><text xml:space="preserve" font-family="Helvetica-Light,Helvetica" font-size="36.9" fill="#FEFFFF" transform="matrix(1.00, 0.00, -0.00, -1.00, 503.1, 511.5)">a</text><text xml:space="preserve" font-family="Helvetica-Light,Helvetica" font-size="36.9" fill="#FEFFFF" transform="matrix(1.00, 0.00, -0.00, -1.00, 523.6, 511.5)">t</text><text xml:space="preserve" font-family="Helvetica-Light,Helvetica" font-size="36.9" fill="#FEFFFF" transform="matrix(1.00, 0.00, -0.00, -1.00, 533.8, 511.5)">i</text><text xml:space="preserve" font-family="Helvetica-Light,Helvetica" font-size="36.9" fill="#FEFFFF" transform="matrix(1.00, 0.00, -0.00, -1.00, 542.0, 511.5)">o</text><text xml:space="preserve" font-family="Helvetica-Light,Helvetica" font-size="36.9" fill="#FEFFFF" transform="matrix(1.00, 0.00, -0.00, -1.00, 562.5, 511.5)">n</text><text xml:space="preserve" font-family="Helvetica-Light,Helvetica" font-size="36.9" fill="#FEFFFF" transform="matrix(1.00, 0.00, -0.00, -1.00, 583.0, 511.5)">a</text><text xml:space="preserve" font-family="Helvetica-Light,Helvetica" font-size="36.9" fill="#FEFFFF" transform="matrix(1.00, 0.00, -0.00, -1.00, 603.5, 511.5)">l</text><text xml:space="preserve" font-family="Helvetica-Light,Helvetica" font-size="36.9" fill="#FEFFFF" transform="matrix(1.00, 0.00, -0.00, -1.00, 611.7, 511.5)"> </text><text xml:space="preserve" font-family="Helvetica-Light,Helvetica" font-size="36.9" fill="#FEFFFF" transform="matrix(1.00, 0.00, -0.00, -1.00, 621.9, 511.5)">s</text><text xml:space="preserve" font-family="Helvetica-Light,Helvetica" font-size="36.9" fill="#FEFFFF" transform="matrix(1.00, 0.00, -0.00, -1.00, 640.3, 511.5)">y</text><text xml:space="preserve" font-family="Helvetica-Light,Helvetica" font-size="36.9" fill="#FEFFFF" transform="matrix(1.00, 0.00, -0.00, -1.00, 658.8, 511.5)">n</text><text xml:space="preserve" font-family="Helvetica-Light,Helvetica" font-size="36.9" fill="#FEFFFF" transform="matrix(1.00, 0.00, -0.00, -1.00, 679.3, 511.5)">c</text><text xml:space="preserve" font-family="Helvetica-Light,Helvetica" font-size="36.9" fill="#FEFFFF" transform="matrix(1.00, 0.00, -0.00, -1.00, 699.8, 511.5)">h</text><text xml:space="preserve" font-family="Helvetica-Light,Helvetica" font-size="36.9" fill="#FEFFFF" transform="matrix(1.00, 0.00, -0.00, -1.00, 720.3, 511.5)">r</text><text xml:space="preserve" font-family="Helvetica-Light,Helvetica" font-size="36.9" fill="#FEFFFF" transform="matrix(1.00, 0.00, -0.00, -1.00, 731.9, 511.5)">o</text><text xml:space="preserve" font-family="Helvetica-Light,Helvetica" font-size="36.9" fill="#FEFFFF" transform="matrix(1.00, 0.00, -0.00, -1.00, 752.4, 511.5)">n</text><text xml:space="preserve" font-family="Helvetica-Light,Helvetica" font-size="36.9" fill="#FEFFFF" transform="matrix(1.00, 0.00, -0.00, -1.00, 772.9, 511.5)">o</text><text xml:space="preserve" font-family="Helvetica-Light,Helvetica" font-size="36.9" fill="#FEFFFF" transform="matrix(1.00, 0.00, -0.00, -1.00, 793.3, 511.5)">u</text><text xml:space="preserve" font-family="Helvetica-Light,Helvetica" font-size="36.9" fill="#FEFFFF" transform="matrix(1.00, 0.00, -0.00, -1.00, 813.8, 511.5)">s</text><text xml:space="preserve" font-family="Helvetica-Light,Helvetica" font-size="36.9" fill="#FEFFFF" transform="matrix(1.00, 0.00, -0.00, -1.00, 832.3, 511.5)"> </text><text xml:space="preserve" font-family="Helvetica-Light,Helvetica" font-size="36.9" fill="#FEFFFF" transform="matrix(1.00, 0.00, -0.00, -1.00, 842.5, 511.5)">c</text><text xml:space="preserve" font-family="Helvetica-Light,Helvetica" font-size="36.9" fill="#FEFFFF" transform="matrix(1.00, 0.00, -0.00, -1.00, 863.0, 511.5)">o</text><text xml:space="preserve" font-family="Helvetica-Light,Helvetica" font-size="36.9" fill="#FEFFFF" transform="matrix(1.00, 0.00, -0.00, -1.00, 883.5, 511.5)">d</text><text xml:space="preserve" font-family="Helvetica-Light,Helvetica" font-size="36.9" fill="#FEFFFF" transform="matrix(1.00, 0.00, -0.00, -1.00, 906.0, 511.5)">e</text><text xml:space="preserve" font-family="Helvetica-Light,Helvetica" font-size="36.9" fill="#FEFFFF" transform="matrix(1.00, 0.00, -0.00, -1.00, 926.5, 511.5)">,</text><text xml:space="preserve" font-family="Helvetica-Light,Helvetica" font-size="36.9" fill="#FEFFFF" transform="matrix(1.00, 0.00, -0.00, -1.00, 936.8, 511.5)"> </text><text xml:space="preserve" font-family="Helvetica-Light,Helvetica" font-size="36.9" fill="#FEFFFF" transform="matrix(1.00, 0.00, -0.00, -1.00, 79.0, 468.5)">b</text><text xml:space="preserve" font-family="Helvetica-Light,Helvetica" font-size="36.9" fill="#FEFFFF" transform="matrix(1.00, 0.00, -0.00, -1.00, 101.5, 468.5)">r</text><text xml:space="preserve" font-family="Helvetica-Light,Helvetica" font-size="36.9" fill="#FEFFFF" transform="matrix(1.00, 0.00, -0.00, -1.00, 113.1, 468.5)">e</text><text xml:space="preserve" font-family="Helvetica-Light,Helvetica" font-size="36.9" fill="#FEFFFF" transform="matrix(1.00, 0.00, -0.00, -1.00, 133.6, 468.5)">a</text><text xml:space="preserve" font-family="Helvetica-Light,Helvetica" font-size="36.9" fill="#FEFFFF" transform="matrix(1.00, 0.00, -0.00, -1.00, 154.1, 468.5)">k</text><text xml:space="preserve" font-family="Helvetica-Light,Helvetica" font-size="36.9" fill="#FEFFFF" transform="matrix(1.00, 0.00, -0.00, -1.00, 172.6, 468.5)"> </text><text xml:space="preserve" font-family="Helvetica-Light,Helvetica" font-size="36.9" fill="#FEFFFF" transform="matrix(1.00, 0.00, -0.00, -1.00, 182.8, 468.5)">i</text><text xml:space="preserve" font-family="Helvetica-Light,Helvetica" font-size="36.9" fill="#FEFFFF" transform="matrix(1.00, 0.00, -0.00, -1.00, 191.0, 468.5)">t</text><text xml:space="preserve" font-family="Helvetica-Light,Helvetica" font-size="36.9" fill="#FEFFFF" transform="matrix(1.00, 0.00, -0.00, -1.00, 201.2, 468.5)"> </text><text xml:space="preserve" font-family="Helvetica-Light,Helvetica" font-size="36.9" fill="#FEFFFF" transform="matrix(1.00, 0.00, -0.00, -1.00, 211.5, 468.5)">u</text><text xml:space="preserve" font-family="Helvetica-Light,Helvetica" font-size="36.9" fill="#FEFFFF" transform="matrix(1.00, 0.00, -0.00, -1.00, 232.0, 468.5)">p</text><text xml:space="preserve" font-family="Helvetica-Light,Helvetica" font-size="36.9" fill="#FEFFFF" transform="matrix(1.00, 0.00, -0.00, -1.00, 254.5, 468.5)"> </text><text xml:space="preserve" font-family="Helvetica-Light,Helvetica" font-size="36.9" fill="#FEFFFF" transform="matrix(1.00, 0.00, -0.00, -1.00, 264.7, 468.5)">i</text><text xml:space="preserve" font-family="Helvetica-Light,Helvetica" font-size="36.9" fill="#FEFFFF" transform="matrix(1.00, 0.00, -0.00, -1.00, 272.9, 468.5)">n</text><text xml:space="preserve" font-family="Helvetica-Light,Helvetica" font-size="36.9" fill="#FEFFFF" transform="matrix(1.00, 0.00, -0.00, -1.00, 293.4, 468.5)">t</text><text xml:space="preserve" font-family="Helvetica-Light,Helvetica" font-size="36.9" fill="#FEFFFF" transform="matrix(1.00, 0.00, -0.00, -1.00, 303.7, 468.5)">o</text><text xml:space="preserve" font-family="Helvetica-Light,Helvetica" font-size="36.9" fill="#FEFFFF" transform="matrix(1.00, 0.00, -0.00, -1.00, 324.2, 468.5)"> </text><text xml:space="preserve" font-family="Helvetica-Light,Helvetica" font-size="36.9" fill="#FEFFFF" transform="matrix(1.00, 0.00, -0.00, -1.00, 334.4, 468.5)">m</text><text xml:space="preserve" font-family="Helvetica-Light,Helvetica" font-size="36.9" fill="#FEFFFF" transform="matrix(1.00, 0.00, -0.00, -1.00, 365.1, 468.5)">u</text><text xml:space="preserve" font-family="Helvetica-Light,Helvetica" font-size="36.9" fill="#FEFFFF" transform="matrix(1.00, 0.00, -0.00, -1.00, 385.6, 468.5)">l</text><text xml:space="preserve" font-family="Helvetica-Light,Helvetica" font-size="36.9" fill="#FEFFFF" transform="matrix(1.00, 0.00, -0.00, -1.00, 393.8, 468.5)">t</text><text xml:space="preserve" font-family="Helvetica-Light,Helvetica" font-size="36.9" fill="#FEFFFF" transform="matrix(1.00, 0.00, -0.00, -1.00, 404.0, 468.5)">i</text><text xml:space="preserve" font-family="Helvetica-Light,Helvetica" font-size="36.9" fill="#FEFFFF" transform="matrix(1.00, 0.00, -0.00, -1.00, 412.2, 468.5)">p</text><text xml:space="preserve" font-family="Helvetica-Light,Helvetica" font-size="36.9" fill="#FEFFFF" transform="matrix(1.00, 0.00, -0.00, -1.00, 434.7, 468.5)">l</text><text xml:space="preserve" font-family="Helvetica-Light,Helvetica" font-size="36.9" fill="#FEFFFF" transform="matrix(1.00, 0.00, -0.00, -1.00, 442.9, 468.5)">e</text><text xml:space="preserve" font-family="Helvetica-Light,Helvetica" font-size="36.9" fill="#FEFFFF" transform="matrix(1.00, 0.00, -0.00, -1.00, 463.4, 468.5)"> </text><text xml:space="preserve" font-family="Helvetica-Light,Helvetica" font-size="36.9" fill="#FEFFFF" transform="matrix(1.00, 0.00, -0.00, -1.00, 473.7, 468.5)">p</text><text xml:space="preserve" font-family="Helvetica-Light,Helvetica" font-size="36.9" fill="#FEFFFF" transform="matrix(1.00, 0.00, -0.00, -1.00, 496.2, 468.5)">h</text><text xml:space="preserve" font-family="Helvetica-Light,Helvetica" font-size="36.9" fill="#FEFFFF" transform="matrix(1.00, 0.00, -0.00, -1.00, 516.7, 468.5)">a</text><text xml:space="preserve" font-family="Helvetica-Light,Helvetica" font-size="36.9" fill="#FEFFFF" transform="matrix(1.00, 0.00, -0.00, -1.00, 537.2, 468.5)">s</text><text xml:space="preserve" font-family="Helvetica-Light,Helvetica" font-size="36.9" fill="#FEFFFF" transform="matrix(1.00, 0.00, -0.00, -1.00, 555.6, 468.5)">e</text><text xml:space="preserve" font-family="Helvetica-Light,Helvetica" font-size="36.9" fill="#FEFFFF" transform="matrix(1.00, 0.00, -0.00, -1.00, 576.1, 468.5)">s</text><text xml:space="preserve" font-family="Helvetica-Light,Helvetica" font-size="36.9" fill="#FEFFFF" transform="matrix(1.00, 0.00, -0.00, -1.00, 594.5, 468.5)"> </text><text xml:space="preserve" font-family="Helvetica-Light,Helvetica" font-size="36.9" fill="#FEFFFF" transform="matrix(1.00, 0.00, -0.00, -1.00, 604.8, 468.5)">i</text><text xml:space="preserve" font-family="Helvetica-Light,Helvetica" font-size="36.9" fill="#FEFFFF" transform="matrix(1.00, 0.00, -0.00, -1.00, 613.0, 468.5)">n</text><text xml:space="preserve" font-family="Helvetica-Light,Helvetica" font-size="36.9" fill="#FEFFFF" transform="matrix(1.00, 0.00, -0.00, -1.00, 633.4, 468.5)"> </text><text xml:space="preserve" font-family="Helvetica-Light,Helvetica" font-size="36.9" fill="#FEFFFF" transform="matrix(1.00, 0.00, -0.00, -1.00, 643.7, 468.5)">t</text><text xml:space="preserve" font-family="Helvetica-Light,Helvetica" font-size="36.9" fill="#FEFFFF" transform="matrix(1.00, 0.00, -0.00, -1.00, 653.9, 468.5)">h</text><text xml:space="preserve" font-family="Helvetica-Light,Helvetica" font-size="36.9" fill="#FEFFFF" transform="matrix(1.00, 0.00, -0.00, -1.00, 674.4, 468.5)">e</text><text xml:space="preserve" font-family="Helvetica-Light,Helvetica" font-size="36.9" fill="#FEFFFF" transform="matrix(1.00, 0.00, -0.00, -1.00, 694.9, 468.5)"> </text><text xml:space="preserve" font-family="Helvetica-Light,Helvetica" font-size="36.9" fill="#FEFFFF" transform="matrix(1.00, 0.00, -0.00, -1.00, 705.2, 468.5)">e</text><text xml:space="preserve" font-family="Helvetica-Light,Helvetica" font-size="36.9" fill="#FEFFFF" transform="matrix(1.00, 0.00, -0.00, -1.00, 725.7, 468.5)">v</text><text xml:space="preserve" font-family="Helvetica-Light,Helvetica" font-size="36.9" fill="#FEFFFF" transform="matrix(1.00, 0.00, -0.00, -1.00, 744.1, 468.5)">e</text><text xml:space="preserve" font-family="Helvetica-Light,Helvetica" font-size="36.9" fill="#FEFFFF" transform="matrix(1.00, 0.00, -0.00, -1.00, 764.6, 468.5)">n</text><text xml:space="preserve" font-family="Helvetica-Light,Helvetica" font-size="36.9" fill="#FEFFFF" transform="matrix(1.00, 0.00, -0.00, -1.00, 785.1, 468.5)">t</text><text xml:space="preserve" font-family="Helvetica-Light,Helvetica" font-size="36.9" fill="#FEFFFF" transform="matrix(1.00, 0.00, -0.00, -1.00, 795.3, 468.5)"> </text><text xml:space="preserve" font-family="Helvetica-Light,Helvetica" font-size="36.9" fill="#FEFFFF" transform="matrix(1.00, 0.00, -0.00, -1.00, 805.6, 468.5)">l</text><text xml:space="preserve" font-family="Helvetica-Light,Helvetica" font-size="36.9" fill="#FEFFFF" transform="matrix(1.00, 0.00, -0.00, -1.00, 813.8, 468.5)">o</text><text xml:space="preserve" font-family="Helvetica-Light,Helvetica" font-size="36.9" fill="#FEFFFF" transform="matrix(1.00, 0.00, -0.00, -1.00, 834.3, 468.5)">o</text><text xml:space="preserve" font-family="Helvetica-Light,Helvetica" font-size="36.9" fill="#FEFFFF" transform="matrix(1.00, 0.00, -0.00, -1.00, 854.8, 468.5)">p</text><text xml:space="preserve" font-family="Helvetica-Light,Helvetica" font-size="36.9" fill="#FEFFFF" transform="matrix(1.00, 0.00, -0.00, -1.00, 877.3, 468.5)">.</text><text xml:space="preserve" font-family="Courier,Courier" font-size="18.0" fill="#FEFFFF" transform="matrix(1.00, 0.00, -0.00, -1.00, 85.0, 373.3)">v</text><text xml:space="preserve" font-family="Courier,Courier" font-size="18.0" fill="#FEFFFF" transform="matrix(1.00, 0.00, -0.00, -1.00, 95.8, 373.3)">a</text><text xml:space="preserve" font-family="Courier,Courier" font-size="18.0" fill="#FEFFFF" transform="matrix(1.00, 0.00, -0.00, -1.00, 106.6, 373.3)">r</text><text xml:space="preserve" font-family="Courier,Courier" font-size="18.0" fill="#FEFFFF" transform="matrix(1.00, 0.00, -0.00, -1.00, 117.4, 373.3)"> </text><text xml:space="preserve" font-family="Courier,Courier" font-size="18.0" fill="#FEFFFF" transform="matrix(1.00, 0.00, -0.00, -1.00, 128.2, 373.3)">i</text><text xml:space="preserve" font-family="Courier,Courier" font-size="18.0" fill="#FEFFFF" transform="matrix(1.00, 0.00, -0.00, -1.00, 139.0, 373.3)"> </text><text xml:space="preserve" font-family="Courier,Courier" font-size="18.0" fill="#FEFFFF" transform="matrix(1.00, 0.00, -0.00, -1.00, 149.8, 373.3)">=</text><text xml:space="preserve" font-family="Courier,Courier" font-size="18.0" fill="#FEFFFF" transform="matrix(1.00, 0.00, -0.00, -1.00, 160.6, 373.3)"> </text><text xml:space="preserve" font-family="Courier,Courier" font-size="18.0" fill="#FEFFFF" transform="matrix(1.00, 0.00, -0.00, -1.00, 171.4, 373.3)">0</text><text xml:space="preserve" font-family="Courier,Courier" font-size="18.0" fill="#00F900" transform="matrix(1.00, 0.00, -0.00, -1.00, 85.0, 318.5)">n</text><text xml:space="preserve" font-family="Courier,Courier" font-size="18.0" fill="#00F900" transform="matrix(1.00, 0.00, -0.00, -1.00, 95.8, 318.5)">e</text><text xml:space="preserve" font-family="Courier,Courier" font-size="18.0" fill="#00F900" transform="matrix(1.00, 0.00, -0.00, -1.00, 106.6, 318.5)">x</text><text xml:space="preserve" font-family="Courier,Courier" font-size="18.0" fill="#00F900" transform="matrix(1.00, 0.00, -0.00, -1.00, 117.4, 318.5)">t</text><text xml:space="preserve" font-family="Courier,Courier" font-size="18.0" fill="#00F900" transform="matrix(1.00, 0.00, -0.00, -1.00, 128.2, 318.5)">_</text><text xml:space="preserve" font-family="Courier,Courier" font-size="18.0" fill="#00F900" transform="matrix(1.00, 0.00, -0.00, -1.00, 139.0, 318.5)">1</text><text xml:space="preserve" font-family="Courier,Courier" font-size="18.0" fill="#00F900" transform="matrix(1.00, 0.00, -0.00, -1.00, 149.8, 318.5)">0</text><text xml:space="preserve" font-family="Courier,Courier" font-size="18.0" fill="#00F900" transform="matrix(1.00, 0.00, -0.00, -1.00, 160.6, 318.5)">0</text><text xml:space="preserve" font-family="Courier,Courier" font-size="18.0" fill="#00F900" transform="matrix(1.00, 0.00, -0.00, -1.00, 171.4, 318.5)">0</text><text xml:space="preserve" font-family="Courier,Courier" font-size="18.0" fill="#00F900" transform="matrix(1.00, 0.00, -0.00, -1.00, 182.2, 318.5)">(</text><text xml:space="preserve" font-family="Courier,Courier" font-size="18.0" fill="#00F900" transform="matrix(1.00, 0.00, -0.00, -1.00, 193.0, 318.5)">)</text><text xml:space="preserve" font-family="Courier,Courier" font-size="18.0" fill="#00F900" transform="matrix(1.00, 0.00, -0.00, -1.00, 85.0, 291.1)">f</text><text xml:space="preserve" font-family="Courier,Courier" font-size="18.0" fill="#00F900" transform="matrix(1.00, 0.00, -0.00, -1.00, 95.8, 291.1)">u</text><text xml:space="preserve" font-family="Courier,Courier" font-size="18.0" fill="#00F900" transform="matrix(1.00, 0.00, -0.00, -1.00, 106.6, 291.1)">n</text><text xml:space="preserve" font-family="Courier,Courier" font-size="18.0" fill="#00F900" transform="matrix(1.00, 0.00, -0.00, -1.00, 117.4, 291.1)">c</text><text xml:space="preserve" font-family="Courier,Courier" font-size="18.0" fill="#00F900" transform="matrix(1.00, 0.00, -0.00, -1.00, 128.2, 291.1)">t</text><text xml:space="preserve" font-family="Courier,Courier" font-size="18.0" fill="#00F900" transform="matrix(1.00, 0.00, -0.00, -1.00, 139.0, 291.1)">i</text><text xml:space="preserve" font-family="Courier,Courier" font-size="18.0" fill="#00F900" transform="matrix(1.00, 0.00, -0.00, -1.00, 149.8, 291.1)">o</text><text xml:space="preserve" font-family="Courier,Courier" font-size="18.0" fill="#00F900" transform="matrix(1.00, 0.00, -0.00, -1.00, 160.6, 291.1)">n</text><text xml:space="preserve" font-family="Courier,Courier" font-size="18.0" fill="#00F900" transform="matrix(1.00, 0.00, -0.00, -1.00, 171.4, 291.1)"> </text><text xml:space="preserve" font-family="Courier,Courier" font-size="18.0" fill="#00F900" transform="matrix(1.00, 0.00, -0.00, -1.00, 182.2, 291.1)">n</text><text xml:space="preserve" font-family="Courier,Courier" font-size="18.0" fill="#00F900" transform="matrix(1.00, 0.00, -0.00, -1.00, 193.0, 291.1)">e</text><text xml:space="preserve" font-family="Courier,Courier" font-size="18.0" fill="#00F900" transform="matrix(1.00, 0.00, -0.00, -1.00, 203.8, 291.1)">x</text><text xml:space="preserve" font-family="Courier,Courier" font-size="18.0" fill="#00F900" transform="matrix(1.00, 0.00, -0.00, -1.00, 214.6, 291.1)">t</text><text xml:space="preserve" font-family="Courier,Courier" font-size="18.0" fill="#00F900" transform="matrix(1.00, 0.00, -0.00, -1.00, 225.4, 291.1)">_</text><text xml:space="preserve" font-family="Courier,Courier" font-size="18.0" fill="#00F900" transform="matrix(1.00, 0.00, -0.00, -1.00, 236.2, 291.1)">1</text><text xml:space="preserve" font-family="Courier,Courier" font-size="18.0" fill="#00F900" transform="matrix(1.00, 0.00, -0.00, -1.00, 247.1, 291.1)">0</text><text xml:space="preserve" font-family="Courier,Courier" font-size="18.0" fill="#00F900" transform="matrix(1.00, 0.00, -0.00, -1.00, 257.9, 291.1)">0</text><text xml:space="preserve" font-family="Courier,Courier" font-size="18.0" fill="#00F900" transform="matrix(1.00, 0.00, -0.00, -1.00, 268.7, 291.1)">0</text><text xml:space="preserve" font-family="Courier,Courier" font-size="18.0" fill="#00F900" transform="matrix(1.00, 0.00, -0.00, -1.00, 279.4, 291.1)">(</text><text xml:space="preserve" font-family="Courier,Courier" font-size="18.0" fill="#00F900" transform="matrix(1.00, 0.00, -0.00, -1.00, 290.2, 291.1)">)</text><text xml:space="preserve" font-family="Courier,Courier" font-size="18.0" fill="#00F900" transform="matrix(1.00, 0.00, -0.00, -1.00, 301.0, 291.1)"> </text><text xml:space="preserve" font-family="Courier,Courier" font-size="18.0" fill="#00F900" transform="matrix(1.00, 0.00, -0.00, -1.00, 311.8, 291.1)">{</text><text xml:space="preserve" font-family="Courier,Courier" font-size="18.0" fill="#FF9200" transform="matrix(1.00, 0.00, -0.00, -1.00, 85.0, 263.7)"> </text><text xml:space="preserve" font-family="Courier,Courier" font-size="18.0" fill="#FF9200" transform="matrix(1.00, 0.00, -0.00, -1.00, 95.8, 263.7)"> </text><text xml:space="preserve" font-family="Courier,Courier" font-size="18.0" fill="#FF9200" transform="matrix(1.00, 0.00, -0.00, -1.00, 106.6, 263.7)">/</text><text xml:space="preserve" font-family="Courier,Courier" font-size="18.0" fill="#FF9200" transform="matrix(1.00, 0.00, -0.00, -1.00, 117.4, 263.7)">/</text><text xml:space="preserve" font-family="Courier,Courier" font-size="18.0" fill="#FF9200" transform="matrix(1.00, 0.00, -0.00, -1.00, 128.2, 263.7)"> </text><text xml:space="preserve" font-family="Courier,Courier" font-size="18.0" fill="#FF9200" transform="matrix(1.00, 0.00, -0.00, -1.00, 139.0, 263.7)">a</text><text xml:space="preserve" font-family="Courier,Courier" font-size="18.0" fill="#FF9200" transform="matrix(1.00, 0.00, -0.00, -1.00, 149.8, 263.7)">d</text><text xml:space="preserve" font-family="Courier,Courier" font-size="18.0" fill="#FF9200" transform="matrix(1.00, 0.00, -0.00, -1.00, 160.6, 263.7)">d</text><text xml:space="preserve" font-family="Courier,Courier" font-size="18.0" fill="#FF9200" transform="matrix(1.00, 0.00, -0.00, -1.00, 171.4, 263.7)"> </text><text xml:space="preserve" font-family="Courier,Courier" font-size="18.0" fill="#FF9200" transform="matrix(1.00, 0.00, -0.00, -1.00, 182.2, 263.7)">1</text><text xml:space="preserve" font-family="Courier,Courier" font-size="18.0" fill="#FF9200" transform="matrix(1.00, 0.00, -0.00, -1.00, 193.0, 263.7)">0</text><text xml:space="preserve" font-family="Courier,Courier" font-size="18.0" fill="#FF9200" transform="matrix(1.00, 0.00, -0.00, -1.00, 203.8, 263.7)">0</text><text xml:space="preserve" font-family="Courier,Courier" font-size="18.0" fill="#FF9200" transform="matrix(1.00, 0.00, -0.00, -1.00, 214.6, 263.7)">0</text><text xml:space="preserve" font-family="Courier,Courier" font-size="18.0" fill="#FF9200" transform="matrix(1.00, 0.00, -0.00, -1.00, 225.4, 263.7)"> </text><text xml:space="preserve" font-family="Courier,Courier" font-size="18.0" fill="#FF9200" transform="matrix(1.00, 0.00, -0.00, -1.00, 236.2, 263.7)">t</text><text xml:space="preserve" font-family="Courier,Courier" font-size="18.0" fill="#FF9200" transform="matrix(1.00, 0.00, -0.00, -1.00, 247.1, 263.7)">o</text><text xml:space="preserve" font-family="Courier,Courier" font-size="18.0" fill="#FF9200" transform="matrix(1.00, 0.00, -0.00, -1.00, 257.9, 263.7)"> </text><text xml:space="preserve" font-family="Courier,Courier" font-size="18.0" fill="#FF9200" transform="matrix(1.00, 0.00, -0.00, -1.00, 268.7, 263.7)">i</text><text xml:space="preserve" font-family="Courier,Courier" font-size="18.0" fill="#FF9200" transform="matrix(1.00, 0.00, -0.00, -1.00, 85.0, 236.3)"> </text><text xml:space="preserve" font-family="Courier,Courier" font-size="18.0" fill="#FF9200" transform="matrix(1.00, 0.00, -0.00, -1.00, 95.8, 236.3)"> </text><text xml:space="preserve" font-family="Courier,Courier" font-size="18.0" fill="#FF9200" transform="matrix(1.00, 0.00, -0.00, -1.00, 106.6, 236.3)">v</text><text xml:space="preserve" font-family="Courier,Courier" font-size="18.0" fill="#FF9200" transform="matrix(1.00, 0.00, -0.00, -1.00, 117.4, 236.3)">a</text><text xml:space="preserve" font-family="Courier,Courier" font-size="18.0" fill="#FF9200" transform="matrix(1.00, 0.00, -0.00, -1.00, 128.2, 236.3)">r</text><text xml:space="preserve" font-family="Courier,Courier" font-size="18.0" fill="#FF9200" transform="matrix(1.00, 0.00, -0.00, -1.00, 139.0, 236.3)"> </text><text xml:space="preserve" font-family="Courier,Courier" font-size="18.0" fill="#FF9200" transform="matrix(1.00, 0.00, -0.00, -1.00, 149.8, 236.3)">j</text><text xml:space="preserve" font-family="Courier,Courier" font-size="18.0" fill="#FF9200" transform="matrix(1.00, 0.00, -0.00, -1.00, 160.6, 236.3)"> </text><text xml:space="preserve" font-family="Courier,Courier" font-size="18.0" fill="#FF9200" transform="matrix(1.00, 0.00, -0.00, -1.00, 171.4, 236.3)">=</text><text xml:space="preserve" font-family="Courier,Courier" font-size="18.0" fill="#FF9200" transform="matrix(1.00, 0.00, -0.00, -1.00, 182.2, 236.3)"> </text><text xml:space="preserve" font-family="Courier,Courier" font-size="18.0" fill="#FF9200" transform="matrix(1.00, 0.00, -0.00, -1.00, 193.0, 236.3)">0</text><text xml:space="preserve" font-family="Courier,Courier" font-size="18.0" fill="#FF9200" transform="matrix(1.00, 0.00, -0.00, -1.00, 85.0, 208.9)"> </text><text xml:space="preserve" font-family="Courier,Courier" font-size="18.0" fill="#FF9200" transform="matrix(1.00, 0.00, -0.00, -1.00, 95.8, 208.9)"> </text><text xml:space="preserve" font-family="Courier,Courier" font-size="18.0" fill="#FF9200" transform="matrix(1.00, 0.00, -0.00, -1.00, 106.6, 208.9)">w</text><text xml:space="preserve" font-family="Courier,Courier" font-size="18.0" fill="#FF9200" transform="matrix(1.00, 0.00, -0.00, -1.00, 117.4, 208.9)">h</text><text xml:space="preserve" font-family="Courier,Courier" font-size="18.0" fill="#FF9200" transform="matrix(1.00, 0.00, -0.00, -1.00, 128.2, 208.9)">i</text><text xml:space="preserve" font-family="Courier,Courier" font-size="18.0" fill="#FF9200" transform="matrix(1.00, 0.00, -0.00, -1.00, 139.0, 208.9)">l</text><text xml:space="preserve" font-family="Courier,Courier" font-size="18.0" fill="#FF9200" transform="matrix(1.00, 0.00, -0.00, -1.00, 149.8, 208.9)">e</text><text xml:space="preserve" font-family="Courier,Courier" font-size="18.0" fill="#FF9200" transform="matrix(1.00, 0.00, -0.00, -1.00, 160.6, 208.9)"> </text><text xml:space="preserve" font-family="Courier,Courier" font-size="18.0" fill="#FF9200" transform="matrix(1.00, 0.00, -0.00, -1.00, 171.4, 208.9)">(</text><text xml:space="preserve" font-family="Courier,Courier" font-size="18.0" fill="#FF9200" transform="matrix(1.00, 0.00, -0.00, -1.00, 182.2, 208.9)">j</text><text xml:space="preserve" font-family="Courier,Courier" font-size="18.0" fill="#FF9200" transform="matrix(1.00, 0.00, -0.00, -1.00, 193.0, 208.9)">+</text><text xml:space="preserve" font-family="Courier,Courier" font-size="18.0" fill="#FF9200" transform="matrix(1.00, 0.00, -0.00, -1.00, 203.8, 208.9)">+</text><text xml:space="preserve" font-family="Courier,Courier" font-size="18.0" fill="#FF9200" transform="matrix(1.00, 0.00, -0.00, -1.00, 214.6, 208.9)"> </text><text xml:space="preserve" font-family="Courier,Courier" font-size="18.0" fill="#FF9200" transform="matrix(1.00, 0.00, -0.00, -1.00, 225.4, 208.9)">&lt;</text><text xml:space="preserve" font-family="Courier,Courier" font-size="18.0" fill="#FF9200" transform="matrix(1.00, 0.00, -0.00, -1.00, 236.2, 208.9)"> </text><text xml:space="preserve" font-family="Courier,Courier" font-size="18.0" fill="#FF9200" transform="matrix(1.00, 0.00, -0.00, -1.00, 247.1, 208.9)">1</text><text xml:space="preserve" font-family="Courier,Courier" font-size="18.0" fill="#FF9200" transform="matrix(1.00, 0.00, -0.00, -1.00, 257.9, 208.9)">0</text><text xml:space="preserve" font-family="Courier,Courier" font-size="18.0" fill="#FF9200" transform="matrix(1.00, 0.00, -0.00, -1.00, 268.7, 208.9)">0</text><text xml:space="preserve" font-family="Courier,Courier" font-size="18.0" fill="#FF9200" transform="matrix(1.00, 0.00, -0.00, -1.00, 279.5, 208.9)">0</text><text xml:space="preserve" font-family="Courier,Courier" font-size="18.0" fill="#FF9200" transform="matrix(1.00, 0.00, -0.00, -1.00, 290.3, 208.9)">)</text><text xml:space="preserve" font-family="Courier,Courier" font-size="18.0" fill="#FF9200" transform="matrix(1.00, 0.00, -0.00, -1.00, 301.1, 208.9)"> </text><text xml:space="preserve" font-family="Courier,Courier" font-size="18.0" fill="#FF9200" transform="matrix(1.00, 0.00, -0.00, -1.00, 311.9, 208.9)">{</text><text xml:space="preserve" font-family="Courier,Courier" font-size="18.0" fill="#FF9200" transform="matrix(1.00, 0.00, -0.00, -1.00, 85.0, 181.5)"> </text><text xml:space="preserve" font-family="Courier,Courier" font-size="18.0" fill="#FF9200" transform="matrix(1.00, 0.00, -0.00, -1.00, 95.8, 181.5)"> </text><text xml:space="preserve" font-family="Courier,Courier" font-size="18.0" fill="#FF9200" transform="matrix(1.00, 0.00, -0.00, -1.00, 106.6, 181.5)"> </text><text xml:space="preserve" font-family="Courier,Courier" font-size="18.0" fill="#FF9200" transform="matrix(1.00, 0.00, -0.00, -1.00, 117.4, 181.5)"> </text><text xml:space="preserve" font-family="Courier,Courier" font-size="18.0" fill="#FF9200" transform="matrix(1.00, 0.00, -0.00, -1.00, 128.2, 181.5)">i</text><text xml:space="preserve" font-family="Courier,Courier" font-size="18.0" fill="#FF9200" transform="matrix(1.00, 0.00, -0.00, -1.00, 139.0, 181.5)">+</text><text xml:space="preserve" font-family="Courier,Courier" font-size="18.0" fill="#FF9200" transform="matrix(1.00, 0.00, -0.00, -1.00, 149.8, 181.5)">+</text><text xml:space="preserve" font-family="Courier,Courier" font-size="18.0" fill="#FF9200" transform="matrix(1.00, 0.00, -0.00, -1.00, 85.0, 154.1)"> </text><text xml:space="preserve" font-family="Courier,Courier" font-size="18.0" fill="#FF9200" transform="matrix(1.00, 0.00, -0.00, -1.00, 95.8, 154.1)"> </text><text xml:space="preserve" font-family="Courier,Courier" font-size="18.0" fill="#FF9200" transform="matrix(1.00, 0.00, -0.00, -1.00, 106.6, 154.1)">}</text><text xml:space="preserve" font-family="Courier,Courier" font-size="18.0" fill="#0432FF" transform="matrix(1.00, 0.00, -0.00, -1.00, 85.0, 99.3)"> </text><text xml:space="preserve" font-family="Courier,Courier" font-size="18.0" fill="#0432FF" transform="matrix(1.00, 0.00, -0.00, -1.00, 95.8, 99.3)"> </text><text xml:space="preserve" font-family="Courier,Courier" font-size="18.0" fill="#0432FF" transform="matrix(1.00, 0.00, -0.00, -1.00, 106.6, 99.3)">/</text><text xml:space="preserve" font-family="Courier,Courier" font-size="18.0" fill="#0432FF" transform="matrix(1.00, 0.00, -0.00, -1.00, 117.4, 99.3)">/</text><text xml:space="preserve" font-family="Courier,Courier" font-size="18.0" fill="#0432FF" transform="matrix(1.00, 0.00, -0.00, -1.00, 128.2, 99.3)"> </text><text xml:space="preserve" font-family="Courier,Courier" font-size="18.0" fill="#0432FF" transform="matrix(1.00, 0.00, -0.00, -1.00, 139.0, 99.3)">a</text><text xml:space="preserve" font-family="Courier,Courier" font-size="18.0" fill="#0432FF" transform="matrix(1.00, 0.00, -0.00, -1.00, 149.8, 99.3)">d</text><text xml:space="preserve" font-family="Courier,Courier" font-size="18.0" fill="#0432FF" transform="matrix(1.00, 0.00, -0.00, -1.00, 160.6, 99.3)">d</text><text xml:space="preserve" font-family="Courier,Courier" font-size="18.0" fill="#0432FF" transform="matrix(1.00, 0.00, -0.00, -1.00, 171.4, 99.3)"> </text><text xml:space="preserve" font-family="Courier,Courier" font-size="18.0" fill="#0432FF" transform="matrix(1.00, 0.00, -0.00, -1.00, 182.2, 99.3)">a</text><text xml:space="preserve" font-family="Courier,Courier" font-size="18.0" fill="#0432FF" transform="matrix(1.00, 0.00, -0.00, -1.00, 193.0, 99.3)">n</text><text xml:space="preserve" font-family="Courier,Courier" font-size="18.0" fill="#0432FF" transform="matrix(1.00, 0.00, -0.00, -1.00, 203.8, 99.3)">o</text><text xml:space="preserve" font-family="Courier,Courier" font-size="18.0" fill="#0432FF" transform="matrix(1.00, 0.00, -0.00, -1.00, 214.6, 99.3)">t</text><text xml:space="preserve" font-family="Courier,Courier" font-size="18.0" fill="#0432FF" transform="matrix(1.00, 0.00, -0.00, -1.00, 225.4, 99.3)">h</text><text xml:space="preserve" font-family="Courier,Courier" font-size="18.0" fill="#0432FF" transform="matrix(1.00, 0.00, -0.00, -1.00, 236.2, 99.3)">e</text><text xml:space="preserve" font-family="Courier,Courier" font-size="18.0" fill="#0432FF" transform="matrix(1.00, 0.00, -0.00, -1.00, 247.1, 99.3)">r</text><text xml:space="preserve" font-family="Courier,Courier" font-size="18.0" fill="#0432FF" transform="matrix(1.00, 0.00, -0.00, -1.00, 257.9, 99.3)"> </text><text xml:space="preserve" font-family="Courier,Courier" font-size="18.0" fill="#0432FF" transform="matrix(1.00, 0.00, -0.00, -1.00, 268.7, 99.3)">1</text><text xml:space="preserve" font-family="Courier,Courier" font-size="18.0" fill="#0432FF" transform="matrix(1.00, 0.00, -0.00, -1.00, 279.5, 99.3)">0</text><text xml:space="preserve" font-family="Courier,Courier" font-size="18.0" fill="#0432FF" transform="matrix(1.00, 0.00, -0.00, -1.00, 290.3, 99.3)">0</text><text xml:space="preserve" font-family="Courier,Courier" font-size="18.0" fill="#0432FF" transform="matrix(1.00, 0.00, -0.00, -1.00, 301.1, 99.3)">0</text><text xml:space="preserve" font-family="Courier,Courier" font-size="18.0" fill="#0432FF" transform="matrix(1.00, 0.00, -0.00, -1.00, 311.9, 99.3)"> </text><text xml:space="preserve" font-family="Courier,Courier" font-size="18.0" fill="#0432FF" transform="matrix(1.00, 0.00, -0.00, -1.00, 322.7, 99.3)">a</text><text xml:space="preserve" font-family="Courier,Courier" font-size="18.0" fill="#0432FF" transform="matrix(1.00, 0.00, -0.00, -1.00, 333.5, 99.3)">f</text><text xml:space="preserve" font-family="Courier,Courier" font-size="18.0" fill="#0432FF" transform="matrix(1.00, 0.00, -0.00, -1.00, 344.3, 99.3)">t</text><text xml:space="preserve" font-family="Courier,Courier" font-size="18.0" fill="#0432FF" transform="matrix(1.00, 0.00, -0.00, -1.00, 355.1, 99.3)">e</text><text xml:space="preserve" font-family="Courier,Courier" font-size="18.0" fill="#0432FF" transform="matrix(1.00, 0.00, -0.00, -1.00, 365.9, 99.3)">r</text><text xml:space="preserve" font-family="Courier,Courier" font-size="18.0" fill="#0432FF" transform="matrix(1.00, 0.00, -0.00, -1.00, 376.7, 99.3)"> </text><text xml:space="preserve" font-family="Courier,Courier" font-size="18.0" fill="#0432FF" transform="matrix(1.00, 0.00, -0.00, -1.00, 387.5, 99.3)">w</text><text xml:space="preserve" font-family="Courier,Courier" font-size="18.0" fill="#0432FF" transform="matrix(1.00, 0.00, -0.00, -1.00, 398.3, 99.3)">e</text><text xml:space="preserve" font-family="Courier,Courier" font-size="18.0" fill="#0432FF" transform="matrix(1.00, 0.00, -0.00, -1.00, 409.1, 99.3)"> </text><text xml:space="preserve" font-family="Courier,Courier" font-size="18.0" fill="#0432FF" transform="matrix(1.00, 0.00, -0.00, -1.00, 419.9, 99.3)">y</text><text xml:space="preserve" font-family="Courier,Courier" font-size="18.0" fill="#0432FF" transform="matrix(1.00, 0.00, -0.00, -1.00, 430.7, 99.3)">i</text><text xml:space="preserve" font-family="Courier,Courier" font-size="18.0" fill="#0432FF" transform="matrix(1.00, 0.00, -0.00, -1.00, 441.5, 99.3)">e</text><text xml:space="preserve" font-family="Courier,Courier" font-size="18.0" fill="#0432FF" transform="matrix(1.00, 0.00, -0.00, -1.00, 452.3, 99.3)">l</text><text xml:space="preserve" font-family="Courier,Courier" font-size="18.0" fill="#0432FF" transform="matrix(1.00, 0.00, -0.00, -1.00, 463.1, 99.3)">d</text><text xml:space="preserve" font-family="Courier,Courier" font-size="18.0" fill="#0432FF" transform="matrix(1.00, 0.00, -0.00, -1.00, 473.9, 99.3)"> </text><text xml:space="preserve" font-family="Courier,Courier" font-size="18.0" fill="#0432FF" transform="matrix(1.00, 0.00, -0.00, -1.00, 484.7, 99.3)">t</text><text xml:space="preserve" font-family="Courier,Courier" font-size="18.0" fill="#0432FF" transform="matrix(1.00, 0.00, -0.00, -1.00, 495.5, 99.3)">h</text><text xml:space="preserve" font-family="Courier,Courier" font-size="18.0" fill="#0432FF" transform="matrix(1.00, 0.00, -0.00, -1.00, 506.3, 99.3)">e</text><text xml:space="preserve" font-family="Courier,Courier" font-size="18.0" fill="#0432FF" transform="matrix(1.00, 0.00, -0.00, -1.00, 517.1, 99.3)"> </text><text xml:space="preserve" font-family="Courier,Courier" font-size="18.0" fill="#0432FF" transform="matrix(1.00, 0.00, -0.00, -1.00, 527.9, 99.3)">e</text><text xml:space="preserve" font-family="Courier,Courier" font-size="18.0" fill="#0432FF" transform="matrix(1.00, 0.00, -0.00, -1.00, 538.7, 99.3)">v</text><text xml:space="preserve" font-family="Courier,Courier" font-size="18.0" fill="#0432FF" transform="matrix(1.00, 0.00, -0.00, -1.00, 549.6, 99.3)">e</text><text xml:space="preserve" font-family="Courier,Courier" font-size="18.0" fill="#0432FF" transform="matrix(1.00, 0.00, -0.00, -1.00, 560.4, 99.3)">n</text><text xml:space="preserve" font-family="Courier,Courier" font-size="18.0" fill="#0432FF" transform="matrix(1.00, 0.00, -0.00, -1.00, 571.2, 99.3)">t</text><text xml:space="preserve" font-family="Courier,Courier" font-size="18.0" fill="#0432FF" transform="matrix(1.00, 0.00, -0.00, -1.00, 582.0, 99.3)"> </text><text xml:space="preserve" font-family="Courier,Courier" font-size="18.0" fill="#0432FF" transform="matrix(1.00, 0.00, -0.00, -1.00, 592.8, 99.3)">l</text><text xml:space="preserve" font-family="Courier,Courier" font-size="18.0" fill="#0432FF" transform="matrix(1.00, 0.00, -0.00, -1.00, 603.6, 99.3)">o</text><text xml:space="preserve" font-family="Courier,Courier" font-size="18.0" fill="#0432FF" transform="matrix(1.00, 0.00, -0.00, -1.00, 614.4, 99.3)">o</text><text xml:space="preserve" font-family="Courier,Courier" font-size="18.0" fill="#0432FF" transform="matrix(1.00, 0.00, -0.00, -1.00, 625.2, 99.3)">p</text><text xml:space="preserve" font-family="Courier,Courier" font-size="18.0" fill="#0432FF" transform="matrix(1.00, 0.00, -0.00, -1.00, 85.0, 71.9)"> </text><text xml:space="preserve" font-family="Courier,Courier" font-size="18.0" fill="#0432FF" transform="matrix(1.00, 0.00, -0.00, -1.00, 95.8, 71.9)"> </text><text xml:space="preserve" font-family="Courier,Courier" font-size="18.0" fill="#0432FF" transform="matrix(1.00, 0.00, -0.00, -1.00, 106.6, 71.9)">s</text><text xml:space="preserve" font-family="Courier,Courier" font-size="18.0" fill="#0432FF" transform="matrix(1.00, 0.00, -0.00, -1.00, 117.4, 71.9)">e</text><text xml:space="preserve" font-family="Courier,Courier" font-size="18.0" fill="#0432FF" transform="matrix(1.00, 0.00, -0.00, -1.00, 128.2, 71.9)">t</text><text xml:space="preserve" font-family="Courier,Courier" font-size="18.0" fill="#0432FF" transform="matrix(1.00, 0.00, -0.00, -1.00, 139.0, 71.9)">T</text><text xml:space="preserve" font-family="Courier,Courier" font-size="18.0" fill="#0432FF" transform="matrix(1.00, 0.00, -0.00, -1.00, 149.8, 71.9)">i</text><text xml:space="preserve" font-family="Courier,Courier" font-size="18.0" fill="#0432FF" transform="matrix(1.00, 0.00, -0.00, -1.00, 160.6, 71.9)">m</text><text xml:space="preserve" font-family="Courier,Courier" font-size="18.0" fill="#0432FF" transform="matrix(1.00, 0.00, -0.00, -1.00, 171.4, 71.9)">e</text><text xml:space="preserve" font-family="Courier,Courier" font-size="18.0" fill="#0432FF" transform="matrix(1.00, 0.00, -0.00, -1.00, 182.2, 71.9)">o</text><text xml:space="preserve" font-family="Courier,Courier" font-size="18.0" fill="#0432FF" transform="matrix(1.00, 0.00, -0.00, -1.00, 193.0, 71.9)">u</text><text xml:space="preserve" font-family="Courier,Courier" font-size="18.0" fill="#0432FF" transform="matrix(1.00, 0.00, -0.00, -1.00, 203.8, 71.9)">t</text><text xml:space="preserve" font-family="Courier,Courier" font-size="18.0" fill="#0432FF" transform="matrix(1.00, 0.00, -0.00, -1.00, 214.6, 71.9)">(</text><text xml:space="preserve" font-family="Courier,Courier" font-size="18.0" fill="#0432FF" transform="matrix(1.00, 0.00, -0.00, -1.00, 225.4, 71.9)">n</text><text xml:space="preserve" font-family="Courier,Courier" font-size="18.0" fill="#0432FF" transform="matrix(1.00, 0.00, -0.00, -1.00, 236.2, 71.9)">e</text><text xml:space="preserve" font-family="Courier,Courier" font-size="18.0" fill="#0432FF" transform="matrix(1.00, 0.00, -0.00, -1.00, 247.1, 71.9)">x</text><text xml:space="preserve" font-family="Courier,Courier" font-size="18.0" fill="#0432FF" transform="matrix(1.00, 0.00, -0.00, -1.00, 257.9, 71.9)">t</text><text xml:space="preserve" font-family="Courier,Courier" font-size="18.0" fill="#0432FF" transform="matrix(1.00, 0.00, -0.00, -1.00, 268.7, 71.9)">_</text><text xml:space="preserve" font-family="Courier,Courier" font-size="18.0" fill="#0432FF" transform="matrix(1.00, 0.00, -0.00, -1.00, 279.5, 71.9)">1</text><text xml:space="preserve" font-family="Courier,Courier" font-size="18.0" fill="#0432FF" transform="matrix(1.00, 0.00, -0.00, -1.00, 290.3, 71.9)">0</text><text xml:space="preserve" font-family="Courier,Courier" font-size="18.0" fill="#0432FF" transform="matrix(1.00, 0.00, -0.00, -1.00, 301.1, 71.9)">0</text><text xml:space="preserve" font-family="Courier,Courier" font-size="18.0" fill="#0432FF" transform="matrix(1.00, 0.00, -0.00, -1.00, 311.9, 71.9)">0</text><text xml:space="preserve" font-family="Courier,Courier" font-size="18.0" fill="#0432FF" transform="matrix(1.00, 0.00, -0.00, -1.00, 322.6, 71.9)">,</text><text xml:space="preserve" font-family="Courier,Courier" font-size="18.0" fill="#0432FF" transform="matrix(1.00, 0.00, -0.00, -1.00, 333.4, 71.9)"> </text><text xml:space="preserve" font-family="Courier,Courier" font-size="18.0" fill="#0432FF" transform="matrix(1.00, 0.00, -0.00, -1.00, 344.2, 71.9)">1</text><text xml:space="preserve" font-family="Courier,Courier" font-size="18.0" fill="#0432FF" transform="matrix(1.00, 0.00, -0.00, -1.00, 355.0, 71.9)">0</text><text xml:space="preserve" font-family="Courier,Courier" font-size="18.0" fill="#0432FF" transform="matrix(1.00, 0.00, -0.00, -1.00, 365.9, 71.9)">0</text><text xml:space="preserve" font-family="Courier,Courier" font-size="18.0" fill="#0432FF" transform="matrix(1.00, 0.00, -0.00, -1.00, 376.7, 71.9)">)</text><text xml:space="preserve" font-family="Courier,Courier" font-size="18.0" fill="#00F900" transform="matrix(1.00, 0.00, -0.00, -1.00, 85.0, 44.5)">}</text></g></svg>