<?xml version="1.0" encoding="UTF-8" standalone="no"?><svg xmlns="http://www.w3.org/2000/svg" xmlns:xlink="http://www.w3.org/1999/xlink" clip-rule="evenodd" stroke-miterlimit="10" viewBox="0 0 1024 768"><desc>SVG generated by Keynote</desc><defs></defs><g transform="matrix(1.00, 0.00, -0.00, -1.00, 0.0, 768.0)"><path d="M 0.0 768.0 L 1024.0 768.0 L 1024.0 0.0 L 0.0 0.0 Z M 0.0 768.0 " fill="#000000"></path><text xml:space="preserve" font-family="Helvetica-Light,Helvetica" font-size="80.0" fill="#FEFFFF" transform="matrix(1.00, 0.00, -0.00, -1.00, 88.2, 633.4)">Y</text><text xml:space="preserve" font-family="Helvetica-Light,Helvetica" font-size="80.0" fill="#FEFFFF" transform="matrix(1.00, 0.00, -0.00, -1.00, 135.5, 633.4)">i</text><text xml:space="preserve" font-family="Helvetica-Light,Helvetica" font-size="80.0" fill="#FEFFFF" transform="matrix(1.00, 0.00, -0.00, -1.00, 153.2, 633.4)">e</text><text xml:space="preserve" font-family="Helvetica-Light,Helvetica" font-size="80.0" fill="#FEFFFF" transform="matrix(1.00, 0.00, -0.00, -1.00, 197.7, 633.4)">l</text><text xml:space="preserve" font-family="Helvetica-Light,Helvetica" font-size="80.0" fill="#FEFFFF" transform="matrix(1.00, 0.00, -0.00, -1.00, 215.5, 633.4)">d</text><text xml:space="preserve" font-family="Helvetica-Light,Helvetica" font-size="80.0" fill="#FEFFFF" transform="matrix(1.00, 0.00, -0.00, -1.00, 264.4, 633.4)">i</text><text xml:space="preserve" font-family="Helvetica-Light,Helvetica" font-size="80.0" fill="#FEFFFF" transform="matrix(1.00, 0.00, -0.00, -1.00, 282.1, 633.4)">n</text><text xml:space="preserve" font-family="Helvetica-Light,Helvetica" font-size="80.0" fill="#FEFFFF" transform="matrix(1.00, 0.00, -0.00, -1.00, 326.6, 633.4)">g</text><text xml:space="preserve" font-family="Helvetica-Light,Helvetica" font-size="80.0" fill="#FEFFFF" transform="matrix(1.00, 0.00, -0.00, -1.00, 375.5, 633.4)"> </text><text xml:space="preserve" font-family="Helvetica-Light,Helvetica" font-size="80.0" fill="#FEFFFF" transform="matrix(1.00, 0.00, -0.00, -1.00, 397.7, 633.4)">t</text><text xml:space="preserve" font-family="Helvetica-Light,Helvetica" font-size="80.0" fill="#FEFFFF" transform="matrix(1.00, 0.00, -0.00, -1.00, 420.0, 633.4)">h</text><text xml:space="preserve" font-family="Helvetica-Light,Helvetica" font-size="80.0" fill="#FEFFFF" transform="matrix(1.00, 0.00, -0.00, -1.00, 464.4, 633.4)">e</text><text xml:space="preserve" font-family="Helvetica-Light,Helvetica" font-size="80.0" fill="#FEFFFF" transform="matrix(1.00, 0.00, -0.00, -1.00, 508.9, 633.4)"> </text><text xml:space="preserve" font-family="Helvetica-Light,Helvetica" font-size="80.0" fill="#FEFFFF" transform="matrix(1.00, 0.00, -0.00, -1.00, 531.2, 633.4)">E</text><text xml:space="preserve" font-family="Helvetica-Light,Helvetica" font-size="80.0" fill="#FEFFFF" transform="matrix(1.00, 0.00, -0.00, -1.00, 580.0, 633.4)">v</text><text xml:space="preserve" font-family="Helvetica-Light,Helvetica" font-size="80.0" fill="#FEFFFF" transform="matrix(1.00, 0.00, -0.00, -1.00, 620.0, 633.4)">e</text><text xml:space="preserve" font-family="Helvetica-Light,Helvetica" font-size="80.0" fill="#FEFFFF" transform="matrix(1.00, 0.00, -0.00, -1.00, 664.5, 633.4)">n</text><text xml:space="preserve" font-family="Helvetica-Light,Helvetica" font-size="80.0" fill="#FEFFFF" transform="matrix(1.00, 0.00, -0.00, -1.00, 709.0, 633.4)">t</text><text xml:space="preserve" font-family="Helvetica-Light,Helvetica" font-size="80.0" fill="#FEFFFF" transform="matrix(1.00, 0.00, -0.00, -1.00, 731.2, 633.4)"> </text><text xml:space="preserve" font-family="Helvetica-Light,Helvetica" font-size="80.0" fill="#FEFFFF" transform="matrix(1.00, 0.00, -0.00, -1.00, 753.5, 633.4)">L</text><text xml:space="preserve" font-family="Helvetica-Light,Helvetica" font-size="80.0" fill="#FEFFFF" transform="matrix(1.00, 0.00, -0.00, -1.00, 798.0, 633.4)">o</text><text xml:space="preserve" font-family="Helvetica-Light,Helvetica" font-size="80.0" fill="#FEFFFF" transform="matrix(1.00, 0.00, -0.00, -1.00, 842.4, 633.4)">o</text><text xml:space="preserve" font-family="Helvetica-Light,Helvetica" font-size="80.0" fill="#FEFFFF" transform="matrix(1.00, 0.00, -0.00, -1.00, 886.9, 633.4)">p</text><text xml:space="preserve" font-family="Courier,Courier" font-size="26.4" fill="#FEFFFF" transform="matrix(1.00, 0.00, -0.00, -1.00, 85.0, 582.3)">v</text><text xml:space="preserve" font-family="Courier,Courier" font-size="26.4" fill="#FEFFFF" transform="matrix(1.00, 0.00, -0.00, -1.00, 100.8, 582.3)">a</text><text xml:space="preserve" font-family="Courier,Courier" font-size="26.4" fill="#FEFFFF" transform="matrix(1.00, 0.00, -0.00, -1.00, 116.7, 582.3)">r</text><text xml:space="preserve" font-family="Courier,Courier" font-size="26.4" fill="#FEFFFF" transform="matrix(1.00, 0.00, -0.00, -1.00, 132.5, 582.3)"> </text><text xml:space="preserve" font-family="Courier,Courier" font-size="26.4" fill="#FEFFFF" transform="matrix(1.00, 0.00, -0.00, -1.00, 148.4, 582.3)">i</text><text xml:space="preserve" font-family="Courier,Courier" font-size="26.4" fill="#FEFFFF" transform="matrix(1.00, 0.00, -0.00, -1.00, 164.2, 582.3)"> </text><text xml:space="preserve" font-family="Courier,Courier" font-size="26.4" fill="#FEFFFF" transform="matrix(1.00, 0.00, -0.00, -1.00, 180.1, 582.3)">=</text><text xml:space="preserve" font-family="Courier,Courier" font-size="26.4" fill="#FEFFFF" transform="matrix(1.00, 0.00, -0.00, -1.00, 195.9, 582.3)"> </text><text xml:space="preserve" font-family="Courier,Courier" font-size="26.4" fill="#FEFFFF" transform="matrix(1.00, 0.00, -0.00, -1.00, 211.8, 582.3)">0</text><text xml:space="preserve" font-family="Courier,Courier" font-size="26.4" fill="#00F900" transform="matrix(1.00, 0.00, -0.00, -1.00, 85.0, 502.2)">n</text><text xml:space="preserve" font-family="Courier,Courier" font-size="26.4" fill="#00F900" transform="matrix(1.00, 0.00, -0.00, -1.00, 100.8, 502.2)">e</text><text xml:space="preserve" font-family="Courier,Courier" font-size="26.4" fill="#00F900" transform="matrix(1.00, 0.00, -0.00, -1.00, 116.7, 502.2)">x</text><text xml:space="preserve" font-family="Courier,Courier" font-size="26.4" fill="#00F900" transform="matrix(1.00, 0.00, -0.00, -1.00, 132.5, 502.2)">t</text><text xml:space="preserve" font-family="Courier,Courier" font-size="26.4" fill="#00F900" transform="matrix(1.00, 0.00, -0.00, -1.00, 148.4, 502.2)">_</text><text xml:space="preserve" font-family="Courier,Courier" font-size="26.4" fill="#00F900" transform="matrix(1.00, 0.00, -0.00, -1.00, 164.2, 502.2)">1</text><text xml:space="preserve" font-family="Courier,Courier" font-size="26.4" fill="#00F900" transform="matrix(1.00, 0.00, -0.00, -1.00, 180.1, 502.2)">0</text><text xml:space="preserve" font-family="Courier,Courier" font-size="26.4" fill="#00F900" transform="matrix(1.00, 0.00, -0.00, -1.00, 195.9, 502.2)">0</text><text xml:space="preserve" font-family="Courier,Courier" font-size="26.4" fill="#00F900" transform="matrix(1.00, 0.00, -0.00, -1.00, 211.8, 502.2)">0</text><text xml:space="preserve" font-family="Courier,Courier" font-size="26.4" fill="#00F900" transform="matrix(1.00, 0.00, -0.00, -1.00, 227.6, 502.2)">(</text><text xml:space="preserve" font-family="Courier,Courier" font-size="26.4" fill="#00F900" transform="matrix(1.00, 0.00, -0.00, -1.00, 243.5, 502.2)">)</text><text xml:space="preserve" font-family="Courier,Courier" font-size="26.4" fill="#00F900" transform="matrix(1.00, 0.00, -0.00, -1.00, 85.0, 462.1)">f</text><text xml:space="preserve" font-family="Courier,Courier" font-size="26.4" fill="#00F900" transform="matrix(1.00, 0.00, -0.00, -1.00, 100.8, 462.1)">u</text><text xml:space="preserve" font-family="Courier,Courier" font-size="26.4" fill="#00F900" transform="matrix(1.00, 0.00, -0.00, -1.00, 116.7, 462.1)">n</text><text xml:space="preserve" font-family="Courier,Courier" font-size="26.4" fill="#00F900" transform="matrix(1.00, 0.00, -0.00, -1.00, 132.5, 462.1)">c</text><text xml:space="preserve" font-family="Courier,Courier" font-size="26.4" fill="#00F900" transform="matrix(1.00, 0.00, -0.00, -1.00, 148.4, 462.1)">t</text><text xml:space="preserve" font-family="Courier,Courier" font-size="26.4" fill="#00F900" transform="matrix(1.00, 0.00, -0.00, -1.00, 164.2, 462.1)">i</text><text xml:space="preserve" font-family="Courier,Courier" font-size="26.4" fill="#00F900" transform="matrix(1.00, 0.00, -0.00, -1.00, 180.1, 462.1)">o</text><text xml:space="preserve" font-family="Courier,Courier" font-size="26.4" fill="#00F900" transform="matrix(1.00, 0.00, -0.00, -1.00, 195.9, 462.1)">n</text><text xml:space="preserve" font-family="Courier,Courier" font-size="26.4" fill="#00F900" transform="matrix(1.00, 0.00, -0.00, -1.00, 211.8, 462.1)"> </text><text xml:space="preserve" font-family="Courier,Courier" font-size="26.4" fill="#00F900" transform="matrix(1.00, 0.00, -0.00, -1.00, 227.6, 462.1)">n</text><text xml:space="preserve" font-family="Courier,Courier" font-size="26.4" fill="#00F900" transform="matrix(1.00, 0.00, -0.00, -1.00, 243.5, 462.1)">e</text><text xml:space="preserve" font-family="Courier,Courier" font-size="26.4" fill="#00F900" transform="matrix(1.00, 0.00, -0.00, -1.00, 259.3, 462.1)">x</text><text xml:space="preserve" font-family="Courier,Courier" font-size="26.4" fill="#00F900" transform="matrix(1.00, 0.00, -0.00, -1.00, 275.1, 462.1)">t</text><text xml:space="preserve" font-family="Courier,Courier" font-size="26.4" fill="#00F900" transform="matrix(1.00, 0.00, -0.00, -1.00, 291.0, 462.1)">_</text><text xml:space="preserve" font-family="Courier,Courier" font-size="26.4" fill="#00F900" transform="matrix(1.00, 0.00, -0.00, -1.00, 306.8, 462.1)">1</text><text xml:space="preserve" font-family="Courier,Courier" font-size="26.4" fill="#00F900" transform="matrix(1.00, 0.00, -0.00, -1.00, 322.7, 462.1)">0</text><text xml:space="preserve" font-family="Courier,Courier" font-size="26.4" fill="#00F900" transform="matrix(1.00, 0.00, -0.00, -1.00, 338.5, 462.1)">0</text><text xml:space="preserve" font-family="Courier,Courier" font-size="26.4" fill="#00F900" transform="matrix(1.00, 0.00, -0.00, -1.00, 354.4, 462.1)">0</text><text xml:space="preserve" font-family="Courier,Courier" font-size="26.4" fill="#00F900" transform="matrix(1.00, 0.00, -0.00, -1.00, 370.2, 462.1)">(</text><text xml:space="preserve" font-family="Courier,Courier" font-size="26.4" fill="#00F900" transform="matrix(1.00, 0.00, -0.00, -1.00, 386.0, 462.1)">)</text><text xml:space="preserve" font-family="Courier,Courier" font-size="26.4" fill="#00F900" transform="matrix(1.00, 0.00, -0.00, -1.00, 401.9, 462.1)"> </text><text xml:space="preserve" font-family="Courier,Courier" font-size="26.4" fill="#00F900" transform="matrix(1.00, 0.00, -0.00, -1.00, 417.7, 462.1)">{</text><text xml:space="preserve" font-family="Courier,Courier" font-size="26.4" fill="#FF9200" transform="matrix(1.00, 0.00, -0.00, -1.00, 85.0, 422.0)"> </text><text xml:space="preserve" font-family="Courier,Courier" font-size="26.4" fill="#FF9200" transform="matrix(1.00, 0.00, -0.00, -1.00, 100.8, 422.0)"> </text><text xml:space="preserve" font-family="Courier,Courier" font-size="26.4" fill="#FF9200" transform="matrix(1.00, 0.00, -0.00, -1.00, 116.7, 422.0)">/</text><text xml:space="preserve" font-family="Courier,Courier" font-size="26.4" fill="#FF9200" transform="matrix(1.00, 0.00, -0.00, -1.00, 132.5, 422.0)">/</text><text xml:space="preserve" font-family="Courier,Courier" font-size="26.4" fill="#FF9200" transform="matrix(1.00, 0.00, -0.00, -1.00, 148.4, 422.0)"> </text><text xml:space="preserve" font-family="Courier,Courier" font-size="26.4" fill="#FF9200" transform="matrix(1.00, 0.00, -0.00, -1.00, 164.2, 422.0)">a</text><text xml:space="preserve" font-family="Courier,Courier" font-size="26.4" fill="#FF9200" transform="matrix(1.00, 0.00, -0.00, -1.00, 180.1, 422.0)">d</text><text xml:space="preserve" font-family="Courier,Courier" font-size="26.4" fill="#FF9200" transform="matrix(1.00, 0.00, -0.00, -1.00, 195.9, 422.0)">d</text><text xml:space="preserve" font-family="Courier,Courier" font-size="26.4" fill="#FF9200" transform="matrix(1.00, 0.00, -0.00, -1.00, 211.8, 422.0)"> </text><text xml:space="preserve" font-family="Courier,Courier" font-size="26.4" fill="#FF9200" transform="matrix(1.00, 0.00, -0.00, -1.00, 227.6, 422.0)">1</text><text xml:space="preserve" font-family="Courier,Courier" font-size="26.4" fill="#FF9200" transform="matrix(1.00, 0.00, -0.00, -1.00, 243.5, 422.0)">0</text><text xml:space="preserve" font-family="Courier,Courier" font-size="26.4" fill="#FF9200" transform="matrix(1.00, 0.00, -0.00, -1.00, 259.3, 422.0)">0</text><text xml:space="preserve" font-family="Courier,Courier" font-size="26.4" fill="#FF9200" transform="matrix(1.00, 0.00, -0.00, -1.00, 275.1, 422.0)">0</text><text xml:space="preserve" font-family="Courier,Courier" font-size="26.4" fill="#FF9200" transform="matrix(1.00, 0.00, -0.00, -1.00, 291.0, 422.0)"> </text><text xml:space="preserve" font-family="Courier,Courier" font-size="26.4" fill="#FF9200" transform="matrix(1.00, 0.00, -0.00, -1.00, 306.8, 422.0)">t</text><text xml:space="preserve" font-family="Courier,Courier" font-size="26.4" fill="#FF9200" transform="matrix(1.00, 0.00, -0.00, -1.00, 322.7, 422.0)">o</text><text xml:space="preserve" font-family="Courier,Courier" font-size="26.4" fill="#FF9200" transform="matrix(1.00, 0.00, -0.00, -1.00, 338.5, 422.0)"> </text><text xml:space="preserve" font-family="Courier,Courier" font-size="26.4" fill="#FF9200" transform="matrix(1.00, 0.00, -0.00, -1.00, 354.4, 422.0)">i</text><text xml:space="preserve" font-family="Courier,Courier" font-size="26.4" fill="#FF9200" transform="matrix(1.00, 0.00, -0.00, -1.00, 85.0, 382.0)"> </text><text xml:space="preserve" font-family="Courier,Courier" font-size="26.4" fill="#FF9200" transform="matrix(1.00, 0.00, -0.00, -1.00, 100.8, 382.0)"> </text><text xml:space="preserve" font-family="Courier,Courier" font-size="26.4" fill="#FF9200" transform="matrix(1.00, 0.00, -0.00, -1.00, 116.7, 382.0)">v</text><text xml:space="preserve" font-family="Courier,Courier" font-size="26.4" fill="#FF9200" transform="matrix(1.00, 0.00, -0.00, -1.00, 132.5, 382.0)">a</text><text xml:space="preserve" font-family="Courier,Courier" font-size="26.4" fill="#FF9200" transform="matrix(1.00, 0.00, -0.00, -1.00, 148.4, 382.0)">r</text><text xml:space="preserve" font-family="Courier,Courier" font-size="26.4" fill="#FF9200" transform="matrix(1.00, 0.00, -0.00, -1.00, 164.2, 382.0)"> </text><text xml:space="preserve" font-family="Courier,Courier" font-size="26.4" fill="#FF9200" transform="matrix(1.00, 0.00, -0.00, -1.00, 180.1, 382.0)">j</text><text xml:space="preserve" font-family="Courier,Courier" font-size="26.4" fill="#FF9200" transform="matrix(1.00, 0.00, -0.00, -1.00, 195.9, 382.0)"> </text><text xml:space="preserve" font-family="Courier,Courier" font-size="26.4" fill="#FF9200" transform="matrix(1.00, 0.00, -0.00, -1.00, 211.8, 382.0)">=</text><text xml:space="preserve" font-family="Courier,Courier" font-size="26.4" fill="#FF9200" transform="matrix(1.00, 0.00, -0.00, -1.00, 227.6, 382.0)"> </text><text xml:space="preserve" font-family="Courier,Courier" font-size="26.4" fill="#FF9200" transform="matrix(1.00, 0.00, -0.00, -1.00, 243.5, 382.0)">0</text><text xml:space="preserve" font-family="Courier,Courier" font-size="26.4" fill="#FF9200" transform="matrix(1.00, 0.00, -0.00, -1.00, 85.0, 341.9)"> </text><text xml:space="preserve" font-family="Courier,Courier" font-size="26.4" fill="#FF9200" transform="matrix(1.00, 0.00, -0.00, -1.00, 100.8, 341.9)"> </text><text xml:space="preserve" font-family="Courier,Courier" font-size="26.4" fill="#FF9200" transform="matrix(1.00, 0.00, -0.00, -1.00, 116.7, 341.9)">w</text><text xml:space="preserve" font-family="Courier,Courier" font-size="26.4" fill="#FF9200" transform="matrix(1.00, 0.00, -0.00, -1.00, 132.5, 341.9)">h</text><text xml:space="preserve" font-family="Courier,Courier" font-size="26.4" fill="#FF9200" transform="matrix(1.00, 0.00, -0.00, -1.00, 148.4, 341.9)">i</text><text xml:space="preserve" font-family="Courier,Courier" font-size="26.4" fill="#FF9200" transform="matrix(1.00, 0.00, -0.00, -1.00, 164.2, 341.9)">l</text><text xml:space="preserve" font-family="Courier,Courier" font-size="26.4" fill="#FF9200" transform="matrix(1.00, 0.00, -0.00, -1.00, 180.1, 341.9)">e</text><text xml:space="preserve" font-family="Courier,Courier" font-size="26.4" fill="#FF9200" transform="matrix(1.00, 0.00, -0.00, -1.00, 195.9, 341.9)"> </text><text xml:space="preserve" font-family="Courier,Courier" font-size="26.4" fill="#FF9200" transform="matrix(1.00, 0.00, -0.00, -1.00, 211.8, 341.9)">(</text><text xml:space="preserve" font-family="Courier,Courier" font-size="26.4" fill="#FF9200" transform="matrix(1.00, 0.00, -0.00, -1.00, 227.6, 341.9)">j</text><text xml:space="preserve" font-family="Courier,Courier" font-size="26.4" fill="#FF9200" transform="matrix(1.00, 0.00, -0.00, -1.00, 243.5, 341.9)">+</text><text xml:space="preserve" font-family="Courier,Courier" font-size="26.4" fill="#FF9200" transform="matrix(1.00, 0.00, -0.00, -1.00, 259.3, 341.9)">+</text><text xml:space="preserve" font-family="Courier,Courier" font-size="26.4" fill="#FF9200" transform="matrix(1.00, 0.00, -0.00, -1.00, 275.1, 341.9)"> </text><text xml:space="preserve" font-family="Courier,Courier" font-size="26.4" fill="#FF9200" transform="matrix(1.00, 0.00, -0.00, -1.00, 291.0, 341.9)">&lt;</text><text xml:space="preserve" font-family="Courier,Courier" font-size="26.4" fill="#FF9200" transform="matrix(1.00, 0.00, -0.00, -1.00, 306.8, 341.9)"> </text><text xml:space="preserve" font-family="Courier,Courier" font-size="26.4" fill="#FF9200" transform="matrix(1.00, 0.00, -0.00, -1.00, 322.7, 341.9)">1</text><text xml:space="preserve" font-family="Courier,Courier" font-size="26.4" fill="#FF9200" transform="matrix(1.00, 0.00, -0.00, -1.00, 338.5, 341.9)">0</text><text xml:space="preserve" font-family="Courier,Courier" font-size="26.4" fill="#FF9200" transform="matrix(1.00, 0.00, -0.00, -1.00, 354.4, 341.9)">0</text><text xml:space="preserve" font-family="Courier,Courier" font-size="26.4" fill="#FF9200" transform="matrix(1.00, 0.00, -0.00, -1.00, 370.2, 341.9)">0</text><text xml:space="preserve" font-family="Courier,Courier" font-size="26.4" fill="#FF9200" transform="matrix(1.00, 0.00, -0.00, -1.00, 386.1, 341.9)">)</text><text xml:space="preserve" font-family="Courier,Courier" font-size="26.4" fill="#FF9200" transform="matrix(1.00, 0.00, -0.00, -1.00, 401.9, 341.9)"> </text><text xml:space="preserve" font-family="Courier,Courier" font-size="26.4" fill="#FF9200" transform="matrix(1.00, 0.00, -0.00, -1.00, 417.7, 341.9)">{</text><text xml:space="preserve" font-family="Courier,Courier" font-size="26.4" fill="#FF9200" transform="matrix(1.00, 0.00, -0.00, -1.00, 85.0, 301.9)"> </text><text xml:space="preserve" font-family="Courier,Courier" font-size="26.4" fill="#FF9200" transform="matrix(1.00, 0.00, -0.00, -1.00, 100.8, 301.9)"> </text><text xml:space="preserve" font-family="Courier,Courier" font-size="26.4" fill="#FF9200" transform="matrix(1.00, 0.00, -0.00, -1.00, 116.7, 301.9)"> </text><text xml:space="preserve" font-family="Courier,Courier" font-size="26.4" fill="#FF9200" transform="matrix(1.00, 0.00, -0.00, -1.00, 132.5, 301.9)"> </text><text xml:space="preserve" font-family="Courier,Courier" font-size="26.4" fill="#FF9200" transform="matrix(1.00, 0.00, -0.00, -1.00, 148.4, 301.9)">i</text><text xml:space="preserve" font-family="Courier,Courier" font-size="26.4" fill="#FF9200" transform="matrix(1.00, 0.00, -0.00, -1.00, 164.2, 301.9)">+</text><text xml:space="preserve" font-family="Courier,Courier" font-size="26.4" fill="#FF9200" transform="matrix(1.00, 0.00, -0.00, -1.00, 180.1, 301.9)">+</text><text xml:space="preserve" font-family="Courier,Courier" font-size="26.4" fill="#FF9200" transform="matrix(1.00, 0.00, -0.00, -1.00, 85.0, 261.8)"> </text><text xml:space="preserve" font-family="Courier,Courier" font-size="26.4" fill="#FF9200" transform="matrix(1.00, 0.00, -0.00, -1.00, 100.8, 261.8)"> </text><text xml:space="preserve" font-family="Courier,Courier" font-size="26.4" fill="#FF9200" transform="matrix(1.00, 0.00, -0.00, -1.00, 116.7, 261.8)">}</text><text xml:space="preserve" font-family="Courier,Courier" font-size="26.4" fill="#0432FF" transform="matrix(1.00, 0.00, -0.00, -1.00, 85.0, 181.7)"> </text><text xml:space="preserve" font-family="Courier,Courier" font-size="26.4" fill="#0432FF" transform="matrix(1.00, 0.00, -0.00, -1.00, 100.8, 181.7)"> </text><text xml:space="preserve" font-family="Courier,Courier" font-size="26.4" fill="#0432FF" transform="matrix(1.00, 0.00, -0.00, -1.00, 116.7, 181.7)">/</text><text xml:space="preserve" font-family="Courier,Courier" font-size="26.4" fill="#0432FF" transform="matrix(1.00, 0.00, -0.00, -1.00, 132.5, 181.7)">/</text><text xml:space="preserve" font-family="Courier,Courier" font-size="26.4" fill="#0432FF" transform="matrix(1.00, 0.00, -0.00, -1.00, 148.4, 181.7)"> </text><text xml:space="preserve" font-family="Courier,Courier" font-size="26.4" fill="#0432FF" transform="matrix(1.00, 0.00, -0.00, -1.00, 164.2, 181.7)">a</text><text xml:space="preserve" font-family="Courier,Courier" font-size="26.4" fill="#0432FF" transform="matrix(1.00, 0.00, -0.00, -1.00, 180.1, 181.7)">d</text><text xml:space="preserve" font-family="Courier,Courier" font-size="26.4" fill="#0432FF" transform="matrix(1.00, 0.00, -0.00, -1.00, 195.9, 181.7)">d</text><text xml:space="preserve" font-family="Courier,Courier" font-size="26.4" fill="#0432FF" transform="matrix(1.00, 0.00, -0.00, -1.00, 211.8, 181.7)"> </text><text xml:space="preserve" font-family="Courier,Courier" font-size="26.4" fill="#0432FF" transform="matrix(1.00, 0.00, -0.00, -1.00, 227.6, 181.7)">a</text><text xml:space="preserve" font-family="Courier,Courier" font-size="26.4" fill="#0432FF" transform="matrix(1.00, 0.00, -0.00, -1.00, 243.5, 181.7)">n</text><text xml:space="preserve" font-family="Courier,Courier" font-size="26.4" fill="#0432FF" transform="matrix(1.00, 0.00, -0.00, -1.00, 259.3, 181.7)">o</text><text xml:space="preserve" font-family="Courier,Courier" font-size="26.4" fill="#0432FF" transform="matrix(1.00, 0.00, -0.00, -1.00, 275.1, 181.7)">t</text><text xml:space="preserve" font-family="Courier,Courier" font-size="26.4" fill="#0432FF" transform="matrix(1.00, 0.00, -0.00, -1.00, 291.0, 181.7)">h</text><text xml:space="preserve" font-family="Courier,Courier" font-size="26.4" fill="#0432FF" transform="matrix(1.00, 0.00, -0.00, -1.00, 306.8, 181.7)">e</text><text xml:space="preserve" font-family="Courier,Courier" font-size="26.4" fill="#0432FF" transform="matrix(1.00, 0.00, -0.00, -1.00, 322.7, 181.7)">r</text><text xml:space="preserve" font-family="Courier,Courier" font-size="26.4" fill="#0432FF" transform="matrix(1.00, 0.00, -0.00, -1.00, 338.5, 181.7)"> </text><text xml:space="preserve" font-family="Courier,Courier" font-size="26.4" fill="#0432FF" transform="matrix(1.00, 0.00, -0.00, -1.00, 354.4, 181.7)">1</text><text xml:space="preserve" font-family="Courier,Courier" font-size="26.4" fill="#0432FF" transform="matrix(1.00, 0.00, -0.00, -1.00, 370.2, 181.7)">0</text><text xml:space="preserve" font-family="Courier,Courier" font-size="26.4" fill="#0432FF" transform="matrix(1.00, 0.00, -0.00, -1.00, 386.1, 181.7)">0</text><text xml:space="preserve" font-family="Courier,Courier" font-size="26.4" fill="#0432FF" transform="matrix(1.00, 0.00, -0.00, -1.00, 401.9, 181.7)">0</text><text xml:space="preserve" font-family="Courier,Courier" font-size="26.4" fill="#0432FF" transform="matrix(1.00, 0.00, -0.00, -1.00, 417.7, 181.7)"> </text><text xml:space="preserve" font-family="Courier,Courier" font-size="26.4" fill="#0432FF" transform="matrix(1.00, 0.00, -0.00, -1.00, 433.6, 181.7)">a</text><text xml:space="preserve" font-family="Courier,Courier" font-size="26.4" fill="#0432FF" transform="matrix(1.00, 0.00, -0.00, -1.00, 449.4, 181.7)">f</text><text xml:space="preserve" font-family="Courier,Courier" font-size="26.4" fill="#0432FF" transform="matrix(1.00, 0.00, -0.00, -1.00, 465.3, 181.7)">t</text><text xml:space="preserve" font-family="Courier,Courier" font-size="26.4" fill="#0432FF" transform="matrix(1.00, 0.00, -0.00, -1.00, 481.1, 181.7)">e</text><text xml:space="preserve" font-family="Courier,Courier" font-size="26.4" fill="#0432FF" transform="matrix(1.00, 0.00, -0.00, -1.00, 497.0, 181.7)">r</text><text xml:space="preserve" font-family="Courier,Courier" font-size="26.4" fill="#0432FF" transform="matrix(1.00, 0.00, -0.00, -1.00, 512.8, 181.7)"> </text><text xml:space="preserve" font-family="Courier,Courier" font-size="26.4" fill="#0432FF" transform="matrix(1.00, 0.00, -0.00, -1.00, 528.7, 181.7)">w</text><text xml:space="preserve" font-family="Courier,Courier" font-size="26.4" fill="#0432FF" transform="matrix(1.00, 0.00, -0.00, -1.00, 544.5, 181.7)">e</text><text xml:space="preserve" font-family="Courier,Courier" font-size="26.4" fill="#0432FF" transform="matrix(1.00, 0.00, -0.00, -1.00, 560.4, 181.7)"> </text><text xml:space="preserve" font-family="Courier,Courier" font-size="26.4" fill="#0432FF" transform="matrix(1.00, 0.00, -0.00, -1.00, 576.2, 181.7)">y</text><text xml:space="preserve" font-family="Courier,Courier" font-size="26.4" fill="#0432FF" transform="matrix(1.00, 0.00, -0.00, -1.00, 592.0, 181.7)">i</text><text xml:space="preserve" font-family="Courier,Courier" font-size="26.4" fill="#0432FF" transform="matrix(1.00, 0.00, -0.00, -1.00, 607.9, 181.7)">e</text><text xml:space="preserve" font-family="Courier,Courier" font-size="26.4" fill="#0432FF" transform="matrix(1.00, 0.00, -0.00, -1.00, 623.7, 181.7)">l</text><text xml:space="preserve" font-family="Courier,Courier" font-size="26.4" fill="#0432FF" transform="matrix(1.00, 0.00, -0.00, -1.00, 639.6, 181.7)">d</text><text xml:space="preserve" font-family="Courier,Courier" font-size="26.4" fill="#0432FF" transform="matrix(1.00, 0.00, -0.00, -1.00, 655.4, 181.7)"> </text><text xml:space="preserve" font-family="Courier,Courier" font-size="26.4" fill="#0432FF" transform="matrix(1.00, 0.00, -0.00, -1.00, 671.3, 181.7)">t</text><text xml:space="preserve" font-family="Courier,Courier" font-size="26.4" fill="#0432FF" transform="matrix(1.00, 0.00, -0.00, -1.00, 687.1, 181.7)">h</text><text xml:space="preserve" font-family="Courier,Courier" font-size="26.4" fill="#0432FF" transform="matrix(1.00, 0.00, -0.00, -1.00, 703.0, 181.7)">e</text><text xml:space="preserve" font-family="Courier,Courier" font-size="26.4" fill="#0432FF" transform="matrix(1.00, 0.00, -0.00, -1.00, 718.8, 181.7)"> </text><text xml:space="preserve" font-family="Courier,Courier" font-size="26.4" fill="#0432FF" transform="matrix(1.00, 0.00, -0.00, -1.00, 734.7, 181.7)">e</text><text xml:space="preserve" font-family="Courier,Courier" font-size="26.4" fill="#0432FF" transform="matrix(1.00, 0.00, -0.00, -1.00, 750.5, 181.7)">v</text><text xml:space="preserve" font-family="Courier,Courier" font-size="26.4" fill="#0432FF" transform="matrix(1.00, 0.00, -0.00, -1.00, 766.3, 181.7)">e</text><text xml:space="preserve" font-family="Courier,Courier" font-size="26.4" fill="#0432FF" transform="matrix(1.00, 0.00, -0.00, -1.00, 782.2, 181.7)">n</text><text xml:space="preserve" font-family="Courier,Courier" font-size="26.4" fill="#0432FF" transform="matrix(1.00, 0.00, -0.00, -1.00, 798.0, 181.7)">t</text><text xml:space="preserve" font-family="Courier,Courier" font-size="26.4" fill="#0432FF" transform="matrix(1.00, 0.00, -0.00, -1.00, 813.9, 181.7)"> </text><text xml:space="preserve" font-family="Courier,Courier" font-size="26.4" fill="#0432FF" transform="matrix(1.00, 0.00, -0.00, -1.00, 829.7, 181.7)">l</text><text xml:space="preserve" font-family="Courier,Courier" font-size="26.4" fill="#0432FF" transform="matrix(1.00, 0.00, -0.00, -1.00, 845.6, 181.7)">o</text><text xml:space="preserve" font-family="Courier,Courier" font-size="26.4" fill="#0432FF" transform="matrix(1.00, 0.00, -0.00, -1.00, 861.4, 181.7)">o</text><text xml:space="preserve" font-family="Courier,Courier" font-size="26.4" fill="#0432FF" transform="matrix(1.00, 0.00, -0.00, -1.00, 877.3, 181.7)">p</text><text xml:space="preserve" font-family="Courier,Courier" font-size="26.4" fill="#0432FF" transform="matrix(1.00, 0.00, -0.00, -1.00, 85.0, 141.6)"> </text><text xml:space="preserve" font-family="Courier,Courier" font-size="26.4" fill="#0432FF" transform="matrix(1.00, 0.00, -0.00, -1.00, 100.8, 141.6)"> </text><text xml:space="preserve" font-family="Courier,Courier" font-size="26.4" fill="#0432FF" transform="matrix(1.00, 0.00, -0.00, -1.00, 116.7, 141.6)">s</text><text xml:space="preserve" font-family="Courier,Courier" font-size="26.4" fill="#0432FF" transform="matrix(1.00, 0.00, -0.00, -1.00, 132.5, 141.6)">e</text><text xml:space="preserve" font-family="Courier,Courier" font-size="26.4" fill="#0432FF" transform="matrix(1.00, 0.00, -0.00, -1.00, 148.4, 141.6)">t</text><text xml:space="preserve" font-family="Courier,Courier" font-size="26.4" fill="#0432FF" transform="matrix(1.00, 0.00, -0.00, -1.00, 164.2, 141.6)">T</text><text xml:space="preserve" font-family="Courier,Courier" font-size="26.4" fill="#0432FF" transform="matrix(1.00, 0.00, -0.00, -1.00, 180.1, 141.6)">i</text><text xml:space="preserve" font-family="Courier,Courier" font-size="26.4" fill="#0432FF" transform="matrix(1.00, 0.00, -0.00, -1.00, 195.9, 141.6)">m</text><text xml:space="preserve" font-family="Courier,Courier" font-size="26.4" fill="#0432FF" transform="matrix(1.00, 0.00, -0.00, -1.00, 211.8, 141.6)">e</text><text xml:space="preserve" font-family="Courier,Courier" font-size="26.4" fill="#0432FF" transform="matrix(1.00, 0.00, -0.00, -1.00, 227.6, 141.6)">o</text><text xml:space="preserve" font-family="Courier,Courier" font-size="26.4" fill="#0432FF" transform="matrix(1.00, 0.00, -0.00, -1.00, 243.5, 141.6)">u</text><text xml:space="preserve" font-family="Courier,Courier" font-size="26.4" fill="#0432FF" transform="matrix(1.00, 0.00, -0.00, -1.00, 259.3, 141.6)">t</text><text xml:space="preserve" font-family="Courier,Courier" font-size="26.4" fill="#0432FF" transform="matrix(1.00, 0.00, -0.00, -1.00, 275.1, 141.6)">(</text><text xml:space="preserve" font-family="Courier,Courier" font-size="26.4" fill="#0432FF" transform="matrix(1.00, 0.00, -0.00, -1.00, 291.0, 141.6)">n</text><text xml:space="preserve" font-family="Courier,Courier" font-size="26.4" fill="#0432FF" transform="matrix(1.00, 0.00, -0.00, -1.00, 306.8, 141.6)">e</text><text xml:space="preserve" font-family="Courier,Courier" font-size="26.4" fill="#0432FF" transform="matrix(1.00, 0.00, -0.00, -1.00, 322.7, 141.6)">x</text><text xml:space="preserve" font-family="Courier,Courier" font-size="26.4" fill="#0432FF" transform="matrix(1.00, 0.00, -0.00, -1.00, 338.5, 141.6)">t</text><text xml:space="preserve" font-family="Courier,Courier" font-size="26.4" fill="#0432FF" transform="matrix(1.00, 0.00, -0.00, -1.00, 354.4, 141.6)">_</text><text xml:space="preserve" font-family="Courier,Courier" font-size="26.4" fill="#0432FF" transform="matrix(1.00, 0.00, -0.00, -1.00, 370.2, 141.6)">1</text><text xml:space="preserve" font-family="Courier,Courier" font-size="26.4" fill="#0432FF" transform="matrix(1.00, 0.00, -0.00, -1.00, 386.1, 141.6)">0</text><text xml:space="preserve" font-family="Courier,Courier" font-size="26.4" fill="#0432FF" transform="matrix(1.00, 0.00, -0.00, -1.00, 401.9, 141.6)">0</text><text xml:space="preserve" font-family="Courier,Courier" font-size="26.4" fill="#0432FF" transform="matrix(1.00, 0.00, -0.00, -1.00, 417.7, 141.6)">0</text><text xml:space="preserve" font-family="Courier,Courier" font-size="26.4" fill="#0432FF" transform="matrix(1.00, 0.00, -0.00, -1.00, 433.5, 141.6)">,</text><text xml:space="preserve" font-family="Courier,Courier" font-size="26.4" fill="#0432FF" transform="matrix(1.00, 0.00, -0.00, -1.00, 449.4, 141.6)"> </text><text xml:space="preserve" font-family="Courier,Courier" font-size="26.4" fill="#0432FF" transform="matrix(1.00, 0.00, -0.00, -1.00, 465.2, 141.6)">1</text><text xml:space="preserve" font-family="Courier,Courier" font-size="26.4" fill="#0432FF" transform="matrix(1.00, 0.00, -0.00, -1.00, 481.1, 141.6)">0</text><text xml:space="preserve" font-family="Courier,Courier" font-size="26.4" fill="#0432FF" transform="matrix(1.00, 0.00, -0.00, -1.00, 496.9, 141.6)">0</text><text xml:space="preserve" font-family="Courier,Courier" font-size="26.4" fill="#0432FF" transform="matrix(1.00, 0.00, -0.00, -1.00, 512.8, 141.6)">)</text><text xml:space="preserve" font-family="Courier,Courier" font-size="26.4" fill="#00F900" transform="matrix(1.00, 0.00, -0.00, -1.00, 85.0, 101.6)">}</text></g></svg>