<?xml version="1.0" encoding="UTF-8" standalone="no"?><svg xmlns="http://www.w3.org/2000/svg" xmlns:xlink="http://www.w3.org/1999/xlink" clip-rule="evenodd" stroke-miterlimit="10" viewBox="0 0 1024 768"><desc>SVG generated by Keynote</desc><defs></defs><g transform="matrix(1.00, 0.00, -0.00, -1.00, 0.0, 768.0)"><path d="M 0.0 768.0 L 1024.0 768.0 L 1024.0 0.0 L 0.0 0.0 Z M 0.0 768.0 " fill="#000000"></path><text xml:space="preserve" font-family="Helvetica-Light,Helvetica" font-size="80.0" fill="#FEFFFF" transform="matrix(1.00, 0.00, -0.00, -1.00, 400.9, 633.4)">S</text><text xml:space="preserve" font-family="Helvetica-Light,Helvetica" font-size="80.0" fill="#FEFFFF" transform="matrix(1.00, 0.00, -0.00, -1.00, 449.8, 633.4)">e</text><text xml:space="preserve" font-family="Helvetica-Light,Helvetica" font-size="80.0" fill="#FEFFFF" transform="matrix(1.00, 0.00, -0.00, -1.00, 494.2, 633.4)">r</text><text xml:space="preserve" font-family="Helvetica-Light,Helvetica" font-size="80.0" fill="#FEFFFF" transform="matrix(1.00, 0.00, -0.00, -1.00, 520.9, 633.4)">i</text><text xml:space="preserve" font-family="Helvetica-Light,Helvetica" font-size="80.0" fill="#FEFFFF" transform="matrix(1.00, 0.00, -0.00, -1.00, 538.6, 633.4)">e</text><text xml:space="preserve" font-family="Helvetica-Light,Helvetica" font-size="80.0" fill="#FEFFFF" transform="matrix(1.00, 0.00, -0.00, -1.00, 583.1, 633.4)">s</text><text xml:space="preserve" font-family="Courier,Courier" font-size="38.0" fill="#FEFFFF" transform="matrix(1.00, 0.00, -0.00, -1.00, 79.0, 515.7)">.</text><text xml:space="preserve" font-family="Courier,Courier" font-size="38.0" fill="#FEFFFF" transform="matrix(1.00, 0.00, -0.00, -1.00, 101.8, 515.7)">t</text><text xml:space="preserve" font-family="Courier,Courier" font-size="38.0" fill="#FEFFFF" transform="matrix(1.00, 0.00, -0.00, -1.00, 124.6, 515.7)">h</text><text xml:space="preserve" font-family="Courier,Courier" font-size="38.0" fill="#FEFFFF" transform="matrix(1.00, 0.00, -0.00, -1.00, 147.4, 515.7)">e</text><text xml:space="preserve" font-family="Courier,Courier" font-size="38.0" fill="#FEFFFF" transform="matrix(1.00, 0.00, -0.00, -1.00, 170.2, 515.7)">n</text><text xml:space="preserve" font-family="Courier,Courier" font-size="38.0" fill="#FEFFFF" transform="matrix(1.00, 0.00, -0.00, -1.00, 193.0, 515.7)">(</text><text xml:space="preserve" font-family="Courier,Courier" font-size="38.0" fill="#FEFFFF" transform="matrix(1.00, 0.00, -0.00, -1.00, 215.8, 515.7)">)</text><text xml:space="preserve" font-family="Helvetica-Light,Helvetica" font-size="38.0" fill="#FEFFFF" transform="matrix(1.00, 0.00, -0.00, -1.00, 238.6, 515.7)"> </text><text xml:space="preserve" font-family="Helvetica-Light,Helvetica" font-size="38.0" fill="#FEFFFF" transform="matrix(1.00, 0.00, -0.00, -1.00, 249.2, 515.7)">a</text><text xml:space="preserve" font-family="Helvetica-Light,Helvetica" font-size="38.0" fill="#FEFFFF" transform="matrix(1.00, 0.00, -0.00, -1.00, 270.3, 515.7)">n</text><text xml:space="preserve" font-family="Helvetica-Light,Helvetica" font-size="38.0" fill="#FEFFFF" transform="matrix(1.00, 0.00, -0.00, -1.00, 291.4, 515.7)">d</text><text xml:space="preserve" font-family="Helvetica-Light,Helvetica" font-size="38.0" fill="#FEFFFF" transform="matrix(1.00, 0.00, -0.00, -1.00, 314.7, 515.7)"> </text><text xml:space="preserve" font-family="Courier,Courier" font-size="38.0" fill="#FEFFFF" transform="matrix(1.00, 0.00, -0.00, -1.00, 325.2, 515.7)">.</text><text xml:space="preserve" font-family="Courier,Courier" font-size="38.0" fill="#FEFFFF" transform="matrix(1.00, 0.00, -0.00, -1.00, 348.0, 515.7)">c</text><text xml:space="preserve" font-family="Courier,Courier" font-size="38.0" fill="#FEFFFF" transform="matrix(1.00, 0.00, -0.00, -1.00, 370.8, 515.7)">a</text><text xml:space="preserve" font-family="Courier,Courier" font-size="38.0" fill="#FEFFFF" transform="matrix(1.00, 0.00, -0.00, -1.00, 393.7, 515.7)">t</text><text xml:space="preserve" font-family="Courier,Courier" font-size="38.0" fill="#FEFFFF" transform="matrix(1.00, 0.00, -0.00, -1.00, 416.5, 515.7)">c</text><text xml:space="preserve" font-family="Courier,Courier" font-size="38.0" fill="#FEFFFF" transform="matrix(1.00, 0.00, -0.00, -1.00, 439.3, 515.7)">h</text><text xml:space="preserve" font-family="Courier,Courier" font-size="38.0" fill="#FEFFFF" transform="matrix(1.00, 0.00, -0.00, -1.00, 462.1, 515.7)">(</text><text xml:space="preserve" font-family="Courier,Courier" font-size="38.0" fill="#FEFFFF" transform="matrix(1.00, 0.00, -0.00, -1.00, 484.9, 515.7)">)</text><text xml:space="preserve" font-family="Helvetica-Light,Helvetica" font-size="38.0" fill="#FEFFFF" transform="matrix(1.00, 0.00, -0.00, -1.00, 507.7, 515.7)"> </text><text xml:space="preserve" font-family="Helvetica-Light,Helvetica" font-size="38.0" fill="#FEFFFF" transform="matrix(1.00, 0.00, -0.00, -1.00, 518.2, 515.7)">w</text><text xml:space="preserve" font-family="Helvetica-Light,Helvetica" font-size="38.0" fill="#FEFFFF" transform="matrix(1.00, 0.00, -0.00, -1.00, 545.7, 515.7)">i</text><text xml:space="preserve" font-family="Helvetica-Light,Helvetica" font-size="38.0" fill="#FEFFFF" transform="matrix(1.00, 0.00, -0.00, -1.00, 554.1, 515.7)">l</text><text xml:space="preserve" font-family="Helvetica-Light,Helvetica" font-size="38.0" fill="#FEFFFF" transform="matrix(1.00, 0.00, -0.00, -1.00, 562.5, 515.7)">l</text><text xml:space="preserve" font-family="Helvetica-Light,Helvetica" font-size="38.0" fill="#FEFFFF" transform="matrix(1.00, 0.00, -0.00, -1.00, 571.0, 515.7)"> </text><text xml:space="preserve" font-family="Helvetica-Light,Helvetica" font-size="38.0" fill="#FEFFFF" transform="matrix(1.00, 0.00, -0.00, -1.00, 581.5, 515.7)">r</text><text xml:space="preserve" font-family="Helvetica-Light,Helvetica" font-size="38.0" fill="#FEFFFF" transform="matrix(1.00, 0.00, -0.00, -1.00, 593.5, 515.7)">e</text><text xml:space="preserve" font-family="Helvetica-Light,Helvetica" font-size="38.0" fill="#FEFFFF" transform="matrix(1.00, 0.00, -0.00, -1.00, 614.6, 515.7)">s</text><text xml:space="preserve" font-family="Helvetica-Light,Helvetica" font-size="38.0" fill="#FEFFFF" transform="matrix(1.00, 0.00, -0.00, -1.00, 633.6, 515.7)">o</text><text xml:space="preserve" font-family="Helvetica-Light,Helvetica" font-size="38.0" fill="#FEFFFF" transform="matrix(1.00, 0.00, -0.00, -1.00, 654.8, 515.7)">l</text><text xml:space="preserve" font-family="Helvetica-Light,Helvetica" font-size="38.0" fill="#FEFFFF" transform="matrix(1.00, 0.00, -0.00, -1.00, 663.2, 515.7)">v</text><text xml:space="preserve" font-family="Helvetica-Light,Helvetica" font-size="38.0" fill="#FEFFFF" transform="matrix(1.00, 0.00, -0.00, -1.00, 682.2, 515.7)">e</text><text xml:space="preserve" font-family="Helvetica-Light,Helvetica" font-size="38.0" fill="#FEFFFF" transform="matrix(1.00, 0.00, -0.00, -1.00, 703.3, 515.7)"> </text><text xml:space="preserve" font-family="Helvetica-Light,Helvetica" font-size="38.0" fill="#FEFFFF" transform="matrix(1.00, 0.00, -0.00, -1.00, 713.9, 515.7)">t</text><text xml:space="preserve" font-family="Helvetica-Light,Helvetica" font-size="38.0" fill="#FEFFFF" transform="matrix(1.00, 0.00, -0.00, -1.00, 724.4, 515.7)">h</text><text xml:space="preserve" font-family="Helvetica-Light,Helvetica" font-size="38.0" fill="#FEFFFF" transform="matrix(1.00, 0.00, -0.00, -1.00, 745.6, 515.7)">e</text><text xml:space="preserve" font-family="Helvetica-Light,Helvetica" font-size="38.0" fill="#FEFFFF" transform="matrix(1.00, 0.00, -0.00, -1.00, 766.7, 515.7)"> </text><text xml:space="preserve" font-family="Helvetica-Light,Helvetica" font-size="38.0" fill="#FEFFFF" transform="matrix(1.00, 0.00, -0.00, -1.00, 777.3, 515.7)">p</text><text xml:space="preserve" font-family="Helvetica-Light,Helvetica" font-size="38.0" fill="#FEFFFF" transform="matrix(1.00, 0.00, -0.00, -1.00, 800.5, 515.7)">r</text><text xml:space="preserve" font-family="Helvetica-Light,Helvetica" font-size="38.0" fill="#FEFFFF" transform="matrix(1.00, 0.00, -0.00, -1.00, 812.5, 515.7)">o</text><text xml:space="preserve" font-family="Helvetica-Light,Helvetica" font-size="38.0" fill="#FEFFFF" transform="matrix(1.00, 0.00, -0.00, -1.00, 833.6, 515.7)">m</text><text xml:space="preserve" font-family="Helvetica-Light,Helvetica" font-size="38.0" fill="#FEFFFF" transform="matrix(1.00, 0.00, -0.00, -1.00, 865.2, 515.7)">i</text><text xml:space="preserve" font-family="Helvetica-Light,Helvetica" font-size="38.0" fill="#FEFFFF" transform="matrix(1.00, 0.00, -0.00, -1.00, 873.7, 515.7)">s</text><text xml:space="preserve" font-family="Helvetica-Light,Helvetica" font-size="38.0" fill="#FEFFFF" transform="matrix(1.00, 0.00, -0.00, -1.00, 892.7, 515.7)">e</text><text xml:space="preserve" font-family="Helvetica-Light,Helvetica" font-size="38.0" fill="#FEFFFF" transform="matrix(1.00, 0.00, -0.00, -1.00, 913.8, 515.7)"> </text><text xml:space="preserve" font-family="Helvetica-Light,Helvetica" font-size="38.0" fill="#FEFFFF" transform="matrix(1.00, 0.00, -0.00, -1.00, 924.4, 515.7)">i</text><text xml:space="preserve" font-family="Helvetica-Light,Helvetica" font-size="38.0" fill="#FEFFFF" transform="matrix(1.00, 0.00, -0.00, -1.00, 932.8, 515.7)">f</text><text xml:space="preserve" font-family="Helvetica-Light,Helvetica" font-size="38.0" fill="#FEFFFF" transform="matrix(1.00, 0.00, -0.00, -1.00, 943.4, 515.7)"> </text><text xml:space="preserve" font-family="Helvetica-Light,Helvetica" font-size="38.0" fill="#FEFFFF" transform="matrix(1.00, 0.00, -0.00, -1.00, 79.0, 469.1)">i</text><text xml:space="preserve" font-family="Helvetica-Light,Helvetica" font-size="38.0" fill="#FEFFFF" transform="matrix(1.00, 0.00, -0.00, -1.00, 87.4, 469.1)">t</text><text xml:space="preserve" font-family="Helvetica-Light,Helvetica" font-size="38.0" fill="#FEFFFF" transform="matrix(1.00, 0.00, -0.00, -1.00, 98.0, 469.1)"> </text><text xml:space="preserve" font-family="Helvetica-Light,Helvetica" font-size="38.0" fill="#FEFFFF" transform="matrix(1.00, 0.00, -0.00, -1.00, 108.6, 469.1)">i</text><text xml:space="preserve" font-family="Helvetica-Light,Helvetica" font-size="38.0" fill="#FEFFFF" transform="matrix(1.00, 0.00, -0.00, -1.00, 117.0, 469.1)">s</text><text xml:space="preserve" font-family="Helvetica-Light,Helvetica" font-size="38.0" fill="#FEFFFF" transform="matrix(1.00, 0.00, -0.00, -1.00, 136.0, 469.1)"> </text><text xml:space="preserve" font-family="Helvetica-Light,Helvetica" font-size="38.0" fill="#FEFFFF" transform="matrix(1.00, 0.00, -0.00, -1.00, 146.6, 469.1)">r</text><text xml:space="preserve" font-family="Helvetica-Light,Helvetica" font-size="38.0" fill="#FEFFFF" transform="matrix(1.00, 0.00, -0.00, -1.00, 158.5, 469.1)">e</text><text xml:space="preserve" font-family="Helvetica-Light,Helvetica" font-size="38.0" fill="#FEFFFF" transform="matrix(1.00, 0.00, -0.00, -1.00, 179.7, 469.1)">t</text><text xml:space="preserve" font-family="Helvetica-Light,Helvetica" font-size="38.0" fill="#FEFFFF" transform="matrix(1.00, 0.00, -0.00, -1.00, 190.2, 469.1)">u</text><text xml:space="preserve" font-family="Helvetica-Light,Helvetica" font-size="38.0" fill="#FEFFFF" transform="matrix(1.00, 0.00, -0.00, -1.00, 211.4, 469.1)">r</text><text xml:space="preserve" font-family="Helvetica-Light,Helvetica" font-size="38.0" fill="#FEFFFF" transform="matrix(1.00, 0.00, -0.00, -1.00, 224.7, 469.1)">n</text><text xml:space="preserve" font-family="Helvetica-Light,Helvetica" font-size="38.0" fill="#FEFFFF" transform="matrix(1.00, 0.00, -0.00, -1.00, 245.8, 469.1)">e</text><text xml:space="preserve" font-family="Helvetica-Light,Helvetica" font-size="38.0" fill="#FEFFFF" transform="matrix(1.00, 0.00, -0.00, -1.00, 266.9, 469.1)">d</text><text xml:space="preserve" font-family="Helvetica-Light,Helvetica" font-size="38.0" fill="#FEFFFF" transform="matrix(1.00, 0.00, -0.00, -1.00, 290.2, 469.1)"> </text><text xml:space="preserve" font-family="Helvetica-Light,Helvetica" font-size="38.0" fill="#FEFFFF" transform="matrix(1.00, 0.00, -0.00, -1.00, 300.7, 469.1)">i</text><text xml:space="preserve" font-family="Helvetica-Light,Helvetica" font-size="38.0" fill="#FEFFFF" transform="matrix(1.00, 0.00, -0.00, -1.00, 309.2, 469.1)">n</text><text xml:space="preserve" font-family="Helvetica-Light,Helvetica" font-size="38.0" fill="#FEFFFF" transform="matrix(1.00, 0.00, -0.00, -1.00, 330.3, 469.1)">s</text><text xml:space="preserve" font-family="Helvetica-Light,Helvetica" font-size="38.0" fill="#FEFFFF" transform="matrix(1.00, 0.00, -0.00, -1.00, 349.3, 469.1)">i</text><text xml:space="preserve" font-family="Helvetica-Light,Helvetica" font-size="38.0" fill="#FEFFFF" transform="matrix(1.00, 0.00, -0.00, -1.00, 357.7, 469.1)">d</text><text xml:space="preserve" font-family="Helvetica-Light,Helvetica" font-size="38.0" fill="#FEFFFF" transform="matrix(1.00, 0.00, -0.00, -1.00, 380.9, 469.1)">e</text><text xml:space="preserve" font-family="Helvetica-Light,Helvetica" font-size="38.0" fill="#FEFFFF" transform="matrix(1.00, 0.00, -0.00, -1.00, 402.1, 469.1)"> </text><text xml:space="preserve" font-family="Helvetica-Light,Helvetica" font-size="38.0" fill="#FEFFFF" transform="matrix(1.00, 0.00, -0.00, -1.00, 412.6, 469.1)">t</text><text xml:space="preserve" font-family="Helvetica-Light,Helvetica" font-size="38.0" fill="#FEFFFF" transform="matrix(1.00, 0.00, -0.00, -1.00, 423.2, 469.1)">h</text><text xml:space="preserve" font-family="Helvetica-Light,Helvetica" font-size="38.0" fill="#FEFFFF" transform="matrix(1.00, 0.00, -0.00, -1.00, 444.3, 469.1)">e</text><text xml:space="preserve" font-family="Helvetica-Light,Helvetica" font-size="38.0" fill="#FEFFFF" transform="matrix(1.00, 0.00, -0.00, -1.00, 465.5, 469.1)"> </text><text xml:space="preserve" font-family="Helvetica-Light,Helvetica" font-size="38.0" fill="#FEFFFF" transform="matrix(1.00, 0.00, -0.00, -1.00, 476.0, 469.1)">c</text><text xml:space="preserve" font-family="Helvetica-Light,Helvetica" font-size="38.0" fill="#FEFFFF" transform="matrix(1.00, 0.00, -0.00, -1.00, 497.2, 469.1)">a</text><text xml:space="preserve" font-family="Helvetica-Light,Helvetica" font-size="38.0" fill="#FEFFFF" transform="matrix(1.00, 0.00, -0.00, -1.00, 518.3, 469.1)">l</text><text xml:space="preserve" font-family="Helvetica-Light,Helvetica" font-size="38.0" fill="#FEFFFF" transform="matrix(1.00, 0.00, -0.00, -1.00, 526.7, 469.1)">l</text><text xml:space="preserve" font-family="Helvetica-Light,Helvetica" font-size="38.0" fill="#FEFFFF" transform="matrix(1.00, 0.00, -0.00, -1.00, 535.2, 469.1)">b</text><text xml:space="preserve" font-family="Helvetica-Light,Helvetica" font-size="38.0" fill="#FEFFFF" transform="matrix(1.00, 0.00, -0.00, -1.00, 558.4, 469.1)">a</text><text xml:space="preserve" font-family="Helvetica-Light,Helvetica" font-size="38.0" fill="#FEFFFF" transform="matrix(1.00, 0.00, -0.00, -1.00, 579.5, 469.1)">c</text><text xml:space="preserve" font-family="Helvetica-Light,Helvetica" font-size="38.0" fill="#FEFFFF" transform="matrix(1.00, 0.00, -0.00, -1.00, 600.6, 469.1)">k</text><text xml:space="preserve" font-family="Helvetica-Light,Helvetica" font-size="38.0" fill="#FEFFFF" transform="matrix(1.00, 0.00, -0.00, -1.00, 619.6, 469.1)">:</text><text xml:space="preserve" font-family="Courier,Courier" font-size="30.0" fill="#FEFFFF" transform="matrix(1.00, 0.00, -0.00, -1.00, 85.0, 323.3)">P</text><text xml:space="preserve" font-family="Courier,Courier" font-size="30.0" fill="#FEFFFF" transform="matrix(1.00, 0.00, -0.00, -1.00, 103.0, 323.3)">r</text><text xml:space="preserve" font-family="Courier,Courier" font-size="30.0" fill="#FEFFFF" transform="matrix(1.00, 0.00, -0.00, -1.00, 121.1, 323.3)">o</text><text xml:space="preserve" font-family="Courier,Courier" font-size="30.0" fill="#FEFFFF" transform="matrix(1.00, 0.00, -0.00, -1.00, 139.1, 323.3)">m</text><text xml:space="preserve" font-family="Courier,Courier" font-size="30.0" fill="#FEFFFF" transform="matrix(1.00, 0.00, -0.00, -1.00, 157.1, 323.3)">i</text><text xml:space="preserve" font-family="Courier,Courier" font-size="30.0" fill="#FEFFFF" transform="matrix(1.00, 0.00, -0.00, -1.00, 175.1, 323.3)">s</text><text xml:space="preserve" font-family="Courier,Courier" font-size="30.0" fill="#FEFFFF" transform="matrix(1.00, 0.00, -0.00, -1.00, 193.1, 323.3)">e</text><text xml:space="preserve" font-family="Courier,Courier" font-size="30.0" fill="#FEFFFF" transform="matrix(1.00, 0.00, -0.00, -1.00, 211.1, 323.3)">.</text><text xml:space="preserve" font-family="Courier,Courier" font-size="30.0" fill="#FEFFFF" transform="matrix(1.00, 0.00, -0.00, -1.00, 229.1, 323.3)">r</text><text xml:space="preserve" font-family="Courier,Courier" font-size="30.0" fill="#FEFFFF" transform="matrix(1.00, 0.00, -0.00, -1.00, 247.1, 323.3)">e</text><text xml:space="preserve" font-family="Courier,Courier" font-size="30.0" fill="#FEFFFF" transform="matrix(1.00, 0.00, -0.00, -1.00, 265.1, 323.3)">s</text><text xml:space="preserve" font-family="Courier,Courier" font-size="30.0" fill="#FEFFFF" transform="matrix(1.00, 0.00, -0.00, -1.00, 283.1, 323.3)">o</text><text xml:space="preserve" font-family="Courier,Courier" font-size="30.0" fill="#FEFFFF" transform="matrix(1.00, 0.00, -0.00, -1.00, 301.1, 323.3)">l</text><text xml:space="preserve" font-family="Courier,Courier" font-size="30.0" fill="#FEFFFF" transform="matrix(1.00, 0.00, -0.00, -1.00, 319.1, 323.3)">v</text><text xml:space="preserve" font-family="Courier,Courier" font-size="30.0" fill="#FEFFFF" transform="matrix(1.00, 0.00, -0.00, -1.00, 337.1, 323.3)">e</text><text xml:space="preserve" font-family="Courier,Courier" font-size="30.0" fill="#FEFFFF" transform="matrix(1.00, 0.00, -0.00, -1.00, 355.1, 323.3)">(</text><text xml:space="preserve" font-family="Courier,Courier" font-size="30.0" fill="#FEFFFF" transform="matrix(1.00, 0.00, -0.00, -1.00, 373.1, 323.3)">)</text><text xml:space="preserve" font-family="Courier,Courier" font-size="30.0" fill="#FEFFFF" transform="matrix(1.00, 0.00, -0.00, -1.00, 391.1, 323.3)">.</text><text xml:space="preserve" font-family="Courier,Courier" font-size="30.0" fill="#E7A432" transform="matrix(1.00, 0.00, -0.00, -1.00, 409.1, 323.3)">t</text><text xml:space="preserve" font-family="Courier,Courier" font-size="30.0" fill="#E7A432" transform="matrix(1.00, 0.00, -0.00, -1.00, 427.1, 323.3)">h</text><text xml:space="preserve" font-family="Courier,Courier" font-size="30.0" fill="#E7A432" transform="matrix(1.00, 0.00, -0.00, -1.00, 445.1, 323.3)">e</text><text xml:space="preserve" font-family="Courier,Courier" font-size="30.0" fill="#E7A432" transform="matrix(1.00, 0.00, -0.00, -1.00, 463.1, 323.3)">n</text><text xml:space="preserve" font-family="Courier,Courier" font-size="30.0" fill="#FEFFFF" transform="matrix(1.00, 0.00, -0.00, -1.00, 481.1, 323.3)">(</text><text xml:space="preserve" font-family="Courier,Courier" font-size="30.0" fill="#FEFFFF" transform="matrix(1.00, 0.00, -0.00, -1.00, 499.1, 323.3)">)</text><text xml:space="preserve" font-family="Courier,Courier" font-size="30.0" fill="#FEFFFF" transform="matrix(1.00, 0.00, -0.00, -1.00, 517.1, 323.3)"> </text><text xml:space="preserve" font-family="Courier,Courier" font-size="30.0" fill="#FEFFFF" transform="matrix(1.00, 0.00, -0.00, -1.00, 535.1, 323.3)">{</text><text xml:space="preserve" font-family="Courier,Courier" font-size="30.0" fill="#FEFFFF" transform="matrix(1.00, 0.00, -0.00, -1.00, 85.0, 277.7)"> </text><text xml:space="preserve" font-family="Courier,Courier" font-size="30.0" fill="#FEFFFF" transform="matrix(1.00, 0.00, -0.00, -1.00, 103.0, 277.7)"> </text><text xml:space="preserve" font-family="Courier,Courier" font-size="30.0" fill="#FEFFFF" transform="matrix(1.00, 0.00, -0.00, -1.00, 121.1, 277.7)">r</text><text xml:space="preserve" font-family="Courier,Courier" font-size="30.0" fill="#FEFFFF" transform="matrix(1.00, 0.00, -0.00, -1.00, 139.1, 277.7)">e</text><text xml:space="preserve" font-family="Courier,Courier" font-size="30.0" fill="#FEFFFF" transform="matrix(1.00, 0.00, -0.00, -1.00, 157.1, 277.7)">t</text><text xml:space="preserve" font-family="Courier,Courier" font-size="30.0" fill="#FEFFFF" transform="matrix(1.00, 0.00, -0.00, -1.00, 175.1, 277.7)">u</text><text xml:space="preserve" font-family="Courier,Courier" font-size="30.0" fill="#FEFFFF" transform="matrix(1.00, 0.00, -0.00, -1.00, 193.1, 277.7)">r</text><text xml:space="preserve" font-family="Courier,Courier" font-size="30.0" fill="#FEFFFF" transform="matrix(1.00, 0.00, -0.00, -1.00, 211.1, 277.7)">n</text><text xml:space="preserve" font-family="Courier,Courier" font-size="30.0" fill="#FEFFFF" transform="matrix(1.00, 0.00, -0.00, -1.00, 229.1, 277.7)"> </text><text xml:space="preserve" font-family="Courier,Courier" font-size="30.0" fill="#FEFFFF" transform="matrix(1.00, 0.00, -0.00, -1.00, 247.1, 277.7)">P</text><text xml:space="preserve" font-family="Courier,Courier" font-size="30.0" fill="#FEFFFF" transform="matrix(1.00, 0.00, -0.00, -1.00, 265.1, 277.7)">r</text><text xml:space="preserve" font-family="Courier,Courier" font-size="30.0" fill="#FEFFFF" transform="matrix(1.00, 0.00, -0.00, -1.00, 283.1, 277.7)">o</text><text xml:space="preserve" font-family="Courier,Courier" font-size="30.0" fill="#FEFFFF" transform="matrix(1.00, 0.00, -0.00, -1.00, 301.1, 277.7)">m</text><text xml:space="preserve" font-family="Courier,Courier" font-size="30.0" fill="#FEFFFF" transform="matrix(1.00, 0.00, -0.00, -1.00, 319.1, 277.7)">i</text><text xml:space="preserve" font-family="Courier,Courier" font-size="30.0" fill="#FEFFFF" transform="matrix(1.00, 0.00, -0.00, -1.00, 337.1, 277.7)">s</text><text xml:space="preserve" font-family="Courier,Courier" font-size="30.0" fill="#FEFFFF" transform="matrix(1.00, 0.00, -0.00, -1.00, 355.1, 277.7)">e</text><text xml:space="preserve" font-family="Courier,Courier" font-size="30.0" fill="#FEFFFF" transform="matrix(1.00, 0.00, -0.00, -1.00, 373.1, 277.7)">.</text><text xml:space="preserve" font-family="Courier,Courier" font-size="30.0" fill="#FEFFFF" transform="matrix(1.00, 0.00, -0.00, -1.00, 391.1, 277.7)">r</text><text xml:space="preserve" font-family="Courier,Courier" font-size="30.0" fill="#FEFFFF" transform="matrix(1.00, 0.00, -0.00, -1.00, 409.1, 277.7)">e</text><text xml:space="preserve" font-family="Courier,Courier" font-size="30.0" fill="#FEFFFF" transform="matrix(1.00, 0.00, -0.00, -1.00, 427.2, 277.7)">s</text><text xml:space="preserve" font-family="Courier,Courier" font-size="30.0" fill="#FEFFFF" transform="matrix(1.00, 0.00, -0.00, -1.00, 445.2, 277.7)">o</text><text xml:space="preserve" font-family="Courier,Courier" font-size="30.0" fill="#FEFFFF" transform="matrix(1.00, 0.00, -0.00, -1.00, 463.2, 277.7)">l</text><text xml:space="preserve" font-family="Courier,Courier" font-size="30.0" fill="#FEFFFF" transform="matrix(1.00, 0.00, -0.00, -1.00, 481.2, 277.7)">v</text><text xml:space="preserve" font-family="Courier,Courier" font-size="30.0" fill="#FEFFFF" transform="matrix(1.00, 0.00, -0.00, -1.00, 499.2, 277.7)">e</text><text xml:space="preserve" font-family="Courier,Courier" font-size="30.0" fill="#FEFFFF" transform="matrix(1.00, 0.00, -0.00, -1.00, 517.2, 277.7)">(</text><text xml:space="preserve" font-family="Courier,Courier" font-size="30.0" fill="#00A6AC" transform="matrix(1.00, 0.00, -0.00, -1.00, 535.1, 277.7)">t</text><text xml:space="preserve" font-family="Courier,Courier" font-size="30.0" fill="#00A6AC" transform="matrix(1.00, 0.00, -0.00, -1.00, 553.1, 277.7)">r</text><text xml:space="preserve" font-family="Courier,Courier" font-size="30.0" fill="#00A6AC" transform="matrix(1.00, 0.00, -0.00, -1.00, 571.1, 277.7)">u</text><text xml:space="preserve" font-family="Courier,Courier" font-size="30.0" fill="#00A6AC" transform="matrix(1.00, 0.00, -0.00, -1.00, 589.1, 277.7)">e</text><text xml:space="preserve" font-family="Courier,Courier" font-size="30.0" fill="#FEFFFF" transform="matrix(1.00, 0.00, -0.00, -1.00, 607.1, 277.7)">)</text><text xml:space="preserve" font-family="Courier,Courier" font-size="30.0" fill="#FEFFFF" transform="matrix(1.00, 0.00, -0.00, -1.00, 85.0, 232.1)">}</text><text xml:space="preserve" font-family="Courier,Courier" font-size="30.0" fill="#FEFFFF" transform="matrix(1.00, 0.00, -0.00, -1.00, 103.0, 232.1)">)</text><text xml:space="preserve" font-family="Courier,Courier" font-size="30.0" fill="#FEFFFF" transform="matrix(1.00, 0.00, -0.00, -1.00, 121.1, 232.1)">.</text><text xml:space="preserve" font-family="Courier,Courier" font-size="30.0" fill="#E7A432" transform="matrix(1.00, 0.00, -0.00, -1.00, 139.1, 232.1)">t</text><text xml:space="preserve" font-family="Courier,Courier" font-size="30.0" fill="#E7A432" transform="matrix(1.00, 0.00, -0.00, -1.00, 157.1, 232.1)">h</text><text xml:space="preserve" font-family="Courier,Courier" font-size="30.0" fill="#E7A432" transform="matrix(1.00, 0.00, -0.00, -1.00, 175.1, 232.1)">e</text><text xml:space="preserve" font-family="Courier,Courier" font-size="30.0" fill="#E7A432" transform="matrix(1.00, 0.00, -0.00, -1.00, 193.1, 232.1)">n</text><text xml:space="preserve" font-family="Courier,Courier" font-size="30.0" fill="#FEFFFF" transform="matrix(1.00, 0.00, -0.00, -1.00, 211.1, 232.1)">(</text><text xml:space="preserve" font-family="Courier,Courier" font-size="30.0" fill="#FEFFFF" transform="matrix(1.00, 0.00, -0.00, -1.00, 229.1, 232.1)">f</text><text xml:space="preserve" font-family="Courier,Courier" font-size="30.0" fill="#FEFFFF" transform="matrix(1.00, 0.00, -0.00, -1.00, 247.1, 232.1)">u</text><text xml:space="preserve" font-family="Courier,Courier" font-size="30.0" fill="#FEFFFF" transform="matrix(1.00, 0.00, -0.00, -1.00, 265.1, 232.1)">n</text><text xml:space="preserve" font-family="Courier,Courier" font-size="30.0" fill="#FEFFFF" transform="matrix(1.00, 0.00, -0.00, -1.00, 283.1, 232.1)">c</text><text xml:space="preserve" font-family="Courier,Courier" font-size="30.0" fill="#FEFFFF" transform="matrix(1.00, 0.00, -0.00, -1.00, 301.1, 232.1)">t</text><text xml:space="preserve" font-family="Courier,Courier" font-size="30.0" fill="#FEFFFF" transform="matrix(1.00, 0.00, -0.00, -1.00, 319.1, 232.1)">i</text><text xml:space="preserve" font-family="Courier,Courier" font-size="30.0" fill="#FEFFFF" transform="matrix(1.00, 0.00, -0.00, -1.00, 337.1, 232.1)">o</text><text xml:space="preserve" font-family="Courier,Courier" font-size="30.0" fill="#FEFFFF" transform="matrix(1.00, 0.00, -0.00, -1.00, 355.1, 232.1)">n</text><text xml:space="preserve" font-family="Courier,Courier" font-size="30.0" fill="#FEFFFF" transform="matrix(1.00, 0.00, -0.00, -1.00, 373.1, 232.1)"> </text><text xml:space="preserve" font-family="Courier,Courier" font-size="30.0" fill="#FEFFFF" transform="matrix(1.00, 0.00, -0.00, -1.00, 391.1, 232.1)">(</text><text xml:space="preserve" font-family="Courier,Courier" font-size="30.0" fill="#00A6AC" transform="matrix(1.00, 0.00, -0.00, -1.00, 409.1, 232.1)">v</text><text xml:space="preserve" font-family="Courier,Courier" font-size="30.0" fill="#00A6AC" transform="matrix(1.00, 0.00, -0.00, -1.00, 427.1, 232.1)">a</text><text xml:space="preserve" font-family="Courier,Courier" font-size="30.0" fill="#00A6AC" transform="matrix(1.00, 0.00, -0.00, -1.00, 445.1, 232.1)">l</text><text xml:space="preserve" font-family="Courier,Courier" font-size="30.0" fill="#FEFFFF" transform="matrix(1.00, 0.00, -0.00, -1.00, 463.1, 232.1)">)</text><text xml:space="preserve" font-family="Courier,Courier" font-size="30.0" fill="#FEFFFF" transform="matrix(1.00, 0.00, -0.00, -1.00, 481.1, 232.1)"> </text><text xml:space="preserve" font-family="Courier,Courier" font-size="30.0" fill="#FEFFFF" transform="matrix(1.00, 0.00, -0.00, -1.00, 499.1, 232.1)">{</text><text xml:space="preserve" font-family="Courier,Courier" font-size="30.0" fill="#FEFFFF" transform="matrix(1.00, 0.00, -0.00, -1.00, 85.0, 186.5)"> </text><text xml:space="preserve" font-family="Courier,Courier" font-size="30.0" fill="#FEFFFF" transform="matrix(1.00, 0.00, -0.00, -1.00, 103.0, 186.5)"> </text><text xml:space="preserve" font-family="Courier,Courier" font-size="30.0" fill="#FEFFFF" transform="matrix(1.00, 0.00, -0.00, -1.00, 121.1, 186.5)">c</text><text xml:space="preserve" font-family="Courier,Courier" font-size="30.0" fill="#FEFFFF" transform="matrix(1.00, 0.00, -0.00, -1.00, 139.1, 186.5)">o</text><text xml:space="preserve" font-family="Courier,Courier" font-size="30.0" fill="#FEFFFF" transform="matrix(1.00, 0.00, -0.00, -1.00, 157.1, 186.5)">n</text><text xml:space="preserve" font-family="Courier,Courier" font-size="30.0" fill="#FEFFFF" transform="matrix(1.00, 0.00, -0.00, -1.00, 175.1, 186.5)">s</text><text xml:space="preserve" font-family="Courier,Courier" font-size="30.0" fill="#FEFFFF" transform="matrix(1.00, 0.00, -0.00, -1.00, 193.1, 186.5)">o</text><text xml:space="preserve" font-family="Courier,Courier" font-size="30.0" fill="#FEFFFF" transform="matrix(1.00, 0.00, -0.00, -1.00, 211.1, 186.5)">l</text><text xml:space="preserve" font-family="Courier,Courier" font-size="30.0" fill="#FEFFFF" transform="matrix(1.00, 0.00, -0.00, -1.00, 229.1, 186.5)">e</text><text xml:space="preserve" font-family="Courier,Courier" font-size="30.0" fill="#FEFFFF" transform="matrix(1.00, 0.00, -0.00, -1.00, 247.1, 186.5)">.</text><text xml:space="preserve" font-family="Courier,Courier" font-size="30.0" fill="#FEFFFF" transform="matrix(1.00, 0.00, -0.00, -1.00, 265.1, 186.5)">l</text><text xml:space="preserve" font-family="Courier,Courier" font-size="30.0" fill="#FEFFFF" transform="matrix(1.00, 0.00, -0.00, -1.00, 283.1, 186.5)">o</text><text xml:space="preserve" font-family="Courier,Courier" font-size="30.0" fill="#FEFFFF" transform="matrix(1.00, 0.00, -0.00, -1.00, 301.1, 186.5)">g</text><text xml:space="preserve" font-family="Courier,Courier" font-size="30.0" fill="#FEFFFF" transform="matrix(1.00, 0.00, -0.00, -1.00, 319.1, 186.5)">(</text><text xml:space="preserve" font-family="Courier,Courier" font-size="30.0" fill="#00A6AC" transform="matrix(1.00, 0.00, -0.00, -1.00, 337.1, 186.5)">v</text><text xml:space="preserve" font-family="Courier,Courier" font-size="30.0" fill="#00A6AC" transform="matrix(1.00, 0.00, -0.00, -1.00, 355.1, 186.5)">a</text><text xml:space="preserve" font-family="Courier,Courier" font-size="30.0" fill="#00A6AC" transform="matrix(1.00, 0.00, -0.00, -1.00, 373.1, 186.5)">l</text><text xml:space="preserve" font-family="Courier,Courier" font-size="30.0" fill="#FEFFFF" transform="matrix(1.00, 0.00, -0.00, -1.00, 391.1, 186.5)"> </text><text xml:space="preserve" font-family="Courier,Courier" font-size="30.0" fill="#FEFFFF" transform="matrix(1.00, 0.00, -0.00, -1.00, 409.1, 186.5)">=</text><text xml:space="preserve" font-family="Courier,Courier" font-size="30.0" fill="#FEFFFF" transform="matrix(1.00, 0.00, -0.00, -1.00, 427.1, 186.5)">=</text><text xml:space="preserve" font-family="Courier,Courier" font-size="30.0" fill="#FEFFFF" transform="matrix(1.00, 0.00, -0.00, -1.00, 445.1, 186.5)">=</text><text xml:space="preserve" font-family="Courier,Courier" font-size="30.0" fill="#FEFFFF" transform="matrix(1.00, 0.00, -0.00, -1.00, 463.1, 186.5)"> </text><text xml:space="preserve" font-family="Courier,Courier" font-size="30.0" fill="#00A6AC" transform="matrix(1.00, 0.00, -0.00, -1.00, 481.1, 186.5)">t</text><text xml:space="preserve" font-family="Courier,Courier" font-size="30.0" fill="#00A6AC" transform="matrix(1.00, 0.00, -0.00, -1.00, 499.1, 186.5)">r</text><text xml:space="preserve" font-family="Courier,Courier" font-size="30.0" fill="#00A6AC" transform="matrix(1.00, 0.00, -0.00, -1.00, 517.1, 186.5)">u</text><text xml:space="preserve" font-family="Courier,Courier" font-size="30.0" fill="#00A6AC" transform="matrix(1.00, 0.00, -0.00, -1.00, 535.1, 186.5)">e</text><text xml:space="preserve" font-family="Courier,Courier" font-size="30.0" fill="#FEFFFF" transform="matrix(1.00, 0.00, -0.00, -1.00, 553.1, 186.5)">)</text><text xml:space="preserve" font-family="Courier,Courier" font-size="30.0" fill="#FEFFFF" transform="matrix(1.00, 0.00, -0.00, -1.00, 85.0, 140.9)">}</text><text xml:space="preserve" font-family="Courier,Courier" font-size="30.0" fill="#FEFFFF" transform="matrix(1.00, 0.00, -0.00, -1.00, 103.0, 140.9)">)</text></g></svg>