<?xml version="1.0" encoding="UTF-8" standalone="no"?><svg xmlns="http://www.w3.org/2000/svg" xmlns:xlink="http://www.w3.org/1999/xlink" clip-rule="evenodd" stroke-miterlimit="10" viewBox="0 0 1024 768"><desc>SVG generated by Keynote</desc><defs></defs><g transform="matrix(1.00, 0.00, -0.00, -1.00, 0.0, 768.0)"><path d="M 0.0 768.0 L 1024.0 768.0 L 1024.0 0.0 L 0.0 0.0 Z M 0.0 768.0 " fill="#000000"></path><text xml:space="preserve" font-family="Helvetica-Light,Helvetica" font-size="80.0" fill="#FEFFFF" transform="matrix(1.00, 0.00, -0.00, -1.00, 94.8, 633.4)">A</text><text xml:space="preserve" font-family="Helvetica-Light,Helvetica" font-size="80.0" fill="#FEFFFF" transform="matrix(1.00, 0.00, -0.00, -1.00, 148.2, 633.4)">t</text><text xml:space="preserve" font-family="Helvetica-Light,Helvetica" font-size="80.0" fill="#FEFFFF" transform="matrix(1.00, 0.00, -0.00, -1.00, 170.4, 633.4)"> </text><text xml:space="preserve" font-family="Helvetica-Light,Helvetica" font-size="80.0" fill="#FEFFFF" transform="matrix(1.00, 0.00, -0.00, -1.00, 192.7, 633.4)">l</text><text xml:space="preserve" font-family="Helvetica-Light,Helvetica" font-size="80.0" fill="#FEFFFF" transform="matrix(1.00, 0.00, -0.00, -1.00, 210.4, 633.4)">e</text><text xml:space="preserve" font-family="Helvetica-Light,Helvetica" font-size="80.0" fill="#FEFFFF" transform="matrix(1.00, 0.00, -0.00, -1.00, 254.9, 633.4)">a</text><text xml:space="preserve" font-family="Helvetica-Light,Helvetica" font-size="80.0" fill="#FEFFFF" transform="matrix(1.00, 0.00, -0.00, -1.00, 299.4, 633.4)">s</text><text xml:space="preserve" font-family="Helvetica-Light,Helvetica" font-size="80.0" fill="#FEFFFF" transform="matrix(1.00, 0.00, -0.00, -1.00, 339.4, 633.4)">t</text><text xml:space="preserve" font-family="Helvetica-Light,Helvetica" font-size="80.0" fill="#FEFFFF" transform="matrix(1.00, 0.00, -0.00, -1.00, 361.6, 633.4)"> </text><text xml:space="preserve" font-family="Helvetica-Light,Helvetica" font-size="80.0" fill="#FEFFFF" transform="matrix(1.00, 0.00, -0.00, -1.00, 383.9, 633.4)">l</text><text xml:space="preserve" font-family="Helvetica-Light,Helvetica" font-size="80.0" fill="#FEFFFF" transform="matrix(1.00, 0.00, -0.00, -1.00, 401.6, 633.4)">o</text><text xml:space="preserve" font-family="Helvetica-Light,Helvetica" font-size="80.0" fill="#FEFFFF" transform="matrix(1.00, 0.00, -0.00, -1.00, 446.1, 633.4)">g</text><text xml:space="preserve" font-family="Helvetica-Light,Helvetica" font-size="80.0" fill="#FEFFFF" transform="matrix(1.00, 0.00, -0.00, -1.00, 495.0, 633.4)"> </text><text xml:space="preserve" font-family="Helvetica-Light,Helvetica" font-size="80.0" fill="#FEFFFF" transform="matrix(1.00, 0.00, -0.00, -1.00, 517.2, 633.4)">y</text><text xml:space="preserve" font-family="Helvetica-Light,Helvetica" font-size="80.0" fill="#FEFFFF" transform="matrix(1.00, 0.00, -0.00, -1.00, 557.2, 633.4)">o</text><text xml:space="preserve" font-family="Helvetica-Light,Helvetica" font-size="80.0" fill="#FEFFFF" transform="matrix(1.00, 0.00, -0.00, -1.00, 601.7, 633.4)">u</text><text xml:space="preserve" font-family="Helvetica-Light,Helvetica" font-size="80.0" fill="#FEFFFF" transform="matrix(1.00, 0.00, -0.00, -1.00, 646.2, 633.4)">r</text><text xml:space="preserve" font-family="Helvetica-Light,Helvetica" font-size="80.0" fill="#FEFFFF" transform="matrix(1.00, 0.00, -0.00, -1.00, 672.8, 633.4)"> </text><text xml:space="preserve" font-family="Helvetica-Light,Helvetica" font-size="80.0" fill="#FEFFFF" transform="matrix(1.00, 0.00, -0.00, -1.00, 695.1, 633.4)">e</text><text xml:space="preserve" font-family="Helvetica-Light,Helvetica" font-size="80.0" fill="#FEFFFF" transform="matrix(1.00, 0.00, -0.00, -1.00, 739.6, 633.4)">r</text><text xml:space="preserve" font-family="Helvetica-Light,Helvetica" font-size="80.0" fill="#FEFFFF" transform="matrix(1.00, 0.00, -0.00, -1.00, 766.2, 633.4)">r</text><text xml:space="preserve" font-family="Helvetica-Light,Helvetica" font-size="80.0" fill="#FEFFFF" transform="matrix(1.00, 0.00, -0.00, -1.00, 791.4, 633.4)">o</text><text xml:space="preserve" font-family="Helvetica-Light,Helvetica" font-size="80.0" fill="#FEFFFF" transform="matrix(1.00, 0.00, -0.00, -1.00, 835.9, 633.4)">r</text><text xml:space="preserve" font-family="Helvetica-Light,Helvetica" font-size="80.0" fill="#FEFFFF" transform="matrix(1.00, 0.00, -0.00, -1.00, 862.5, 633.4)">s</text><text xml:space="preserve" font-family="Helvetica-Light,Helvetica" font-size="80.0" fill="#FEFFFF" transform="matrix(1.00, 0.00, -0.00, -1.00, 902.5, 633.4)">!</text><text xml:space="preserve" font-family="Helvetica-Light,Helvetica" font-size="36.5" fill="#FEFFFF" transform="matrix(1.00, 0.00, -0.00, -1.00, 79.0, 514.4)">O</text><text xml:space="preserve" font-family="Helvetica-Light,Helvetica" font-size="36.5" fill="#FEFFFF" transform="matrix(1.00, 0.00, -0.00, -1.00, 107.4, 514.4)">t</text><text xml:space="preserve" font-family="Helvetica-Light,Helvetica" font-size="36.5" fill="#FEFFFF" transform="matrix(1.00, 0.00, -0.00, -1.00, 117.5, 514.4)">h</text><text xml:space="preserve" font-family="Helvetica-Light,Helvetica" font-size="36.5" fill="#FEFFFF" transform="matrix(1.00, 0.00, -0.00, -1.00, 137.8, 514.4)">e</text><text xml:space="preserve" font-family="Helvetica-Light,Helvetica" font-size="36.5" fill="#FEFFFF" transform="matrix(1.00, 0.00, -0.00, -1.00, 158.1, 514.4)">r</text><text xml:space="preserve" font-family="Helvetica-Light,Helvetica" font-size="36.5" fill="#FEFFFF" transform="matrix(1.00, 0.00, -0.00, -1.00, 170.2, 514.4)">w</text><text xml:space="preserve" font-family="Helvetica-Light,Helvetica" font-size="36.5" fill="#FEFFFF" transform="matrix(1.00, 0.00, -0.00, -1.00, 196.6, 514.4)">i</text><text xml:space="preserve" font-family="Helvetica-Light,Helvetica" font-size="36.5" fill="#FEFFFF" transform="matrix(1.00, 0.00, -0.00, -1.00, 204.7, 514.4)">s</text><text xml:space="preserve" font-family="Helvetica-Light,Helvetica" font-size="36.5" fill="#FEFFFF" transform="matrix(1.00, 0.00, -0.00, -1.00, 222.9, 514.4)">e</text><text xml:space="preserve" font-family="Helvetica-Light,Helvetica" font-size="36.5" fill="#FEFFFF" transform="matrix(1.00, 0.00, -0.00, -1.00, 243.2, 514.4)">,</text><text xml:space="preserve" font-family="Helvetica-Light,Helvetica" font-size="36.5" fill="#FEFFFF" transform="matrix(1.00, 0.00, -0.00, -1.00, 253.3, 514.4)"> </text><text xml:space="preserve" font-family="Helvetica-Light,Helvetica" font-size="36.5" fill="#FEFFFF" transform="matrix(1.00, 0.00, -0.00, -1.00, 263.5, 514.4)">y</text><text xml:space="preserve" font-family="Helvetica-Light,Helvetica" font-size="36.5" fill="#FEFFFF" transform="matrix(1.00, 0.00, -0.00, -1.00, 281.7, 514.4)">o</text><text xml:space="preserve" font-family="Helvetica-Light,Helvetica" font-size="36.5" fill="#FEFFFF" transform="matrix(1.00, 0.00, -0.00, -1.00, 302.0, 514.4)">u</text><text xml:space="preserve" font-family="Helvetica-Light,Helvetica" font-size="36.5" fill="#FEFFFF" transform="matrix(1.00, 0.00, -0.00, -1.00, 322.3, 514.4)"> </text><text xml:space="preserve" font-family="Helvetica-Light,Helvetica" font-size="36.5" fill="#FEFFFF" transform="matrix(1.00, 0.00, -0.00, -1.00, 332.4, 514.4)">w</text><text xml:space="preserve" font-family="Helvetica-Light,Helvetica" font-size="36.5" fill="#FEFFFF" transform="matrix(1.00, 0.00, -0.00, -1.00, 358.8, 514.4)">o</text><text xml:space="preserve" font-family="Helvetica-Light,Helvetica" font-size="36.5" fill="#FEFFFF" transform="matrix(1.00, 0.00, -0.00, -1.00, 379.0, 514.4)">u</text><text xml:space="preserve" font-family="Helvetica-Light,Helvetica" font-size="36.5" fill="#FEFFFF" transform="matrix(1.00, 0.00, -0.00, -1.00, 399.3, 514.4)">l</text><text xml:space="preserve" font-family="Helvetica-Light,Helvetica" font-size="36.5" fill="#FEFFFF" transform="matrix(1.00, 0.00, -0.00, -1.00, 407.4, 514.4)">d</text><text xml:space="preserve" font-family="Helvetica-Light,Helvetica" font-size="36.5" fill="#FEFFFF" transform="matrix(1.00, 0.00, -0.00, -1.00, 429.7, 514.4)"> </text><text xml:space="preserve" font-family="Helvetica-Light,Helvetica" font-size="36.5" fill="#FEFFFF" transform="matrix(1.00, 0.00, -0.00, -1.00, 439.9, 514.4)">n</text><text xml:space="preserve" font-family="Helvetica-Light,Helvetica" font-size="36.5" fill="#FEFFFF" transform="matrix(1.00, 0.00, -0.00, -1.00, 460.1, 514.4)">e</text><text xml:space="preserve" font-family="Helvetica-Light,Helvetica" font-size="36.5" fill="#FEFFFF" transform="matrix(1.00, 0.00, -0.00, -1.00, 480.4, 514.4)">v</text><text xml:space="preserve" font-family="Helvetica-Light,Helvetica" font-size="36.5" fill="#FEFFFF" transform="matrix(1.00, 0.00, -0.00, -1.00, 498.7, 514.4)">e</text><text xml:space="preserve" font-family="Helvetica-Light,Helvetica" font-size="36.5" fill="#FEFFFF" transform="matrix(1.00, 0.00, -0.00, -1.00, 518.9, 514.4)">r</text><text xml:space="preserve" font-family="Helvetica-Light,Helvetica" font-size="36.5" fill="#FEFFFF" transform="matrix(1.00, 0.00, -0.00, -1.00, 531.1, 514.4)"> </text><text xml:space="preserve" font-family="Helvetica-Light,Helvetica" font-size="36.5" fill="#FEFFFF" transform="matrix(1.00, 0.00, -0.00, -1.00, 541.2, 514.4)">k</text><text xml:space="preserve" font-family="Helvetica-Light,Helvetica" font-size="36.5" fill="#FEFFFF" transform="matrix(1.00, 0.00, -0.00, -1.00, 559.5, 514.4)">n</text><text xml:space="preserve" font-family="Helvetica-Light,Helvetica" font-size="36.5" fill="#FEFFFF" transform="matrix(1.00, 0.00, -0.00, -1.00, 579.8, 514.4)">o</text><text xml:space="preserve" font-family="Helvetica-Light,Helvetica" font-size="36.5" fill="#FEFFFF" transform="matrix(1.00, 0.00, -0.00, -1.00, 600.0, 514.4)">w</text><text xml:space="preserve" font-family="Helvetica-Light,Helvetica" font-size="36.5" fill="#FEFFFF" transform="matrix(1.00, 0.00, -0.00, -1.00, 626.4, 514.4)"> </text><text xml:space="preserve" font-family="Helvetica-Light,Helvetica" font-size="36.5" fill="#FEFFFF" transform="matrix(1.00, 0.00, -0.00, -1.00, 636.5, 514.4)">i</text><text xml:space="preserve" font-family="Helvetica-Light,Helvetica" font-size="36.5" fill="#FEFFFF" transform="matrix(1.00, 0.00, -0.00, -1.00, 644.6, 514.4)">f</text><text xml:space="preserve" font-family="Helvetica-Light,Helvetica" font-size="36.5" fill="#FEFFFF" transform="matrix(1.00, 0.00, -0.00, -1.00, 654.8, 514.4)"> </text><text xml:space="preserve" font-family="Helvetica-Light,Helvetica" font-size="36.5" fill="#FEFFFF" transform="matrix(1.00, 0.00, -0.00, -1.00, 664.9, 514.4)">a</text><text xml:space="preserve" font-family="Helvetica-Light,Helvetica" font-size="36.5" fill="#FEFFFF" transform="matrix(1.00, 0.00, -0.00, -1.00, 685.2, 514.4)"> </text><text xml:space="preserve" font-family="Helvetica-Light,Helvetica" font-size="36.5" fill="#FEFFFF" transform="matrix(1.00, 0.00, -0.00, -1.00, 695.3, 514.4)">e</text><text xml:space="preserve" font-family="Helvetica-Light,Helvetica" font-size="36.5" fill="#FEFFFF" transform="matrix(1.00, 0.00, -0.00, -1.00, 715.6, 514.4)">r</text><text xml:space="preserve" font-family="Helvetica-Light,Helvetica" font-size="36.5" fill="#FEFFFF" transform="matrix(1.00, 0.00, -0.00, -1.00, 727.8, 514.4)">r</text><text xml:space="preserve" font-family="Helvetica-Light,Helvetica" font-size="36.5" fill="#FEFFFF" transform="matrix(1.00, 0.00, -0.00, -1.00, 739.3, 514.4)">o</text><text xml:space="preserve" font-family="Helvetica-Light,Helvetica" font-size="36.5" fill="#FEFFFF" transform="matrix(1.00, 0.00, -0.00, -1.00, 759.5, 514.4)">r</text><text xml:space="preserve" font-family="Helvetica-Light,Helvetica" font-size="36.5" fill="#FEFFFF" transform="matrix(1.00, 0.00, -0.00, -1.00, 771.7, 514.4)"> </text><text xml:space="preserve" font-family="Helvetica-Light,Helvetica" font-size="36.5" fill="#FEFFFF" transform="matrix(1.00, 0.00, -0.00, -1.00, 781.8, 514.4)">o</text><text xml:space="preserve" font-family="Helvetica-Light,Helvetica" font-size="36.5" fill="#FEFFFF" transform="matrix(1.00, 0.00, -0.00, -1.00, 802.1, 514.4)">c</text><text xml:space="preserve" font-family="Helvetica-Light,Helvetica" font-size="36.5" fill="#FEFFFF" transform="matrix(1.00, 0.00, -0.00, -1.00, 822.4, 514.4)">c</text><text xml:space="preserve" font-family="Helvetica-Light,Helvetica" font-size="36.5" fill="#FEFFFF" transform="matrix(1.00, 0.00, -0.00, -1.00, 842.7, 514.4)">u</text><text xml:space="preserve" font-family="Helvetica-Light,Helvetica" font-size="36.5" fill="#FEFFFF" transform="matrix(1.00, 0.00, -0.00, -1.00, 863.0, 514.4)">r</text><text xml:space="preserve" font-family="Helvetica-Light,Helvetica" font-size="36.5" fill="#FEFFFF" transform="matrix(1.00, 0.00, -0.00, -1.00, 875.1, 514.4)">r</text><text xml:space="preserve" font-family="Helvetica-Light,Helvetica" font-size="36.5" fill="#FEFFFF" transform="matrix(1.00, 0.00, -0.00, -1.00, 886.6, 514.4)">e</text><text xml:space="preserve" font-family="Helvetica-Light,Helvetica" font-size="36.5" fill="#FEFFFF" transform="matrix(1.00, 0.00, -0.00, -1.00, 906.9, 514.4)">d</text><text xml:space="preserve" font-family="Helvetica-Light,Helvetica" font-size="36.5" fill="#FEFFFF" transform="matrix(1.00, 0.00, -0.00, -1.00, 929.2, 514.4)">!</text><text xml:space="preserve" font-family="Courier,Courier" font-size="30.0" fill="#FEFFFF" transform="matrix(1.00, 0.00, -0.00, -1.00, 84.3, 337.2)">f</text><text xml:space="preserve" font-family="Courier,Courier" font-size="30.0" fill="#FEFFFF" transform="matrix(1.00, 0.00, -0.00, -1.00, 102.3, 337.2)">s</text><text xml:space="preserve" font-family="Courier,Courier" font-size="30.0" fill="#FEFFFF" transform="matrix(1.00, 0.00, -0.00, -1.00, 120.3, 337.2)">.</text><text xml:space="preserve" font-family="Courier,Courier" font-size="30.0" fill="#FEFFFF" transform="matrix(1.00, 0.00, -0.00, -1.00, 138.3, 337.2)">r</text><text xml:space="preserve" font-family="Courier,Courier" font-size="30.0" fill="#FEFFFF" transform="matrix(1.00, 0.00, -0.00, -1.00, 156.3, 337.2)">e</text><text xml:space="preserve" font-family="Courier,Courier" font-size="30.0" fill="#FEFFFF" transform="matrix(1.00, 0.00, -0.00, -1.00, 174.3, 337.2)">a</text><text xml:space="preserve" font-family="Courier,Courier" font-size="30.0" fill="#FEFFFF" transform="matrix(1.00, 0.00, -0.00, -1.00, 192.3, 337.2)">d</text><text xml:space="preserve" font-family="Courier,Courier" font-size="30.0" fill="#FEFFFF" transform="matrix(1.00, 0.00, -0.00, -1.00, 210.3, 337.2)">F</text><text xml:space="preserve" font-family="Courier,Courier" font-size="30.0" fill="#FEFFFF" transform="matrix(1.00, 0.00, -0.00, -1.00, 228.3, 337.2)">i</text><text xml:space="preserve" font-family="Courier,Courier" font-size="30.0" fill="#FEFFFF" transform="matrix(1.00, 0.00, -0.00, -1.00, 246.3, 337.2)">l</text><text xml:space="preserve" font-family="Courier,Courier" font-size="30.0" fill="#FEFFFF" transform="matrix(1.00, 0.00, -0.00, -1.00, 264.3, 337.2)">e</text><text xml:space="preserve" font-family="Courier,Courier" font-size="30.0" fill="#FEFFFF" transform="matrix(1.00, 0.00, -0.00, -1.00, 282.3, 337.2)">(</text><text xml:space="preserve" font-family="Courier,Courier" font-size="30.0" fill="#FEFFFF" transform="matrix(1.00, 0.00, -0.00, -1.00, 300.3, 337.2)">'</text><text xml:space="preserve" font-family="Courier,Courier" font-size="30.0" fill="#FEFFFF" transform="matrix(1.00, 0.00, -0.00, -1.00, 318.3, 337.2)">p</text><text xml:space="preserve" font-family="Courier,Courier" font-size="30.0" fill="#FEFFFF" transform="matrix(1.00, 0.00, -0.00, -1.00, 336.4, 337.2)">a</text><text xml:space="preserve" font-family="Courier,Courier" font-size="30.0" fill="#FEFFFF" transform="matrix(1.00, 0.00, -0.00, -1.00, 354.4, 337.2)">c</text><text xml:space="preserve" font-family="Courier,Courier" font-size="30.0" fill="#FEFFFF" transform="matrix(1.00, 0.00, -0.00, -1.00, 372.4, 337.2)">k</text><text xml:space="preserve" font-family="Courier,Courier" font-size="30.0" fill="#FEFFFF" transform="matrix(1.00, 0.00, -0.00, -1.00, 390.4, 337.2)">a</text><text xml:space="preserve" font-family="Courier,Courier" font-size="30.0" fill="#FEFFFF" transform="matrix(1.00, 0.00, -0.00, -1.00, 408.4, 337.2)">g</text><text xml:space="preserve" font-family="Courier,Courier" font-size="30.0" fill="#FEFFFF" transform="matrix(1.00, 0.00, -0.00, -1.00, 426.4, 337.2)">e</text><text xml:space="preserve" font-family="Courier,Courier" font-size="30.0" fill="#FEFFFF" transform="matrix(1.00, 0.00, -0.00, -1.00, 444.4, 337.2)">.</text><text xml:space="preserve" font-family="Courier,Courier" font-size="30.0" fill="#FEFFFF" transform="matrix(1.00, 0.00, -0.00, -1.00, 462.4, 337.2)">j</text><text xml:space="preserve" font-family="Courier,Courier" font-size="30.0" fill="#FEFFFF" transform="matrix(1.00, 0.00, -0.00, -1.00, 480.4, 337.2)">s</text><text xml:space="preserve" font-family="Courier,Courier" font-size="30.0" fill="#FEFFFF" transform="matrix(1.00, 0.00, -0.00, -1.00, 498.4, 337.2)">o</text><text xml:space="preserve" font-family="Courier,Courier" font-size="30.0" fill="#FEFFFF" transform="matrix(1.00, 0.00, -0.00, -1.00, 516.4, 337.2)">n</text><text xml:space="preserve" font-family="Courier,Courier" font-size="30.0" fill="#FEFFFF" transform="matrix(1.00, 0.00, -0.00, -1.00, 534.4, 337.2)">'</text><text xml:space="preserve" font-family="Courier,Courier" font-size="30.0" fill="#FEFFFF" transform="matrix(1.00, 0.00, -0.00, -1.00, 552.4, 337.2)">,</text><text xml:space="preserve" font-family="Courier,Courier" font-size="30.0" fill="#FEFFFF" transform="matrix(1.00, 0.00, -0.00, -1.00, 570.4, 337.2)"> </text><text xml:space="preserve" font-family="Courier,Courier" font-size="30.0" fill="#FEFFFF" transform="matrix(1.00, 0.00, -0.00, -1.00, 588.4, 337.2)">f</text><text xml:space="preserve" font-family="Courier,Courier" font-size="30.0" fill="#FEFFFF" transform="matrix(1.00, 0.00, -0.00, -1.00, 606.4, 337.2)">u</text><text xml:space="preserve" font-family="Courier,Courier" font-size="30.0" fill="#FEFFFF" transform="matrix(1.00, 0.00, -0.00, -1.00, 624.4, 337.2)">n</text><text xml:space="preserve" font-family="Courier,Courier" font-size="30.0" fill="#FEFFFF" transform="matrix(1.00, 0.00, -0.00, -1.00, 642.5, 337.2)">c</text><text xml:space="preserve" font-family="Courier,Courier" font-size="30.0" fill="#FEFFFF" transform="matrix(1.00, 0.00, -0.00, -1.00, 660.5, 337.2)">t</text><text xml:space="preserve" font-family="Courier,Courier" font-size="30.0" fill="#FEFFFF" transform="matrix(1.00, 0.00, -0.00, -1.00, 678.5, 337.2)">i</text><text xml:space="preserve" font-family="Courier,Courier" font-size="30.0" fill="#FEFFFF" transform="matrix(1.00, 0.00, -0.00, -1.00, 696.5, 337.2)">o</text><text xml:space="preserve" font-family="Courier,Courier" font-size="30.0" fill="#FEFFFF" transform="matrix(1.00, 0.00, -0.00, -1.00, 714.5, 337.2)">n</text><text xml:space="preserve" font-family="Courier,Courier" font-size="30.0" fill="#FEFFFF" transform="matrix(1.00, 0.00, -0.00, -1.00, 732.5, 337.2)"> </text><text xml:space="preserve" font-family="Courier,Courier" font-size="30.0" fill="#FEFFFF" transform="matrix(1.00, 0.00, -0.00, -1.00, 750.5, 337.2)">(</text><text xml:space="preserve" font-family="Courier,Courier" font-size="30.0" fill="#961817" transform="matrix(1.00, 0.00, -0.00, -1.00, 768.4, 337.2)">e</text><text xml:space="preserve" font-family="Courier,Courier" font-size="30.0" fill="#961817" transform="matrix(1.00, 0.00, -0.00, -1.00, 786.4, 337.2)">r</text><text xml:space="preserve" font-family="Courier,Courier" font-size="30.0" fill="#961817" transform="matrix(1.00, 0.00, -0.00, -1.00, 804.4, 337.2)">r</text><text xml:space="preserve" font-family="Courier,Courier" font-size="30.0" fill="#FEFFFF" transform="matrix(1.00, 0.00, -0.00, -1.00, 822.4, 337.2)">,</text><text xml:space="preserve" font-family="Courier,Courier" font-size="30.0" fill="#FEFFFF" transform="matrix(1.00, 0.00, -0.00, -1.00, 840.4, 337.2)"> </text><text xml:space="preserve" font-family="Courier,Courier" font-size="30.0" fill="#FEFFFF" transform="matrix(1.00, 0.00, -0.00, -1.00, 858.4, 337.2)">b</text><text xml:space="preserve" font-family="Courier,Courier" font-size="30.0" fill="#FEFFFF" transform="matrix(1.00, 0.00, -0.00, -1.00, 876.4, 337.2)">u</text><text xml:space="preserve" font-family="Courier,Courier" font-size="30.0" fill="#FEFFFF" transform="matrix(1.00, 0.00, -0.00, -1.00, 894.4, 337.2)">f</text><text xml:space="preserve" font-family="Courier,Courier" font-size="30.0" fill="#FEFFFF" transform="matrix(1.00, 0.00, -0.00, -1.00, 912.4, 337.2)">)</text><text xml:space="preserve" font-family="Courier,Courier" font-size="30.0" fill="#FEFFFF" transform="matrix(1.00, 0.00, -0.00, -1.00, 930.4, 337.2)"> </text><text xml:space="preserve" font-family="Courier,Courier" font-size="30.0" fill="#FEFFFF" transform="matrix(1.00, 0.00, -0.00, -1.00, 84.3, 333.6)">{</text><text xml:space="preserve" font-family="Courier,Courier" font-size="30.0" fill="#FF9200" transform="matrix(1.00, 0.00, -0.00, -1.00, 84.3, 288.0)"> </text><text xml:space="preserve" font-family="Courier,Courier" font-size="30.0" fill="#FF9200" transform="matrix(1.00, 0.00, -0.00, -1.00, 102.3, 288.0)"> </text><text xml:space="preserve" font-family="Courier,Courier" font-size="30.0" fill="#FF9200" transform="matrix(1.00, 0.00, -0.00, -1.00, 120.3, 288.0)">i</text><text xml:space="preserve" font-family="Courier,Courier" font-size="30.0" fill="#FF9200" transform="matrix(1.00, 0.00, -0.00, -1.00, 138.3, 288.0)">f</text><text xml:space="preserve" font-family="Courier,Courier" font-size="30.0" fill="#FF9200" transform="matrix(1.00, 0.00, -0.00, -1.00, 156.3, 288.0)"> </text><text xml:space="preserve" font-family="Courier,Courier" font-size="30.0" fill="#FF9200" transform="matrix(1.00, 0.00, -0.00, -1.00, 174.3, 288.0)">(</text><text xml:space="preserve" font-family="Courier,Courier" font-size="30.0" fill="#961817" transform="matrix(1.00, 0.00, -0.00, -1.00, 192.3, 288.0)">e</text><text xml:space="preserve" font-family="Courier,Courier" font-size="30.0" fill="#961817" transform="matrix(1.00, 0.00, -0.00, -1.00, 210.3, 288.0)">r</text><text xml:space="preserve" font-family="Courier,Courier" font-size="30.0" fill="#961817" transform="matrix(1.00, 0.00, -0.00, -1.00, 228.3, 288.0)">r</text><text xml:space="preserve" font-family="Courier,Courier" font-size="30.0" fill="#FF9200" transform="matrix(1.00, 0.00, -0.00, -1.00, 246.3, 288.0)">)</text><text xml:space="preserve" font-family="Courier,Courier" font-size="30.0" fill="#FF9200" transform="matrix(1.00, 0.00, -0.00, -1.00, 264.3, 288.0)"> </text><text xml:space="preserve" font-family="Courier,Courier" font-size="30.0" fill="#FF9200" transform="matrix(1.00, 0.00, -0.00, -1.00, 282.3, 288.0)">r</text><text xml:space="preserve" font-family="Courier,Courier" font-size="30.0" fill="#FF9200" transform="matrix(1.00, 0.00, -0.00, -1.00, 300.3, 288.0)">e</text><text xml:space="preserve" font-family="Courier,Courier" font-size="30.0" fill="#FF9200" transform="matrix(1.00, 0.00, -0.00, -1.00, 318.3, 288.0)">t</text><text xml:space="preserve" font-family="Courier,Courier" font-size="30.0" fill="#FF9200" transform="matrix(1.00, 0.00, -0.00, -1.00, 336.3, 288.0)">u</text><text xml:space="preserve" font-family="Courier,Courier" font-size="30.0" fill="#FF9200" transform="matrix(1.00, 0.00, -0.00, -1.00, 354.3, 288.0)">r</text><text xml:space="preserve" font-family="Courier,Courier" font-size="30.0" fill="#FF9200" transform="matrix(1.00, 0.00, -0.00, -1.00, 372.3, 288.0)">n</text><text xml:space="preserve" font-family="Courier,Courier" font-size="30.0" fill="#FF9200" transform="matrix(1.00, 0.00, -0.00, -1.00, 390.3, 288.0)"> </text><text xml:space="preserve" font-family="Courier,Courier" font-size="30.0" fill="#FF9200" transform="matrix(1.00, 0.00, -0.00, -1.00, 408.3, 288.0)">c</text><text xml:space="preserve" font-family="Courier,Courier" font-size="30.0" fill="#FF9200" transform="matrix(1.00, 0.00, -0.00, -1.00, 426.4, 288.0)">o</text><text xml:space="preserve" font-family="Courier,Courier" font-size="30.0" fill="#FF9200" transform="matrix(1.00, 0.00, -0.00, -1.00, 444.4, 288.0)">n</text><text xml:space="preserve" font-family="Courier,Courier" font-size="30.0" fill="#FF9200" transform="matrix(1.00, 0.00, -0.00, -1.00, 462.4, 288.0)">s</text><text xml:space="preserve" font-family="Courier,Courier" font-size="30.0" fill="#FF9200" transform="matrix(1.00, 0.00, -0.00, -1.00, 480.4, 288.0)">o</text><text xml:space="preserve" font-family="Courier,Courier" font-size="30.0" fill="#FF9200" transform="matrix(1.00, 0.00, -0.00, -1.00, 498.4, 288.0)">l</text><text xml:space="preserve" font-family="Courier,Courier" font-size="30.0" fill="#FF9200" transform="matrix(1.00, 0.00, -0.00, -1.00, 516.4, 288.0)">e</text><text xml:space="preserve" font-family="Courier,Courier" font-size="30.0" fill="#FF9200" transform="matrix(1.00, 0.00, -0.00, -1.00, 534.4, 288.0)">.</text><text xml:space="preserve" font-family="Courier,Courier" font-size="30.0" fill="#FF9200" transform="matrix(1.00, 0.00, -0.00, -1.00, 552.4, 288.0)">e</text><text xml:space="preserve" font-family="Courier,Courier" font-size="30.0" fill="#FF9200" transform="matrix(1.00, 0.00, -0.00, -1.00, 570.4, 288.0)">r</text><text xml:space="preserve" font-family="Courier,Courier" font-size="30.0" fill="#FF9200" transform="matrix(1.00, 0.00, -0.00, -1.00, 588.4, 288.0)">r</text><text xml:space="preserve" font-family="Courier,Courier" font-size="30.0" fill="#FF9200" transform="matrix(1.00, 0.00, -0.00, -1.00, 606.4, 288.0)">o</text><text xml:space="preserve" font-family="Courier,Courier" font-size="30.0" fill="#FF9200" transform="matrix(1.00, 0.00, -0.00, -1.00, 624.4, 288.0)">r</text><text xml:space="preserve" font-family="Courier,Courier" font-size="30.0" fill="#FF9200" transform="matrix(1.00, 0.00, -0.00, -1.00, 642.4, 288.0)">(</text><text xml:space="preserve" font-family="Courier,Courier" font-size="30.0" fill="#961817" transform="matrix(1.00, 0.00, -0.00, -1.00, 660.4, 288.0)">e</text><text xml:space="preserve" font-family="Courier,Courier" font-size="30.0" fill="#961817" transform="matrix(1.00, 0.00, -0.00, -1.00, 678.4, 288.0)">r</text><text xml:space="preserve" font-family="Courier,Courier" font-size="30.0" fill="#961817" transform="matrix(1.00, 0.00, -0.00, -1.00, 696.4, 288.0)">r</text><text xml:space="preserve" font-family="Courier,Courier" font-size="30.0" fill="#961817" transform="matrix(1.00, 0.00, -0.00, -1.00, 714.4, 288.0)">.</text><text xml:space="preserve" font-family="Courier,Courier" font-size="30.0" fill="#961817" transform="matrix(1.00, 0.00, -0.00, -1.00, 732.4, 288.0)">s</text><text xml:space="preserve" font-family="Courier,Courier" font-size="30.0" fill="#961817" transform="matrix(1.00, 0.00, -0.00, -1.00, 750.4, 288.0)">t</text><text xml:space="preserve" font-family="Courier,Courier" font-size="30.0" fill="#961817" transform="matrix(1.00, 0.00, -0.00, -1.00, 768.4, 288.0)">a</text><text xml:space="preserve" font-family="Courier,Courier" font-size="30.0" fill="#961817" transform="matrix(1.00, 0.00, -0.00, -1.00, 786.4, 288.0)">c</text><text xml:space="preserve" font-family="Courier,Courier" font-size="30.0" fill="#961817" transform="matrix(1.00, 0.00, -0.00, -1.00, 804.4, 288.0)">k</text><text xml:space="preserve" font-family="Courier,Courier" font-size="30.0" fill="#FF9200" transform="matrix(1.00, 0.00, -0.00, -1.00, 822.4, 288.0)">)</text><text xml:space="preserve" font-family="Courier,Courier" font-size="30.0" fill="#FEFFFF" transform="matrix(1.00, 0.00, -0.00, -1.00, 84.3, 242.4)"> </text><text xml:space="preserve" font-family="Courier,Courier" font-size="30.0" fill="#FEFFFF" transform="matrix(1.00, 0.00, -0.00, -1.00, 102.3, 242.4)"> </text><text xml:space="preserve" font-family="Courier,Courier" font-size="30.0" fill="#FEFFFF" transform="matrix(1.00, 0.00, -0.00, -1.00, 120.3, 242.4)">c</text><text xml:space="preserve" font-family="Courier,Courier" font-size="30.0" fill="#FEFFFF" transform="matrix(1.00, 0.00, -0.00, -1.00, 138.3, 242.4)">o</text><text xml:space="preserve" font-family="Courier,Courier" font-size="30.0" fill="#FEFFFF" transform="matrix(1.00, 0.00, -0.00, -1.00, 156.3, 242.4)">n</text><text xml:space="preserve" font-family="Courier,Courier" font-size="30.0" fill="#FEFFFF" transform="matrix(1.00, 0.00, -0.00, -1.00, 174.3, 242.4)">s</text><text xml:space="preserve" font-family="Courier,Courier" font-size="30.0" fill="#FEFFFF" transform="matrix(1.00, 0.00, -0.00, -1.00, 192.3, 242.4)">o</text><text xml:space="preserve" font-family="Courier,Courier" font-size="30.0" fill="#FEFFFF" transform="matrix(1.00, 0.00, -0.00, -1.00, 210.3, 242.4)">l</text><text xml:space="preserve" font-family="Courier,Courier" font-size="30.0" fill="#FEFFFF" transform="matrix(1.00, 0.00, -0.00, -1.00, 228.3, 242.4)">e</text><text xml:space="preserve" font-family="Courier,Courier" font-size="30.0" fill="#FEFFFF" transform="matrix(1.00, 0.00, -0.00, -1.00, 246.3, 242.4)">.</text><text xml:space="preserve" font-family="Courier,Courier" font-size="30.0" fill="#FEFFFF" transform="matrix(1.00, 0.00, -0.00, -1.00, 264.3, 242.4)">l</text><text xml:space="preserve" font-family="Courier,Courier" font-size="30.0" fill="#FEFFFF" transform="matrix(1.00, 0.00, -0.00, -1.00, 282.3, 242.4)">o</text><text xml:space="preserve" font-family="Courier,Courier" font-size="30.0" fill="#FEFFFF" transform="matrix(1.00, 0.00, -0.00, -1.00, 300.3, 242.4)">g</text><text xml:space="preserve" font-family="Courier,Courier" font-size="30.0" fill="#FEFFFF" transform="matrix(1.00, 0.00, -0.00, -1.00, 318.3, 242.4)">(</text><text xml:space="preserve" font-family="Courier,Courier" font-size="30.0" fill="#FEFFFF" transform="matrix(1.00, 0.00, -0.00, -1.00, 336.4, 242.4)">b</text><text xml:space="preserve" font-family="Courier,Courier" font-size="30.0" fill="#FEFFFF" transform="matrix(1.00, 0.00, -0.00, -1.00, 354.4, 242.4)">u</text><text xml:space="preserve" font-family="Courier,Courier" font-size="30.0" fill="#FEFFFF" transform="matrix(1.00, 0.00, -0.00, -1.00, 372.4, 242.4)">f</text><text xml:space="preserve" font-family="Courier,Courier" font-size="30.0" fill="#FEFFFF" transform="matrix(1.00, 0.00, -0.00, -1.00, 390.4, 242.4)">)</text><text xml:space="preserve" font-family="Courier,Courier" font-size="30.0" fill="#FEFFFF" transform="matrix(1.00, 0.00, -0.00, -1.00, 84.3, 196.8)">}</text><text xml:space="preserve" font-family="Courier,Courier" font-size="30.0" fill="#FEFFFF" transform="matrix(1.00, 0.00, -0.00, -1.00, 102.3, 196.8)">)</text></g></svg>