<?xml version="1.0" encoding="UTF-8" standalone="no"?><svg xmlns="http://www.w3.org/2000/svg" xmlns:xlink="http://www.w3.org/1999/xlink" clip-rule="evenodd" stroke-miterlimit="10" viewBox="0 0 1024 768"><desc>SVG generated by Keynote</desc><defs></defs><g transform="matrix(1.00, 0.00, -0.00, -1.00, 0.0, 768.0)"><path d="M 0.0 768.0 L 1024.0 768.0 L 1024.0 0.0 L 0.0 0.0 Z M 0.0 768.0 " fill="#000000"></path><text xml:space="preserve" font-family="Helvetica-Light,Helvetica" font-size="80.0" fill="#FEFFFF" transform="matrix(1.00, 0.00, -0.00, -1.00, 400.9, 633.4)">S</text><text xml:space="preserve" font-family="Helvetica-Light,Helvetica" font-size="80.0" fill="#FEFFFF" transform="matrix(1.00, 0.00, -0.00, -1.00, 449.8, 633.4)">e</text><text xml:space="preserve" font-family="Helvetica-Light,Helvetica" font-size="80.0" fill="#FEFFFF" transform="matrix(1.00, 0.00, -0.00, -1.00, 494.2, 633.4)">r</text><text xml:space="preserve" font-family="Helvetica-Light,Helvetica" font-size="80.0" fill="#FEFFFF" transform="matrix(1.00, 0.00, -0.00, -1.00, 520.9, 633.4)">i</text><text xml:space="preserve" font-family="Helvetica-Light,Helvetica" font-size="80.0" fill="#FEFFFF" transform="matrix(1.00, 0.00, -0.00, -1.00, 538.6, 633.4)">e</text><text xml:space="preserve" font-family="Helvetica-Light,Helvetica" font-size="80.0" fill="#FEFFFF" transform="matrix(1.00, 0.00, -0.00, -1.00, 583.1, 633.4)">s</text><text xml:space="preserve" font-family="Courier,Courier" font-size="35.3" fill="#FEFFFF" transform="matrix(1.00, 0.00, -0.00, -1.00, 79.0, 514.7)">.</text><text xml:space="preserve" font-family="Courier,Courier" font-size="35.3" fill="#FEFFFF" transform="matrix(1.00, 0.00, -0.00, -1.00, 100.2, 514.7)">t</text><text xml:space="preserve" font-family="Courier,Courier" font-size="35.3" fill="#FEFFFF" transform="matrix(1.00, 0.00, -0.00, -1.00, 121.4, 514.7)">h</text><text xml:space="preserve" font-family="Courier,Courier" font-size="35.3" fill="#FEFFFF" transform="matrix(1.00, 0.00, -0.00, -1.00, 142.6, 514.7)">e</text><text xml:space="preserve" font-family="Courier,Courier" font-size="35.3" fill="#FEFFFF" transform="matrix(1.00, 0.00, -0.00, -1.00, 163.8, 514.7)">n</text><text xml:space="preserve" font-family="Courier,Courier" font-size="35.3" fill="#FEFFFF" transform="matrix(1.00, 0.00, -0.00, -1.00, 185.1, 514.7)">(</text><text xml:space="preserve" font-family="Courier,Courier" font-size="35.3" fill="#FEFFFF" transform="matrix(1.00, 0.00, -0.00, -1.00, 206.3, 514.7)">)</text><text xml:space="preserve" font-family="Helvetica-Light,Helvetica" font-size="35.3" fill="#FEFFFF" transform="matrix(1.00, 0.00, -0.00, -1.00, 227.5, 514.7)"> </text><text xml:space="preserve" font-family="Helvetica-Light,Helvetica" font-size="35.3" fill="#FEFFFF" transform="matrix(1.00, 0.00, -0.00, -1.00, 237.3, 514.7)">a</text><text xml:space="preserve" font-family="Helvetica-Light,Helvetica" font-size="35.3" fill="#FEFFFF" transform="matrix(1.00, 0.00, -0.00, -1.00, 256.9, 514.7)">n</text><text xml:space="preserve" font-family="Helvetica-Light,Helvetica" font-size="35.3" fill="#FEFFFF" transform="matrix(1.00, 0.00, -0.00, -1.00, 276.6, 514.7)">d</text><text xml:space="preserve" font-family="Helvetica-Light,Helvetica" font-size="35.3" fill="#FEFFFF" transform="matrix(1.00, 0.00, -0.00, -1.00, 298.2, 514.7)"> </text><text xml:space="preserve" font-family="Courier,Courier" font-size="35.3" fill="#FEFFFF" transform="matrix(1.00, 0.00, -0.00, -1.00, 308.0, 514.7)">.</text><text xml:space="preserve" font-family="Courier,Courier" font-size="35.3" fill="#FEFFFF" transform="matrix(1.00, 0.00, -0.00, -1.00, 329.2, 514.7)">c</text><text xml:space="preserve" font-family="Courier,Courier" font-size="35.3" fill="#FEFFFF" transform="matrix(1.00, 0.00, -0.00, -1.00, 350.4, 514.7)">a</text><text xml:space="preserve" font-family="Courier,Courier" font-size="35.3" fill="#FEFFFF" transform="matrix(1.00, 0.00, -0.00, -1.00, 371.6, 514.7)">t</text><text xml:space="preserve" font-family="Courier,Courier" font-size="35.3" fill="#FEFFFF" transform="matrix(1.00, 0.00, -0.00, -1.00, 392.8, 514.7)">c</text><text xml:space="preserve" font-family="Courier,Courier" font-size="35.3" fill="#FEFFFF" transform="matrix(1.00, 0.00, -0.00, -1.00, 414.0, 514.7)">h</text><text xml:space="preserve" font-family="Courier,Courier" font-size="35.3" fill="#FEFFFF" transform="matrix(1.00, 0.00, -0.00, -1.00, 435.3, 514.7)">(</text><text xml:space="preserve" font-family="Courier,Courier" font-size="35.3" fill="#FEFFFF" transform="matrix(1.00, 0.00, -0.00, -1.00, 456.5, 514.7)">)</text><text xml:space="preserve" font-family="Helvetica-Light,Helvetica" font-size="35.3" fill="#FEFFFF" transform="matrix(1.00, 0.00, -0.00, -1.00, 477.7, 514.7)"> </text><text xml:space="preserve" font-family="Helvetica-Light,Helvetica" font-size="35.3" fill="#FEFFFF" transform="matrix(1.00, 0.00, -0.00, -1.00, 487.5, 514.7)">a</text><text xml:space="preserve" font-family="Helvetica-Light,Helvetica" font-size="35.3" fill="#FEFFFF" transform="matrix(1.00, 0.00, -0.00, -1.00, 507.1, 514.7)">l</text><text xml:space="preserve" font-family="Helvetica-Light,Helvetica" font-size="35.3" fill="#FEFFFF" transform="matrix(1.00, 0.00, -0.00, -1.00, 515.0, 514.7)">w</text><text xml:space="preserve" font-family="Helvetica-Light,Helvetica" font-size="35.3" fill="#FEFFFF" transform="matrix(1.00, 0.00, -0.00, -1.00, 540.5, 514.7)">a</text><text xml:space="preserve" font-family="Helvetica-Light,Helvetica" font-size="35.3" fill="#FEFFFF" transform="matrix(1.00, 0.00, -0.00, -1.00, 560.1, 514.7)">y</text><text xml:space="preserve" font-family="Helvetica-Light,Helvetica" font-size="35.3" fill="#FEFFFF" transform="matrix(1.00, 0.00, -0.00, -1.00, 577.8, 514.7)">s</text><text xml:space="preserve" font-family="Helvetica-Light,Helvetica" font-size="35.3" fill="#FEFFFF" transform="matrix(1.00, 0.00, -0.00, -1.00, 595.5, 514.7)"> </text><text xml:space="preserve" font-family="Helvetica-Light,Helvetica" font-size="35.3" fill="#FEFFFF" transform="matrix(1.00, 0.00, -0.00, -1.00, 605.3, 514.7)">r</text><text xml:space="preserve" font-family="Helvetica-Light,Helvetica" font-size="35.3" fill="#FEFFFF" transform="matrix(1.00, 0.00, -0.00, -1.00, 616.4, 514.7)">e</text><text xml:space="preserve" font-family="Helvetica-Light,Helvetica" font-size="35.3" fill="#FEFFFF" transform="matrix(1.00, 0.00, -0.00, -1.00, 636.1, 514.7)">t</text><text xml:space="preserve" font-family="Helvetica-Light,Helvetica" font-size="35.3" fill="#FEFFFF" transform="matrix(1.00, 0.00, -0.00, -1.00, 645.9, 514.7)">u</text><text xml:space="preserve" font-family="Helvetica-Light,Helvetica" font-size="35.3" fill="#FEFFFF" transform="matrix(1.00, 0.00, -0.00, -1.00, 665.6, 514.7)">r</text><text xml:space="preserve" font-family="Helvetica-Light,Helvetica" font-size="35.3" fill="#FEFFFF" transform="matrix(1.00, 0.00, -0.00, -1.00, 678.0, 514.7)">n</text><text xml:space="preserve" font-family="Helvetica-Light,Helvetica" font-size="35.3" fill="#FEFFFF" transform="matrix(1.00, 0.00, -0.00, -1.00, 697.6, 514.7)"> </text><text xml:space="preserve" font-family="Helvetica-Light,Helvetica" font-size="35.3" fill="#FEFFFF" transform="matrix(1.00, 0.00, -0.00, -1.00, 707.4, 514.7)">a</text><text xml:space="preserve" font-family="Helvetica-Light,Helvetica" font-size="35.3" fill="#FEFFFF" transform="matrix(1.00, 0.00, -0.00, -1.00, 727.1, 514.7)"> </text><text xml:space="preserve" font-family="Helvetica-Light,Helvetica" font-size="35.3" fill="#FEFFFF" transform="matrix(1.00, 0.00, -0.00, -1.00, 736.9, 514.7)">p</text><text xml:space="preserve" font-family="Helvetica-Light,Helvetica" font-size="35.3" fill="#FEFFFF" transform="matrix(1.00, 0.00, -0.00, -1.00, 758.5, 514.7)">r</text><text xml:space="preserve" font-family="Helvetica-Light,Helvetica" font-size="35.3" fill="#FEFFFF" transform="matrix(1.00, 0.00, -0.00, -1.00, 769.6, 514.7)">o</text><text xml:space="preserve" font-family="Helvetica-Light,Helvetica" font-size="35.3" fill="#FEFFFF" transform="matrix(1.00, 0.00, -0.00, -1.00, 789.3, 514.7)">m</text><text xml:space="preserve" font-family="Helvetica-Light,Helvetica" font-size="35.3" fill="#FEFFFF" transform="matrix(1.00, 0.00, -0.00, -1.00, 818.7, 514.7)">i</text><text xml:space="preserve" font-family="Helvetica-Light,Helvetica" font-size="35.3" fill="#FEFFFF" transform="matrix(1.00, 0.00, -0.00, -1.00, 826.6, 514.7)">s</text><text xml:space="preserve" font-family="Helvetica-Light,Helvetica" font-size="35.3" fill="#FEFFFF" transform="matrix(1.00, 0.00, -0.00, -1.00, 844.2, 514.7)">e</text><text xml:space="preserve" font-family="Helvetica-Light,Helvetica" font-size="35.3" fill="#FEFFFF" transform="matrix(1.00, 0.00, -0.00, -1.00, 863.9, 514.7)">.</text><text xml:space="preserve" font-family="Helvetica-Light,Helvetica" font-size="35.3" fill="#FEFFFF" transform="matrix(1.00, 0.00, -0.00, -1.00, 873.7, 514.7)"> </text><text xml:space="preserve" font-family="Helvetica-Light,Helvetica" font-size="35.3" fill="#FEFFFF" transform="matrix(1.00, 0.00, -0.00, -1.00, 883.5, 514.7)">T</text><text xml:space="preserve" font-family="Helvetica-Light,Helvetica" font-size="35.3" fill="#FEFFFF" transform="matrix(1.00, 0.00, -0.00, -1.00, 903.2, 514.7)">h</text><text xml:space="preserve" font-family="Helvetica-Light,Helvetica" font-size="35.3" fill="#FEFFFF" transform="matrix(1.00, 0.00, -0.00, -1.00, 922.8, 514.7)">e</text><text xml:space="preserve" font-family="Helvetica-Light,Helvetica" font-size="35.3" fill="#FEFFFF" transform="matrix(1.00, 0.00, -0.00, -1.00, 942.5, 514.7)"> </text><text xml:space="preserve" font-family="Helvetica-Light,Helvetica" font-size="35.3" fill="#FEFFFF" transform="matrix(1.00, 0.00, -0.00, -1.00, 79.0, 472.1)">v</text><text xml:space="preserve" font-family="Helvetica-Light,Helvetica" font-size="35.3" fill="#FEFFFF" transform="matrix(1.00, 0.00, -0.00, -1.00, 96.7, 472.1)">a</text><text xml:space="preserve" font-family="Helvetica-Light,Helvetica" font-size="35.3" fill="#FEFFFF" transform="matrix(1.00, 0.00, -0.00, -1.00, 116.3, 472.1)">l</text><text xml:space="preserve" font-family="Helvetica-Light,Helvetica" font-size="35.3" fill="#FEFFFF" transform="matrix(1.00, 0.00, -0.00, -1.00, 124.2, 472.1)">u</text><text xml:space="preserve" font-family="Helvetica-Light,Helvetica" font-size="35.3" fill="#FEFFFF" transform="matrix(1.00, 0.00, -0.00, -1.00, 143.8, 472.1)">e</text><text xml:space="preserve" font-family="Helvetica-Light,Helvetica" font-size="35.3" fill="#FEFFFF" transform="matrix(1.00, 0.00, -0.00, -1.00, 163.5, 472.1)"> </text><text xml:space="preserve" font-family="Helvetica-Light,Helvetica" font-size="35.3" fill="#FEFFFF" transform="matrix(1.00, 0.00, -0.00, -1.00, 173.3, 472.1)">o</text><text xml:space="preserve" font-family="Helvetica-Light,Helvetica" font-size="35.3" fill="#FEFFFF" transform="matrix(1.00, 0.00, -0.00, -1.00, 192.9, 472.1)">f</text><text xml:space="preserve" font-family="Helvetica-Light,Helvetica" font-size="35.3" fill="#FEFFFF" transform="matrix(1.00, 0.00, -0.00, -1.00, 202.8, 472.1)"> </text><text xml:space="preserve" font-family="Helvetica-Light,Helvetica" font-size="35.3" fill="#FEFFFF" transform="matrix(1.00, 0.00, -0.00, -1.00, 212.6, 472.1)">t</text><text xml:space="preserve" font-family="Helvetica-Light,Helvetica" font-size="35.3" fill="#FEFFFF" transform="matrix(1.00, 0.00, -0.00, -1.00, 222.4, 472.1)">h</text><text xml:space="preserve" font-family="Helvetica-Light,Helvetica" font-size="35.3" fill="#FEFFFF" transform="matrix(1.00, 0.00, -0.00, -1.00, 242.1, 472.1)">e</text><text xml:space="preserve" font-family="Helvetica-Light,Helvetica" font-size="35.3" fill="#FEFFFF" transform="matrix(1.00, 0.00, -0.00, -1.00, 261.7, 472.1)"> </text><text xml:space="preserve" font-family="Helvetica-Light,Helvetica" font-size="35.3" fill="#FEFFFF" transform="matrix(1.00, 0.00, -0.00, -1.00, 271.5, 472.1)">p</text><text xml:space="preserve" font-family="Helvetica-Light,Helvetica" font-size="35.3" fill="#FEFFFF" transform="matrix(1.00, 0.00, -0.00, -1.00, 293.1, 472.1)">r</text><text xml:space="preserve" font-family="Helvetica-Light,Helvetica" font-size="35.3" fill="#FEFFFF" transform="matrix(1.00, 0.00, -0.00, -1.00, 304.3, 472.1)">o</text><text xml:space="preserve" font-family="Helvetica-Light,Helvetica" font-size="35.3" fill="#FEFFFF" transform="matrix(1.00, 0.00, -0.00, -1.00, 323.9, 472.1)">m</text><text xml:space="preserve" font-family="Helvetica-Light,Helvetica" font-size="35.3" fill="#FEFFFF" transform="matrix(1.00, 0.00, -0.00, -1.00, 353.3, 472.1)">i</text><text xml:space="preserve" font-family="Helvetica-Light,Helvetica" font-size="35.3" fill="#FEFFFF" transform="matrix(1.00, 0.00, -0.00, -1.00, 361.2, 472.1)">s</text><text xml:space="preserve" font-family="Helvetica-Light,Helvetica" font-size="35.3" fill="#FEFFFF" transform="matrix(1.00, 0.00, -0.00, -1.00, 378.9, 472.1)">e</text><text xml:space="preserve" font-family="Helvetica-Light,Helvetica" font-size="35.3" fill="#FEFFFF" transform="matrix(1.00, 0.00, -0.00, -1.00, 398.5, 472.1)"> </text><text xml:space="preserve" font-family="Helvetica-Light,Helvetica" font-size="35.3" fill="#FEFFFF" transform="matrix(1.00, 0.00, -0.00, -1.00, 408.3, 472.1)">w</text><text xml:space="preserve" font-family="Helvetica-Light,Helvetica" font-size="35.3" fill="#FEFFFF" transform="matrix(1.00, 0.00, -0.00, -1.00, 433.8, 472.1)">i</text><text xml:space="preserve" font-family="Helvetica-Light,Helvetica" font-size="35.3" fill="#FEFFFF" transform="matrix(1.00, 0.00, -0.00, -1.00, 441.7, 472.1)">l</text><text xml:space="preserve" font-family="Helvetica-Light,Helvetica" font-size="35.3" fill="#FEFFFF" transform="matrix(1.00, 0.00, -0.00, -1.00, 449.5, 472.1)">l</text><text xml:space="preserve" font-family="Helvetica-Light,Helvetica" font-size="35.3" fill="#FEFFFF" transform="matrix(1.00, 0.00, -0.00, -1.00, 457.4, 472.1)"> </text><text xml:space="preserve" font-family="Helvetica-Light,Helvetica" font-size="35.3" fill="#FEFFFF" transform="matrix(1.00, 0.00, -0.00, -1.00, 467.2, 472.1)">b</text><text xml:space="preserve" font-family="Helvetica-Light,Helvetica" font-size="35.3" fill="#FEFFFF" transform="matrix(1.00, 0.00, -0.00, -1.00, 488.8, 472.1)">e</text><text xml:space="preserve" font-family="Helvetica-Light,Helvetica" font-size="35.3" fill="#FEFFFF" transform="matrix(1.00, 0.00, -0.00, -1.00, 508.5, 472.1)"> </text><text xml:space="preserve" font-family="Helvetica-Light,Helvetica" font-size="35.3" fill="#FEFFFF" transform="matrix(1.00, 0.00, -0.00, -1.00, 518.3, 472.1)">t</text><text xml:space="preserve" font-family="Helvetica-Light,Helvetica" font-size="35.3" fill="#FEFFFF" transform="matrix(1.00, 0.00, -0.00, -1.00, 528.1, 472.1)">h</text><text xml:space="preserve" font-family="Helvetica-Light,Helvetica" font-size="35.3" fill="#FEFFFF" transform="matrix(1.00, 0.00, -0.00, -1.00, 547.7, 472.1)">e</text><text xml:space="preserve" font-family="Helvetica-Light,Helvetica" font-size="35.3" fill="#FEFFFF" transform="matrix(1.00, 0.00, -0.00, -1.00, 567.4, 472.1)"> </text><text xml:space="preserve" font-family="Helvetica-Light,Helvetica" font-size="35.3" fill="#FEFFFF" transform="matrix(1.00, 0.00, -0.00, -1.00, 577.2, 472.1)">l</text><text xml:space="preserve" font-family="Helvetica-Light,Helvetica" font-size="35.3" fill="#FEFFFF" transform="matrix(1.00, 0.00, -0.00, -1.00, 585.1, 472.1)">a</text><text xml:space="preserve" font-family="Helvetica-Light,Helvetica" font-size="35.3" fill="#FEFFFF" transform="matrix(1.00, 0.00, -0.00, -1.00, 604.7, 472.1)">s</text><text xml:space="preserve" font-family="Helvetica-Light,Helvetica" font-size="35.3" fill="#FEFFFF" transform="matrix(1.00, 0.00, -0.00, -1.00, 622.4, 472.1)">t</text><text xml:space="preserve" font-family="Helvetica-Light,Helvetica" font-size="35.3" fill="#FEFFFF" transform="matrix(1.00, 0.00, -0.00, -1.00, 632.2, 472.1)"> </text><text xml:space="preserve" font-family="Helvetica-Light,Helvetica" font-size="35.3" fill="#FEFFFF" transform="matrix(1.00, 0.00, -0.00, -1.00, 642.0, 472.1)">r</text><text xml:space="preserve" font-family="Helvetica-Light,Helvetica" font-size="35.3" fill="#FEFFFF" transform="matrix(1.00, 0.00, -0.00, -1.00, 653.2, 472.1)">e</text><text xml:space="preserve" font-family="Helvetica-Light,Helvetica" font-size="35.3" fill="#FEFFFF" transform="matrix(1.00, 0.00, -0.00, -1.00, 672.8, 472.1)">t</text><text xml:space="preserve" font-family="Helvetica-Light,Helvetica" font-size="35.3" fill="#FEFFFF" transform="matrix(1.00, 0.00, -0.00, -1.00, 682.6, 472.1)">u</text><text xml:space="preserve" font-family="Helvetica-Light,Helvetica" font-size="35.3" fill="#FEFFFF" transform="matrix(1.00, 0.00, -0.00, -1.00, 702.3, 472.1)">r</text><text xml:space="preserve" font-family="Helvetica-Light,Helvetica" font-size="35.3" fill="#FEFFFF" transform="matrix(1.00, 0.00, -0.00, -1.00, 714.7, 472.1)">n</text><text xml:space="preserve" font-family="Helvetica-Light,Helvetica" font-size="35.3" fill="#FEFFFF" transform="matrix(1.00, 0.00, -0.00, -1.00, 734.3, 472.1)">e</text><text xml:space="preserve" font-family="Helvetica-Light,Helvetica" font-size="35.3" fill="#FEFFFF" transform="matrix(1.00, 0.00, -0.00, -1.00, 754.0, 472.1)">d</text><text xml:space="preserve" font-family="Helvetica-Light,Helvetica" font-size="35.3" fill="#FEFFFF" transform="matrix(1.00, 0.00, -0.00, -1.00, 775.6, 472.1)"> </text><text xml:space="preserve" font-family="Helvetica-Light,Helvetica" font-size="35.3" fill="#FEFFFF" transform="matrix(1.00, 0.00, -0.00, -1.00, 785.4, 472.1)">v</text><text xml:space="preserve" font-family="Helvetica-Light,Helvetica" font-size="35.3" fill="#FEFFFF" transform="matrix(1.00, 0.00, -0.00, -1.00, 803.1, 472.1)">a</text><text xml:space="preserve" font-family="Helvetica-Light,Helvetica" font-size="35.3" fill="#FEFFFF" transform="matrix(1.00, 0.00, -0.00, -1.00, 822.7, 472.1)">l</text><text xml:space="preserve" font-family="Helvetica-Light,Helvetica" font-size="35.3" fill="#FEFFFF" transform="matrix(1.00, 0.00, -0.00, -1.00, 830.6, 472.1)">u</text><text xml:space="preserve" font-family="Helvetica-Light,Helvetica" font-size="35.3" fill="#FEFFFF" transform="matrix(1.00, 0.00, -0.00, -1.00, 850.2, 472.1)">e</text><text xml:space="preserve" font-family="Helvetica-Light,Helvetica" font-size="35.3" fill="#FEFFFF" transform="matrix(1.00, 0.00, -0.00, -1.00, 869.9, 472.1)">!</text><text xml:space="preserve" font-family="Courier,Courier" font-size="30.0" fill="#FEFFFF" transform="matrix(1.00, 0.00, -0.00, -1.00, 85.0, 369.3)">P</text><text xml:space="preserve" font-family="Courier,Courier" font-size="30.0" fill="#FEFFFF" transform="matrix(1.00, 0.00, -0.00, -1.00, 103.0, 369.3)">r</text><text xml:space="preserve" font-family="Courier,Courier" font-size="30.0" fill="#FEFFFF" transform="matrix(1.00, 0.00, -0.00, -1.00, 121.1, 369.3)">o</text><text xml:space="preserve" font-family="Courier,Courier" font-size="30.0" fill="#FEFFFF" transform="matrix(1.00, 0.00, -0.00, -1.00, 139.1, 369.3)">m</text><text xml:space="preserve" font-family="Courier,Courier" font-size="30.0" fill="#FEFFFF" transform="matrix(1.00, 0.00, -0.00, -1.00, 157.1, 369.3)">i</text><text xml:space="preserve" font-family="Courier,Courier" font-size="30.0" fill="#FEFFFF" transform="matrix(1.00, 0.00, -0.00, -1.00, 175.1, 369.3)">s</text><text xml:space="preserve" font-family="Courier,Courier" font-size="30.0" fill="#FEFFFF" transform="matrix(1.00, 0.00, -0.00, -1.00, 193.1, 369.3)">e</text><text xml:space="preserve" font-family="Courier,Courier" font-size="30.0" fill="#FEFFFF" transform="matrix(1.00, 0.00, -0.00, -1.00, 211.1, 369.3)">.</text><text xml:space="preserve" font-family="Courier,Courier" font-size="30.0" fill="#FEFFFF" transform="matrix(1.00, 0.00, -0.00, -1.00, 229.1, 369.3)">r</text><text xml:space="preserve" font-family="Courier,Courier" font-size="30.0" fill="#FEFFFF" transform="matrix(1.00, 0.00, -0.00, -1.00, 247.1, 369.3)">e</text><text xml:space="preserve" font-family="Courier,Courier" font-size="30.0" fill="#FEFFFF" transform="matrix(1.00, 0.00, -0.00, -1.00, 265.1, 369.3)">s</text><text xml:space="preserve" font-family="Courier,Courier" font-size="30.0" fill="#FEFFFF" transform="matrix(1.00, 0.00, -0.00, -1.00, 283.1, 369.3)">o</text><text xml:space="preserve" font-family="Courier,Courier" font-size="30.0" fill="#FEFFFF" transform="matrix(1.00, 0.00, -0.00, -1.00, 301.1, 369.3)">l</text><text xml:space="preserve" font-family="Courier,Courier" font-size="30.0" fill="#FEFFFF" transform="matrix(1.00, 0.00, -0.00, -1.00, 319.1, 369.3)">v</text><text xml:space="preserve" font-family="Courier,Courier" font-size="30.0" fill="#FEFFFF" transform="matrix(1.00, 0.00, -0.00, -1.00, 337.1, 369.3)">e</text><text xml:space="preserve" font-family="Courier,Courier" font-size="30.0" fill="#FEFFFF" transform="matrix(1.00, 0.00, -0.00, -1.00, 355.1, 369.3)">(</text><text xml:space="preserve" font-family="Courier,Courier" font-size="30.0" fill="#7ADA45" transform="matrix(1.00, 0.00, -0.00, -1.00, 373.1, 369.3)">t</text><text xml:space="preserve" font-family="Courier,Courier" font-size="30.0" fill="#7ADA45" transform="matrix(1.00, 0.00, -0.00, -1.00, 391.1, 369.3)">r</text><text xml:space="preserve" font-family="Courier,Courier" font-size="30.0" fill="#7ADA45" transform="matrix(1.00, 0.00, -0.00, -1.00, 409.1, 369.3)">u</text><text xml:space="preserve" font-family="Courier,Courier" font-size="30.0" fill="#7ADA45" transform="matrix(1.00, 0.00, -0.00, -1.00, 427.1, 369.3)">e</text><text xml:space="preserve" font-family="Courier,Courier" font-size="30.0" fill="#FEFFFF" transform="matrix(1.00, 0.00, -0.00, -1.00, 445.1, 369.3)">)</text><text xml:space="preserve" font-family="Courier,Courier" font-size="30.0" fill="#FEFFFF" transform="matrix(1.00, 0.00, -0.00, -1.00, 463.1, 369.3)">.</text><text xml:space="preserve" font-family="Courier,Courier" font-size="30.0" fill="#E7A432" transform="matrix(1.00, 0.00, -0.00, -1.00, 481.1, 369.3)">t</text><text xml:space="preserve" font-family="Courier,Courier" font-size="30.0" fill="#E7A432" transform="matrix(1.00, 0.00, -0.00, -1.00, 499.1, 369.3)">h</text><text xml:space="preserve" font-family="Courier,Courier" font-size="30.0" fill="#E7A432" transform="matrix(1.00, 0.00, -0.00, -1.00, 517.1, 369.3)">e</text><text xml:space="preserve" font-family="Courier,Courier" font-size="30.0" fill="#E7A432" transform="matrix(1.00, 0.00, -0.00, -1.00, 535.1, 369.3)">n</text><text xml:space="preserve" font-family="Courier,Courier" font-size="30.0" fill="#FEFFFF" transform="matrix(1.00, 0.00, -0.00, -1.00, 553.1, 369.3)">(</text><text xml:space="preserve" font-family="Courier,Courier" font-size="30.0" fill="#7ADA45" transform="matrix(1.00, 0.00, -0.00, -1.00, 571.1, 369.3)">v</text><text xml:space="preserve" font-family="Courier,Courier" font-size="30.0" fill="#7ADA45" transform="matrix(1.00, 0.00, -0.00, -1.00, 589.1, 369.3)">a</text><text xml:space="preserve" font-family="Courier,Courier" font-size="30.0" fill="#7ADA45" transform="matrix(1.00, 0.00, -0.00, -1.00, 607.1, 369.3)">l</text><text xml:space="preserve" font-family="Courier,Courier" font-size="30.0" fill="#FEFFFF" transform="matrix(1.00, 0.00, -0.00, -1.00, 625.1, 369.3)">)</text><text xml:space="preserve" font-family="Courier,Courier" font-size="30.0" fill="#FEFFFF" transform="matrix(1.00, 0.00, -0.00, -1.00, 643.1, 369.3)"> </text><text xml:space="preserve" font-family="Courier,Courier" font-size="30.0" fill="#FEFFFF" transform="matrix(1.00, 0.00, -0.00, -1.00, 661.1, 369.3)">{</text><text xml:space="preserve" font-family="Courier,Courier" font-size="30.0" fill="#FEFFFF" transform="matrix(1.00, 0.00, -0.00, -1.00, 85.0, 323.7)"> </text><text xml:space="preserve" font-family="Courier,Courier" font-size="30.0" fill="#FEFFFF" transform="matrix(1.00, 0.00, -0.00, -1.00, 103.0, 323.7)"> </text><text xml:space="preserve" font-family="Courier,Courier" font-size="30.0" fill="#FEFFFF" transform="matrix(1.00, 0.00, -0.00, -1.00, 121.1, 323.7)">/</text><text xml:space="preserve" font-family="Courier,Courier" font-size="30.0" fill="#FEFFFF" transform="matrix(1.00, 0.00, -0.00, -1.00, 139.1, 323.7)">/</text><text xml:space="preserve" font-family="Courier,Courier" font-size="30.0" fill="#FEFFFF" transform="matrix(1.00, 0.00, -0.00, -1.00, 157.1, 323.7)"> </text><text xml:space="preserve" font-family="Courier,Courier" font-size="30.0" fill="#FEFFFF" transform="matrix(1.00, 0.00, -0.00, -1.00, 175.1, 323.7)">t</text><text xml:space="preserve" font-family="Courier,Courier" font-size="30.0" fill="#FEFFFF" transform="matrix(1.00, 0.00, -0.00, -1.00, 193.1, 323.7)">h</text><text xml:space="preserve" font-family="Courier,Courier" font-size="30.0" fill="#FEFFFF" transform="matrix(1.00, 0.00, -0.00, -1.00, 211.1, 323.7)">e</text><text xml:space="preserve" font-family="Courier,Courier" font-size="30.0" fill="#FEFFFF" transform="matrix(1.00, 0.00, -0.00, -1.00, 229.1, 323.7)"> </text><text xml:space="preserve" font-family="Courier,Courier" font-size="30.0" fill="#FEFFFF" transform="matrix(1.00, 0.00, -0.00, -1.00, 247.1, 323.7)">v</text><text xml:space="preserve" font-family="Courier,Courier" font-size="30.0" fill="#FEFFFF" transform="matrix(1.00, 0.00, -0.00, -1.00, 265.1, 323.7)">a</text><text xml:space="preserve" font-family="Courier,Courier" font-size="30.0" fill="#FEFFFF" transform="matrix(1.00, 0.00, -0.00, -1.00, 283.1, 323.7)">l</text><text xml:space="preserve" font-family="Courier,Courier" font-size="30.0" fill="#FEFFFF" transform="matrix(1.00, 0.00, -0.00, -1.00, 301.1, 323.7)">u</text><text xml:space="preserve" font-family="Courier,Courier" font-size="30.0" fill="#FEFFFF" transform="matrix(1.00, 0.00, -0.00, -1.00, 319.1, 323.7)">e</text><text xml:space="preserve" font-family="Courier,Courier" font-size="30.0" fill="#FEFFFF" transform="matrix(1.00, 0.00, -0.00, -1.00, 337.1, 323.7)"> </text><text xml:space="preserve" font-family="Courier,Courier" font-size="30.0" fill="#FEFFFF" transform="matrix(1.00, 0.00, -0.00, -1.00, 355.1, 323.7)">o</text><text xml:space="preserve" font-family="Courier,Courier" font-size="30.0" fill="#FEFFFF" transform="matrix(1.00, 0.00, -0.00, -1.00, 373.1, 323.7)">f</text><text xml:space="preserve" font-family="Courier,Courier" font-size="30.0" fill="#FEFFFF" transform="matrix(1.00, 0.00, -0.00, -1.00, 391.1, 323.7)"> </text><text xml:space="preserve" font-family="Courier,Courier" font-size="30.0" fill="#FEFFFF" transform="matrix(1.00, 0.00, -0.00, -1.00, 409.1, 323.7)">t</text><text xml:space="preserve" font-family="Courier,Courier" font-size="30.0" fill="#FEFFFF" transform="matrix(1.00, 0.00, -0.00, -1.00, 427.2, 323.7)">h</text><text xml:space="preserve" font-family="Courier,Courier" font-size="30.0" fill="#FEFFFF" transform="matrix(1.00, 0.00, -0.00, -1.00, 445.2, 323.7)">e</text><text xml:space="preserve" font-family="Courier,Courier" font-size="30.0" fill="#FEFFFF" transform="matrix(1.00, 0.00, -0.00, -1.00, 463.2, 323.7)"> </text><text xml:space="preserve" font-family="Courier,Courier" font-size="30.0" fill="#FEFFFF" transform="matrix(1.00, 0.00, -0.00, -1.00, 481.2, 323.7)">l</text><text xml:space="preserve" font-family="Courier,Courier" font-size="30.0" fill="#FEFFFF" transform="matrix(1.00, 0.00, -0.00, -1.00, 499.2, 323.7)">a</text><text xml:space="preserve" font-family="Courier,Courier" font-size="30.0" fill="#FEFFFF" transform="matrix(1.00, 0.00, -0.00, -1.00, 517.2, 323.7)">s</text><text xml:space="preserve" font-family="Courier,Courier" font-size="30.0" fill="#FEFFFF" transform="matrix(1.00, 0.00, -0.00, -1.00, 535.2, 323.7)">t</text><text xml:space="preserve" font-family="Courier,Courier" font-size="30.0" fill="#FEFFFF" transform="matrix(1.00, 0.00, -0.00, -1.00, 553.2, 323.7)"> </text><text xml:space="preserve" font-family="Courier,Courier" font-size="30.0" fill="#FEFFFF" transform="matrix(1.00, 0.00, -0.00, -1.00, 571.2, 323.7)">p</text><text xml:space="preserve" font-family="Courier,Courier" font-size="30.0" fill="#FEFFFF" transform="matrix(1.00, 0.00, -0.00, -1.00, 589.2, 323.7)">r</text><text xml:space="preserve" font-family="Courier,Courier" font-size="30.0" fill="#FEFFFF" transform="matrix(1.00, 0.00, -0.00, -1.00, 607.2, 323.7)">o</text><text xml:space="preserve" font-family="Courier,Courier" font-size="30.0" fill="#FEFFFF" transform="matrix(1.00, 0.00, -0.00, -1.00, 625.2, 323.7)">m</text><text xml:space="preserve" font-family="Courier,Courier" font-size="30.0" fill="#FEFFFF" transform="matrix(1.00, 0.00, -0.00, -1.00, 643.2, 323.7)">i</text><text xml:space="preserve" font-family="Courier,Courier" font-size="30.0" fill="#FEFFFF" transform="matrix(1.00, 0.00, -0.00, -1.00, 661.2, 323.7)">s</text><text xml:space="preserve" font-family="Courier,Courier" font-size="30.0" fill="#FEFFFF" transform="matrix(1.00, 0.00, -0.00, -1.00, 679.2, 323.7)">e</text><text xml:space="preserve" font-family="Courier,Courier" font-size="30.0" fill="#FEFFFF" transform="matrix(1.00, 0.00, -0.00, -1.00, 85.0, 278.1)"> </text><text xml:space="preserve" font-family="Courier,Courier" font-size="30.0" fill="#FEFFFF" transform="matrix(1.00, 0.00, -0.00, -1.00, 103.0, 278.1)"> </text><text xml:space="preserve" font-family="Courier,Courier" font-size="30.0" fill="#FEFFFF" transform="matrix(1.00, 0.00, -0.00, -1.00, 121.1, 278.1)">c</text><text xml:space="preserve" font-family="Courier,Courier" font-size="30.0" fill="#FEFFFF" transform="matrix(1.00, 0.00, -0.00, -1.00, 139.1, 278.1)">o</text><text xml:space="preserve" font-family="Courier,Courier" font-size="30.0" fill="#FEFFFF" transform="matrix(1.00, 0.00, -0.00, -1.00, 157.1, 278.1)">n</text><text xml:space="preserve" font-family="Courier,Courier" font-size="30.0" fill="#FEFFFF" transform="matrix(1.00, 0.00, -0.00, -1.00, 175.1, 278.1)">s</text><text xml:space="preserve" font-family="Courier,Courier" font-size="30.0" fill="#FEFFFF" transform="matrix(1.00, 0.00, -0.00, -1.00, 193.1, 278.1)">o</text><text xml:space="preserve" font-family="Courier,Courier" font-size="30.0" fill="#FEFFFF" transform="matrix(1.00, 0.00, -0.00, -1.00, 211.1, 278.1)">l</text><text xml:space="preserve" font-family="Courier,Courier" font-size="30.0" fill="#FEFFFF" transform="matrix(1.00, 0.00, -0.00, -1.00, 229.1, 278.1)">e</text><text xml:space="preserve" font-family="Courier,Courier" font-size="30.0" fill="#FEFFFF" transform="matrix(1.00, 0.00, -0.00, -1.00, 247.1, 278.1)">.</text><text xml:space="preserve" font-family="Courier,Courier" font-size="30.0" fill="#FEFFFF" transform="matrix(1.00, 0.00, -0.00, -1.00, 265.1, 278.1)">l</text><text xml:space="preserve" font-family="Courier,Courier" font-size="30.0" fill="#FEFFFF" transform="matrix(1.00, 0.00, -0.00, -1.00, 283.1, 278.1)">o</text><text xml:space="preserve" font-family="Courier,Courier" font-size="30.0" fill="#FEFFFF" transform="matrix(1.00, 0.00, -0.00, -1.00, 301.1, 278.1)">g</text><text xml:space="preserve" font-family="Courier,Courier" font-size="30.0" fill="#FEFFFF" transform="matrix(1.00, 0.00, -0.00, -1.00, 319.1, 278.1)">(</text><text xml:space="preserve" font-family="Courier,Courier" font-size="30.0" fill="#7ADA45" transform="matrix(1.00, 0.00, -0.00, -1.00, 337.1, 278.1)">v</text><text xml:space="preserve" font-family="Courier,Courier" font-size="30.0" fill="#7ADA45" transform="matrix(1.00, 0.00, -0.00, -1.00, 355.1, 278.1)">a</text><text xml:space="preserve" font-family="Courier,Courier" font-size="30.0" fill="#7ADA45" transform="matrix(1.00, 0.00, -0.00, -1.00, 373.1, 278.1)">l</text><text xml:space="preserve" font-family="Courier,Courier" font-size="30.0" fill="#FEFFFF" transform="matrix(1.00, 0.00, -0.00, -1.00, 391.1, 278.1)"> </text><text xml:space="preserve" font-family="Courier,Courier" font-size="30.0" fill="#FEFFFF" transform="matrix(1.00, 0.00, -0.00, -1.00, 409.1, 278.1)">=</text><text xml:space="preserve" font-family="Courier,Courier" font-size="30.0" fill="#FEFFFF" transform="matrix(1.00, 0.00, -0.00, -1.00, 427.1, 278.1)">=</text><text xml:space="preserve" font-family="Courier,Courier" font-size="30.0" fill="#FEFFFF" transform="matrix(1.00, 0.00, -0.00, -1.00, 445.1, 278.1)">=</text><text xml:space="preserve" font-family="Courier,Courier" font-size="30.0" fill="#FEFFFF" transform="matrix(1.00, 0.00, -0.00, -1.00, 463.1, 278.1)"> </text><text xml:space="preserve" font-family="Courier,Courier" font-size="30.0" fill="#7ADA45" transform="matrix(1.00, 0.00, -0.00, -1.00, 481.1, 278.1)">t</text><text xml:space="preserve" font-family="Courier,Courier" font-size="30.0" fill="#7ADA45" transform="matrix(1.00, 0.00, -0.00, -1.00, 499.1, 278.1)">r</text><text xml:space="preserve" font-family="Courier,Courier" font-size="30.0" fill="#7ADA45" transform="matrix(1.00, 0.00, -0.00, -1.00, 517.1, 278.1)">u</text><text xml:space="preserve" font-family="Courier,Courier" font-size="30.0" fill="#7ADA45" transform="matrix(1.00, 0.00, -0.00, -1.00, 535.1, 278.1)">e</text><text xml:space="preserve" font-family="Courier,Courier" font-size="30.0" fill="#FEFFFF" transform="matrix(1.00, 0.00, -0.00, -1.00, 553.1, 278.1)">)</text><text xml:space="preserve" font-family="Courier,Courier" font-size="30.0" fill="#FEFFFF" transform="matrix(1.00, 0.00, -0.00, -1.00, 85.0, 232.5)">}</text><text xml:space="preserve" font-family="Courier,Courier" font-size="30.0" fill="#FEFFFF" transform="matrix(1.00, 0.00, -0.00, -1.00, 103.0, 232.5)">)</text><text xml:space="preserve" font-family="Courier,Courier" font-size="30.0" fill="#FEFFFF" transform="matrix(1.00, 0.00, -0.00, -1.00, 121.1, 232.5)">.</text><text xml:space="preserve" font-family="Courier,Courier" font-size="30.0" fill="#E7A432" transform="matrix(1.00, 0.00, -0.00, -1.00, 139.1, 232.5)">t</text><text xml:space="preserve" font-family="Courier,Courier" font-size="30.0" fill="#E7A432" transform="matrix(1.00, 0.00, -0.00, -1.00, 157.1, 232.5)">h</text><text xml:space="preserve" font-family="Courier,Courier" font-size="30.0" fill="#E7A432" transform="matrix(1.00, 0.00, -0.00, -1.00, 175.1, 232.5)">e</text><text xml:space="preserve" font-family="Courier,Courier" font-size="30.0" fill="#E7A432" transform="matrix(1.00, 0.00, -0.00, -1.00, 193.1, 232.5)">n</text><text xml:space="preserve" font-family="Courier,Courier" font-size="30.0" fill="#FEFFFF" transform="matrix(1.00, 0.00, -0.00, -1.00, 211.1, 232.5)">(</text><text xml:space="preserve" font-family="Courier,Courier" font-size="30.0" fill="#FEFFFF" transform="matrix(1.00, 0.00, -0.00, -1.00, 229.1, 232.5)">f</text><text xml:space="preserve" font-family="Courier,Courier" font-size="30.0" fill="#FEFFFF" transform="matrix(1.00, 0.00, -0.00, -1.00, 247.1, 232.5)">u</text><text xml:space="preserve" font-family="Courier,Courier" font-size="30.0" fill="#FEFFFF" transform="matrix(1.00, 0.00, -0.00, -1.00, 265.1, 232.5)">n</text><text xml:space="preserve" font-family="Courier,Courier" font-size="30.0" fill="#FEFFFF" transform="matrix(1.00, 0.00, -0.00, -1.00, 283.1, 232.5)">c</text><text xml:space="preserve" font-family="Courier,Courier" font-size="30.0" fill="#FEFFFF" transform="matrix(1.00, 0.00, -0.00, -1.00, 301.1, 232.5)">t</text><text xml:space="preserve" font-family="Courier,Courier" font-size="30.0" fill="#FEFFFF" transform="matrix(1.00, 0.00, -0.00, -1.00, 319.1, 232.5)">i</text><text xml:space="preserve" font-family="Courier,Courier" font-size="30.0" fill="#FEFFFF" transform="matrix(1.00, 0.00, -0.00, -1.00, 337.1, 232.5)">o</text><text xml:space="preserve" font-family="Courier,Courier" font-size="30.0" fill="#FEFFFF" transform="matrix(1.00, 0.00, -0.00, -1.00, 355.1, 232.5)">n</text><text xml:space="preserve" font-family="Courier,Courier" font-size="30.0" fill="#FEFFFF" transform="matrix(1.00, 0.00, -0.00, -1.00, 373.1, 232.5)"> </text><text xml:space="preserve" font-family="Courier,Courier" font-size="30.0" fill="#FEFFFF" transform="matrix(1.00, 0.00, -0.00, -1.00, 391.1, 232.5)">(</text><text xml:space="preserve" font-family="Courier,Courier" font-size="30.0" fill="#00A6AC" transform="matrix(1.00, 0.00, -0.00, -1.00, 409.1, 232.5)">v</text><text xml:space="preserve" font-family="Courier,Courier" font-size="30.0" fill="#00A6AC" transform="matrix(1.00, 0.00, -0.00, -1.00, 427.1, 232.5)">a</text><text xml:space="preserve" font-family="Courier,Courier" font-size="30.0" fill="#00A6AC" transform="matrix(1.00, 0.00, -0.00, -1.00, 445.1, 232.5)">l</text><text xml:space="preserve" font-family="Courier,Courier" font-size="30.0" fill="#FEFFFF" transform="matrix(1.00, 0.00, -0.00, -1.00, 463.1, 232.5)">)</text><text xml:space="preserve" font-family="Courier,Courier" font-size="30.0" fill="#FEFFFF" transform="matrix(1.00, 0.00, -0.00, -1.00, 481.1, 232.5)"> </text><text xml:space="preserve" font-family="Courier,Courier" font-size="30.0" fill="#FEFFFF" transform="matrix(1.00, 0.00, -0.00, -1.00, 499.1, 232.5)">{</text><text xml:space="preserve" font-family="Courier,Courier" font-size="30.0" fill="#FEFFFF" transform="matrix(1.00, 0.00, -0.00, -1.00, 85.0, 186.9)"> </text><text xml:space="preserve" font-family="Courier,Courier" font-size="30.0" fill="#FEFFFF" transform="matrix(1.00, 0.00, -0.00, -1.00, 103.0, 186.9)"> </text><text xml:space="preserve" font-family="Courier,Courier" font-size="30.0" fill="#FEFFFF" transform="matrix(1.00, 0.00, -0.00, -1.00, 121.1, 186.9)">/</text><text xml:space="preserve" font-family="Courier,Courier" font-size="30.0" fill="#FEFFFF" transform="matrix(1.00, 0.00, -0.00, -1.00, 139.1, 186.9)">/</text><text xml:space="preserve" font-family="Courier,Courier" font-size="30.0" fill="#FEFFFF" transform="matrix(1.00, 0.00, -0.00, -1.00, 157.1, 186.9)"> </text><text xml:space="preserve" font-family="Courier,Courier" font-size="30.0" fill="#FEFFFF" transform="matrix(1.00, 0.00, -0.00, -1.00, 175.1, 186.9)">.</text><text xml:space="preserve" font-family="Courier,Courier" font-size="30.0" fill="#FEFFFF" transform="matrix(1.00, 0.00, -0.00, -1.00, 193.1, 186.9)">t</text><text xml:space="preserve" font-family="Courier,Courier" font-size="30.0" fill="#FEFFFF" transform="matrix(1.00, 0.00, -0.00, -1.00, 211.1, 186.9)">h</text><text xml:space="preserve" font-family="Courier,Courier" font-size="30.0" fill="#FEFFFF" transform="matrix(1.00, 0.00, -0.00, -1.00, 229.1, 186.9)">e</text><text xml:space="preserve" font-family="Courier,Courier" font-size="30.0" fill="#FEFFFF" transform="matrix(1.00, 0.00, -0.00, -1.00, 247.1, 186.9)">n</text><text xml:space="preserve" font-family="Courier,Courier" font-size="30.0" fill="#FEFFFF" transform="matrix(1.00, 0.00, -0.00, -1.00, 265.1, 186.9)">(</text><text xml:space="preserve" font-family="Courier,Courier" font-size="30.0" fill="#FEFFFF" transform="matrix(1.00, 0.00, -0.00, -1.00, 283.1, 186.9)">)</text><text xml:space="preserve" font-family="Courier,Courier" font-size="30.0" fill="#FEFFFF" transform="matrix(1.00, 0.00, -0.00, -1.00, 301.1, 186.9)"> </text><text xml:space="preserve" font-family="Courier,Courier" font-size="30.0" fill="#FEFFFF" transform="matrix(1.00, 0.00, -0.00, -1.00, 319.1, 186.9)">a</text><text xml:space="preserve" font-family="Courier,Courier" font-size="30.0" fill="#FEFFFF" transform="matrix(1.00, 0.00, -0.00, -1.00, 337.1, 186.9)">b</text><text xml:space="preserve" font-family="Courier,Courier" font-size="30.0" fill="#FEFFFF" transform="matrix(1.00, 0.00, -0.00, -1.00, 355.1, 186.9)">o</text><text xml:space="preserve" font-family="Courier,Courier" font-size="30.0" fill="#FEFFFF" transform="matrix(1.00, 0.00, -0.00, -1.00, 373.1, 186.9)">v</text><text xml:space="preserve" font-family="Courier,Courier" font-size="30.0" fill="#FEFFFF" transform="matrix(1.00, 0.00, -0.00, -1.00, 391.1, 186.9)">e</text><text xml:space="preserve" font-family="Courier,Courier" font-size="30.0" fill="#FEFFFF" transform="matrix(1.00, 0.00, -0.00, -1.00, 409.1, 186.9)"> </text><text xml:space="preserve" font-family="Courier,Courier" font-size="30.0" fill="#FEFFFF" transform="matrix(1.00, 0.00, -0.00, -1.00, 427.2, 186.9)">d</text><text xml:space="preserve" font-family="Courier,Courier" font-size="30.0" fill="#FEFFFF" transform="matrix(1.00, 0.00, -0.00, -1.00, 445.2, 186.9)">i</text><text xml:space="preserve" font-family="Courier,Courier" font-size="30.0" fill="#FEFFFF" transform="matrix(1.00, 0.00, -0.00, -1.00, 463.2, 186.9)">d</text><text xml:space="preserve" font-family="Courier,Courier" font-size="30.0" fill="#FEFFFF" transform="matrix(1.00, 0.00, -0.00, -1.00, 481.2, 186.9)"> </text><text xml:space="preserve" font-family="Courier,Courier" font-size="30.0" fill="#FEFFFF" transform="matrix(1.00, 0.00, -0.00, -1.00, 499.2, 186.9)">n</text><text xml:space="preserve" font-family="Courier,Courier" font-size="30.0" fill="#FEFFFF" transform="matrix(1.00, 0.00, -0.00, -1.00, 517.2, 186.9)">o</text><text xml:space="preserve" font-family="Courier,Courier" font-size="30.0" fill="#FEFFFF" transform="matrix(1.00, 0.00, -0.00, -1.00, 535.2, 186.9)">t</text><text xml:space="preserve" font-family="Courier,Courier" font-size="30.0" fill="#FEFFFF" transform="matrix(1.00, 0.00, -0.00, -1.00, 553.2, 186.9)"> </text><text xml:space="preserve" font-family="Courier,Courier" font-size="30.0" fill="#FEFFFF" transform="matrix(1.00, 0.00, -0.00, -1.00, 571.2, 186.9)">r</text><text xml:space="preserve" font-family="Courier,Courier" font-size="30.0" fill="#FEFFFF" transform="matrix(1.00, 0.00, -0.00, -1.00, 589.2, 186.9)">e</text><text xml:space="preserve" font-family="Courier,Courier" font-size="30.0" fill="#FEFFFF" transform="matrix(1.00, 0.00, -0.00, -1.00, 607.2, 186.9)">t</text><text xml:space="preserve" font-family="Courier,Courier" font-size="30.0" fill="#FEFFFF" transform="matrix(1.00, 0.00, -0.00, -1.00, 625.2, 186.9)">u</text><text xml:space="preserve" font-family="Courier,Courier" font-size="30.0" fill="#FEFFFF" transform="matrix(1.00, 0.00, -0.00, -1.00, 643.2, 186.9)">r</text><text xml:space="preserve" font-family="Courier,Courier" font-size="30.0" fill="#FEFFFF" transform="matrix(1.00, 0.00, -0.00, -1.00, 661.2, 186.9)">n</text><text xml:space="preserve" font-family="Courier,Courier" font-size="30.0" fill="#FEFFFF" transform="matrix(1.00, 0.00, -0.00, -1.00, 679.2, 186.9)"> </text><text xml:space="preserve" font-family="Courier,Courier" font-size="30.0" fill="#FEFFFF" transform="matrix(1.00, 0.00, -0.00, -1.00, 697.2, 186.9)">a</text><text xml:space="preserve" font-family="Courier,Courier" font-size="30.0" fill="#FEFFFF" transform="matrix(1.00, 0.00, -0.00, -1.00, 715.3, 186.9)"> </text><text xml:space="preserve" font-family="Courier,Courier" font-size="30.0" fill="#FEFFFF" transform="matrix(1.00, 0.00, -0.00, -1.00, 733.3, 186.9)">v</text><text xml:space="preserve" font-family="Courier,Courier" font-size="30.0" fill="#FEFFFF" transform="matrix(1.00, 0.00, -0.00, -1.00, 751.3, 186.9)">a</text><text xml:space="preserve" font-family="Courier,Courier" font-size="30.0" fill="#FEFFFF" transform="matrix(1.00, 0.00, -0.00, -1.00, 769.3, 186.9)">l</text><text xml:space="preserve" font-family="Courier,Courier" font-size="30.0" fill="#FEFFFF" transform="matrix(1.00, 0.00, -0.00, -1.00, 787.3, 186.9)">u</text><text xml:space="preserve" font-family="Courier,Courier" font-size="30.0" fill="#FEFFFF" transform="matrix(1.00, 0.00, -0.00, -1.00, 805.3, 186.9)">e</text><text xml:space="preserve" font-family="Courier,Courier" font-size="30.0" fill="#FEFFFF" transform="matrix(1.00, 0.00, -0.00, -1.00, 85.0, 141.3)"> </text><text xml:space="preserve" font-family="Courier,Courier" font-size="30.0" fill="#FEFFFF" transform="matrix(1.00, 0.00, -0.00, -1.00, 103.0, 141.3)"> </text><text xml:space="preserve" font-family="Courier,Courier" font-size="30.0" fill="#FEFFFF" transform="matrix(1.00, 0.00, -0.00, -1.00, 121.1, 141.3)">c</text><text xml:space="preserve" font-family="Courier,Courier" font-size="30.0" fill="#FEFFFF" transform="matrix(1.00, 0.00, -0.00, -1.00, 139.1, 141.3)">o</text><text xml:space="preserve" font-family="Courier,Courier" font-size="30.0" fill="#FEFFFF" transform="matrix(1.00, 0.00, -0.00, -1.00, 157.1, 141.3)">n</text><text xml:space="preserve" font-family="Courier,Courier" font-size="30.0" fill="#FEFFFF" transform="matrix(1.00, 0.00, -0.00, -1.00, 175.1, 141.3)">s</text><text xml:space="preserve" font-family="Courier,Courier" font-size="30.0" fill="#FEFFFF" transform="matrix(1.00, 0.00, -0.00, -1.00, 193.1, 141.3)">o</text><text xml:space="preserve" font-family="Courier,Courier" font-size="30.0" fill="#FEFFFF" transform="matrix(1.00, 0.00, -0.00, -1.00, 211.1, 141.3)">l</text><text xml:space="preserve" font-family="Courier,Courier" font-size="30.0" fill="#FEFFFF" transform="matrix(1.00, 0.00, -0.00, -1.00, 229.1, 141.3)">e</text><text xml:space="preserve" font-family="Courier,Courier" font-size="30.0" fill="#FEFFFF" transform="matrix(1.00, 0.00, -0.00, -1.00, 247.1, 141.3)">.</text><text xml:space="preserve" font-family="Courier,Courier" font-size="30.0" fill="#FEFFFF" transform="matrix(1.00, 0.00, -0.00, -1.00, 265.1, 141.3)">l</text><text xml:space="preserve" font-family="Courier,Courier" font-size="30.0" fill="#FEFFFF" transform="matrix(1.00, 0.00, -0.00, -1.00, 283.1, 141.3)">o</text><text xml:space="preserve" font-family="Courier,Courier" font-size="30.0" fill="#FEFFFF" transform="matrix(1.00, 0.00, -0.00, -1.00, 301.1, 141.3)">g</text><text xml:space="preserve" font-family="Courier,Courier" font-size="30.0" fill="#FEFFFF" transform="matrix(1.00, 0.00, -0.00, -1.00, 319.1, 141.3)">(</text><text xml:space="preserve" font-family="Courier,Courier" font-size="30.0" fill="#00A6AC" transform="matrix(1.00, 0.00, -0.00, -1.00, 337.1, 141.3)">v</text><text xml:space="preserve" font-family="Courier,Courier" font-size="30.0" fill="#00A6AC" transform="matrix(1.00, 0.00, -0.00, -1.00, 355.1, 141.3)">a</text><text xml:space="preserve" font-family="Courier,Courier" font-size="30.0" fill="#00A6AC" transform="matrix(1.00, 0.00, -0.00, -1.00, 373.1, 141.3)">l</text><text xml:space="preserve" font-family="Courier,Courier" font-size="30.0" fill="#FEFFFF" transform="matrix(1.00, 0.00, -0.00, -1.00, 391.1, 141.3)"> </text><text xml:space="preserve" font-family="Courier,Courier" font-size="30.0" fill="#FEFFFF" transform="matrix(1.00, 0.00, -0.00, -1.00, 409.1, 141.3)">=</text><text xml:space="preserve" font-family="Courier,Courier" font-size="30.0" fill="#FEFFFF" transform="matrix(1.00, 0.00, -0.00, -1.00, 427.1, 141.3)">=</text><text xml:space="preserve" font-family="Courier,Courier" font-size="30.0" fill="#FEFFFF" transform="matrix(1.00, 0.00, -0.00, -1.00, 445.1, 141.3)">=</text><text xml:space="preserve" font-family="Courier,Courier" font-size="30.0" fill="#FEFFFF" transform="matrix(1.00, 0.00, -0.00, -1.00, 463.1, 141.3)"> </text><text xml:space="preserve" font-family="Courier,Courier" font-size="30.0" fill="#00A6AC" transform="matrix(1.00, 0.00, -0.00, -1.00, 481.1, 141.3)">u</text><text xml:space="preserve" font-family="Courier,Courier" font-size="30.0" fill="#00A6AC" transform="matrix(1.00, 0.00, -0.00, -1.00, 499.1, 141.3)">n</text><text xml:space="preserve" font-family="Courier,Courier" font-size="30.0" fill="#00A6AC" transform="matrix(1.00, 0.00, -0.00, -1.00, 517.1, 141.3)">d</text><text xml:space="preserve" font-family="Courier,Courier" font-size="30.0" fill="#00A6AC" transform="matrix(1.00, 0.00, -0.00, -1.00, 535.1, 141.3)">e</text><text xml:space="preserve" font-family="Courier,Courier" font-size="30.0" fill="#00A6AC" transform="matrix(1.00, 0.00, -0.00, -1.00, 553.1, 141.3)">f</text><text xml:space="preserve" font-family="Courier,Courier" font-size="30.0" fill="#00A6AC" transform="matrix(1.00, 0.00, -0.00, -1.00, 571.1, 141.3)">i</text><text xml:space="preserve" font-family="Courier,Courier" font-size="30.0" fill="#00A6AC" transform="matrix(1.00, 0.00, -0.00, -1.00, 589.1, 141.3)">n</text><text xml:space="preserve" font-family="Courier,Courier" font-size="30.0" fill="#00A6AC" transform="matrix(1.00, 0.00, -0.00, -1.00, 607.1, 141.3)">e</text><text xml:space="preserve" font-family="Courier,Courier" font-size="30.0" fill="#00A6AC" transform="matrix(1.00, 0.00, -0.00, -1.00, 625.2, 141.3)">d</text><text xml:space="preserve" font-family="Courier,Courier" font-size="30.0" fill="#FEFFFF" transform="matrix(1.00, 0.00, -0.00, -1.00, 643.1, 141.3)">)</text><text xml:space="preserve" font-family="Courier,Courier" font-size="30.0" fill="#FEFFFF" transform="matrix(1.00, 0.00, -0.00, -1.00, 85.0, 95.7)">}</text><text xml:space="preserve" font-family="Courier,Courier" font-size="30.0" fill="#FEFFFF" transform="matrix(1.00, 0.00, -0.00, -1.00, 103.0, 95.7)">)</text></g></svg>